<?xml version="1.0" encoding="UTF-8" standalone="no"?>
<!-- Generator: Adobe Illustrator 16.0.0, SVG Export Plug-In . SVG Version: 6.00 Build 0)  -->

<svg
   xmlns:dc="http://purl.org/dc/elements/1.1/"
   xmlns:cc="http://creativecommons.org/ns#"
   xmlns:rdf="http://www.w3.org/1999/02/22-rdf-syntax-ns#"
   xmlns:svg="http://www.w3.org/2000/svg"
   xmlns="http://www.w3.org/2000/svg"
   xmlns:sodipodi="http://sodipodi.sourceforge.net/DTD/sodipodi-0.dtd"
   xmlns:inkscape="http://www.inkscape.org/namespaces/inkscape"
   version="1.1"
   id="Layer_1"
   x="0px"
   y="0px"
   width="40"
   height="40"
   viewBox="0 0 40 40"
   enable-background="new 0 0 512 512"
   xml:space="preserve"
   sodipodi:docname="facebook.svg"
   inkscape:version="0.92.2 (5c3e80d, 2017-08-06)"><metadata
     id="metadata13573"><rdf:RDF><cc:Work
         rdf:about=""><dc:format>image/svg+xml</dc:format><dc:type
           rdf:resource="http://purl.org/dc/dcmitype/StillImage" /><dc:title></dc:title></cc:Work></rdf:RDF></metadata><defs
     id="defs13571" /><sodipodi:namedview
     pagecolor="#ffffff"
     bordercolor="#666666"
     borderopacity="1"
     objecttolerance="10"
     gridtolerance="10"
     guidetolerance="10"
     inkscape:pageopacity="0"
     inkscape:pageshadow="2"
     inkscape:window-width="1366"
     inkscape:window-height="705"
     id="namedview13569"
     showgrid="false"
     inkscape:zoom="7.375"
     inkscape:cx="29.012654"
     inkscape:cy="20.035581"
     inkscape:window-x="-8"
     inkscape:window-y="-8"
     inkscape:window-maximized="1"
     inkscape:current-layer="Layer_1"
     inkscape:pagecheckerboard="true" /><path
     d="M 26.624231,10.753389 H 13.829884 c -1.662682,0 -3.127345,1.208011 -3.127345,2.870691 v 12.794349 c 0,1.662681 1.464663,3.150178 3.127345,3.150178 h 7.921847 c -0.01484,-2.466072 0.0035,-5.212271 -0.0084,-7.598561 -0.505271,-0.0051 -1.010999,-0.03124 -1.516269,-0.039 0.0019,-0.843351 7.86e-4,-1.704195 0.0011,-2.547408 0.504953,-0.0062 1.010222,-0.0074 1.515174,-0.01223 0.01544,-0.820061 -0.01544,-1.64519 0.01616,-2.464519 0.05039,-0.648716 0.297708,-1.304416 0.782748,-1.752603 0.587246,-0.55893 1.422193,-0.748819 2.209738,-0.772336 0.832665,-0.0074 1.66542,-0.0035 2.498496,-0.0032 0.0034,0.878653 0.0034,1.757398 -3.66e-4,2.636049 -0.538378,-9.33e-4 -1.077079,0.0011 -1.615458,-0.0012 -0.341049,-0.02132 -0.691644,0.237382 -0.753706,0.575827 -0.008,0.587975 -0.0031,1.176272 -0.0026,1.764064 0.789372,0.0034 1.579064,-9.33e-4 2.368434,0.002 -0.05771,0.850751 -0.163537,1.697388 -0.287024,2.54083 -0.697442,0.0062 -1.395339,0.06913 -2.092415,0.07316 -0.0059,2.385514 0.0019,5.132857 -0.0042,7.598928 h 1.761139 c 1.662681,0 2.893525,-1.487498 2.893525,-3.150179 V 13.62408 c 4.7e-5,-1.66268 -1.230797,-2.870691 -2.893477,-2.870691 z"
     id="path13566"
     style="fill:#635c45;fill-opacity:1;stroke-width:0.04566802"
     inkscape:connector-curvature="0" /><path
     style="fill:#635c45;fill-opacity:1;fill-rule:evenodd;stroke-width:1.2000066"
     d="M 20.280829,0.63641046 A 19.525529,19.525529 0 0 0 0.5875464,19.817277 19.525529,19.525529 0 0 0 19.59504,39.680079 19.525529,19.525529 0 0 0 39.62351,20.847886 l 0.01155,-0.687715 A 19.525529,19.525529 0 0 0 20.280829,0.63641046 Z M 20.257713,3.3102122 A 16.850709,16.850709 0 0 1 36.961266,20.160171 l -0.01155,0.591397 A 16.850709,16.850709 0 0 1 19.666316,37.006277 16.850709,16.850709 0 0 1 3.2613481,19.865437 16.850709,16.850709 0 0 1 20.257711,3.3102122 Z"
     id="path14118"
     inkscape:connector-curvature="0" /></svg>