<?xml version="1.0" encoding="UTF-8" standalone="no"?>
<!-- Created with Inkscape (http://www.inkscape.org/) -->

<svg
   xmlns:dc="http://purl.org/dc/elements/1.1/"
   xmlns:cc="http://creativecommons.org/ns#"
   xmlns:rdf="http://www.w3.org/1999/02/22-rdf-syntax-ns#"
   xmlns:svg="http://www.w3.org/2000/svg"
   xmlns="http://www.w3.org/2000/svg"
   xmlns:xlink="http://www.w3.org/1999/xlink"
   xmlns:sodipodi="http://sodipodi.sourceforge.net/DTD/sodipodi-0.dtd"
   xmlns:inkscape="http://www.inkscape.org/namespaces/inkscape"
   width="198"
   height="79"
   viewBox="0 0 52.387506 20.902083"
   version="1.1"
   id="svg12722"
   sodipodi:docname="logo5alt.svg"
   inkscape:version="0.92.2 (5c3e80d, 2017-08-06)">
  <defs
     id="defs12716">
    <linearGradient
       inkscape:collect="always"
       xlink:href="#linearGradient1562"
       id="linearGradient20271"
       gradientUnits="userSpaceOnUse"
       x1="17.44602"
       y1="2.1249075"
       x2="23.164778"
       y2="9.0882597"
       gradientTransform="matrix(-1.5648403,0,0,1.0807147,79.977739,285.1)" />
    <linearGradient
       id="linearGradient1562"
       inkscape:collect="always">
      <stop
         id="stop1558"
         offset="0"
         style="stop-color:#806600;stop-opacity:1" />
      <stop
         id="stop1560"
         offset="1"
         style="stop-color:#f9d493;stop-opacity:1" />
    </linearGradient>
    <linearGradient
       inkscape:collect="always"
       xlink:href="#linearGradient1562"
       id="linearGradient20269"
       gradientUnits="userSpaceOnUse"
       x1="14.403028"
       y1="-3.0855463"
       x2="22.029694"
       y2="7.2698464"
       gradientTransform="matrix(-1.5648403,0,0,1.0807147,79.977739,285.1)" />
    <linearGradient
       inkscape:collect="always"
       xlink:href="#linearGradient1562"
       id="linearGradient20195"
       gradientUnits="userSpaceOnUse"
       x1="17.44602"
       y1="2.1249075"
       x2="23.164778"
       y2="9.0882597"
       gradientTransform="matrix(1.8402734,0,0,1.2709351,-32.230675,273.64974)" />
    <linearGradient
       inkscape:collect="always"
       xlink:href="#linearGradient1562"
       id="linearGradient20193"
       gradientUnits="userSpaceOnUse"
       x1="14.403028"
       y1="-3.0855463"
       x2="22.029694"
       y2="7.2698464"
       gradientTransform="matrix(1.8402734,0,0,1.2709351,-32.230675,273.64974)" />
  </defs>
  <sodipodi:namedview
     id="base"
     pagecolor="#ffffff"
     bordercolor="#666666"
     borderopacity="1.0"
     inkscape:pageopacity="0.0"
     inkscape:pageshadow="2"
     inkscape:zoom="2.8"
     inkscape:cx="114.22458"
     inkscape:cy="24.954612"
     inkscape:document-units="px"
     inkscape:current-layer="layer1"
     showgrid="false"
     units="px"
     inkscape:pagecheckerboard="true"
     inkscape:window-width="1366"
     inkscape:window-height="705"
     inkscape:window-x="-8"
     inkscape:window-y="-8"
     inkscape:window-maximized="1" />
  <metadata
     id="metadata12719">
    <rdf:RDF>
      <cc:Work
         rdf:about="">
        <dc:format>image/svg+xml</dc:format>
        <dc:type
           rdf:resource="http://purl.org/dc/dcmitype/StillImage" />
        <dc:title></dc:title>
      </cc:Work>
    </rdf:RDF>
  </metadata>
  <g
     inkscape:label="Layer 1"
     inkscape:groupmode="layer"
     id="layer1"
     transform="translate(0,-276.09791)">
    <path
       inkscape:connector-curvature="0"
       style="opacity:0.98659997;fill:#81785a;fill-opacity:1;stroke:#635c45;stroke-width:0.10525665;stroke-linecap:butt;stroke-linejoin:miter;stroke-miterlimit:4;stroke-dasharray:none;stroke-opacity:1"
       d="m 44.040713,242.93624 c -1.109172,-0.56937 -2.434238,-1.58284 -3.454375,-2.50835 l -4.283282,2.73638 c 0,0 -1.809822,-1.04995 -2.557141,-1.6083 -2.872008,2.36333 -7.892512,4.78767 -11.504567,5.94025 8.334904,-2.24842 6.586173,-3.00635 11.931392,-3.31717 -0.584369,-0.0971 -2.130085,-0.39549 -2.108987,-0.64313 0,0 1.986443,-1.01706 1.986775,-1.01704 0,0 1.23873,1.13498 6.37157,3.71541 l -3.460075,-2.55792 c 0.286108,-0.49801 2.031636,-0.51136 3.71227,-0.32638 0.169338,-0.25187 -2.26844,-0.78591 -2.26844,-0.78591 0,0 1.896963,-1.3744 2.143924,-1.18194 0.008,-0.0575 0.662365,0.52537 7.867091,4.85907 -0.42067,-0.93335 -3.511972,-2.88954 -3.511972,-2.88954 0.694286,-1.19097 2.985813,-0.71752 3.873465,-0.80668 -1.615647,-0.39732 -2.497905,-0.45722 -2.497905,-0.45722 0.718946,-0.91904 1.527311,-1.57114 1.527311,-1.57114 1.406441,0.97318 10.241479,7.18405 12.387824,6.9158 -0.62353,0.33837 -9.27317,-4.44278 -12.342703,-7.84043 -1.367604,0.90483 -2.557693,2.24006 -3.812175,3.34432 z"
       id="path1461"
       sodipodi:nodetypes="ccccccscccccccccsccccc" />
    <path
       inkscape:connector-curvature="0"
       id="path4874"
       style="font-style:normal;font-variant:normal;font-weight:bold;font-stretch:normal;font-size:4.01516056px;line-height:1.25;font-family:Brixton;-inkscape-font-specification:'Brixton, Bold';font-variant-ligatures:normal;font-variant-caps:normal;font-variant-numeric:normal;font-feature-settings:normal;text-align:start;letter-spacing:0px;word-spacing:0px;writing-mode:lr-tb;text-anchor:start;fill:#7a0000;fill-opacity:1;stroke:none;stroke-width:0.09394473;stroke-opacity:1"
       d="m 3.4059961,250.95404 v 0.71265 H 2.0426758 v 4.70965 H 1.330034 v -4.70965 h -1.35557394 v -0.71265 z" />
    <path
       inkscape:connector-curvature="0"
       id="path4876"
       style="font-style:normal;font-variant:normal;font-weight:bold;font-stretch:normal;font-size:4.01516056px;line-height:1.25;font-family:Brixton;-inkscape-font-specification:'Brixton, Bold';font-variant-ligatures:normal;font-variant-caps:normal;font-variant-numeric:normal;font-feature-settings:normal;text-align:start;letter-spacing:0px;word-spacing:0px;writing-mode:lr-tb;text-anchor:start;fill:#7a0000;fill-opacity:1;stroke:none;stroke-width:0.09394473;stroke-opacity:1"
       d="m 9.4222505,256.39958 q -0.5887057,0 -1.0922048,-0.21689 -0.4957505,-0.22463 -0.8675651,-0.59645 -0.3640684,-0.37181 -0.5732134,-0.86756 -0.2013987,-0.49576 -0.2013987,-1.05348 0,-0.58096 0.2013987,-1.08446 0.2091519,-0.5035 0.5732134,-0.86756 0.3718146,-0.37182 0.8675651,-0.58096 0.5034991,-0.20915 1.0922048,-0.20915 0.557721,0 1.0534745,0.20915 0.495753,0.20914 0.867567,0.58096 0.371815,0.36406 0.588706,0.86756 0.224635,0.5035 0.224635,1.08446 0,0.55772 -0.224635,1.05348 -0.216882,0.49575 -0.588706,0.86756 -0.371814,0.37182 -0.867567,0.59645 -0.4957535,0.21689 -1.0534745,0.21689 z m 0,-4.7174 q -0.4182898,0 -0.7823581,0.15493 -0.3640684,0.14717 -0.6351836,0.41054 -0.263369,0.26337 -0.41829,0.62744 -0.1471725,0.36406 -0.1471725,0.7901 0,0.39505 0.1471725,0.75138 0.1549256,0.35632 0.41829,0.63518 0.2711152,0.27111 0.6351836,0.43378 0.3640683,0.15493 0.7823581,0.15493 0.395054,0 0.7513765,-0.15493 0.364068,-0.16268 0.635183,-0.43378 0.271113,-0.27886 0.426037,-0.63518 0.162678,-0.35633 0.162678,-0.75138 0,-0.42604 -0.162678,-0.7901 -0.162679,-0.36407 -0.441529,-0.62744 -0.271116,-0.26337 -0.627438,-0.41054 -0.3563225,-0.15493 -0.7436295,-0.15493 z" />
    <path
       inkscape:connector-curvature="0"
       id="path4878"
       style="font-style:normal;font-variant:normal;font-weight:bold;font-stretch:normal;font-size:4.01516056px;line-height:1.25;font-family:Brixton;-inkscape-font-specification:'Brixton, Bold';font-variant-ligatures:normal;font-variant-caps:normal;font-variant-numeric:normal;font-feature-settings:normal;text-align:start;letter-spacing:0px;word-spacing:0px;writing-mode:lr-tb;text-anchor:start;fill:#7a0000;fill-opacity:1;stroke:none;stroke-width:0.09394473;stroke-opacity:1"
       d="m 18.382033,256.37634 -1.47951,-2.29286 h -0.759122 v 2.29286 h -0.704897 v -5.4223 h 1.479509 q 0.286608,0 0.56547,0.1162 0.286605,0.10844 0.511243,0.31759 0.224635,0.2014 0.364068,0.49575 0.139419,0.28661 0.139419,0.65067 0,0.44153 -0.216882,0.8056 -0.209151,0.35632 -0.604198,0.55772 l 1.611197,2.47877 z m -1.440781,-3.05198 q 0.185916,0 0.325339,-0.0697 0.147173,-0.0775 0.240131,-0.19364 0.100699,-0.11619 0.154925,-0.25562 0.05423,-0.13945 0.05423,-0.27112 0,-0.22463 -0.08522,-0.37956 -0.08522,-0.15493 -0.209152,-0.25562 -0.116183,-0.1007 -0.255623,-0.13942 -0.131689,-0.0465 -0.224635,-0.0465 h -0.797851 v 1.61119 z" />
    <path
       inkscape:connector-curvature="0"
       id="path4880"
       style="font-style:normal;font-variant:normal;font-weight:bold;font-stretch:normal;font-size:4.01516056px;line-height:1.25;font-family:Brixton;-inkscape-font-specification:'Brixton, Bold';font-variant-ligatures:normal;font-variant-caps:normal;font-variant-numeric:normal;font-feature-settings:normal;text-align:start;letter-spacing:0px;word-spacing:0px;writing-mode:lr-tb;text-anchor:start;fill:#7a0000;fill-opacity:1;stroke:none;stroke-width:0.09394473;stroke-opacity:1"
       d="m 23.329315,251.69767 v 1.57247 h 1.804851 v 0.69715 h -1.804851 v 1.65767 h 2.184412 v 0.75138 h -2.94353 v -5.43004 h 2.94353 v 0.75137 z" />
    <path
       inkscape:connector-curvature="0"
       id="path4882"
       style="font-style:normal;font-variant:normal;font-weight:bold;font-stretch:normal;font-size:4.01516056px;line-height:1.25;font-family:Brixton;-inkscape-font-specification:'Brixton, Bold';font-variant-ligatures:normal;font-variant-caps:normal;font-variant-numeric:normal;font-feature-settings:normal;text-align:start;letter-spacing:0px;word-spacing:0px;writing-mode:lr-tb;text-anchor:start;fill:#7a0000;fill-opacity:1;stroke:none;stroke-width:0.09394473;stroke-opacity:1"
       d="m 28.795595,256.37634 v -5.70116 l 2.347075,2.42454 q 0.371814,-0.37956 0.759122,-0.75912 0.387307,-0.38731 0.759121,-0.78236 0.154926,-0.17816 0.348576,-0.37181 0.193646,-0.19365 0.356322,-0.36407 l 0.147173,-0.17816 v 5.73214 H 32.76935 v -3.84209 l -1.611195,1.64993 -1.611196,-1.66542 v 3.85758 z" />
    <path
       inkscape:connector-curvature="0"
       id="path4884"
       style="font-style:normal;font-variant:normal;font-weight:bold;font-stretch:normal;font-size:4.01516056px;line-height:1.25;font-family:Brixton;-inkscape-font-specification:'Brixton, Bold';font-variant-ligatures:normal;font-variant-caps:normal;font-variant-numeric:normal;font-feature-settings:normal;text-align:start;letter-spacing:0px;word-spacing:0px;writing-mode:lr-tb;text-anchor:start;fill:#7a0000;fill-opacity:1;stroke:none;stroke-width:0.09394473;stroke-opacity:1"
       d="m 44.463993,256.37634 -1.479512,-2.29286 h -0.759122 v 2.29286 h -0.704897 v -5.4223 h 1.479509 q 0.286608,0 0.56547,0.1162 0.286608,0.10844 0.511245,0.31759 0.224635,0.2014 0.364066,0.49575 0.139419,0.28661 0.139419,0.65067 0,0.44153 -0.216882,0.8056 -0.209152,0.35632 -0.604198,0.55772 l 1.611194,2.47877 z m -1.44078,-3.05198 q 0.185892,0 0.325334,-0.0697 0.147173,-0.0775 0.24013,-0.19364 0.1007,-0.11619 0.154926,-0.25562 0.05423,-0.13945 0.05423,-0.27112 0,-0.22463 -0.08522,-0.37956 -0.08522,-0.15493 -0.209152,-0.25562 -0.116205,-0.1007 -0.255622,-0.13945 -0.131689,-0.0465 -0.224636,-0.0465 h -0.797846 v 1.6112 z" />
    <path
       inkscape:connector-curvature="0"
       id="path4886"
       style="font-style:normal;font-variant:normal;font-weight:bold;font-stretch:normal;font-size:4.01516056px;line-height:1.25;font-family:Brixton;-inkscape-font-specification:'Brixton, Bold';font-variant-ligatures:normal;font-variant-caps:normal;font-variant-numeric:normal;font-feature-settings:normal;text-align:start;letter-spacing:0px;word-spacing:0px;writing-mode:lr-tb;text-anchor:start;fill:#7a0000;fill-opacity:1;stroke:none;stroke-width:0.09394473;stroke-opacity:1"
       d="m 49.411275,251.69767 v 1.57247 h 1.804851 v 0.69715 h -1.804851 v 1.65767 h 2.184412 v 0.75138 h -2.943532 v -5.43004 h 2.943532 v 0.75137 z" />
    <path
       inkscape:connector-curvature="0"
       id="path4888"
       style="font-style:normal;font-variant:normal;font-weight:bold;font-stretch:normal;font-size:4.01516056px;line-height:1.25;font-family:Brixton;-inkscape-font-specification:'Brixton, Bold';font-variant-ligatures:normal;font-variant-caps:normal;font-variant-numeric:normal;font-feature-settings:normal;text-align:start;letter-spacing:0px;word-spacing:0px;writing-mode:lr-tb;text-anchor:start;fill:#7a0000;fill-opacity:1;stroke:none;stroke-width:0.09394473;stroke-opacity:1"
       d="m 56.821787,256.42281 q -0.418293,0 -0.782361,-0.1007 -0.356322,-0.10845 -0.588703,-0.21688 -0.13942,-0.0542 -0.278862,-0.13169 -0.139419,-0.0775 -0.224635,-0.13944 h 0.0078 l -0.07746,-0.0465 0.309844,-0.6042 0.348574,0.17816 v -0.008 q 0.247876,0.11618 0.588706,0.23238 0.348578,0.10846 0.7049,0.10846 0.247874,0 0.457021,-0.062 0.216882,-0.0697 0.356322,-0.15493 0.224636,-0.22463 0.224636,-0.57321 0,-0.34083 -0.34083,-0.56547 -0.317565,-0.22463 -0.844301,-0.41054 -0.286608,-0.13168 -0.565469,-0.26336 -0.27886,-0.13942 -0.526736,-0.32534 -0.542231,-0.45702 -0.542231,-1.05347 0,-0.32534 0.13169,-0.55773 0.06973,-0.13168 0.154925,-0.24013 0.09295,-0.11619 0.209152,-0.21689 0.46477,-0.37181 1.192904,-0.37181 0.371815,0 0.681662,0.0775 0.31759,0.0697 0.518989,0.14718 h -0.0078 q 0.09295,0.0232 0.170409,0.0542 0.08522,0.0232 0.170409,0.0542 l -0.356333,0.65073 q -0.224636,-0.0852 -0.542231,-0.16268 -0.309844,-0.0852 -0.635184,-0.0852 -0.108429,0 -0.294351,0.031 -0.185893,0.0232 -0.34083,0.11618 -0.3021,0.16265 -0.3021,0.53448 0,0.12394 0.08522,0.23238 0.09295,0.10846 0.240128,0.20916 0.154925,0.0929 0.348578,0.18591 0.193645,0.093 0.402799,0.18592 l 0.123936,0.0542 q 0.255623,0.11619 0.542231,0.25563 0.286605,0.13941 0.526735,0.33308 0.278862,0.22463 0.441529,0.51899 0.162679,0.29435 0.162679,0.62744 0,0.34857 -0.170409,0.64293 -0.162679,0.2866 -0.441529,0.49575 -0.247879,0.15492 -0.580959,0.25562 -0.32534,0.1007 -0.658423,0.10845 z" />
    <path
       inkscape:connector-curvature="0"
       id="path4890"
       style="font-style:normal;font-variant:normal;font-weight:bold;font-stretch:normal;font-size:4.01516056px;line-height:1.25;font-family:Brixton;-inkscape-font-specification:'Brixton, Bold';font-variant-ligatures:normal;font-variant-caps:normal;font-variant-numeric:normal;font-feature-settings:normal;text-align:start;letter-spacing:0px;word-spacing:0px;writing-mode:lr-tb;text-anchor:start;fill:#7a0000;fill-opacity:1;stroke:none;stroke-width:0.09394473;stroke-opacity:1"
       d="m 64.689396,256.39958 q -0.588706,0 -1.092205,-0.21689 -0.495753,-0.22463 -0.867565,-0.59645 -0.364071,-0.37181 -0.573216,-0.86756 -0.201399,-0.49576 -0.201399,-1.05348 0,-0.58096 0.201399,-1.08446 0.209152,-0.5035 0.573216,-0.86756 0.371812,-0.37182 0.867565,-0.58096 0.503499,-0.20915 1.092205,-0.20915 0.55772,0 1.053473,0.20915 0.495753,0.20914 0.867568,0.58096 0.371814,0.36406 0.588706,0.86756 0.224635,0.5035 0.224635,1.08446 0,0.55772 -0.224635,1.05348 -0.216882,0.49575 -0.588706,0.86756 -0.371815,0.37182 -0.867568,0.59645 -0.495753,0.21689 -1.053473,0.21689 z m 0,-4.7174 q -0.41829,0 -0.782361,0.15493 -0.364068,0.14717 -0.635181,0.41054 -0.263369,0.26337 -0.418293,0.62744 -0.147172,0.36406 -0.147172,0.7901 0,0.39505 0.147172,0.75138 0.154926,0.35632 0.418293,0.63518 0.271113,0.27111 0.635181,0.43378 0.364071,0.15493 0.782361,0.15493 0.395051,0 0.751375,-0.15493 0.364066,-0.16268 0.635181,-0.43378 0.271116,-0.27886 0.426039,-0.63518 0.162679,-0.35633 0.162679,-0.75138 0,-0.42604 -0.162679,-0.7901 -0.162679,-0.36407 -0.441529,-0.62744 -0.271115,-0.26337 -0.627437,-0.41054 -0.356324,-0.15493 -0.743629,-0.15493 z" />
    <path
       inkscape:connector-curvature="0"
       id="path4892"
       style="font-style:normal;font-variant:normal;font-weight:bold;font-stretch:normal;font-size:4.01516056px;line-height:1.25;font-family:Brixton;-inkscape-font-specification:'Brixton, Bold';font-variant-ligatures:normal;font-variant-caps:normal;font-variant-numeric:normal;font-feature-settings:normal;text-align:start;letter-spacing:0px;word-spacing:0px;writing-mode:lr-tb;text-anchor:start;fill:#7a0000;fill-opacity:1;stroke:none;stroke-width:0.09394473;stroke-opacity:1"
       d="m 73.649178,256.37634 -1.47951,-2.29286 h -0.759122 v 2.29286 h -0.704898 v -5.4223 h 1.479512 q 0.286606,0 0.565467,0.1162 0.286608,0.10844 0.511243,0.31759 0.224636,0.2014 0.364071,0.49575 0.139419,0.28661 0.139419,0.65067 0,0.44153 -0.216882,0.8056 -0.209152,0.35632 -0.604196,0.55772 l 1.611194,2.47877 z m -1.440781,-3.05198 q 0.185892,0 0.325339,-0.0697 0.147172,-0.0775 0.24013,-0.19364 0.100699,-0.11619 0.154926,-0.25562 0.05423,-0.13945 0.05423,-0.27112 0,-0.22463 -0.08522,-0.37956 -0.08522,-0.15493 -0.209152,-0.25562 -0.116206,-0.1007 -0.255623,-0.13945 -0.131689,-0.0465 -0.224635,-0.0465 h -0.797846 v 1.6112 z" />
    <path
       inkscape:connector-curvature="0"
       id="path4894"
       style="font-style:normal;font-variant:normal;font-weight:bold;font-stretch:normal;font-size:4.01516056px;line-height:1.25;font-family:Brixton;-inkscape-font-specification:'Brixton, Bold';font-variant-ligatures:normal;font-variant-caps:normal;font-variant-numeric:normal;font-feature-settings:normal;text-align:start;letter-spacing:0px;word-spacing:0px;writing-mode:lr-tb;text-anchor:start;fill:#7a0000;fill-opacity:1;stroke:none;stroke-width:0.09394473;stroke-opacity:1"
       d="m 81.268883,250.95404 v 0.71265 h -1.363321 v 4.70965 h -0.712644 v -4.70965 h -1.355571 v -0.71265 z" />
    <path
       style="fill:#7a0000;fill-opacity:1;fill-rule:evenodd;stroke:none;stroke-width:0.37122887;stroke-opacity:1"
       id="path3671"
       sodipodi:type="arc"
       sodipodi:cx="37.516724"
       sodipodi:cy="253.40556"
       sodipodi:rx="0.72187066"
       sodipodi:ry="0.72187066"
       sodipodi:start="0.035094033"
       sodipodi:end="0"
       sodipodi:open="true"
       d="m 38.23815,253.43089 a 0.72187066,0.72187066 0 0 1 -0.740424,0.69629 0.72187066,0.72187066 0 0 1 -0.702762,-0.73428 0.72187066,0.72187066 0 0 1 0.728093,-0.70918 0.72187066,0.72187066 0 0 1 0.715537,0.72184" />
    <path
       inkscape:connector-curvature="0"
       id="path5191"
       d="m -0.77374581,248.84225 v 0.26327 H 82.017087 v -0.26327 z"
       style="opacity:0.76000007;fill:#635c45;fill-opacity:1;stroke:none;stroke-width:0.19934823;stroke-linecap:square;stroke-linejoin:miter;stroke-miterlimit:4;stroke-dasharray:none;stroke-dashoffset:0;stroke-opacity:1" />
    <g
       id="g16964"
       transform="translate(-0.60136846,-36.615921)"
       style="fill:#a89c80;fill-opacity:0.97340423">
      <path
         sodipodi:type="star"
         style="opacity:0.76000007;fill:#a89c80;fill-opacity:0.97340423;stroke:none;stroke-width:0.06402916;stroke-linecap:round;stroke-linejoin:round;stroke-miterlimit:4;stroke-dasharray:none;stroke-dashoffset:2.29999995;stroke-opacity:1"
         id="path16730"
         sodipodi:sides="5"
         sodipodi:cx="40.821423"
         sodipodi:cy="295.01562"
         sodipodi:r1="2.028873"
         sodipodi:r2="0.64923936"
         sodipodi:arg1="0.52359878"
         sodipodi:arg2="1.1519173"
         inkscape:flatsided="false"
         inkscape:rounded="0"
         inkscape:randomized="0"
         d="m 42.578478,296.03006 -1.492986,-0.42133 -0.685896,1.39143 -0.06065,-1.55011 -1.53528,-0.22235 1.455501,-0.53669 -0.262959,-1.52885 0.960201,1.21841 1.372762,-0.72253 -0.862064,1.28972 z"
         inkscape:transform-center-x="-0.0042074839"
         inkscape:transform-center-y="-0.11083901"
         transform="matrix(0.53876889,0.24722313,-0.24722313,0.53876889,102.24964,126.4256)" />
      <path
         transform="matrix(0.53876889,0.24722313,-0.24722313,0.53876889,98.294043,126.4256)"
         inkscape:transform-center-y="-0.11083901"
         inkscape:transform-center-x="-0.0042074839"
         d="m 42.578478,296.03006 -1.492986,-0.42133 -0.685896,1.39143 -0.06065,-1.55011 -1.53528,-0.22235 1.455501,-0.53669 -0.262959,-1.52885 0.960201,1.21841 1.372762,-0.72253 -0.862064,1.28972 z"
         inkscape:randomized="0"
         inkscape:rounded="0"
         inkscape:flatsided="false"
         sodipodi:arg2="1.1519173"
         sodipodi:arg1="0.52359878"
         sodipodi:r2="0.64923936"
         sodipodi:r1="2.028873"
         sodipodi:cy="295.01562"
         sodipodi:cx="40.821423"
         sodipodi:sides="5"
         id="path16732"
         style="opacity:0.76000007;fill:#a89c80;fill-opacity:0.97340423;stroke:none;stroke-width:0.06402916;stroke-linecap:round;stroke-linejoin:round;stroke-miterlimit:4;stroke-dasharray:none;stroke-dashoffset:2.29999995;stroke-opacity:1"
         sodipodi:type="star" />
      <path
         sodipodi:type="star"
         style="opacity:0.76000007;fill:#a89c80;fill-opacity:0.97340423;stroke:none;stroke-width:0.06402916;stroke-linecap:round;stroke-linejoin:round;stroke-miterlimit:4;stroke-dasharray:none;stroke-dashoffset:2.29999995;stroke-opacity:1"
         id="path16734"
         sodipodi:sides="5"
         sodipodi:cx="40.821423"
         sodipodi:cy="295.01562"
         sodipodi:r1="2.028873"
         sodipodi:r2="0.64923936"
         sodipodi:arg1="0.52359878"
         sodipodi:arg2="1.1519173"
         inkscape:flatsided="false"
         inkscape:rounded="0"
         inkscape:randomized="0"
         d="m 42.578478,296.03006 -1.492986,-0.42133 -0.685896,1.39143 -0.06065,-1.55011 -1.53528,-0.22235 1.455501,-0.53669 -0.262959,-1.52885 0.960201,1.21841 1.372762,-0.72253 -0.862064,1.28972 z"
         inkscape:transform-center-x="-0.0042074839"
         inkscape:transform-center-y="-0.11083901"
         transform="matrix(0.53876889,0.24722313,-0.24722313,0.53876889,94.338451,126.4256)" />
      <path
         sodipodi:type="star"
         style="opacity:0.76000007;fill:#a89c80;fill-opacity:0.97340423;stroke:none;stroke-width:0.06402916;stroke-linecap:round;stroke-linejoin:round;stroke-miterlimit:4;stroke-dasharray:none;stroke-dashoffset:2.29999995;stroke-opacity:1"
         id="path16738"
         sodipodi:sides="5"
         sodipodi:cx="40.821423"
         sodipodi:cy="295.01562"
         sodipodi:r1="2.028873"
         sodipodi:r2="0.64923936"
         sodipodi:arg1="0.52359878"
         sodipodi:arg2="1.1519173"
         inkscape:flatsided="false"
         inkscape:rounded="0"
         inkscape:randomized="0"
         d="m 42.578478,296.03006 -1.492986,-0.42133 -0.685896,1.39143 -0.06065,-1.55011 -1.53528,-0.22235 1.455501,-0.53669 -0.262959,-1.52885 0.960201,1.21841 1.372762,-0.72253 -0.862064,1.28972 z"
         inkscape:transform-center-x="-0.0042074839"
         inkscape:transform-center-y="-0.11083901"
         transform="matrix(0.53876889,0.24722313,-0.24722313,0.53876889,90.382859,126.4256)" />
      <path
         transform="matrix(0.53876889,0.24722313,-0.24722313,0.53876889,86.427266,126.4256)"
         inkscape:transform-center-y="-0.11083901"
         inkscape:transform-center-x="-0.0042074839"
         d="m 42.578478,296.03006 -1.492986,-0.42133 -0.685896,1.39143 -0.06065,-1.55011 -1.53528,-0.22235 1.455501,-0.53669 -0.262959,-1.52885 0.960201,1.21841 1.372762,-0.72253 -0.862064,1.28972 z"
         inkscape:randomized="0"
         inkscape:rounded="0"
         inkscape:flatsided="false"
         sodipodi:arg2="1.1519173"
         sodipodi:arg1="0.52359878"
         sodipodi:r2="0.64923936"
         sodipodi:r1="2.028873"
         sodipodi:cy="295.01562"
         sodipodi:cx="40.821423"
         sodipodi:sides="5"
         id="path16740"
         style="opacity:0.76000007;fill:#a89c80;fill-opacity:0.97340423;stroke:none;stroke-width:0.06402916;stroke-linecap:round;stroke-linejoin:round;stroke-miterlimit:4;stroke-dasharray:none;stroke-dashoffset:2.29999995;stroke-opacity:1"
         sodipodi:type="star" />
      <path
         sodipodi:type="star"
         style="opacity:0.76000007;fill:#a89c80;fill-opacity:0.97340423;stroke:none;stroke-width:0.06402916;stroke-linecap:round;stroke-linejoin:round;stroke-miterlimit:4;stroke-dasharray:none;stroke-dashoffset:2.29999995;stroke-opacity:1"
         id="path16742"
         sodipodi:sides="5"
         sodipodi:cx="40.821423"
         sodipodi:cy="295.01562"
         sodipodi:r1="2.028873"
         sodipodi:r2="0.64923936"
         sodipodi:arg1="0.52359878"
         sodipodi:arg2="1.1519173"
         inkscape:flatsided="false"
         inkscape:rounded="0"
         inkscape:randomized="0"
         d="m 42.578478,296.03006 -1.492986,-0.42133 -0.685896,1.39143 -0.06065,-1.55011 -1.53528,-0.22235 1.455501,-0.53669 -0.262959,-1.52885 0.960201,1.21841 1.372762,-0.72253 -0.862064,1.28972 z"
         inkscape:transform-center-x="-0.0042074839"
         inkscape:transform-center-y="-0.11083901"
         transform="matrix(0.53876889,0.24722313,-0.24722313,0.53876889,82.471674,126.4256)" />
    </g>
    <path
       style="opacity:1;fill:#5f5641;fill-opacity:0.76078431;stroke:none;stroke-width:0.10434739;stroke-linecap:square;stroke-linejoin:miter;stroke-miterlimit:4;stroke-dasharray:none;stroke-dashoffset:0;stroke-opacity:1"
       d="m 54.083321,258.55685 v 0.27339 h 21.853387 v -0.27339 z"
       id="path16968"
       inkscape:connector-curvature="0" />
    <path
       inkscape:connector-curvature="0"
       id="path16972"
       d="m 5.7075406,258.55685 v 0.27339 H 27.560928 v -0.27339 z"
       style="opacity:1;fill:#5f5641;fill-opacity:0.76078431;stroke:none;stroke-width:0.10434739;stroke-linecap:square;stroke-linejoin:miter;stroke-miterlimit:4;stroke-dasharray:none;stroke-dashoffset:0;stroke-opacity:1" />
    <path
       d="m 21.81953,284.42579 q -0.937053,0 -1.667409,-0.41341 -0.716565,-0.41338 -1.116192,-1.17132 -0.385854,-0.75792 -0.385854,-1.75008 0,-1.07486 0.482307,-1.92923 0.496087,-0.86817 1.336681,-1.35046 0.854368,-0.4961 1.901668,-0.4961 0.950841,0 1.681191,0.41341 0.73036,0.4134 1.129986,1.17132 0.399621,0.74413 0.399621,1.7363 0,1.07487 -0.496088,1.94302 -0.482308,0.85438 -1.350459,1.35047 -0.854381,0.49608 -1.91546,0.49608 z m 0.330739,-0.66146 q 1.005959,0 1.62607,-0.71658 0.620111,-0.73036 0.620111,-1.92924 0,-0.90949 -0.30318,-1.5985 -0.289346,-0.689 -0.840593,-1.06107 -0.537428,-0.37207 -1.253995,-0.37207 -0.978396,0 -1.584733,0.71656 -0.592544,0.71658 -0.592544,1.91546 0,0.90949 0.289349,1.5985 0.289348,0.68903 0.813031,1.07488 0.537424,0.37204 1.22644,0.37204 z"
       style="font-style:normal;font-variant:normal;font-weight:normal;font-stretch:normal;font-size:22.36752319px;line-height:1.25;font-family:'Alegreya SC';-inkscape-font-specification:'Alegreya SC, Normal';font-variant-ligatures:normal;font-variant-caps:normal;font-variant-numeric:normal;font-feature-settings:normal;text-align:start;letter-spacing:0px;word-spacing:0px;writing-mode:lr-tb;text-anchor:start;fill:#af936c;fill-opacity:1;stroke:none;stroke-width:0.32601044;stroke-miterlimit:4;stroke-dasharray:none"
       id="path1212"
       inkscape:connector-curvature="0" />
    <path
       d="m 32.830792,284.42579 q -0.303178,0 -0.620106,-0.26183 -0.316978,-0.27558 -0.578773,-0.74412 l -1.157541,-2.02571 h -0.895708 l -0.02767,1.4745 q 0,0.39961 0.05517,0.57877 0.05517,0.16534 0.206734,0.22049 0.165377,0.0551 0.551205,0.0687 l 0.02767,0.0417 -0.110282,0.52365 q -0.165358,-0.0133 -0.60633,-0.0275 -0.427197,0 -0.868153,0 -0.427201,0 -0.744135,0.0133 -0.316942,0.0133 -0.4272,0.0275 l 0.09645,-0.56499 q 0.509871,-0.069 0.675236,-0.23429 0.165339,-0.16534 0.165339,-0.62012 l 0.01349,-4.39589 q 0,-0.33072 -0.08269,-0.44096 -0.08269,-0.1241 -0.316943,-0.1241 l -0.385855,0.0133 -0.04153,-0.0551 0.08269,-0.52364 q 0.13782,0 0.523649,0.0133 0.385858,0.0133 0.771689,0.0133 0.399621,0 0.854371,-0.0133 0.454733,-0.0274 0.620109,-0.0274 1.116207,0 1.750102,0.46852 0.633883,0.45476 0.633883,1.26779 0,0.63389 -0.4272,1.17131 -0.427199,0.53743 -1.19888,0.88195 l 1.171329,1.76388 q 0.330709,0.49607 0.633882,0.70278 0.303182,0.20671 0.730352,0.20671 l 0.05517,0.069 -0.06893,0.4272 z m -2.108381,-3.63797 q 0.26182,-0.11022 0.454734,-0.20673 0.206736,-0.11022 0.454731,-0.44096 0.248056,-0.33074 0.248056,-0.85436 0,-1.3367 -1.970579,-1.3367 -0.110283,0 -0.151618,0.0551 -0.04153,0.0414 -0.04153,0.19293 -0.110283,1.6812 -0.110283,2.48046 z"
       style="font-style:normal;font-variant:normal;font-weight:normal;font-stretch:normal;font-size:22.36752319px;line-height:1.25;font-family:'Alegreya SC';-inkscape-font-specification:'Alegreya SC, Normal';font-variant-ligatures:normal;font-variant-caps:normal;font-variant-numeric:normal;font-feature-settings:normal;text-align:start;letter-spacing:0px;word-spacing:0px;writing-mode:lr-tb;text-anchor:start;fill:#af936c;fill-opacity:1;stroke:none;stroke-width:0.32601044;stroke-miterlimit:4;stroke-dasharray:none"
       id="path1214"
       inkscape:connector-curvature="0" />
    <path
       d="m 35.558345,283.84689 q 0.509865,-0.0551 0.689011,-0.24801 0.179136,-0.19295 0.179136,-0.66145 l 0.01349,-4.36834 q 0,-0.34449 -0.08269,-0.45474 -0.08269,-0.1241 -0.330741,-0.1241 l -0.372046,0.0133 -0.02766,-0.0551 0.08269,-0.52364 q 0.165339,0 0.64767,0.0133 0.482316,0.0133 1.0473,0.0133 2.301298,0 3.403719,-0.1241 l 0.04156,0.069 q -0.02767,0.15166 -0.124042,0.68901 -0.09645,0.53743 -0.137821,1.15752 l -0.661453,0.0551 q 0,-0.0551 0.01349,-0.17921 0.01349,-0.13779 0.01349,-0.27558 0,-0.3583 -0.110283,-0.49609 -0.09645,-0.15166 -0.427199,-0.19294 -0.316942,-0.0551 -1.116198,-0.0551 -0.372046,0 -0.50987,0.0273 -0.13782,0.0133 -0.179136,0.0963 -0.04156,0.069 -0.05517,0.27559 l -0.08269,1.95681 1.129975,0.0133 q 0.248056,0 0.730358,-0.0417 0.482305,-0.0551 0.633889,-0.069 l 0.05516,0.069 -0.165415,0.71658 q -0.15156,0 -0.606327,-0.0133 -0.440966,-0.0133 -0.937058,-0.0133 -0.385855,0 -0.868153,0.069 -0.04153,1.04732 -0.04153,1.8879 0,0.31694 0.04153,0.44096 0.05516,0.1241 0.220487,0.16535 0.179136,0.0417 0.578769,0.0417 0.895712,0 1.281561,-0.0826 0.385855,-0.0826 0.537434,-0.33075 0.165339,-0.26183 0.261853,-0.88194 l 0.606329,-0.0551 0.05517,0.069 q -0.04153,0.15146 -0.151561,0.71656 -0.09645,0.55121 -0.15156,1.15754 l -0.08269,0.069 q -0.372042,-0.0133 -1.543381,-0.0417 -1.171322,-0.0275 -1.90168,-0.0275 -0.564991,0 -1.047291,0.0414 -0.48231,0.0551 -0.620116,0.0688 z"
       style="font-style:normal;font-variant:normal;font-weight:normal;font-stretch:normal;font-size:22.36752319px;line-height:1.25;font-family:'Alegreya SC';-inkscape-font-specification:'Alegreya SC, Normal';font-variant-ligatures:normal;font-variant-caps:normal;font-variant-numeric:normal;font-feature-settings:normal;text-align:start;letter-spacing:0px;word-spacing:0px;writing-mode:lr-tb;text-anchor:start;fill:#af936c;fill-opacity:1;stroke:none;stroke-width:0.32601044;stroke-miterlimit:4;stroke-dasharray:none"
       id="path1216"
       inkscape:connector-curvature="0" />
    <path
       d="M 46.87897,284.42579 Q 45.487164,280.65 44.798158,278.89992 h -0.06893 q -0.05517,0.66145 -0.206738,2.46666 -0.13782,1.80522 -0.13782,1.98435 0,0.17921 0.08269,0.26183 0.08268,0.069 0.275619,0.069 h 0.440966 l 0.02733,0.0414 -0.09645,0.55121 q -0.124042,0 -0.482302,-0.0276 -0.344507,-0.0133 -0.689017,-0.0133 -0.275584,0 -0.592552,0.0275 -0.316977,0.0414 -0.413384,0.0551 l 0.05517,-0.56499 q 0.35828,-0.0414 0.509878,-0.20671 0.15156,-0.17921 0.206668,-0.60633 0.110244,-0.93706 0.289385,-2.63202 0.192957,-1.69497 0.192957,-1.90169 0,-0.27558 -0.220488,-0.39962 -0.206669,-0.13779 -0.730344,-0.16534 l -0.04143,-0.069 0.09645,-0.45476 q 0.15156,0.0133 0.537429,0.0414 0.38586,0.0133 0.744132,0.0133 0.303178,0 0.551215,-0.0133 0.26182,-0.0133 0.344505,-0.0273 0.413434,1.28156 0.799249,2.41155 0.399623,1.1162 0.647669,1.79143 0.26182,0.66145 0.330708,0.82681 h 0.06893 q 0.15156,-0.38585 0.675239,-1.80521 0.537434,-1.41937 1.157538,-3.19701 0.08269,-0.0133 0.206734,0 0.13782,0 0.26182,0 0.151542,0.0133 0.440966,0.0133 0.220488,0 0.633896,-0.0273 0.427197,-0.0274 0.564986,-0.0414 l 0.02731,0.0414 -0.06893,0.48229 q -0.482303,0.0551 -0.675232,0.19295 -0.192958,0.12411 -0.192958,0.39963 0,0.27559 0.09643,1.75008 0.09645,1.4745 0.19296,2.50801 0.06889,0.62012 0.179174,0.81303 0.110283,0.19296 0.372058,0.19296 l 0.316945,-0.0133 0.02731,0.0414 -0.09645,0.5512 q -0.110245,0 -0.427202,-0.0133 -0.31694,-0.0133 -0.675225,-0.0133 -0.35826,0 -0.813037,0.0416 -0.454733,0.0414 -0.482313,0.0414 l 0.05517,-0.56498 q 0.35826,-0.0416 0.509868,-0.16534 0.151618,-0.1241 0.151618,-0.37205 0,-0.24807 -0.151618,-1.9706 -0.13782,-1.72252 -0.192963,-2.34263 h -0.06887 q -0.813,2.08082 -2.067016,5.44319 z"
       style="font-style:normal;font-variant:normal;font-weight:normal;font-stretch:normal;font-size:22.36752319px;line-height:1.25;font-family:'Alegreya SC';-inkscape-font-specification:'Alegreya SC, Normal';font-variant-ligatures:normal;font-variant-caps:normal;font-variant-numeric:normal;font-feature-settings:normal;text-align:start;letter-spacing:0px;word-spacing:0px;writing-mode:lr-tb;text-anchor:start;fill:#af936c;fill-opacity:1;stroke:none;stroke-width:0.32601044;stroke-miterlimit:4;stroke-dasharray:none"
       id="path1218"
       inkscape:connector-curvature="0" />
    <path
       d="m 6.3868103,294.59901 q -0.2828733,0 -0.5785823,-0.2443 -0.2957122,-0.25712 -0.5399978,-0.69429 l -1.080021,-1.89001 H 3.352492 l -0.025618,1.37573 q 0,0.37286 0.051471,0.54 0.051486,0.15424 0.1928231,0.20571 0.1543134,0.0515 0.5142876,0.0643 l 0.025618,0.0387 -0.1029102,0.48857 q -0.1542967,-0.0121 -0.5657225,-0.0257 -0.3985858,0 -0.8100116,0 -0.3985846,0 -0.6942883,0.0121 -0.2957477,0.0138 -0.3985886,0.0265 l 0.090025,-0.52699 q 0.4757351,-0.0643 0.6300276,-0.21861 0.154331,-0.15424 0.154331,-0.57857 l 0.012957,-4.10147 q 0,-0.30857 -0.077159,-0.41144 -0.07716,-0.11572 -0.2957158,-0.11572 l -0.3600135,0.0121 -0.038739,-0.0515 0.077144,-0.48857 q 0.1285947,0 0.4885735,0.0121 0.3600155,0.0121 0.7200029,0.0121 0.3728565,0 0.7971537,-0.0121 0.424316,-0.0255 0.5785799,-0.0255 1.0414426,0 1.6328675,0.43714 0.5914417,0.4243 0.5914417,1.18287 0,0.59143 -0.3985894,1.09286 -0.3985897,0.50144 -1.1185891,0.82286 l 1.0928254,1.64574 q 0.3085869,0.46285 0.5914343,0.6557 0.2828717,0.19288 0.6814351,0.19288 l 0.051455,0.0643 -0.064289,0.39858 z m -1.9671652,-3.3943 q 0.2442716,-0.10277 0.4242785,-0.19289 0.1928223,-0.10295 0.4242723,-0.41142 0.2314305,-0.30857 0.2314305,-0.79714 0,-1.24716 -1.8385814,-1.24716 -0.1029106,0 -0.1413941,0.0515 -0.038739,0.0384 -0.038739,0.18001 -0.1029101,1.56859 -0.1029101,2.31431 z"
       style="font-style:normal;font-variant:normal;font-weight:normal;font-stretch:normal;font-size:22.36752319px;line-height:1.25;font-family:'Alegreya SC';-inkscape-font-specification:'Alegreya SC, Normal';font-variant-ligatures:normal;font-variant-caps:normal;font-variant-numeric:normal;font-feature-settings:normal;text-align:start;letter-spacing:0px;word-spacing:0px;writing-mode:lr-tb;text-anchor:start;fill:#af936c;fill-opacity:1;stroke:none;stroke-width:0.30417436;stroke-miterlimit:4;stroke-dasharray:none"
       id="path1220"
       inkscape:connector-curvature="0" />
    <path
       d="m 8.9371775,294.08993 q 0.4593172,-0.0498 0.6206975,-0.22342 0.1613855,-0.17389 0.1613855,-0.59587 l 0.012542,-3.93509 q 0,-0.31035 -0.074479,-0.40965 -0.074496,-0.11174 -0.2979385,-0.11174 l -0.335197,0.0114 -0.024724,-0.0496 0.074496,-0.47171 q 0.1488994,0 0.5834536,0.0133 0.4344834,0.0133 0.9434264,0.0133 2.073044,0 3.06613,-0.11175 l 0.0374,0.0622 q -0.02472,0.13664 -0.111746,0.62068 -0.08687,0.48412 -0.124156,1.04274 l -0.595845,0.0496 q 0,-0.0496 0.01254,-0.16135 0.01254,-0.1241 0.01254,-0.24825 0,-0.32278 -0.09936,-0.44691 -0.08685,-0.13645 -0.384827,-0.1737 -0.28554,-0.0498 -1.005497,-0.0498 -0.335164,0 -0.459295,0.0247 -0.124156,0.0133 -0.161404,0.0868 -0.0374,0.0622 -0.0497,0.24826 l -0.0745,1.76274 1.017899,0.0114 q 0.223422,0 0.657922,-0.0375 0.434465,-0.0496 0.571021,-0.0621 l 0.04968,0.0621 -0.148899,0.64552 q -0.136509,0 -0.546193,-0.0114 -0.39723,-0.0114 -0.844123,-0.0114 -0.347594,0 -0.782049,0.0621 -0.0374,0.94344 -0.0374,1.70067 0,0.28551 0.0374,0.39724 0.0497,0.11175 0.198627,0.149 0.161386,0.0375 0.52137,0.0375 0.806873,0 1.154447,-0.0745 0.347594,-0.0745 0.484127,-0.29795 0.1489,-0.23587 0.235866,-0.79446 l 0.546195,-0.0496 0.0497,0.0622 q -0.0374,0.13645 -0.136547,0.6455 -0.08687,0.49653 -0.13651,1.04274 l -0.0745,0.0622 q -0.335165,-0.0114 -1.390309,-0.0375 -1.055145,-0.0249 -1.713064,-0.0249 -0.5089595,0 -0.9434356,0.0375 -0.434483,0.0498 -0.5586203,0.0622 z"
       style="font-style:normal;font-variant:normal;font-weight:normal;font-stretch:normal;font-size:22.36752319px;line-height:1.25;font-family:'Alegreya SC';-inkscape-font-specification:'Alegreya SC, Normal';font-variant-ligatures:normal;font-variant-caps:normal;font-variant-numeric:normal;font-feature-settings:normal;text-align:start;letter-spacing:0px;word-spacing:0px;writing-mode:lr-tb;text-anchor:start;fill:#af936c;fill-opacity:1;stroke:none;stroke-width:0.29367831;stroke-miterlimit:4;stroke-dasharray:none"
       id="path1222"
       inkscape:connector-curvature="0" />
    <path
       d="m 17.885895,294.61758 q -0.434478,0 -0.806877,-0.0745 -0.359989,-0.0745 -0.583447,-0.149 -0.211036,-0.0869 -0.260652,-0.11175 l -0.06209,-0.11174 q 0.01254,-0.0622 0.0374,-0.27309 0.0374,-0.22343 0.06205,-0.60828 0.0374,-0.39723 0.0374,-0.79446 l 0.55861,-0.0496 q 0,0.67033 0.09935,1.00549 0.111746,0.32275 0.372382,0.4469 0.260681,0.12411 0.794468,0.12411 0.595852,0 0.955843,-0.2607 0.372392,-0.26071 0.372392,-0.69517 0,-0.2855 -0.211056,-0.49655 -0.198622,-0.22345 -0.471703,-0.37239 -0.260696,-0.14899 -0.84412,-0.43446 -0.794461,-0.38484 -1.228939,-0.75725 -0.422057,-0.37239 -0.422057,-0.95585 0,-0.52135 0.310328,-0.94342 0.322731,-0.42205 0.881379,-0.65791 0.558603,-0.23586 1.241356,-0.23586 0.409625,0 0.769627,0.0496 0.35999,0.0496 0.571021,0.11175 0.211035,0.0496 0.260713,0.0745 l 0.0497,0.0869 q -0.02472,0.13645 -0.111746,0.62067 -0.08685,0.47173 -0.124156,1.01791 l -0.484132,0.0496 -0.07442,-0.0496 q 0,-0.0373 0.01254,-0.14899 0.01254,-0.1241 0.01254,-0.29794 0,-0.48411 -0.260681,-0.67032 -0.248276,-0.19864 -0.893779,-0.19864 -0.521371,0 -0.868944,0.24826 -0.335195,0.23587 -0.335195,0.60828 0,0.37241 0.335195,0.63309 0.347594,0.26069 1.042742,0.59584 0.608261,0.28555 0.968251,0.49656 0.372387,0.21104 0.63309,0.53378 0.260681,0.32275 0.260681,0.74481 0,0.55862 -0.335196,0.99309 -0.322729,0.42206 -0.918595,0.67034 -0.583435,0.23586 -1.340663,0.23586 z"
       style="font-style:normal;font-variant:normal;font-weight:normal;font-stretch:normal;font-size:22.36752319px;line-height:1.25;font-family:'Alegreya SC';-inkscape-font-specification:'Alegreya SC, Normal';font-variant-ligatures:normal;font-variant-caps:normal;font-variant-numeric:normal;font-feature-settings:normal;text-align:start;letter-spacing:0px;word-spacing:0px;writing-mode:lr-tb;text-anchor:start;fill:#af936c;fill-opacity:1;stroke:none;stroke-width:0.29367831;stroke-miterlimit:4;stroke-dasharray:none"
       id="path1224"
       inkscape:connector-curvature="0" />
    <path
       d="m 25.360083,294.61758 q -0.844118,0 -1.502042,-0.37239 -0.645508,-0.37239 -1.005499,-1.05514 -0.347594,-0.68276 -0.347594,-1.57654 0,-0.96826 0.434471,-1.73789 0.446889,-0.78206 1.20412,-1.21654 0.769641,-0.44689 1.71307,-0.44689 0.856534,0 1.514458,0.37241 0.657929,0.37241 1.017918,1.05515 0.359993,0.67035 0.359993,1.56412 0,0.96826 -0.446881,1.75031 -0.434483,0.76964 -1.216532,1.21653 -0.769638,0.44689 -1.725491,0.44689 z m 0.297939,-0.59585 q 0.906198,0 1.464805,-0.6455 0.558613,-0.65791 0.558613,-1.7379 0,-0.8193 -0.273111,-1.43999 -0.260682,-0.62066 -0.757205,-0.95584 -0.484129,-0.33517 -1.12964,-0.33517 -0.881371,0 -1.427566,0.64551 -0.533775,0.6455 -0.533775,1.72549 0,0.8193 0.260655,1.43996 0.26068,0.62069 0.732406,0.96828 0.484131,0.33514 1.104805,0.33514 z"
       style="font-style:normal;font-variant:normal;font-weight:normal;font-stretch:normal;font-size:22.36752319px;line-height:1.25;font-family:'Alegreya SC';-inkscape-font-specification:'Alegreya SC, Normal';font-variant-ligatures:normal;font-variant-caps:normal;font-variant-numeric:normal;font-feature-settings:normal;text-align:start;letter-spacing:0px;word-spacing:0px;writing-mode:lr-tb;text-anchor:start;fill:#af936c;fill-opacity:1;stroke:none;stroke-width:0.29367831;stroke-miterlimit:4;stroke-dasharray:none"
       id="path1226"
       inkscape:connector-curvature="0" />
    <path
       d="m 34.781526,294.59892 q -0.27311,0 -0.558614,-0.23584 -0.285511,-0.24828 -0.521369,-0.67035 l -1.042742,-1.82479 h -0.806883 l -0.02472,1.32824 q 0,0.36 0.04968,0.52139 0.0497,0.149 0.186225,0.19861 0.148975,0.0498 0.496536,0.0622 l 0.02472,0.0375 -0.09935,0.47171 q -0.148976,-0.0114 -0.546209,-0.0247 -0.384827,0 -0.782046,0 -0.384828,0 -0.670336,0.0114 -0.285512,0.0114 -0.384832,0.0249 l 0.08693,-0.50894 q 0.459306,-0.0622 0.608262,-0.21107 0.148994,-0.14899 0.148994,-0.55861 l 0.01254,-3.95994 q 0,-0.29791 -0.0745,-0.39723 -0.07442,-0.11175 -0.285511,-0.11175 l -0.347591,0.0133 -0.0374,-0.0496 0.07442,-0.47171 q 0.124156,0 0.471723,0.0133 0.34759,0.0133 0.69516,0.0133 0.359986,0 0.769648,-0.0133 0.409633,-0.0247 0.558607,-0.0247 1.005494,0 1.576527,0.42205 0.571028,0.40966 0.571028,1.14206 0,0.57103 -0.384832,1.05514 -0.384831,0.48414 -1.079973,0.79448 l 1.055142,1.58893 q 0.297942,0.44691 0.571019,0.6331 0.273111,0.18624 0.657928,0.18624 l 0.0497,0.062 -0.06213,0.38484 z m -1.899282,-3.27716 q 0.235864,-0.0994 0.40963,-0.18625 0.186224,-0.0994 0.409636,-0.39723 0.223423,-0.29793 0.223423,-0.76964 0,-1.20413 -1.775153,-1.20413 -0.09936,0 -0.136546,0.0496 -0.0374,0.0373 -0.0374,0.1739 -0.09935,1.51444 -0.09935,2.23444 z"
       style="font-style:normal;font-variant:normal;font-weight:normal;font-stretch:normal;font-size:22.36752319px;line-height:1.25;font-family:'Alegreya SC';-inkscape-font-specification:'Alegreya SC, Normal';font-variant-ligatures:normal;font-variant-caps:normal;font-variant-numeric:normal;font-feature-settings:normal;text-align:start;letter-spacing:0px;word-spacing:0px;writing-mode:lr-tb;text-anchor:start;fill:#af936c;fill-opacity:1;stroke:none;stroke-width:0.29367831;stroke-miterlimit:4;stroke-dasharray:none"
       id="path1228"
       inkscape:connector-curvature="0" />
    <path
       d="m 38.391909,294.05637 q 0.561011,-0.0405 0.774184,-0.12126 0.213162,-0.091 0.280525,-0.31311 0.06731,-0.23236 0.06731,-0.80807 v -4.40398 q -0.953706,0.0304 -1.301525,0.1011 -0.33659,0.0606 -0.460013,0.29294 -0.123414,0.22222 -0.224411,0.87877 l -0.52734,0.0405 q 0.134609,-0.95957 0.168247,-1.74744 l 0.100951,-0.0808 0.931254,0.11118 h 3.478199 l 0.953695,-0.11118 0.100951,0.0808 q 0.03386,0.82827 0.168342,1.70704 l -0.527351,0.0405 q -0.123319,-0.66666 -0.246799,-0.89897 -0.123453,-0.23231 -0.437579,-0.30303 -0.31414,-0.0707 -1.211764,-0.11117 -0.06731,0.60605 -0.123433,2.14138 -0.05612,1.53535 -0.05612,2.76765 0,0.37373 0.145859,0.53534 0.145859,0.15147 0.49368,0.15147 0.336592,0 0.617097,-0.0304 l 0.03347,0.0405 -0.100971,0.46464 -0.370263,-0.01 -1.279077,-0.0201 q -0.617107,0 -1.537144,0.0405 z"
       style="font-style:normal;font-variant:normal;font-weight:normal;font-stretch:normal;font-size:22.36752319px;line-height:1.25;font-family:'Alegreya SC';-inkscape-font-specification:'Alegreya SC, Normal';font-variant-ligatures:normal;font-variant-caps:normal;font-variant-numeric:normal;font-feature-settings:normal;text-align:start;letter-spacing:0px;word-spacing:0px;writing-mode:lr-tb;text-anchor:start;fill:#af936c;fill-opacity:1;stroke:none;stroke-width:0.27513781;stroke-miterlimit:4;stroke-dasharray:none"
       id="path1230"
       inkscape:connector-curvature="0" />
    <path
       inkscape:connector-curvature="0"
       id="path1621"
       style="font-style:normal;font-variant:normal;font-weight:normal;font-stretch:normal;font-size:22.36752319px;line-height:1.25;font-family:'Alegreya SC';-inkscape-font-specification:'Alegreya SC, Normal';font-variant-ligatures:normal;font-variant-caps:normal;font-variant-numeric:normal;font-feature-settings:normal;text-align:start;letter-spacing:0px;word-spacing:0px;writing-mode:lr-tb;text-anchor:start;fill:#af936c;fill-opacity:1;stroke:none;stroke-width:0.32601044;stroke-miterlimit:4;stroke-dasharray:none"
       d="m 11.917956,283.91122 q 0.664727,-0.0479 0.917322,-0.14368 0.252578,-0.10775 0.332397,-0.37102 0.07978,-0.27531 0.07978,-0.95748 v -5.21824 q -1.13004,0.0359 -1.542172,0.11973 -0.398828,0.0718 -0.545066,0.34708 -0.146238,0.2633 -0.265902,1.04125 l -0.624857,0.0479 q 0.159542,-1.13699 0.199411,-2.07053 l 0.11969,-0.0958 1.103436,0.1317 h 4.121306 l 1.130027,-0.1317 0.119652,0.0958 q 0.03966,0.98141 0.199431,2.02266 l -0.624845,0.0479 q -0.146239,-0.78998 -0.292469,-1.06524 -0.146239,-0.27526 -0.518485,-0.35907 -0.372229,-0.0838 -1.435804,-0.1317 -0.07976,0.71812 -0.14624,2.53734 -0.0665,1.8192 -0.0665,3.27937 0,0.44282 0.172827,0.63433 0.172826,0.17959 0.584954,0.17959 0.39883,0 0.731196,-0.0359 l 0.04014,0.0479 -0.11969,0.55056 -0.438726,-0.0114 -1.515577,-0.0237 q -0.731204,0 -1.821348,0.0479 z" />
    <path
       sodipodi:nodetypes="cccccc"
       inkscape:connector-curvature="0"
       id="path20179"
       d="m 5.813878,276.64546 1.4202163,1.07424 1.4202117,-1.07424 v 3.68978 H 5.813878 Z"
       style="opacity:1;fill:#540000;fill-opacity:1;stroke:none;stroke-width:0.51917785;stroke-linecap:round;stroke-linejoin:round;stroke-miterlimit:4;stroke-dasharray:none;stroke-dashoffset:2.29999995;stroke-opacity:1" />
    <path
       style="opacity:1;fill:url(#linearGradient20193);fill-opacity:1;stroke:none;stroke-width:0.51917785;stroke-linecap:round;stroke-linejoin:round;stroke-miterlimit:4;stroke-dasharray:none;stroke-dashoffset:2.29999995;stroke-opacity:1"
       d="m 1.6823401,276.64546 1.4202164,1.07424 1.4202158,-1.07424 v 3.68978 H 1.6823401 Z"
       id="path20181"
       inkscape:connector-curvature="0"
       sodipodi:nodetypes="cccccc" />
    <path
       style="opacity:1;fill:url(#linearGradient20195);fill-opacity:1;stroke:none;stroke-width:0.51917785;stroke-linecap:round;stroke-linejoin:round;stroke-miterlimit:4;stroke-dasharray:none;stroke-dashoffset:2.29999995;stroke-opacity:1"
       d="m 5.813878,284.85302 1.4202163,-1.07424 1.4202117,1.07424 v -3.68979 H 5.813878 Z"
       id="path20183"
       inkscape:connector-curvature="0"
       sodipodi:nodetypes="cccccc" />
    <path
       sodipodi:nodetypes="cccccc"
       inkscape:connector-curvature="0"
       id="path20185"
       d="m 1.6823401,284.85302 1.4202164,-1.07424 1.4202158,1.07424 v -3.68979 H 1.6823401 Z"
       style="opacity:1;fill:#540000;fill-opacity:1;stroke:none;stroke-width:0.51917785;stroke-linecap:round;stroke-linejoin:round;stroke-miterlimit:4;stroke-dasharray:none;stroke-dashoffset:2.29999995;stroke-opacity:1" />
    <g
       id="g20235"
       transform="matrix(1.0739333,0,0,1.0739333,-18.410608,-30.975984)"
       style="fill:#af936c;fill-opacity:1">
      <path
         sodipodi:type="star"
         style="opacity:0.76000007;fill:#af936c;fill-opacity:1;stroke:none;stroke-width:0.06402916;stroke-linecap:round;stroke-linejoin:round;stroke-miterlimit:4;stroke-dasharray:none;stroke-dashoffset:2.29999995;stroke-opacity:1"
         id="path20223"
         sodipodi:sides="5"
         sodipodi:cx="40.821423"
         sodipodi:cy="295.01562"
         sodipodi:r1="2.028873"
         sodipodi:r2="0.64923936"
         sodipodi:arg1="0.52359878"
         sodipodi:arg2="1.1519173"
         inkscape:flatsided="false"
         inkscape:rounded="0"
         inkscape:randomized="0"
         d="m 42.578478,296.03006 -1.492986,-0.42133 -0.685896,1.39143 -0.06065,-1.55011 -1.53528,-0.22235 1.455501,-0.53669 -0.262959,-1.52885 0.960201,1.21841 1.372762,-0.72253 -0.862064,1.28972 z"
         inkscape:transform-center-x="-0.0042074839"
         inkscape:transform-center-y="-0.11083901"
         transform="matrix(0.53876889,0.24722313,-0.24722313,0.53876889,102.24964,126.4256)" />
      <path
         transform="matrix(0.53876889,0.24722313,-0.24722313,0.53876889,98.294043,126.4256)"
         inkscape:transform-center-y="-0.11083901"
         inkscape:transform-center-x="-0.0042074839"
         d="m 42.578478,296.03006 -1.492986,-0.42133 -0.685896,1.39143 -0.06065,-1.55011 -1.53528,-0.22235 1.455501,-0.53669 -0.262959,-1.52885 0.960201,1.21841 1.372762,-0.72253 -0.862064,1.28972 z"
         inkscape:randomized="0"
         inkscape:rounded="0"
         inkscape:flatsided="false"
         sodipodi:arg2="1.1519173"
         sodipodi:arg1="0.52359878"
         sodipodi:r2="0.64923936"
         sodipodi:r1="2.028873"
         sodipodi:cy="295.01562"
         sodipodi:cx="40.821423"
         sodipodi:sides="5"
         id="path20225"
         style="opacity:0.76000007;fill:#af936c;fill-opacity:1;stroke:none;stroke-width:0.06402916;stroke-linecap:round;stroke-linejoin:round;stroke-miterlimit:4;stroke-dasharray:none;stroke-dashoffset:2.29999995;stroke-opacity:1"
         sodipodi:type="star" />
      <path
         sodipodi:type="star"
         style="opacity:0.76000007;fill:#af936c;fill-opacity:1;stroke:none;stroke-width:0.06402916;stroke-linecap:round;stroke-linejoin:round;stroke-miterlimit:4;stroke-dasharray:none;stroke-dashoffset:2.29999995;stroke-opacity:1"
         id="path20227"
         sodipodi:sides="5"
         sodipodi:cx="40.821423"
         sodipodi:cy="295.01562"
         sodipodi:r1="2.028873"
         sodipodi:r2="0.64923936"
         sodipodi:arg1="0.52359878"
         sodipodi:arg2="1.1519173"
         inkscape:flatsided="false"
         inkscape:rounded="0"
         inkscape:randomized="0"
         d="m 42.578478,296.03006 -1.492986,-0.42133 -0.685896,1.39143 -0.06065,-1.55011 -1.53528,-0.22235 1.455501,-0.53669 -0.262959,-1.52885 0.960201,1.21841 1.372762,-0.72253 -0.862064,1.28972 z"
         inkscape:transform-center-x="-0.0042074839"
         inkscape:transform-center-y="-0.11083901"
         transform="matrix(0.53876889,0.24722313,-0.24722313,0.53876889,94.338451,126.4256)" />
      <path
         sodipodi:type="star"
         style="opacity:0.76000007;fill:#af936c;fill-opacity:1;stroke:none;stroke-width:0.06402916;stroke-linecap:round;stroke-linejoin:round;stroke-miterlimit:4;stroke-dasharray:none;stroke-dashoffset:2.29999995;stroke-opacity:1"
         id="path20229"
         sodipodi:sides="5"
         sodipodi:cx="40.821423"
         sodipodi:cy="295.01562"
         sodipodi:r1="2.028873"
         sodipodi:r2="0.64923936"
         sodipodi:arg1="0.52359878"
         sodipodi:arg2="1.1519173"
         inkscape:flatsided="false"
         inkscape:rounded="0"
         inkscape:randomized="0"
         d="m 42.578478,296.03006 -1.492986,-0.42133 -0.685896,1.39143 -0.06065,-1.55011 -1.53528,-0.22235 1.455501,-0.53669 -0.262959,-1.52885 0.960201,1.21841 1.372762,-0.72253 -0.862064,1.28972 z"
         inkscape:transform-center-x="-0.0042074839"
         inkscape:transform-center-y="-0.11083901"
         transform="matrix(0.53876889,0.24722313,-0.24722313,0.53876889,90.382859,126.4256)" />
      <path
         transform="matrix(0.53876889,0.24722313,-0.24722313,0.53876889,86.427266,126.4256)"
         inkscape:transform-center-y="-0.11083901"
         inkscape:transform-center-x="-0.0042074839"
         d="m 42.578478,296.03006 -1.492986,-0.42133 -0.685896,1.39143 -0.06065,-1.55011 -1.53528,-0.22235 1.455501,-0.53669 -0.262959,-1.52885 0.960201,1.21841 1.372762,-0.72253 -0.862064,1.28972 z"
         inkscape:randomized="0"
         inkscape:rounded="0"
         inkscape:flatsided="false"
         sodipodi:arg2="1.1519173"
         sodipodi:arg1="0.52359878"
         sodipodi:r2="0.64923936"
         sodipodi:r1="2.028873"
         sodipodi:cy="295.01562"
         sodipodi:cx="40.821423"
         sodipodi:sides="5"
         id="path20231"
         style="opacity:0.76000007;fill:#af936c;fill-opacity:1;stroke:none;stroke-width:0.06402916;stroke-linecap:round;stroke-linejoin:round;stroke-miterlimit:4;stroke-dasharray:none;stroke-dashoffset:2.29999995;stroke-opacity:1"
         sodipodi:type="star" />
      <path
         sodipodi:type="star"
         style="opacity:0.76000007;fill:#af936c;fill-opacity:1;stroke:none;stroke-width:0.06402916;stroke-linecap:round;stroke-linejoin:round;stroke-miterlimit:4;stroke-dasharray:none;stroke-dashoffset:2.29999995;stroke-opacity:1"
         id="path20233"
         sodipodi:sides="5"
         sodipodi:cx="40.821423"
         sodipodi:cy="295.01562"
         sodipodi:r1="2.028873"
         sodipodi:r2="0.64923936"
         sodipodi:arg1="0.52359878"
         sodipodi:arg2="1.1519173"
         inkscape:flatsided="false"
         inkscape:rounded="0"
         inkscape:randomized="0"
         d="m 42.578478,296.03006 -1.492986,-0.42133 -0.685896,1.39143 -0.06065,-1.55011 -1.53528,-0.22235 1.455501,-0.53669 -0.262959,-1.52885 0.960201,1.21841 1.372762,-0.72253 -0.862064,1.28972 z"
         inkscape:transform-center-x="-0.0042074839"
         inkscape:transform-center-y="-0.11083901"
         transform="matrix(0.53876889,0.24722313,-0.24722313,0.53876889,82.471674,126.4256)" />
    </g>
    <path
       style="opacity:1;fill:#af936c;fill-opacity:1;stroke:none;stroke-width:0.06969449;stroke-linecap:square;stroke-linejoin:miter;stroke-miterlimit:4;stroke-dasharray:none;stroke-dashoffset:0;stroke-opacity:1"
       d="m 39.877777,285.92415 v 0.24123 h 11.04887 v -0.24123 z"
       id="path20239"
       inkscape:connector-curvature="0" />
    <path
       style="opacity:1;fill:#540000;fill-opacity:1;stroke:none;stroke-width:0.44147268;stroke-linecap:round;stroke-linejoin:round;stroke-miterlimit:4;stroke-dasharray:none;stroke-dashoffset:2.29999995;stroke-opacity:1"
       d="m 47.627325,287.64735 -1.207651,0.91346 -1.207651,-0.91346 v 3.13754 h 2.415302 z"
       id="path20257"
       inkscape:connector-curvature="0"
       sodipodi:nodetypes="cccccc" />
    <path
       sodipodi:nodetypes="cccccc"
       inkscape:connector-curvature="0"
       id="path20259"
       d="m 51.14049,287.64735 -1.207649,0.91346 -1.207651,-0.91346 v 3.13754 h 2.4153 z"
       style="opacity:1;fill:url(#linearGradient20269);fill-opacity:1;stroke:none;stroke-width:0.44147268;stroke-linecap:round;stroke-linejoin:round;stroke-miterlimit:4;stroke-dasharray:none;stroke-dashoffset:2.29999995;stroke-opacity:1" />
    <path
       sodipodi:nodetypes="cccccc"
       inkscape:connector-curvature="0"
       id="path20261"
       d="m 47.627325,294.62649 -1.207651,-0.91346 -1.207651,0.91346 v -3.13753 h 2.415302 z"
       style="opacity:1;fill:url(#linearGradient20271);fill-opacity:1;stroke:none;stroke-width:0.44147268;stroke-linecap:round;stroke-linejoin:round;stroke-miterlimit:4;stroke-dasharray:none;stroke-dashoffset:2.29999995;stroke-opacity:1" />
    <path
       style="opacity:1;fill:#540000;fill-opacity:1;stroke:none;stroke-width:0.44147268;stroke-linecap:round;stroke-linejoin:round;stroke-miterlimit:4;stroke-dasharray:none;stroke-dashoffset:2.29999995;stroke-opacity:1"
       d="m 51.14049,294.62649 -1.207649,-0.91346 -1.207651,0.91346 v -3.13753 h 2.4153 z"
       id="path20263"
       inkscape:connector-curvature="0"
       sodipodi:nodetypes="cccccc" />
    <path
       inkscape:connector-curvature="0"
       id="path20564"
       d="m 1.6076845,285.92415 v 0.24123 H 12.656554 v -0.24123 z"
       style="opacity:1;fill:#af936c;fill-opacity:1;stroke:none;stroke-width:0.06969449;stroke-linecap:square;stroke-linejoin:miter;stroke-miterlimit:4;stroke-dasharray:none;stroke-dashoffset:0;stroke-opacity:1" />
  </g>
</svg>
