<?xml version="1.0" encoding="UTF-8" standalone="no"?>
<!-- Created with Inkscape (http://www.inkscape.org/) -->

<svg
   xmlns:dc="http://purl.org/dc/elements/1.1/"
   xmlns:cc="http://creativecommons.org/ns#"
   xmlns:rdf="http://www.w3.org/1999/02/22-rdf-syntax-ns#"
   xmlns:svg="http://www.w3.org/2000/svg"
   xmlns="http://www.w3.org/2000/svg"
   xmlns:xlink="http://www.w3.org/1999/xlink"
   xmlns:sodipodi="http://sodipodi.sourceforge.net/DTD/sodipodi-0.dtd"
   xmlns:inkscape="http://www.inkscape.org/namespaces/inkscape"
   width="100"
   height="50"
   viewBox="0 0 26.458333 13.229167"
   version="1.1"
   id="svg8"
   inkscape:version="0.92.2 (5c3e80d, 2017-08-06)"
   sodipodi:docname="logo7.svg">
  <defs
     id="defs2">
    <linearGradient
       inkscape:collect="always"
       id="linearGradient884">
      <stop
         style="stop-color:#806600;stop-opacity:1"
         offset="0"
         id="stop880" />
      <stop
         style="stop-color:#ffd42a;stop-opacity:1"
         offset="1"
         id="stop882" />
    </linearGradient>
    <linearGradient
       inkscape:collect="always"
       xlink:href="#linearGradient884"
       id="linearGradient895"
       gradientUnits="userSpaceOnUse"
       x1="341.4317"
       y1="98.982933"
       x2="496.23825"
       y2="39.38393"
       gradientTransform="matrix(0.05433505,0,0,0.05433505,-11.8794,283.85313)" />
  </defs>
  <sodipodi:namedview
     id="base"
     pagecolor="#ffffff"
     bordercolor="#666666"
     borderopacity="1.0"
     inkscape:pageopacity="0.0"
     inkscape:pageshadow="2"
     inkscape:zoom="11.2"
     inkscape:cx="58.654305"
     inkscape:cy="26.159833"
     inkscape:document-units="px"
     inkscape:current-layer="layer1"
     showgrid="false"
     inkscape:window-width="1366"
     inkscape:window-height="705"
     inkscape:window-x="-8"
     inkscape:window-y="-8"
     inkscape:window-maximized="1"
     inkscape:measure-start="0,0"
     inkscape:measure-end="0,0"
     units="px" />
  <metadata
     id="metadata5">
    <rdf:RDF>
      <cc:Work
         rdf:about="">
        <dc:format>image/svg+xml</dc:format>
        <dc:type
           rdf:resource="http://purl.org/dc/dcmitype/StillImage" />
        <dc:title></dc:title>
      </cc:Work>
    </rdf:RDF>
  </metadata>
  <g
     inkscape:label="Layer 1"
     inkscape:groupmode="layer"
     id="layer1"
     transform="translate(0,-283.77082)">
    <text
       xml:space="preserve"
       style="font-style:normal;font-variant:normal;font-weight:normal;font-stretch:normal;font-size:76.33626556px;line-height:1.25;font-family:'League Gothic';-inkscape-font-specification:'League Gothic, Normal';font-variant-ligatures:normal;font-variant-caps:normal;font-variant-numeric:normal;font-feature-settings:normal;text-align:start;letter-spacing:0px;word-spacing:0px;writing-mode:lr-tb;text-anchor:start;fill:#000000;fill-opacity:1;stroke:none;stroke-width:1.90840662"
       x="-340.31009"
       y="108.34541"
       id="text817"><tspan
         sodipodi:role="line"
         id="tspan815"
         x="-340.31009"
         y="108.34541"
         style="font-style:normal;font-variant:normal;font-weight:normal;font-stretch:normal;font-size:76.33758545px;font-family:Novar;-inkscape-font-specification:'Novar, Normal';font-variant-ligatures:normal;font-variant-caps:normal;font-variant-numeric:normal;font-feature-settings:normal;text-align:start;writing-mode:lr-tb;text-anchor:start;stroke-width:1.90840662">Tenpenny</tspan></text>
    <text
       id="text821"
       y="180.16089"
       x="-324.43509"
       style="font-style:normal;font-variant:normal;font-weight:normal;font-stretch:normal;font-size:76.33626556px;line-height:1.25;font-family:'League Gothic';-inkscape-font-specification:'League Gothic, Normal';font-variant-ligatures:normal;font-variant-caps:normal;font-variant-numeric:normal;font-feature-settings:normal;text-align:start;letter-spacing:0px;word-spacing:0px;writing-mode:lr-tb;text-anchor:start;fill:#000000;fill-opacity:1;stroke:none;stroke-width:1.90840662"
       xml:space="preserve"><tspan
         style="font-style:normal;font-variant:normal;font-weight:normal;font-stretch:normal;font-size:76.33758545px;font-family:Novar;-inkscape-font-specification:'Novar, Normal';font-variant-ligatures:normal;font-variant-caps:normal;font-variant-numeric:normal;font-feature-settings:normal;text-align:start;writing-mode:lr-tb;text-anchor:start;stroke-width:1.90840662"
         y="180.16089"
         x="-324.43509"
         id="tspan819"
         sodipodi:role="line">TenPenny</tspan></text>
    <path
       inkscape:connector-curvature="0"
       id="path835"
       style="font-style:normal;font-variant:normal;font-weight:normal;font-stretch:normal;font-size:13.82970333px;line-height:1.25;font-family:Novar;-inkscape-font-specification:'Novar, Normal';font-variant-ligatures:normal;font-variant-caps:normal;font-variant-numeric:normal;font-feature-settings:normal;text-align:start;letter-spacing:0px;word-spacing:0px;writing-mode:lr-tb;text-anchor:start;fill:#000000;fill-opacity:1;stroke:none;stroke-width:0.10210212"
       d="m 1.598077,292.25931 c -0.00532,0.003 -0.010635,0.008 -0.015953,0.0159 l -0.019943,0.0199 c -0.00532,0.008 -0.010635,0.0146 -0.015953,0.0199 0.00266,-0.0931 0.00399,-0.1941 0.00399,-0.30311 0.00266,-0.11168 0.00532,-0.21272 0.00797,-0.30313 v -0.0519 c 0,0.005 0.010635,0.005 0.031907,0 0.00798,0.005 0.017285,0.005 0.027919,0 h 0.011966 0.2512714 1.5953732 0.2552605 c 0.00797,0.005 0.018608,0.005 0.031906,0 0.018605,0.005 0.027908,0.005 0.027908,0 0.00531,0.0186 0.00531,0.0359 0,0.0519 0.00531,0.0904 0.00797,0.19145 0.00797,0.30313 0.00266,0.10901 0.00398,0.21005 0.00398,0.30311 -0.00797,-0.0107 -0.018608,-0.0226 -0.031906,-0.0359 -0.00531,-0.005 -0.0093,-0.0106 -0.01196,-0.0159 l -0.071796,-0.18347 c -0.037225,-0.0957 -0.097052,-0.17283 -0.1794794,-0.23133 -0.082428,-0.0585 -0.1716406,-0.0826 -0.2672249,-0.0877 H 2.8743627 v 1.81831 c 0.00266,0.0771 0.022603,0.13959 0.059827,0.18745 0.039884,0.0479 0.091734,0.0718 0.1555488,0.0718 h 0.035896 c 0,0.005 0.00133,0.009 0.00399,0.012 0.00266,0.005 0.00398,0.009 0.00398,0.0119 l 0.00399,0.008 c 0.00266,0.0106 0.00664,0.0199 0.011966,0.0279 H 2.8703765 2.6749432 2.47951 2.2003196 c 0.00266,-0.008 0.00664,-0.0173 0.011966,-0.0279 l 0.015953,-0.0319 h 0.039885 c 0.063815,0 0.1143349,-0.0239 0.1515603,-0.0718 0.039885,-0.0479 0.059827,-0.11034 0.059827,-0.18745 v -1.81783 H 2.1165628 c -0.095722,0 -0.1847973,0.0292 -0.2672249,0.0878 -0.082428,0.0585 -0.1422542,0.13561 -0.1794796,0.23133 l -0.071792,0.18346 z m 2.2016146,0.0519 h 0.00398 z"
       sodipodi:nodetypes="ccccccccccccccccccccccscccscccccccccccscscsscccccc" />
    <path
       inkscape:connector-curvature="0"
       id="path837"
       style="font-style:normal;font-variant:normal;font-weight:normal;font-stretch:normal;font-size:13.82970333px;line-height:1.25;font-family:Novar;-inkscape-font-specification:'Novar, Normal';font-variant-ligatures:normal;font-variant-caps:normal;font-variant-numeric:normal;font-feature-settings:normal;text-align:start;letter-spacing:0px;word-spacing:0px;writing-mode:lr-tb;text-anchor:start;fill:#000000;fill-opacity:1;stroke:none;stroke-width:0.10210212"
       d="m 6.4777984,293.34374 c 0.00266,-0.005 0.00797,-0.0106 0.015947,-0.0159 l 0.015947,-0.0159 c 0.00797,-0.005 0.014619,-0.0106 0.019934,-0.0159 -0.010631,0.0825 -0.022591,0.17417 -0.035896,0.27521 -0.013289,0.0984 -0.02525,0.19011 -0.035896,0.2752 0,0.005 -0.00147,0.0133 -0.00398,0.0239 v 0.0239 H 6.4418877 6.1347781 5.3051828 5.1097504 4.9143181 4.6351278 c 0,-0.003 0.00147,-0.005 0.00398,-0.008 0,-0.003 0.00266,-0.009 0.00797,-0.0199 0.00266,-0.008 0.00664,-0.0173 0.01196,-0.0279 h 0.039883 c 0.063815,0 0.1143382,-0.0239 0.1515629,-0.0718 0.039883,-0.0479 0.059825,-0.11034 0.059825,-0.18745 v -1.59894 c 0,-0.0771 -0.019934,-0.13827 -0.059825,-0.18347 -0.037224,-0.0479 -0.087748,-0.0731 -0.1515629,-0.0758 h -0.039883 c -0.010631,-0.0239 -0.018605,-0.0386 -0.023921,-0.0439 -0.00266,-0.005 -0.00398,-0.0106 -0.00398,-0.0159 0.042543,0.003 0.088191,0.0105 0.1356069,0.004 h 0.1435835 v -0.004 h 0.1954368 0.1954324 0.8136423 0.2592474 0.023921 c 0.015947,0.005 0.026579,0.005 0.031909,0 -0.00266,0.008 -0.00398,0.0173 -0.00398,0.0279 v 0.0239 c -0.00531,0.0825 -0.01196,0.17417 -0.019934,0.27521 -0.00797,0.0984 -0.014618,0.19011 -0.019934,0.2752 l -0.00398,-0.004 c -0.00531,-0.005 -0.0093,-0.0107 -0.01196,-0.0159 -0.00266,-0.008 -0.00664,-0.0146 -0.01196,-0.0199 l -0.01196,-0.012 -0.019934,-0.0678 c -0.037224,-0.11434 -0.1037008,-0.20608 -0.199422,-0.27521 -0.095721,-0.0718 -0.2035004,-0.10303 -0.3230627,-0.10769 h -0.506542 v 0.7534 h 0.3988451 c 0.1010399,0 0.1901137,-0.0186 0.267224,-0.0558 0.077111,-0.0399 0.1276305,-0.0917 0.15156,-0.15555 l 0.01196,-0.0399 c 0.00266,0 0.00664,-0.002 0.01196,-0.004 0.00531,-0.003 0.0093,-0.005 0.01196,-0.008 0.00531,-0.003 0.010631,-0.007 0.015947,-0.012 0.00266,0 0.00531,-0.002 0.00797,-0.004 v 0.2792 0.0479 0.0519 0.31509 l -0.00797,-0.004 c -0.00531,-0.005 -0.010631,-0.009 -0.015947,-0.012 -0.00266,-0.003 -0.00664,-0.005 -0.01196,-0.008 -0.00531,-0.003 -0.0093,-0.005 -0.01196,-0.008 l -0.01196,-0.0443 c -0.02392,-0.0718 -0.07445,-0.12895 -0.15156,-0.1715 -0.077111,-0.0452 -0.1661841,-0.0678 -0.267224,-0.0678 H 5.2972417 v 1.18456 h 0.5424286 0.019934 c 0.116993,-0.003 0.2273384,-0.0386 0.3310391,-0.10769 0.1063587,-0.0692 0.1887847,-0.16087 0.2472842,-0.2752 l 0.031906,-0.0678 z"
       sodipodi:nodetypes="cccccccccccccccccscsscccccsccccccccscccccccccsccscccccccccccccccccscccccccc" />
    <path
       inkscape:connector-curvature="0"
       id="path839"
       style="font-style:normal;font-variant:normal;font-weight:normal;font-stretch:normal;font-size:13.82970333px;line-height:1.25;font-family:Novar;-inkscape-font-specification:'Novar, Normal';font-variant-ligatures:normal;font-variant-caps:normal;font-variant-numeric:normal;font-feature-settings:normal;text-align:start;letter-spacing:0px;word-spacing:0px;writing-mode:lr-tb;text-anchor:start;fill:#000000;fill-opacity:1;stroke:none;stroke-width:0.10210212"
       d="m 9.7940235,291.66104 c 0,0.005 -0.00534,0.0159 -0.015949,0.0319 -0.00534,0.0106 -0.00931,0.0199 -0.011958,0.0279 h -0.035898 c -0.063813,0.003 -0.1156641,0.0279 -0.155547,0.0758 -0.039881,0.0452 -0.059828,0.10636 -0.059828,0.18347 v 1.63484 0.35896 H 9.3712617 l -0.1515599,-0.21547 -1.4677434,-1.75847 v 1.57899 c 0,0.0771 0.019934,0.13959 0.059825,0.18746 0.039885,0.0479 0.091735,0.0718 0.1555497,0.0718 h 0.035896 l 0.027907,0.0598 h -0.27919 -0.059825 -0.055839 -0.2791903 c 0.00797,-0.0239 0.013289,-0.0386 0.015947,-0.0439 0.00531,-0.005 0.0093,-0.0106 0.01196,-0.0159 h 0.035896 c 0.063815,0 0.1156641,-0.0239 0.1555496,-0.0718 0.039883,-0.0479 0.059825,-0.11035 0.059825,-0.18746 v -1.59894 c 0,-0.0771 -0.019934,-0.13827 -0.059825,-0.18347 -0.039885,-0.0479 -0.091734,-0.0731 -0.1555496,-0.0758 h -0.035896 c -0.00531,-0.008 -0.010631,-0.0173 -0.015947,-0.0279 -0.00797,-0.0106 -0.01196,-0.0213 -0.01196,-0.0319 0.090406,0.005 0.1847979,0.005 0.28318,0 h 0.055835 0.059829 0.2393048 l 1.407918,1.6827 v -1.36362 c 0,-0.0771 -0.019934,-0.13826 -0.059829,-0.18347 -0.039883,-0.0479 -0.091732,-0.0731 -0.1555467,-0.0758 h -0.035896 c -0.00531,-0.008 -0.010631,-0.0173 -0.015947,-0.0279 -0.00797,-0.0106 -0.01196,-0.0213 -0.01196,-0.0319 0.090406,0.005 0.184798,0.005 0.2831771,0 h 0.055839 0.059825 c 0.098382,0.005 0.1914453,0.005 0.27919,0 z"
       sodipodi:nodetypes="cccccscccccscsccccccccscssccccccccccscccccccccc" />
    <path
       inkscape:connector-curvature="0"
       id="path841"
       style="font-style:normal;font-variant:normal;font-weight:normal;font-stretch:normal;font-size:13.82970333px;line-height:1.25;font-family:Novar;-inkscape-font-specification:'Novar, Normal';font-variant-ligatures:normal;font-variant-caps:normal;font-variant-numeric:normal;font-feature-settings:normal;text-align:start;letter-spacing:0px;word-spacing:0px;writing-mode:lr-tb;text-anchor:start;fill:#000000;fill-opacity:1;stroke:none;stroke-width:0.10210212"
       d="m 11.550803,293.83432 c 0,0.003 0.004,0.0133 0.01196,0.0319 0.008,0.0186 0.01329,0.0279 0.01595,0.0279 h -0.279182 -0.195433 -0.195431 -0.279191 c 0.0053,-0.0133 0.0093,-0.0226 0.01196,-0.0279 0.0026,-0.005 0.0066,-0.0146 0.01196,-0.0279 h 0.03988 c 0.06381,0 0.115665,-0.0239 0.15555,-0.0718 0.03988,-0.0479 0.05982,-0.11035 0.05982,-0.18746 v -1.59894 c 0,-0.0771 -0.01993,-0.13826 -0.05982,-0.18347 -0.03988,-0.0479 -0.09173,-0.0731 -0.15555,-0.0758 h -0.03988 c -0.0053,-0.008 -0.0093,-0.0173 -0.01196,-0.0279 -0.008,-0.0159 -0.01196,-0.0266 -0.01196,-0.0319 0.04254,0.003 0.08819,0.0105 0.135608,0.004 h 0.143583 v -0.004 h 0.195431 0.195433 0.466646 c 0.135607,0 0.259251,0.0173 0.370925,0.0519 0.111677,0.0346 0.207399,0.0837 0.287167,0.14757 0.07977,0.0638 0.140925,0.14093 0.183469,0.23133 0.0452,0.0904 0.0678,0.19011 0.0678,0.29913 0,0.10902 -0.02392,0.20873 -0.0718,0.29914 -0.04786,0.0877 -0.115664,0.16352 -0.203409,0.22733 -0.08774,0.0638 -0.194103,0.11301 -0.319075,0.14758 -0.122312,0.0346 -0.259248,0.0519 -0.410808,0.0519 h -0.370925 v 0.46224 c 0,0.0771 0.0186,0.1396 0.05584,0.18746 0.03988,0.0479 0.09173,0.0718 0.15555,0.0718 h 0.03988 z m 0.119654,-0.81721 c 0.180808,0 0.324392,-0.0572 0.43075,-0.1715 0.109016,-0.11433 0.163526,-0.26722 0.163526,-0.45867 0,-0.19145 -0.0452,-0.34434 -0.135607,-0.45867 -0.09041,-0.117 -0.21152,-0.16909 -0.362948,-0.17549 h -0.466646 v 1.26433 z"
       sodipodi:nodetypes="cccccccscscsscccccsccccscccscccscscsccscscsccs" />
    <path
       inkscape:connector-curvature="0"
       id="path843"
       style="font-style:normal;font-variant:normal;font-weight:normal;font-stretch:normal;font-size:13.82970333px;line-height:1.25;font-family:Novar;-inkscape-font-specification:'Novar, Normal';font-variant-ligatures:normal;font-variant-caps:normal;font-variant-numeric:normal;font-feature-settings:normal;text-align:start;letter-spacing:0px;word-spacing:0px;writing-mode:lr-tb;text-anchor:start;fill:#000000;fill-opacity:1;stroke:none;stroke-width:0.10210212"
       d="m 15.349666,293.34374 c 0.0026,-0.005 0.008,-0.0106 0.01595,-0.0159 l 0.01595,-0.0159 c 0.008,-0.005 0.01462,-0.0106 0.01993,-0.0159 -0.01064,0.0825 -0.02259,0.17417 -0.0359,0.27521 -0.01329,0.0984 -0.02525,0.19011 -0.0359,0.2752 0,0.005 -0.0014,0.0133 -0.004,0.0239 v 0.0239 H 15.313736 15.006627 14.177032 13.9816 13.786165 13.506974 c 0,-0.003 0.0012,-0.005 0.004,-0.008 0,-0.003 0.0026,-0.009 0.008,-0.0199 0.0026,-0.008 0.0066,-0.0173 0.01196,-0.0279 h 0.03988 c 0.06381,0 0.114334,-0.0239 0.15156,-0.0718 0.03988,-0.0479 0.05983,-0.11034 0.05983,-0.18745 v -1.59894 c 0,-0.0771 -0.01993,-0.13827 -0.05983,-0.18347 -0.03723,-0.0479 -0.08775,-0.0731 -0.15156,-0.0758 h -0.03988 c -0.01064,-0.0239 -0.0186,-0.0386 -0.02392,-0.0439 -0.0026,-0.005 -0.004,-0.0106 -0.004,-0.0159 0.04254,0.003 0.08774,0.004 0.135607,0.004 h 0.143583 v -0.004 h 0.195432 0.195433 0.813642 0.259247 0.02392 c 0.01595,0.005 0.02658,0.005 0.03191,0 -0.0026,0.008 -0.004,0.0173 -0.004,0.0279 v 0.0239 c -0.0053,0.0825 -0.01196,0.17417 -0.01993,0.27521 -0.008,0.0984 -0.01462,0.19011 -0.01993,0.2752 l -0.004,-0.004 c -0.0053,-0.005 -0.0093,-0.0107 -0.01196,-0.0159 -0.0026,-0.008 -0.0066,-0.0146 -0.01196,-0.0199 l -0.01196,-0.012 -0.01993,-0.0678 c -0.03722,-0.11434 -0.103701,-0.20608 -0.199422,-0.27521 -0.09572,-0.0718 -0.203409,-0.10769 -0.323063,-0.10769 h -0.506532 v 0.7534 h 0.398845 c 0.101039,0 0.190113,-0.0186 0.267223,-0.0558 0.07711,-0.0399 0.127631,-0.0917 0.15156,-0.15555 l 0.01196,-0.0399 c 0.0026,0 0.0066,-0.002 0.01196,-0.004 0.0053,-0.003 0.0093,-0.005 0.01196,-0.008 0.0053,-0.003 0.01063,-0.007 0.01595,-0.012 0.0026,0 0.0053,-0.002 0.008,-0.004 v 0.2792 0.0479 0.0519 0.31509 l -0.008,-0.004 c -0.0053,-0.005 -0.01063,-0.009 -0.01595,-0.012 -0.0026,-0.003 -0.0066,-0.005 -0.01196,-0.008 -0.0053,-0.003 -0.0093,-0.005 -0.01196,-0.008 l -0.01196,-0.0439 c -0.02392,-0.0718 -0.07445,-0.12896 -0.15156,-0.1715 -0.07711,-0.0452 -0.166184,-0.0678 -0.267223,-0.0678 h -0.398845 v 1.18456 h 0.542428 0.01993 c 0.116997,-0.003 0.227341,-0.0386 0.331043,-0.10768 0.106358,-0.0692 0.188784,-0.16087 0.24728,-0.2752 l 0.03191,-0.0678 z"
       sodipodi:nodetypes="cccccccccccccccccscsscccccsccccccccscccccccccsccscccccccccccccccccscccccccc" />
    <path
       inkscape:connector-curvature="0"
       id="path845"
       style="font-style:normal;font-variant:normal;font-weight:normal;font-stretch:normal;font-size:13.82970333px;line-height:1.25;font-family:Novar;-inkscape-font-specification:'Novar, Normal';font-variant-ligatures:normal;font-variant-caps:normal;font-variant-numeric:normal;font-feature-settings:normal;text-align:start;letter-spacing:0px;word-spacing:0px;writing-mode:lr-tb;text-anchor:start;fill:#000000;fill-opacity:1;stroke:none;stroke-width:0.10210212"
       d="m 18.665891,291.66104 c 0,0.005 -0.0053,0.0159 -0.01595,0.0319 -0.0053,0.0106 -0.0093,0.0199 -0.01196,0.0279 h -0.0359 c -0.06381,0.003 -0.115667,0.0279 -0.15555,0.0758 -0.03988,0.0452 -0.05983,0.10636 -0.05983,0.18347 v 1.63484 0.35896 h -0.14358 l -0.15156,-0.21538 -1.467744,-1.75847 v 1.57899 c 0,0.0771 0.01993,0.13959 0.05983,0.18746 0.03988,0.0479 0.09173,0.0718 0.155547,0.0718 h 0.0359 l 0.02791,0.0598 h -0.279191 -0.05982 -0.05584 -0.27919 c 0.008,-0.0239 0.01329,-0.0386 0.01595,-0.0439 0.0053,-0.005 0.0093,-0.0106 0.01196,-0.0159 h 0.0359 c 0.06381,0 0.115664,-0.0239 0.15555,-0.0718 0.03988,-0.0479 0.05982,-0.11035 0.05982,-0.18746 v -1.59894 c 0,-0.0771 -0.01993,-0.13827 -0.05982,-0.18347 -0.03988,-0.0479 -0.09173,-0.0731 -0.15555,-0.0758 h -0.0359 c -0.0053,-0.008 -0.01063,-0.0173 -0.01595,-0.0279 -0.008,-0.0106 -0.01196,-0.0213 -0.01196,-0.0319 0.09041,0.005 0.184798,0.005 0.28318,0 h 0.05584 0.05983 0.239306 l 1.407917,1.6827 v -1.36362 c 0,-0.0771 -0.01993,-0.13826 -0.05983,-0.18347 -0.03988,-0.0479 -0.09173,-0.0731 -0.155547,-0.0758 h -0.0359 c -0.0053,-0.008 -0.01063,-0.0173 -0.01595,-0.0279 -0.008,-0.0106 -0.01196,-0.0213 -0.01196,-0.0319 0.09041,0.005 0.184797,0.005 0.283177,0 h 0.05584 0.05983 c 0.09838,0.005 0.191443,0.005 0.279191,0 z"
       sodipodi:nodetypes="cccccscccccscsccccccccscssccccccccccscccccccccc" />
    <path
       inkscape:connector-curvature="0"
       id="path847"
       style="font-style:normal;font-variant:normal;font-weight:normal;font-stretch:normal;font-size:13.82970333px;line-height:1.25;font-family:Novar;-inkscape-font-specification:'Novar, Normal';font-variant-ligatures:normal;font-variant-caps:normal;font-variant-numeric:normal;font-feature-settings:normal;text-align:start;letter-spacing:0px;word-spacing:0px;writing-mode:lr-tb;text-anchor:start;fill:#000000;fill-opacity:1;stroke:none;stroke-width:0.10210212"
       d="m 21.938273,291.66104 c 0,0.005 -0.0053,0.0159 -0.01595,0.0319 -0.0053,0.0106 -0.0093,0.0199 -0.01196,0.0279 h -0.0359 c -0.06381,0.003 -0.115664,0.0279 -0.155547,0.0758 -0.03988,0.0452 -0.05983,0.10636 -0.05983,0.18347 v 1.63484 0.35896 h -0.143584 l -0.151559,-0.21538 -1.467744,-1.75847 v 1.57899 c 0,0.0771 0.01993,0.13959 0.05983,0.18746 0.03988,0.0479 0.09173,0.0718 0.155547,0.0718 h 0.0359 l 0.02791,0.0598 h -0.279191 -0.05982 -0.05584 -0.27919 c 0.008,-0.0239 0.01329,-0.0386 0.01595,-0.0439 0.0053,-0.005 0.0093,-0.0106 0.01196,-0.0159 h 0.0359 c 0.06381,0 0.115664,-0.0239 0.15555,-0.0718 0.03988,-0.0479 0.05982,-0.11035 0.05982,-0.18746 v -1.59894 c 0,-0.0771 -0.01993,-0.13827 -0.05982,-0.18347 -0.03988,-0.0479 -0.09173,-0.0731 -0.15555,-0.0758 h -0.0359 c -0.0053,-0.008 -0.01063,-0.0173 -0.01595,-0.0279 -0.008,-0.0106 -0.01196,-0.0213 -0.01196,-0.0319 0.09041,0.005 0.184798,0.005 0.28318,0 h 0.05584 0.05983 0.239305 l 1.407918,1.6827 v -1.36362 c 0,-0.0771 -0.01993,-0.13826 -0.05983,-0.18347 -0.03988,-0.0479 -0.09173,-0.0731 -0.155547,-0.0758 h -0.0359 c -0.0053,-0.008 -0.01064,-0.0173 -0.01595,-0.0279 -0.008,-0.0106 -0.01196,-0.0213 -0.01196,-0.0319 0.09041,0.005 0.184798,0.005 0.283178,0 h 0.05584 0.05983 c 0.09838,0.005 0.191443,0.005 0.279187,0 z"
       sodipodi:nodetypes="cccccscccccscsccccccccscssccccccccccscccccccccc" />
    <path
       inkscape:connector-curvature="0"
       id="path849"
       style="font-style:normal;font-variant:normal;font-weight:normal;font-stretch:normal;font-size:13.82970333px;line-height:1.25;font-family:Novar;-inkscape-font-specification:'Novar, Normal';font-variant-ligatures:normal;font-variant-caps:normal;font-variant-numeric:normal;font-feature-settings:normal;text-align:start;letter-spacing:0px;word-spacing:0px;writing-mode:lr-tb;text-anchor:start;fill:#000000;fill-opacity:1;stroke:none;stroke-width:0.10210212"
       d="m 24.424936,293.83831 c 0,0.003 0.004,0.0133 0.01196,0.0319 0.008,0.0186 0.01329,0.0279 0.01595,0.0279 h -0.27919 -0.195436 -0.195432 -0.279191 c 0.0053,-0.0133 0.0093,-0.0226 0.01196,-0.0279 0.0026,-0.005 0.0066,-0.0146 0.01196,-0.0279 h 0.03988 c 0.06381,0 0.115664,-0.0239 0.15555,-0.0718 0.03988,-0.0479 0.05982,-0.11034 0.05982,-0.18745 v -0.43033 l -0.68601,-1.21647 c -0.04254,-0.0612 -0.08907,-0.11035 -0.139594,-0.14757 -0.04786,-0.0399 -0.09306,-0.0612 -0.135607,-0.0638 h -0.02791 c -0.0053,-0.008 -0.0093,-0.0173 -0.01196,-0.0279 -0.0053,-0.0159 -0.008,-0.0266 -0.008,-0.0319 h 0.171503 v -0.004 h 0.235318 0.235318 v 0.004 h 0.171506 c 0.0585,0 0.113004,-0.002 0.163524,-0.004 l -0.01595,0.0319 c -0.0053,0.0107 -0.01064,0.0199 -0.01595,0.0279 h -0.03988 c -0.06913,0.003 -0.113003,0.0279 -0.131616,0.0758 -0.01595,0.0452 -0.0026,0.10636 0.03988,0.18346 l 0.522484,0.9692 0.550402,-0.88942 c 0.06115,-0.10104 0.08509,-0.18214 0.0718,-0.24329 -0.01063,-0.0612 -0.05849,-0.0931 -0.143586,-0.0957 h -0.05185 c 0,0.003 -0.0026,0.002 -0.008,-0.004 -0.0026,-0.008 -0.0066,-0.0159 -0.01196,-0.0239 -0.008,-0.0106 -0.01462,-0.0213 -0.01993,-0.0319 0.06115,0.003 0.127628,0.004 0.199419,0.004 0.07445,0 0.144916,-0.002 0.211389,-0.004 h 0.05584 0.05584 v 0.004 h 0.103698 c 0.03723,0 0.07047,-0.002 0.09971,-0.004 0,0.003 -0.0012,0.007 -0.004,0.012 -0.0026,0.005 -0.0053,0.012 -0.008,0.0199 -0.0053,0.0106 -0.0093,0.0199 -0.01196,0.0279 h -0.03191 c -0.05584,0.003 -0.115664,0.0279 -0.17948,0.0758 -0.06381,0.0452 -0.119651,0.10635 -0.167513,0.18346 l -0.638149,1.02104 h 0.004 v 0.57791 c 0,0.0771 0.0186,0.13959 0.05584,0.18745 0.03988,0.0479 0.09173,0.0718 0.15555,0.0718 h 0.03988 z"
       sodipodi:nodetypes="cccccccscscsccccccccccccsccccccccccccccsccccscscccccccscscc" />
    <text
       xml:space="preserve"
       style="font-style:normal;font-variant:normal;font-weight:normal;font-stretch:normal;font-size:41.76625443px;line-height:1.25;font-family:'League Gothic';-inkscape-font-specification:'League Gothic, Normal';font-variant-ligatures:normal;font-variant-caps:normal;font-variant-numeric:normal;font-feature-settings:normal;text-align:start;letter-spacing:0px;word-spacing:0px;writing-mode:lr-tb;text-anchor:start;fill:#000000;fill-opacity:1;stroke:none;stroke-width:1.04415631"
       x="-308.26285"
       y="24.561159"
       id="text833"><tspan
         sodipodi:role="line"
         id="tspan831"
         x="-308.26285"
         y="24.561159"
         style="font-style:normal;font-variant:normal;font-weight:normal;font-stretch:normal;font-size:41.7669754px;font-family:Novar;-inkscape-font-specification:'Novar, Normal';font-variant-ligatures:normal;font-variant-caps:normal;font-variant-numeric:normal;font-feature-settings:normal;text-align:start;writing-mode:lr-tb;text-anchor:start;stroke-width:1.04415631">TENPENNY</tspan></text>
    <path
       style="opacity:0.77999998;fill:url(#linearGradient895);fill-opacity:1;stroke:none;stroke-width:0.20261323;stroke-linecap:round;stroke-linejoin:round;stroke-miterlimit:4;stroke-dasharray:none;stroke-dashoffset:2.29999995;stroke-opacity:1"
       d="m 10.473211,287.15946 v 1.09835 0.82227 1.0991 0.82226 h 0.32458 v -0.82226 h 0.17087 v -1.0991 h 0.134313 a 1.4023551,1.2486723 0 0 1 0.356664,-0.8327 1.4023551,1.2486723 0 0 1 1.968372,-0.10671 l 0.04701,0.0388 a 1.4023551,1.2486723 0 0 1 0.431282,0.90136 h 0.13281 v 1.09835 h 0.170871 v 0.82227 h 0.324581 v -1.92062 -7.5e-4 -0.82226 -1.09835 z"
       id="rect860"
       inkscape:connector-curvature="0" />
  </g>
</svg>
