<?xml version="1.0" encoding="UTF-8" standalone="no"?>
<!-- Created with Inkscape (http://www.inkscape.org/) -->

<svg
   xmlns:dc="http://purl.org/dc/elements/1.1/"
   xmlns:cc="http://creativecommons.org/ns#"
   xmlns:rdf="http://www.w3.org/1999/02/22-rdf-syntax-ns#"
   xmlns:svg="http://www.w3.org/2000/svg"
   xmlns="http://www.w3.org/2000/svg"
   xmlns:sodipodi="http://sodipodi.sourceforge.net/DTD/sodipodi-0.dtd"
   xmlns:inkscape="http://www.inkscape.org/namespaces/inkscape"
   width="240"
   height="50"
   viewBox="0 0 63.499999 13.229166"
   version="1.1"
   id="svg8"
   inkscape:version="0.92.2 (5c3e80d, 2017-08-06)"
   sodipodi:docname="logo9.svg">
  <defs
     id="defs2" />
  <sodipodi:namedview
     id="base"
     pagecolor="#ffffff"
     bordercolor="#666666"
     borderopacity="1.0"
     inkscape:pageopacity="0.0"
     inkscape:pageshadow="2"
     inkscape:zoom="5.6"
     inkscape:cx="72.835289"
     inkscape:cy="7.3785445"
     inkscape:document-units="px"
     inkscape:current-layer="layer1"
     showgrid="false"
     showguides="true"
     inkscape:window-width="1366"
     inkscape:window-height="705"
     inkscape:window-x="-8"
     inkscape:window-y="760"
     inkscape:window-maximized="1"
     inkscape:snap-smooth-nodes="true"
     inkscape:object-nodes="false"
     units="px" />
  <metadata
     id="metadata5">
    <rdf:RDF>
      <cc:Work
         rdf:about="">
        <dc:format>image/svg+xml</dc:format>
        <dc:type
           rdf:resource="http://purl.org/dc/dcmitype/StillImage" />
        <dc:title></dc:title>
      </cc:Work>
    </rdf:RDF>
  </metadata>
  <g
     inkscape:label="Layer 1"
     inkscape:groupmode="layer"
     id="layer1"
     transform="translate(0,-283.77083)">
    <g
       id="g929"
       transform="matrix(0.45744474,0,0,0.42630692,-9.6440988,205.7287)"
       style="fill:#1a1a1a;fill-opacity:1">
      <path
         d="m 99.091743,158.28713 v -6.69925 h -2.21192 v -1.15358 h 5.556167 v 1.15358 h -2.19067 v 6.69925 z"
         style="font-style:normal;font-variant:normal;font-weight:normal;font-stretch:normal;font-size:10.58333302px;line-height:1.25;font-family:'Modern Sans';-inkscape-font-specification:'Modern Sans, Normal';font-variant-ligatures:normal;font-variant-caps:normal;font-variant-numeric:normal;font-feature-settings:normal;text-align:start;letter-spacing:0px;word-spacing:0px;writing-mode:lr-tb;text-anchor:start;fill:#1a1a1a;fill-opacity:1;stroke:none;stroke-width:0.26458332"
         id="path869"
         inkscape:connector-curvature="0" />
      <path
         d="m 108.62216,158.28711 -1.21708,-2.667 q -0.10583,0.0106 -0.21167,0.0106 -0.0952,0 -0.17991,0 h -1.21709 v 2.65642 h -1.15358 v -7.85283 h 1.143 1.21708 q 0.21167,0 0.48684,0.0212 0.28575,0.0106 0.5715,0.0847 0.29633,0.0635 0.5715,0.22225 0.28575,0.15875 0.508,0.4445 0.22225,0.28575 0.34925,0.74083 0.13758,0.4445 0.13758,1.09009 0,0.51858 -0.0847,0.91016 -0.0847,0.381 -0.24341,0.65617 -0.14817,0.27517 -0.34925,0.46567 -0.1905,0.17991 -0.41275,0.29633 l 1.35466,2.921 z m -2.06375,-3.81 q 0.3175,0 0.65617,-0.0106 0.34925,-0.0106 0.62442,-0.13759 0.27516,-0.127 0.45508,-0.42333 0.17992,-0.29633 0.17992,-0.86783 0,-0.5715 -0.17992,-0.86784 -0.17992,-0.29633 -0.45508,-0.42333 -0.27517,-0.127 -0.61384,-0.13758 -0.33866,-0.0212 -0.65616,-0.0212 h -0.77259 v 2.88925 z"
         style="font-style:normal;font-variant:normal;font-weight:normal;font-stretch:normal;font-size:10.58333302px;line-height:1.25;font-family:'Modern Sans';-inkscape-font-specification:'Modern Sans, Normal';font-variant-ligatures:normal;font-variant-caps:normal;font-variant-numeric:normal;font-feature-settings:normal;text-align:start;letter-spacing:0px;word-spacing:0px;writing-mode:lr-tb;text-anchor:start;fill:#1a1a1a;fill-opacity:1;stroke:none;stroke-width:0.26458332"
         id="path871"
         inkscape:connector-curvature="0" />
      <path
         d="m 117.15641,158.28713 -0.45509,-1.06892 h -3.65125 l -0.45508,1.06892 h -1.16417 l 3.45017,-7.85283 3.45017,7.85283 z m -3.60892,-2.2225 h 2.65642 l -1.32292,-3.10092 z"
         style="font-style:normal;font-variant:normal;font-weight:normal;font-stretch:normal;font-size:10.58333302px;line-height:1.25;font-family:'Modern Sans';-inkscape-font-specification:'Modern Sans, Normal';font-variant-ligatures:normal;font-variant-caps:normal;font-variant-numeric:normal;font-feature-settings:normal;text-align:start;letter-spacing:0px;word-spacing:0px;writing-mode:lr-tb;text-anchor:start;fill:#1a1a1a;fill-opacity:1;stroke:none;stroke-width:0.26458332"
         id="path873"
         inkscape:connector-curvature="0" />
      <path
         d="m 119.73623,150.4343 4.66725,4.96358 v -4.96358 h 1.15359 v 7.85283 l -4.67784,-4.77308 v 4.77308 h -1.143 z"
         style="font-style:normal;font-variant:normal;font-weight:normal;font-stretch:normal;font-size:10.58333302px;line-height:1.25;font-family:'Modern Sans';-inkscape-font-specification:'Modern Sans, Normal';font-variant-ligatures:normal;font-variant-caps:normal;font-variant-numeric:normal;font-feature-settings:normal;text-align:start;letter-spacing:0px;word-spacing:0px;writing-mode:lr-tb;text-anchor:start;fill:#1a1a1a;fill-opacity:1;stroke:none;stroke-width:0.26458332"
         id="path875"
         inkscape:connector-curvature="0" />
      <path
         d="m 133.47355,158.28713 -0.47625,-0.45508 q -0.84667,0.45508 -1.83092,0.45508 -0.81491,0 -1.53458,-0.30692 -0.70908,-0.30691 -1.24883,-0.83608 -0.52917,-0.53975 -0.84667,-1.24883 -0.30692,-0.71967 -0.30692,-1.53459 0,-0.81491 0.30692,-1.524 0.3175,-0.71966 0.84667,-1.24883 0.53975,-0.53975 1.24883,-0.84667 0.71967,-0.30691 1.53458,-0.30691 0.81492,0 1.524,0.30691 0.71967,0.30692 1.24884,0.84667 0.53975,0.52917 0.84666,1.24883 0.30692,0.70909 0.30692,1.524 0,0.78317 -0.28575,1.47109 -0.28575,0.68791 -0.78317,1.21708 l 1.30175,1.23825 z m -4.953,-3.92642 q 0,0.55034 0.20108,1.03717 0.21167,0.47625 0.5715,0.83608 0.35984,0.34925 0.83609,0.56092 0.48683,0.20108 1.03716,0.20108 0.53975,0 1.016,-0.20108 0.48684,-0.21167 0.84667,-0.56092 0.35983,-0.35983 0.56092,-0.83608 0.21166,-0.48683 0.21166,-1.03717 0,-0.55033 -0.21166,-1.02658 -0.20109,-0.47625 -0.56092,-0.83608 -0.35983,-0.35984 -0.84667,-0.56092 -0.47625,-0.21167 -1.016,-0.21167 -0.55033,0 -1.03716,0.21167 -0.47625,0.20108 -0.83609,0.56092 -0.35983,0.35983 -0.5715,0.83608 -0.20108,0.47625 -0.20108,1.02658 z"
         style="font-style:normal;font-variant:normal;font-weight:normal;font-stretch:normal;font-size:10.58333302px;line-height:1.25;font-family:'Modern Sans';-inkscape-font-specification:'Modern Sans, Normal';font-variant-ligatures:normal;font-variant-caps:normal;font-variant-numeric:normal;font-feature-settings:normal;text-align:start;letter-spacing:0px;word-spacing:0px;writing-mode:lr-tb;text-anchor:start;fill:#1a1a1a;fill-opacity:1;stroke:none;stroke-width:0.26458332"
         id="path877"
         inkscape:connector-curvature="0" />
      <path
         d="m 136.86433,150.4343 h 1.143 v 5.12233 q 0,0.0847 0.0635,0.34925 0.0635,0.254 0.254,0.52917 0.1905,0.27516 0.53975,0.48683 0.34925,0.21167 0.92075,0.21167 0.56092,0 0.89958,-0.21167 0.34925,-0.21167 0.53975,-0.48683 0.1905,-0.27517 0.254,-0.52917 0.0635,-0.254 0.0635,-0.33867 v -5.13291 h 1.16417 v 5.12233 q 0,0.0635 -0.0318,0.28575 -0.0317,0.22225 -0.13758,0.52917 -0.10584,0.29633 -0.29634,0.635 -0.1905,0.33866 -0.51858,0.62441 -0.32808,0.28575 -0.80433,0.47625 -0.46567,0.17992 -1.13242,0.17992 -0.66675,0 -1.143,-0.16933 -0.47625,-0.17992 -0.80433,-0.4445 -0.3175,-0.27517 -0.51859,-0.60325 -0.1905,-0.32809 -0.29633,-0.62442 -0.0952,-0.30692 -0.127,-0.53975 -0.0317,-0.24342 -0.0317,-0.34925 z"
         style="font-style:normal;font-variant:normal;font-weight:normal;font-stretch:normal;font-size:10.58333302px;line-height:1.25;font-family:'Modern Sans';-inkscape-font-specification:'Modern Sans, Normal';font-variant-ligatures:normal;font-variant-caps:normal;font-variant-numeric:normal;font-feature-settings:normal;text-align:start;letter-spacing:0px;word-spacing:0px;writing-mode:lr-tb;text-anchor:start;fill:#1a1a1a;fill-opacity:1;stroke:none;stroke-width:0.26458332"
         id="path879"
         inkscape:connector-curvature="0" />
      <path
         d="m 145.53224,150.4343 v 7.85283 h -1.15358 v -7.85283 z"
         style="font-style:normal;font-variant:normal;font-weight:normal;font-stretch:normal;font-size:10.58333302px;line-height:1.25;font-family:'Modern Sans';-inkscape-font-specification:'Modern Sans, Normal';font-variant-ligatures:normal;font-variant-caps:normal;font-variant-numeric:normal;font-feature-settings:normal;text-align:start;letter-spacing:0px;word-spacing:0px;writing-mode:lr-tb;text-anchor:start;fill:#1a1a1a;fill-opacity:1;stroke:none;stroke-width:0.26458332"
         id="path881"
         inkscape:connector-curvature="0" />
      <path
         d="m 152.40238,158.28713 h -4.52967 v -7.85283 h 1.15358 v 6.69925 h 3.37609 z"
         style="font-style:normal;font-variant:normal;font-weight:normal;font-stretch:normal;font-size:10.58333302px;line-height:1.25;font-family:'Modern Sans';-inkscape-font-specification:'Modern Sans, Normal';font-variant-ligatures:normal;font-variant-caps:normal;font-variant-numeric:normal;font-feature-settings:normal;text-align:start;letter-spacing:0px;word-spacing:0px;writing-mode:lr-tb;text-anchor:start;fill:#1a1a1a;fill-opacity:1;stroke:none;stroke-width:0.26458332"
         id="path883"
         inkscape:connector-curvature="0" />
    </g>
    <g
       id="g919"
       transform="matrix(0.52724354,0,0,0.52724354,-29.675245,215.10982)"
       style="fill:#1a1a1a;fill-opacity:1">
      <path
         d="m 118.69751,164.4978 c 0.81933,0 1.19467,-0.4028 1.19467,-0.87426 0,-1.1672 -1.97281,-0.63624 -1.97281,-1.51508 0,-0.32041 0.26091,-0.58131 0.8468,-0.58131 0.28379,0 0.6042,0.087 0.87884,0.26548 l 0.11443,-0.27006 c -0.25633,-0.17851 -0.63167,-0.28379 -0.99327,-0.28379 -0.81476,0 -1.18094,0.40738 -1.18094,0.87884 0,1.18551 1.97281,0.64539 1.97281,1.52423 0,0.31583 -0.26091,0.56758 -0.86053,0.56758 -0.42111,0 -0.82849,-0.16478 -1.05735,-0.38907 l -0.13274,0.26091 c 0.23802,0.24717 0.70948,0.41653 1.19009,0.41653 z"
         style="font-style:normal;font-variant:normal;font-weight:normal;font-stretch:normal;font-size:4.57727623px;line-height:1.25;font-family:Montserrat;-inkscape-font-specification:'Montserrat, Normal';font-variant-ligatures:normal;font-variant-caps:normal;font-variant-numeric:normal;font-feature-settings:normal;text-align:start;letter-spacing:0px;word-spacing:0px;writing-mode:lr-tb;text-anchor:start;fill:#1a1a1a;fill-opacity:1;stroke:none;stroke-width:0.1144319"
         id="path894"
         inkscape:connector-curvature="0" />
      <path
         d="m 121.87363,164.47034 h 0.33872 v -2.91115 h 1.12601 v -0.29295 h -2.59074 v 0.29295 h 1.12601 z"
         style="font-style:normal;font-variant:normal;font-weight:normal;font-stretch:normal;font-size:4.57727623px;line-height:1.25;font-family:Montserrat;-inkscape-font-specification:'Montserrat, Normal';font-variant-ligatures:normal;font-variant-caps:normal;font-variant-numeric:normal;font-feature-settings:normal;text-align:start;letter-spacing:0px;word-spacing:0px;writing-mode:lr-tb;text-anchor:start;fill:#1a1a1a;fill-opacity:1;stroke:none;stroke-width:0.1144319"
         id="path896"
         inkscape:connector-curvature="0" />
      <path
         d="m 124.53251,164.17739 v -1.19009 h 1.65697 v -0.28837 h -1.65697 v -1.13974 h 1.85837 v -0.29295 h -2.19709 v 3.2041 h 2.26575 v -0.29295 z"
         style="font-style:normal;font-variant:normal;font-weight:normal;font-stretch:normal;font-size:4.57727623px;line-height:1.25;font-family:Montserrat;-inkscape-font-specification:'Montserrat, Normal';font-variant-ligatures:normal;font-variant-caps:normal;font-variant-numeric:normal;font-feature-settings:normal;text-align:start;letter-spacing:0px;word-spacing:0px;writing-mode:lr-tb;text-anchor:start;fill:#1a1a1a;fill-opacity:1;stroke:none;stroke-width:0.1144319"
         id="path898"
         inkscape:connector-curvature="0" />
      <path
         d="m 127.6537,164.17739 v -1.19009 h 1.65697 v -0.28837 h -1.65697 v -1.13974 h 1.85837 v -0.29295 h -2.19709 v 3.2041 h 2.26575 v -0.29295 z"
         style="font-style:normal;font-variant:normal;font-weight:normal;font-stretch:normal;font-size:4.57727623px;line-height:1.25;font-family:Montserrat;-inkscape-font-specification:'Montserrat, Normal';font-variant-ligatures:normal;font-variant-caps:normal;font-variant-numeric:normal;font-feature-settings:normal;text-align:start;letter-spacing:0px;word-spacing:0px;writing-mode:lr-tb;text-anchor:start;fill:#1a1a1a;fill-opacity:1;stroke:none;stroke-width:0.1144319"
         id="path900"
         inkscape:connector-curvature="0" />
      <path
         d="m 131.6354,161.26624 h -1.19924 v 3.2041 h 0.33872 v -1.01158 h 0.86052 c 0.81476,0 1.3091,-0.41196 1.3091,-1.09397 0,-0.68659 -0.49434,-1.09855 -1.3091,-1.09855 z m -0.009,1.895 h -0.85137 v -1.60205 h 0.85137 c 0.64082,0 0.97954,0.29294 0.97954,0.8056 0,0.5035 -0.33872,0.79645 -0.97954,0.79645 z"
         style="font-style:normal;font-variant:normal;font-weight:normal;font-stretch:normal;font-size:4.57727623px;line-height:1.25;font-family:Montserrat;-inkscape-font-specification:'Montserrat, Normal';font-variant-ligatures:normal;font-variant-caps:normal;font-variant-numeric:normal;font-feature-settings:normal;text-align:start;letter-spacing:0px;word-spacing:0px;writing-mode:lr-tb;text-anchor:start;fill:#1a1a1a;fill-opacity:1;stroke:none;stroke-width:0.1144319"
         id="path902"
         inkscape:connector-curvature="0" />
      <path
         d="m 134.99002,164.4978 c 0.81933,0 1.19467,-0.4028 1.19467,-0.87426 0,-1.1672 -1.97281,-0.63624 -1.97281,-1.51508 0,-0.32041 0.26091,-0.58131 0.8468,-0.58131 0.28379,0 0.6042,0.087 0.87883,0.26548 l 0.11444,-0.27006 c -0.25633,-0.17851 -0.63167,-0.28379 -0.99327,-0.28379 -0.81476,0 -1.18094,0.40738 -1.18094,0.87884 0,1.18551 1.97281,0.64539 1.97281,1.52423 0,0.31583 -0.26091,0.56758 -0.86053,0.56758 -0.42111,0 -0.82849,-0.16478 -1.05735,-0.38907 l -0.13274,0.26091 c 0.23801,0.24717 0.70947,0.41653 1.19009,0.41653 z"
         style="font-style:normal;font-variant:normal;font-weight:normal;font-stretch:normal;font-size:4.57727623px;line-height:1.25;font-family:Montserrat;-inkscape-font-specification:'Montserrat, Normal';font-variant-ligatures:normal;font-variant-caps:normal;font-variant-numeric:normal;font-feature-settings:normal;text-align:start;letter-spacing:0px;word-spacing:0px;writing-mode:lr-tb;text-anchor:start;fill:#1a1a1a;fill-opacity:1;stroke:none;stroke-width:0.1144319"
         id="path904"
         inkscape:connector-curvature="0" />
    </g>
    <flowRoot
       xml:space="preserve"
       id="flowRoot861"
       style="font-style:normal;font-variant:normal;font-weight:normal;font-stretch:normal;font-size:40px;line-height:1.25;font-family:'League Gothic';-inkscape-font-specification:'League Gothic, Normal';font-variant-ligatures:normal;font-variant-caps:normal;font-variant-numeric:normal;font-feature-settings:normal;text-align:start;letter-spacing:0px;word-spacing:0px;writing-mode:lr-tb;text-anchor:start;fill:#000000;fill-opacity:1;stroke:none"
       transform="scale(0.26458333)"><flowRegion
         id="flowRegion863"><rect
           id="rect865"
           width="195.96959"
           height="60.609154"
           x="374.7666"
           y="597.24036" /></flowRegion><flowPara
         id="flowPara867"></flowPara></flowRoot>    <g
       id="g1033"
       transform="translate(-0.48938963,-0.47247019)">
      <path
         inkscape:connector-curvature="0"
         id="rect931"
         d="m 13.568879,287.20748 -0.402395,-10e-6 0.402396,0.40233 z m 10e-7,0.97131 -0.402398,0.40239 h 0.402405 z m -0.971384,-0.97131 H 12.19509 l 10e-6,0.40232 z m -4e-6,1.37371 -0.402402,-0.4024 8e-6,0.40239 z"
         style="opacity:1;fill:#deb647;fill-opacity:1;stroke:none;stroke-width:0.1045095;stroke-linecap:square;stroke-linejoin:bevel;stroke-miterlimit:4;stroke-dasharray:none;stroke-dashoffset:2.29999995;stroke-opacity:1" />
      <path
         style="opacity:1;fill:#deb647;fill-opacity:1;stroke:none;stroke-width:0.16409902;stroke-linecap:square;stroke-linejoin:bevel;stroke-miterlimit:4;stroke-dasharray:none;stroke-dashoffset:2.29999995;stroke-opacity:1"
         d="m 14.407237,287.89438 -0.44678,-0.44678 9e-5,0.89346 z m -1.07843,1.07843 -0.893552,-10e-6 0.446779,0.44678 z m -8.4e-5,-2.15695 -0.44678,-0.44678 -0.446685,0.44669 z m -1.525203,1.52521 -6e-6,-0.89356 -0.446773,0.44678 z"
         id="path936"
         inkscape:connector-curvature="0" />
      <path
         inkscape:connector-curvature="0"
         id="path970"
         d="m 14.446589,289.45904 7e-6,-0.91665 -0.916463,0.91663 z"
         style="opacity:1;fill:#deb647;fill-opacity:1;stroke:none;stroke-width:0.23806575;stroke-linecap:square;stroke-linejoin:bevel;stroke-miterlimit:4;stroke-dasharray:none;stroke-dashoffset:2.29999995;stroke-opacity:1" />
      <path
         inkscape:connector-curvature="0"
         id="path968"
         d="m 12.234011,289.45904 -0.916635,-0.91664 1.3e-5,0.91661 z"
         style="opacity:1;fill:#deb647;fill-opacity:1;stroke:none;stroke-width:0.23806575;stroke-linecap:square;stroke-linejoin:bevel;stroke-miterlimit:4;stroke-dasharray:none;stroke-dashoffset:2.29999995;stroke-opacity:1" />
      <path
         inkscape:connector-curvature="0"
         id="path966"
         d="m 14.446602,287.24627 -6e-6,-0.91664 h -0.916451 z"
         style="opacity:1;fill:#deb647;fill-opacity:1;stroke:none;stroke-width:0.23806575;stroke-linecap:square;stroke-linejoin:bevel;stroke-miterlimit:4;stroke-dasharray:none;stroke-dashoffset:2.29999995;stroke-opacity:1" />
      <path
         inkscape:connector-curvature="0"
         id="path942"
         d="m 11.317382,287.24628 0.916636,-0.91665 h -0.916629 z"
         style="opacity:1;fill:#deb647;fill-opacity:1;stroke:none;stroke-width:0.23806575;stroke-linecap:square;stroke-linejoin:bevel;stroke-miterlimit:4;stroke-dasharray:none;stroke-dashoffset:2.29999995;stroke-opacity:1" />
    </g>
    <g
       style="fill:#c49920;fill-opacity:1"
       transform="matrix(0.44707674,0,0,0.44707674,-43.260719,240.55318)"
       id="g959">
      <path
         style="opacity:1;fill:#c49920;fill-opacity:1;stroke:none;stroke-width:0.29688311;stroke-linecap:square;stroke-linejoin:bevel;stroke-miterlimit:4;stroke-dasharray:none;stroke-dashoffset:2.29999995;stroke-opacity:1"
         d="m 129.13725,142.5372 h -1.14311 l 1.1431,1.1429 z m 0,2.75924 -1.14311,1.14309 h 1.14311 z m -2.75944,-2.75924 h -1.14311 l 1e-5,1.1429 z m 0,3.90233 -1.14311,-1.14309 v 1.14309 z"
         id="path953"
         inkscape:connector-curvature="0" />
      <path
         inkscape:connector-curvature="0"
         id="path955"
         d="m 129.72575,141.94873 h -1.48787 l 1.48786,1.48759 z m 0,3.59142 -1.48787,1.48785 h 1.48787 z m -3.59168,-3.59142 h -1.48787 l 1e-5,1.48759 z m 0,5.07927 -1.48787,-1.48785 v 1.48785 z"
         style="opacity:1;fill:#c49920;fill-opacity:1;stroke:none;stroke-width:0.38642272;stroke-linecap:square;stroke-linejoin:bevel;stroke-miterlimit:4;stroke-dasharray:none;stroke-dashoffset:2.29999995;stroke-opacity:1" />
      <path
         style="opacity:1;fill:#c49920;fill-opacity:1;stroke:none;stroke-width:0.47596228;stroke-linecap:square;stroke-linejoin:bevel;stroke-miterlimit:4;stroke-dasharray:none;stroke-dashoffset:2.29999995;stroke-opacity:1"
         d="m 130.31425,141.36027 h -1.83262 l 1.83261,1.83227 z m 0,4.42359 -1.83262,1.8326 h 1.83262 z m -4.42393,-4.42359 h -1.83262 l 1e-5,1.83227 z m 0,6.25619 -1.83262,-1.8326 v 1.8326 z"
         id="path957"
         inkscape:connector-curvature="0" />
    </g>
    <g
       id="g1021"
       transform="matrix(0.86761563,0,0,0.81377839,0.01277621,59.009214)"
       style="fill:#000000">
      <path
         inkscape:connector-curvature="0"
         d="m 11.962893,295.65824 v 0 q -0.01472,-0.1574 -0.124557,-0.24232 -0.108704,-0.0861 -0.293274,-0.0861 -0.190232,0 -0.288745,0.0736 -0.09851,0.0736 -0.09851,0.21514 0,0.0962 0.06567,0.14381 0.06568,0.0476 0.263834,0.094 l 0.289877,0.0691 q 0.233261,0.0555 0.332907,0.16419 0.09965,0.10757 0.09965,0.30459 0,0.22647 -0.172115,0.35895 -0.170982,0.13249 -0.464257,0.13249 -0.326112,0 -0.50955,-0.15287 -0.178909,-0.1506 -0.178909,-0.41217 v -0.0125 0 h 0.207217 v 0 q 0.0057,0.18117 0.131351,0.27968 0.125689,0.0985 0.349891,0.0985 0.207217,0 0.314789,-0.0713 0.107572,-0.0713 0.107572,-0.20948 0,-0.12003 -0.07134,-0.17778 -0.0702,-0.0566 -0.283084,-0.10757 l -0.289877,-0.0691 q -0.219673,-0.0521 -0.313657,-0.14494 -0.09398,-0.0928 -0.09398,-0.25704 0,-0.23892 0.161923,-0.3782 0.163057,-0.14041 0.439346,-0.14041 0.280819,0 0.447272,0.14041 0.166453,0.14041 0.177776,0.38726 v 0 z"
         style="font-style:normal;font-variant:normal;font-weight:normal;font-stretch:normal;font-size:2.31901979px;line-height:1.25;font-family:Helvetica;-inkscape-font-specification:'Helvetica, Normal';font-variant-ligatures:normal;font-variant-caps:normal;font-variant-numeric:normal;font-feature-settings:normal;text-align:start;letter-spacing:0px;word-spacing:0px;writing-mode:lr-tb;text-anchor:start;fill:#000000;fill-opacity:1;stroke:none;stroke-width:0.05797549"
         id="path980" />
      <path
         inkscape:connector-curvature="0"
         d="m 13.086408,296.84039 v -1.46524 0 h -0.56277 v 0 -0.0996 -0.0996 0 h 1.350875 v 0 0.0996 0.0996 0 h -0.56277 v 0 1.46524 0 h -0.112101 z"
         style="font-style:normal;font-variant:normal;font-weight:normal;font-stretch:normal;font-size:2.31901979px;line-height:1.25;font-family:Helvetica;-inkscape-font-specification:'Helvetica, Normal';font-variant-ligatures:normal;font-variant-caps:normal;font-variant-numeric:normal;font-feature-settings:normal;text-align:start;letter-spacing:0px;word-spacing:0px;writing-mode:lr-tb;text-anchor:start;fill:#000000;fill-opacity:1;stroke:none;stroke-width:0.05797549"
         id="path982" />
      <path
         inkscape:connector-curvature="0"
         d="m 14.188406,296.84039 v 0 -1.66453 0 h 1.217259 v 0 0.0996 0.0996 0 H 14.41374 v 0 0.50842 0 h 0.905867 v 0.0996 0.0996 0 H 14.41374 v 0 0.55824 0 h 1.00438 v 0 0.0996 0.0996 0 z"
         style="font-style:normal;font-variant:normal;font-weight:normal;font-stretch:normal;font-size:2.31901979px;line-height:1.25;font-family:Helvetica;-inkscape-font-specification:'Helvetica, Normal';font-variant-ligatures:normal;font-variant-caps:normal;font-variant-numeric:normal;font-feature-settings:normal;text-align:start;letter-spacing:0px;word-spacing:0px;writing-mode:lr-tb;text-anchor:start;fill:#000000;fill-opacity:1;stroke:none;stroke-width:0.05797549"
         id="path984" />
      <path
         inkscape:connector-curvature="0"
         d="m 15.732013,296.84039 v 0 -1.66453 0 h 1.217259 v 0 0.0996 0.0996 0 h -0.991924 v 0 0.50842 0 h 0.905867 v 0.0996 0.0996 0 h -0.905867 v 0 0.55824 0 h 1.00438 v 0 0.0996 0.0996 0 z"
         style="font-style:normal;font-variant:normal;font-weight:normal;font-stretch:normal;font-size:2.31901979px;line-height:1.25;font-family:Helvetica;-inkscape-font-specification:'Helvetica, Normal';font-variant-ligatures:normal;font-variant-caps:normal;font-variant-numeric:normal;font-feature-settings:normal;text-align:start;letter-spacing:0px;word-spacing:0px;writing-mode:lr-tb;text-anchor:start;fill:#000000;fill-opacity:1;stroke:none;stroke-width:0.05797549"
         id="path986" />
      <path
         inkscape:connector-curvature="0"
         d="m 17.27562,296.84039 v -1.66453 0 h 0.112101 v 0 h 0.61599 q 0.242319,0 0.378199,0.12229 0.137013,0.12116 0.137013,0.33631 0,0.23666 -0.137013,0.37027 -0.13588,0.13362 -0.378199,0.13362 -0.318186,-10e-4 -0.502757,0.002 v 0 0.69978 0 H 17.388853 17.27562 Z m 0.225334,-0.89454 v 0 h 0.447272 q 0.175512,0 0.25704,-0.0736 0.08153,-0.0747 0.08153,-0.23326 0,-0.14041 -0.08153,-0.20496 -0.08153,-0.0657 -0.25704,-0.0657 h -0.447272 v 0 z"
         style="font-style:normal;font-variant:normal;font-weight:normal;font-stretch:normal;font-size:2.31901979px;line-height:1.25;font-family:Helvetica;-inkscape-font-specification:'Helvetica, Normal';font-variant-ligatures:normal;font-variant-caps:normal;font-variant-numeric:normal;font-feature-settings:normal;text-align:start;letter-spacing:0px;word-spacing:0px;writing-mode:lr-tb;text-anchor:start;fill:#000000;fill-opacity:1;stroke:none;stroke-width:0.05797549"
         id="path988" />
      <path
         inkscape:connector-curvature="0"
         d="m 19.910795,295.65824 v 0 q -0.01472,-0.1574 -0.124557,-0.24232 -0.108704,-0.0861 -0.293275,-0.0861 -0.190232,0 -0.288745,0.0736 -0.09851,0.0736 -0.09851,0.21514 0,0.0962 0.06568,0.14381 0.06568,0.0476 0.263833,0.094 l 0.289878,0.0691 q 0.233261,0.0555 0.332906,0.16419 0.09964,0.10757 0.09964,0.30459 0,0.22647 -0.172114,0.35895 -0.170983,0.13249 -0.464257,0.13249 -0.326112,0 -0.50955,-0.15287 -0.178909,-0.1506 -0.178909,-0.41217 v -0.0125 0 h 0.207217 v 0 q 0.0057,0.18117 0.131351,0.27968 0.125689,0.0985 0.349891,0.0985 0.207217,0 0.314789,-0.0713 0.107571,-0.0713 0.107571,-0.20948 0,-0.12003 -0.07134,-0.17778 -0.0702,-0.0566 -0.283083,-0.10757 l -0.289878,-0.0691 q -0.219672,-0.0521 -0.313656,-0.14494 -0.09398,-0.0928 -0.09398,-0.25704 0,-0.23892 0.161924,-0.3782 0.163056,-0.14041 0.439345,-0.14041 0.280819,0 0.447272,0.14041 0.166453,0.14041 0.177777,0.38726 v 0 z"
         style="font-style:normal;font-variant:normal;font-weight:normal;font-stretch:normal;font-size:2.31901979px;line-height:1.25;font-family:Helvetica;-inkscape-font-specification:'Helvetica, Normal';font-variant-ligatures:normal;font-variant-caps:normal;font-variant-numeric:normal;font-feature-settings:normal;text-align:start;letter-spacing:0px;word-spacing:0px;writing-mode:lr-tb;text-anchor:start;fill:#000000;fill-opacity:1;stroke:none;stroke-width:0.05797549"
         id="path990" />
    </g>
    <text
       xml:space="preserve"
       style="font-style:normal;font-variant:normal;font-weight:normal;font-stretch:normal;font-size:4.40594959px;line-height:1.25;font-family:'League Gothic';-inkscape-font-specification:'League Gothic, Normal';font-variant-ligatures:normal;font-variant-caps:normal;font-variant-numeric:normal;font-feature-settings:normal;text-align:start;letter-spacing:0px;word-spacing:0px;writing-mode:lr-tb;text-anchor:start;fill:#1a1a1a;fill-opacity:1;stroke:none;stroke-width:0.11014874;"
       x="0.3097986"
       y="293.50275"
       id="text1025"><tspan
         sodipodi:role="line"
         id="tspan1023"
         x="0.3097986"
         y="293.50275"
         style="font-style:normal;font-variant:normal;font-weight:bold;font-stretch:normal;font-size:4.40584163px;font-family:Cinzel;-inkscape-font-specification:'Cinzel, Bold';font-variant-ligatures:normal;font-variant-caps:normal;font-variant-numeric:normal;font-feature-settings:normal;text-align:start;writing-mode:lr;text-anchor:start;stroke-width:0.11014874;fill:#1a1a1a;">TRANQUIL</tspan></text>
    <text
       xml:space="preserve"
       style="font-style:normal;font-variant:normal;font-weight:normal;font-stretch:normal;font-size:2.90090251px;line-height:1.25;font-family:'League Gothic';-inkscape-font-specification:'League Gothic, Normal';font-variant-ligatures:normal;font-variant-caps:normal;font-variant-numeric:normal;font-feature-settings:normal;text-align:start;letter-spacing:0px;word-spacing:0px;writing-mode:lr-tb;text-anchor:start;fill:#000000;fill-opacity:1;stroke:none;stroke-width:0.07252257"
       x="7.5363541"
       y="296.89017"
       id="text1037"><tspan
         sodipodi:role="line"
         id="tspan1035"
         x="7.5363541"
         y="296.89017"
         style="font-style:normal;font-variant:normal;font-weight:normal;font-stretch:normal;font-size:2.90090251px;font-family:'Modern Sans';-inkscape-font-specification:'Modern Sans, Normal';font-variant-ligatures:normal;font-variant-caps:normal;font-variant-numeric:normal;font-feature-settings:normal;text-align:start;writing-mode:lr-tb;text-anchor:start;stroke-width:0.07252257">STEEPS</tspan></text>
  </g>
</svg>
