<?xml version="1.0" encoding="UTF-8" standalone="no"?>
<!-- Created with Inkscape (http://www.inkscape.org/) -->

<svg
   xmlns:dc="http://purl.org/dc/elements/1.1/"
   xmlns:cc="http://creativecommons.org/ns#"
   xmlns:rdf="http://www.w3.org/1999/02/22-rdf-syntax-ns#"
   xmlns:svg="http://www.w3.org/2000/svg"
   xmlns="http://www.w3.org/2000/svg"
   xmlns:sodipodi="http://sodipodi.sourceforge.net/DTD/sodipodi-0.dtd"
   xmlns:inkscape="http://www.inkscape.org/namespaces/inkscape"
   width="116"
   height="80"
   viewBox="0 0 30.691661 21.166657"
   version="1.1"
   id="svg32130"
   inkscape:version="0.92.2 (5c3e80d, 2017-08-06)"
   sodipodi:docname="logo9alt.svg">
  <defs
     id="defs32124" />
  <sodipodi:namedview
     id="base"
     pagecolor="#ffffff"
     bordercolor="#666666"
     borderopacity="1.0"
     inkscape:pageopacity="0.0"
     inkscape:pageshadow="2"
     inkscape:zoom="3.959798"
     inkscape:cx="33.035017"
     inkscape:cy="67.352376"
     inkscape:document-units="px"
     inkscape:current-layer="layer1"
     showgrid="false"
     units="px"
     inkscape:window-width="1366"
     inkscape:window-height="705"
     inkscape:window-x="-8"
     inkscape:window-y="-8"
     inkscape:window-maximized="1" />
  <metadata
     id="metadata32127">
    <rdf:RDF>
      <cc:Work
         rdf:about="">
        <dc:format>image/svg+xml</dc:format>
        <dc:type
           rdf:resource="http://purl.org/dc/dcmitype/StillImage" />
        <dc:title></dc:title>
      </cc:Work>
    </rdf:RDF>
  </metadata>
  <g
     inkscape:label="Layer 1"
     inkscape:groupmode="layer"
     id="layer1"
     transform="translate(0,-275.83342)">
    <g
       id="g24785"
       transform="matrix(0.90203799,0,0,0.90203799,-0.86401725,29.909361)"
       style="fill:#da7979;fill-opacity:1">
      <path
         d="m 8.3820866,299.84954 c 0.3694672,0 0.5381835,-0.18367 0.5381835,-0.3951 0,-0.54246 -0.933279,-0.27763 -0.933279,-0.72612 0,-0.16445 0.1302748,-0.299 0.4207233,-0.299 0.134546,0 0.2861776,0.0406 0.4100452,0.12601 l 0.040575,-0.0876 c -0.1153247,-0.0833 -0.2861773,-0.13455 -0.4506224,-0.13455 -0.367332,0 -0.5296415,0.18581 -0.5296415,0.39723 0,0.551 0.9332795,0.28191 0.9332795,0.73039 0,0.16231 -0.1324104,0.29258 -0.4314016,0.29258 -0.2007511,0 -0.390824,-0.0811 -0.4933353,-0.18793 l -0.04912,0.0811 c 0.1089177,0.11958 0.3224833,0.20289 0.544591,0.20289 z"
         style="font-style:normal;font-variant:normal;font-weight:300;font-stretch:normal;font-size:1.88695073px;line-height:1.25;font-family:Montserrat;-inkscape-font-specification:'Montserrat, Light';font-variant-ligatures:normal;font-variant-caps:normal;font-variant-numeric:normal;font-feature-settings:normal;text-align:start;letter-spacing:0px;word-spacing:0px;writing-mode:lr-tb;text-anchor:start;fill:#da7979;fill-opacity:1;stroke:#1a1a1a;stroke-width:0.11318002;stroke-miterlimit:4;stroke-dasharray:none"
         id="path24760"
         inkscape:connector-curvature="0" />
      <path
         d="m 10.070111,299.83886 h 0.108913 v -1.39671 h 0.538184 v -0.0982 H 9.5319214 v 0.0982 h 0.5381846 z"
         style="font-style:normal;font-variant:normal;font-weight:300;font-stretch:normal;font-size:1.88695073px;line-height:1.25;font-family:Montserrat;-inkscape-font-specification:'Montserrat, Light';font-variant-ligatures:normal;font-variant-caps:normal;font-variant-numeric:normal;font-feature-settings:normal;text-align:start;letter-spacing:0px;word-spacing:0px;writing-mode:lr-tb;text-anchor:start;fill:#da7979;fill-opacity:1;stroke:#1a1a1a;stroke-width:0.11318002;stroke-miterlimit:4;stroke-dasharray:none"
         id="path24762"
         inkscape:connector-curvature="0" />
      <path
         d="m 11.437779,299.74062 v -0.61293 h 0.796597 v -0.0961 h -0.796597 v -0.58943 h 0.890566 v -0.0982 H 11.32886 v 1.49495 h 1.031519 v -0.0982 z"
         style="font-style:normal;font-variant:normal;font-weight:300;font-stretch:normal;font-size:1.88695073px;line-height:1.25;font-family:Montserrat;-inkscape-font-specification:'Montserrat, Light';font-variant-ligatures:normal;font-variant-caps:normal;font-variant-numeric:normal;font-feature-settings:normal;text-align:start;letter-spacing:0px;word-spacing:0px;writing-mode:lr-tb;text-anchor:start;fill:#da7979;fill-opacity:1;stroke:#1a1a1a;stroke-width:0.11318002;stroke-miterlimit:4;stroke-dasharray:none"
         id="path24764"
         inkscape:connector-curvature="0" />
      <path
         d="m 13.080948,299.74062 v -0.61293 h 0.796598 v -0.0961 h -0.796598 v -0.58943 h 0.890567 v -0.0982 H 12.97203 v 1.49495 h 1.031519 v -0.0982 z"
         style="font-style:normal;font-variant:normal;font-weight:300;font-stretch:normal;font-size:1.88695073px;line-height:1.25;font-family:Montserrat;-inkscape-font-specification:'Montserrat, Light';font-variant-ligatures:normal;font-variant-caps:normal;font-variant-numeric:normal;font-feature-settings:normal;text-align:start;letter-spacing:0px;word-spacing:0px;writing-mode:lr-tb;text-anchor:start;fill:#da7979;fill-opacity:1;stroke:#1a1a1a;stroke-width:0.11318002;stroke-miterlimit:4;stroke-dasharray:none"
         id="path24766"
         inkscape:connector-curvature="0" />
      <path
         d="m 15.231461,298.34391 h -0.536048 v 1.49495 h 0.108913 v -0.48906 h 0.42713 c 0.375876,0 0.602254,-0.18794 0.602254,-0.50188 0,-0.31608 -0.226378,-0.50401 -0.602254,-0.50401 z m 0,0.90764 h -0.42713 v -0.8094 h 0.42713 c 0.320348,0 0.4912,0.14735 0.4912,0.40577 0,0.25627 -0.170852,0.40363 -0.4912,0.40363 z"
         style="font-style:normal;font-variant:normal;font-weight:300;font-stretch:normal;font-size:1.88695073px;line-height:1.25;font-family:Montserrat;-inkscape-font-specification:'Montserrat, Light';font-variant-ligatures:normal;font-variant-caps:normal;font-variant-numeric:normal;font-feature-settings:normal;text-align:start;letter-spacing:0px;word-spacing:0px;writing-mode:lr-tb;text-anchor:start;fill:#da7979;fill-opacity:1;stroke:#1a1a1a;stroke-width:0.11318002;stroke-miterlimit:4;stroke-dasharray:none"
         id="path24768"
         inkscape:connector-curvature="0" />
      <path
         d="m 16.909741,299.84954 c 0.369468,0 0.538185,-0.18367 0.538185,-0.3951 0,-0.54246 -0.93328,-0.27763 -0.93328,-0.72612 0,-0.16445 0.130274,-0.299 0.420724,-0.299 0.134545,0 0.286177,0.0406 0.410044,0.12601 l 0.04057,-0.0876 c -0.115325,-0.0833 -0.286177,-0.13455 -0.450622,-0.13455 -0.367332,0 -0.529641,0.18581 -0.529641,0.39723 0,0.551 0.933279,0.28191 0.933279,0.73039 0,0.16231 -0.132411,0.29258 -0.431402,0.29258 -0.200751,0 -0.390824,-0.0811 -0.493334,-0.18793 l -0.04912,0.0811 c 0.108914,0.11958 0.322483,0.20289 0.544591,0.20289 z"
         style="font-style:normal;font-variant:normal;font-weight:300;font-stretch:normal;font-size:1.88695073px;line-height:1.25;font-family:Montserrat;-inkscape-font-specification:'Montserrat, Light';font-variant-ligatures:normal;font-variant-caps:normal;font-variant-numeric:normal;font-feature-settings:normal;text-align:start;letter-spacing:0px;word-spacing:0px;writing-mode:lr-tb;text-anchor:start;fill:#da7979;fill-opacity:1;stroke:#1a1a1a;stroke-width:0.11318002;stroke-miterlimit:4;stroke-dasharray:none"
         id="path24770"
         inkscape:connector-curvature="0" />
    </g>
    <g
       id="g30469"
       transform="matrix(1.6811793,0,0,1.6811793,-1.553684,-201.68401)"
       style="fill:#ceba6d;fill-opacity:1">
      <g
         transform="matrix(0.60014469,0,0,0.60014469,2.2789757,114.57059)"
         id="g1033"
         style="fill:#ceba6d;fill-opacity:1">
        <path
           style="opacity:1;fill:#ceba6d;fill-opacity:1;stroke:none;stroke-width:0.1045095;stroke-linecap:square;stroke-linejoin:bevel;stroke-miterlimit:4;stroke-dasharray:none;stroke-dashoffset:2.29999995;stroke-opacity:1"
           d="m 13.568879,287.20748 -0.402395,-10e-6 0.402396,0.40233 z m 10e-7,0.97131 -0.402398,0.40239 h 0.402405 z m -0.971384,-0.97131 H 12.19509 l 10e-6,0.40232 z m -4e-6,1.37371 -0.402402,-0.4024 8e-6,0.40239 z"
           id="rect931"
           inkscape:connector-curvature="0" />
        <path
           inkscape:connector-curvature="0"
           id="path936"
           d="m 14.407237,287.89438 -0.44678,-0.44678 9e-5,0.89346 z m -1.07843,1.07843 -0.893552,-10e-6 0.446779,0.44678 z m -8.4e-5,-2.15695 -0.44678,-0.44678 -0.446685,0.44669 z m -1.525203,1.52521 -6e-6,-0.89356 -0.446773,0.44678 z"
           style="opacity:1;fill:#ceba6d;fill-opacity:1;stroke:none;stroke-width:0.16409902;stroke-linecap:square;stroke-linejoin:bevel;stroke-miterlimit:4;stroke-dasharray:none;stroke-dashoffset:2.29999995;stroke-opacity:1" />
        <path
           style="opacity:1;fill:#ceba6d;fill-opacity:1;stroke:none;stroke-width:0.23806575;stroke-linecap:square;stroke-linejoin:bevel;stroke-miterlimit:4;stroke-dasharray:none;stroke-dashoffset:2.29999995;stroke-opacity:1"
           d="m 14.446589,289.45904 7e-6,-0.91665 -0.916463,0.91663 z"
           id="path970"
           inkscape:connector-curvature="0" />
        <path
           style="opacity:1;fill:#ceba6d;fill-opacity:1;stroke:none;stroke-width:0.23806575;stroke-linecap:square;stroke-linejoin:bevel;stroke-miterlimit:4;stroke-dasharray:none;stroke-dashoffset:2.29999995;stroke-opacity:1"
           d="m 12.234011,289.45904 -0.916635,-0.91664 1.3e-5,0.91661 z"
           id="path968"
           inkscape:connector-curvature="0" />
        <path
           style="opacity:1;fill:#ceba6d;fill-opacity:1;stroke:none;stroke-width:0.23806575;stroke-linecap:square;stroke-linejoin:bevel;stroke-miterlimit:4;stroke-dasharray:none;stroke-dashoffset:2.29999995;stroke-opacity:1"
           d="m 14.446602,287.24627 -6e-6,-0.91664 h -0.916451 z"
           id="path966"
           inkscape:connector-curvature="0" />
        <path
           style="opacity:1;fill:#ceba6d;fill-opacity:1;stroke:none;stroke-width:0.23806575;stroke-linecap:square;stroke-linejoin:bevel;stroke-miterlimit:4;stroke-dasharray:none;stroke-dashoffset:2.29999995;stroke-opacity:1"
           d="m 11.317382,287.24628 0.916636,-0.91665 h -0.916629 z"
           id="path942"
           inkscape:connector-curvature="0" />
      </g>
      <path
         inkscape:connector-curvature="0"
         id="rect29680"
         d="m 8.7050863,285.62428 c -0.2535002,0 -0.457406,0.2039 -0.457406,0.45741 v 0.56446 l 1.0218635,-1.02187 z m 2.0096647,0 1.021864,1.02187 v -0.56446 c 0,-0.25351 -0.203906,-0.45741 -0.457405,-0.45741 z m -2.4670707,2.46707 v 0.56446 c 0,0.25351 0.2039058,0.45741 0.457406,0.45741 h 0.5644575 z m 3.4889347,0 -1.021864,1.02187 h 0.564459 c 0.253499,0 0.457405,-0.2039 0.457405,-0.45741 z"
         style="opacity:1;fill:#ceba6d;fill-opacity:1;stroke:none;stroke-width:0.08560288;stroke-linecap:square;stroke-linejoin:bevel;stroke-miterlimit:4;stroke-dasharray:none;stroke-dashoffset:2.29999995;stroke-opacity:1" />
      <g
         id="g29699"
         transform="matrix(0.60014469,0,0,0.60014469,2.2789757,114.57059)"
         style="fill:#ceba6d;fill-opacity:1">
        <path
           inkscape:connector-curvature="0"
           id="path29687"
           d="m 13.568879,287.20748 -0.402395,-10e-6 0.402396,0.40233 z m 10e-7,0.97131 -0.402398,0.40239 h 0.402405 z m -0.971384,-0.97131 H 12.19509 l 10e-6,0.40232 z m -4e-6,1.37371 -0.402402,-0.4024 8e-6,0.40239 z"
           style="opacity:1;fill:#ceba6d;fill-opacity:1;stroke:none;stroke-width:0.1045095;stroke-linecap:square;stroke-linejoin:bevel;stroke-miterlimit:4;stroke-dasharray:none;stroke-dashoffset:2.29999995;stroke-opacity:1" />
        <path
           style="opacity:1;fill:#ceba6d;fill-opacity:1;stroke:none;stroke-width:0.16409902;stroke-linecap:square;stroke-linejoin:bevel;stroke-miterlimit:4;stroke-dasharray:none;stroke-dashoffset:2.29999995;stroke-opacity:1"
           d="m 14.407237,287.89438 -0.44678,-0.44678 9e-5,0.89346 z m -1.07843,1.07843 -0.893552,-10e-6 0.446779,0.44678 z m -8.4e-5,-2.15695 -0.44678,-0.44678 -0.446685,0.44669 z m -1.525203,1.52521 -6e-6,-0.89356 -0.446773,0.44678 z"
           id="path29689"
           inkscape:connector-curvature="0" />
        <path
           inkscape:connector-curvature="0"
           id="path29691"
           d="m 14.446589,289.45904 7e-6,-0.91665 -0.916463,0.91663 z"
           style="opacity:1;fill:#ceba6d;fill-opacity:1;stroke:none;stroke-width:0.23806575;stroke-linecap:square;stroke-linejoin:bevel;stroke-miterlimit:4;stroke-dasharray:none;stroke-dashoffset:2.29999995;stroke-opacity:1" />
        <path
           inkscape:connector-curvature="0"
           id="path29693"
           d="m 12.234011,289.45904 -0.916635,-0.91664 1.3e-5,0.91661 z"
           style="opacity:1;fill:#ceba6d;fill-opacity:1;stroke:none;stroke-width:0.23806575;stroke-linecap:square;stroke-linejoin:bevel;stroke-miterlimit:4;stroke-dasharray:none;stroke-dashoffset:2.29999995;stroke-opacity:1" />
        <path
           inkscape:connector-curvature="0"
           id="path29695"
           d="m 14.446602,287.24627 -6e-6,-0.91664 h -0.916451 z"
           style="opacity:1;fill:#ceba6d;fill-opacity:1;stroke:none;stroke-width:0.23806575;stroke-linecap:square;stroke-linejoin:bevel;stroke-miterlimit:4;stroke-dasharray:none;stroke-dashoffset:2.29999995;stroke-opacity:1" />
        <path
           inkscape:connector-curvature="0"
           id="path29697"
           d="m 11.317382,287.24628 0.916636,-0.91665 h -0.916629 z"
           style="opacity:1;fill:#ceba6d;fill-opacity:1;stroke:none;stroke-width:0.23806575;stroke-linecap:square;stroke-linejoin:bevel;stroke-miterlimit:4;stroke-dasharray:none;stroke-dashoffset:2.29999995;stroke-opacity:1" />
      </g>
    </g>
    <g
       id="g32756"
       transform="matrix(1.4515934,0,0,1.4515934,-0.046179,-134.13668)">
      <g
         style="fill:#ceba6d;fill-opacity:1"
         transform="matrix(1.1581613,0,0,1.1581613,-1.1211175,-46.67497)"
         id="g30452">
        <path
           sodipodi:nodetypes="ccssccccscscsccccsscsccscsccscsscssccscccccccccccc"
           inkscape:connector-curvature="0"
           id="path30393"
           style="font-style:normal;font-variant:normal;font-weight:normal;font-stretch:normal;font-size:3.5810473px;line-height:1.25;font-family:'EB Garamond 12 All SC';-inkscape-font-specification:'EB Garamond 12 All SC, Normal';font-variant-ligatures:normal;font-variant-caps:normal;font-variant-numeric:normal;font-feature-settings:normal;text-align:start;letter-spacing:0px;word-spacing:0px;writing-mode:lr-tb;text-anchor:start;fill:#ceba6d;fill-opacity:1;stroke:none;stroke-width:0.11377254"
           d="m 2.6925394,290.57723 c -0.2245124,0 -0.3731761,0.003 -0.4459909,0.009 -0.033374,0.004 -0.05006,0.0489 -0.05006,0.13652 v 1.56729 c 0,0.0698 0.019721,0.12289 0.059163,0.15927 0.060679,0.0546 0.1395618,0.091 0.2366482,0.10917 0.01517,0.004 0.025788,0.0155 0.031856,0.0365 0.00606,0.0182 0.00606,0.0365 0,0.0546 -0.00606,0.0151 -0.016685,0.0227 -0.031856,0.0227 -0.057645,0 -0.1365279,-0.005 -0.2366482,-0.0137 -0.097087,-0.0127 -0.1774862,-0.0182 -0.2411992,-0.0182 -0.060679,0 -0.1380448,0.006 -0.2320973,0.0182 -0.094052,0.009 -0.1683843,0.0137 -0.2229954,0.0137 -0.012136,0 -0.021237,-0.008 -0.027305,-0.0227 -0.00606,-0.0182 -0.00759,-0.0365 -0.00455,-0.0546 0.00606,-0.0212 0.016685,-0.0334 0.031856,-0.0365 0.097087,-0.0182 0.1759692,-0.0546 0.2366483,-0.10917 0.039442,-0.0365 0.059163,-0.0895 0.059163,-0.15927 v -1.56729 c 0,-0.0849 -0.018203,-0.13046 -0.054612,-0.13652 -0.036408,-0.006 -0.148664,-0.009 -0.3367687,-0.009 -0.1031538,0 -0.1790031,0.0425 -0.2275464,0.12743 -0.012136,0.0212 -0.034891,0.0485 -0.068264,0.082 -0.030339,0.0304 -0.056128,0.0455 -0.077366,0.0455 -0.042475,0 -0.045509,-0.0394 -0.0091,-0.11831 0.018204,-0.0365 0.031856,-0.0759 0.040958,-0.11832 0.0091,-0.0424 0.016686,-0.0986 0.022754,-0.16838 0.00606,-0.0698 0.010611,-0.11235 0.013653,-0.12743 0.00606,-0.0455 0.025787,-0.0683 0.059163,-0.0683 0.021237,0 0.05006,0.0319 0.086468,0.0956 0.021237,0.0424 0.087984,0.0637 0.2002408,0.0637 h 1.2333016 c 0.1213586,0 0.1987237,-0.0197 0.2320973,-0.0591 0.036408,-0.0365 0.072815,-0.0546 0.109222,-0.0546 0.0091,0 0.018203,0.006 0.027305,0.0182 0.0091,0.0127 0.010624,0.0243 0.00455,0.0365 -0.027305,0.0546 -0.053094,0.19724 -0.077366,0.42779 -0.00304,0.0151 -0.00606,0.0288 -0.0091,0.0409 -0.00304,0.0127 -0.0091,0.0227 -0.018203,0.0319 -0.00606,0.009 -0.015168,0.0136 -0.027305,0.0136 -0.027305,-0.004 -0.051577,-0.0383 -0.072815,-0.10471 0,-0.004 -0.00151,-0.0127 -0.00455,-0.0273 -0.00304,-0.0151 -0.00606,-0.0258 -0.0091,-0.0319 0,-0.006 -0.00304,-0.015 -0.0091,-0.0273 -0.00606,-0.0127 -0.012136,-0.0197 -0.018203,-0.0227 -0.00304,-0.006 -0.010611,-0.0135 -0.022754,-0.0227 -0.0091,-0.009 -0.021237,-0.0151 -0.036407,-0.0182 -0.012136,-0.004 -0.028823,-0.006 -0.050061,-0.009 -0.018203,-0.004 -0.039442,-0.005 -0.063713,-0.005 z" />
        <path
           inkscape:connector-curvature="0"
           id="path30395"
           style="font-style:normal;font-variant:normal;font-weight:normal;font-stretch:normal;font-size:3.5810473px;line-height:1.25;font-family:'EB Garamond 12 All SC';-inkscape-font-specification:'EB Garamond 12 All SC, Normal';font-variant-ligatures:normal;font-variant-caps:normal;font-variant-numeric:normal;font-feature-settings:normal;text-align:start;letter-spacing:0px;word-spacing:0px;writing-mode:lr-tb;text-anchor:start;fill:#ceba6d;fill-opacity:1;stroke:none;stroke-width:0.11377254"
           d="m 3.9802854,291.79863 q 0.00455,0.10472 0.0091,0.27307 0.00455,0.16382 0.00455,0.21844 0.00455,0.18203 0.2958103,0.25485 0.022754,0.009 0.022754,0.0728 0,0.0592 -0.022754,0.0592 -0.018203,0 -0.1774863,-0.0137 -0.1592823,-0.0136 -0.2594028,-0.0136 -0.113773,0 -0.3003612,0.0136 -0.1820371,0.0137 -0.2093427,0.0137 -0.022754,0 -0.022754,-0.0546 0,-0.0546 0.022754,-0.0592 0.1319769,-0.0319 0.2047918,-0.10472 0.091019,-0.082 0.091019,-0.1866 v -1.2151 q 0,-0.18203 -0.040958,-0.22754 -0.04551,-0.0501 -0.077366,-0.0637 -0.027305,-0.0182 -0.1183238,-0.0409 -0.013653,-0.005 -0.022754,-0.0319 -0.0091,-0.0273 -0.0091,-0.0546 0.00455,-0.0273 0.027305,-0.0273 0.063713,0 0.1956898,0.009 0.131977,0.005 0.2184446,0.005 0.050061,0 0.1638334,-0.0136 0.1183238,-0.0136 0.2184445,-0.0136 0.3549724,0 0.5734168,0.14562 0.2184445,0.14108 0.2184445,0.39138 0,0.0956 -0.059163,0.21845 -0.054612,0.12289 -0.1001204,0.16383 -0.091019,0.091 -0.1820371,0.13198 -0.018203,0.005 0,0.0273 0.05461,0.0818 0.1547316,0.25941 0.1046712,0.17293 0.1911389,0.2958 0.091019,0.11831 0.2184445,0.2412 0.045509,0.0455 0.086468,0.0682 0.04551,0.0182 0.068264,0.0227 0.027305,0.005 0.091019,0.005 0.063713,-0.005 0.095569,-0.005 0.013653,0 0.018204,0.0182 0.00455,0.0182 -0.00455,0.0409 -0.0091,0.0227 -0.022754,0.0319 -0.1001203,0.0682 -0.2229954,0.0682 -0.3595233,0 -0.505153,-0.17294 -0.054612,-0.0682 -0.1001204,-0.13197 -0.04551,-0.0637 -0.072815,-0.1093 -0.027305,-0.0501 -0.1001204,-0.16838 -0.068264,-0.11832 -0.1274259,-0.2139 -0.054612,-0.082 -0.1365279,-0.12289 -0.113773,-0.0592 -0.250301,-0.0682 -0.022754,-0.005 -0.036407,0.0136 -0.0091,0.0182 -0.0091,0.0501 z m 0,-0.31401 q 0,0.0592 0.022754,0.0864 0.022754,0.0227 0.040958,0.0273 0.022754,0 0.086468,0 0.1956899,0 0.3322177,-0.091 0.1410787,-0.0864 0.1410787,-0.36863 0,-0.40958 -0.4095834,-0.40958 -0.1183238,0 -0.1592825,0.0455 -0.036407,0.0409 -0.040958,0.12743 -0.018204,0.41868 -0.013653,0.58251 z" />
        <path
           inkscape:connector-curvature="0"
           id="path30397"
           style="font-style:normal;font-variant:normal;font-weight:normal;font-stretch:normal;font-size:3.5810473px;line-height:1.25;font-family:'EB Garamond 12 All SC';-inkscape-font-specification:'EB Garamond 12 All SC, Normal';font-variant-ligatures:normal;font-variant-caps:normal;font-variant-numeric:normal;font-feature-settings:normal;text-align:start;letter-spacing:0px;word-spacing:0px;writing-mode:lr-tb;text-anchor:start;fill:#ceba6d;fill-opacity:1;stroke:none;stroke-width:0.11377254"
           d="m 5.5888754,292.67242 q -0.027305,0 -0.027305,-0.0501 0.00455,-0.0501 0.027305,-0.0592 0.1683844,-0.0546 0.2594029,-0.13198 0.077366,-0.0637 0.1410788,-0.19113 0.2002408,-0.41869 0.5279076,-1.21965 0.022754,-0.0637 0.031856,-0.11831 0.00455,-0.0228 0.0091,-0.0592 0.00455,-0.0363 0.0091,-0.0591 l 0.00455,-0.0273 q 0.027305,-0.005 0.1046713,-0.0591 0.077366,-0.0546 0.1001203,-0.082 0.05461,-0.0637 0.063713,-0.0637 0.018204,0 0.031856,0.0409 0.091019,0.24574 0.2685046,0.75545 0.1820371,0.5097 0.3003613,0.82371 0.050061,0.14563 0.1592824,0.25941 0.1001204,0.10916 0.2047917,0.13197 0.027305,0.009 0.031856,0.0592 0.00455,0.0501 -0.031856,0.0501 -0.081917,0 -0.2184444,-0.0137 -0.131977,-0.009 -0.2184446,-0.009 -0.1001203,0 -0.250301,0.009 -0.1501806,0.0137 -0.2229954,0.0137 -0.018203,0 -0.022754,-0.0273 -0.00455,-0.0273 0.00455,-0.0546 0.0091,-0.0273 0.022754,-0.0273 0.1183238,-0.0227 0.1820371,-0.12289 0.036407,-0.0637 0.0091,-0.18658 -0.0091,-0.0501 -0.063713,-0.1957 -0.0091,-0.0319 -0.086468,-0.0319 h -0.64622 q -0.031856,0 -0.05461,0.0546 -0.072815,0.18204 -0.072815,0.19568 -0.018204,0.11374 0.00455,0.15019 0.068264,0.10917 0.191139,0.13653 0.031856,0.005 0.031856,0.0592 0,0.0501 -0.031856,0.0501 -0.091019,0 -0.2275465,-0.0137 -0.1365278,-0.009 -0.2229954,-0.009 -0.063713,0 -0.1638334,0.009 -0.1001203,0.0137 -0.1592815,0.0137 z m 1.0603661,-1.54732 q -0.095569,0.23664 -0.3231158,0.7327 -0.013653,0.0273 0,0.0364 0.013653,0.009 0.059163,0.009 h 0.5324584 q 0.036407,0 0.040958,-0.005 0.00455,-0.005 -0.00455,-0.0409 -0.027305,-0.10014 -0.250301,-0.7327 -0.013653,-0.0365 -0.022754,-0.0455 -0.00455,-0.009 -0.013653,0 -0.00455,0.009 -0.018203,0.0455 z" />
        <path
           inkscape:connector-curvature="0"
           id="path30399"
           style="font-style:normal;font-variant:normal;font-weight:normal;font-stretch:normal;font-size:3.5810473px;line-height:1.25;font-family:'EB Garamond 12 All SC';-inkscape-font-specification:'EB Garamond 12 All SC, Normal';font-variant-ligatures:normal;font-variant-caps:normal;font-variant-numeric:normal;font-feature-settings:normal;text-align:start;letter-spacing:0px;word-spacing:0px;writing-mode:lr-tb;text-anchor:start;fill:#ceba6d;fill-opacity:1;stroke:none;stroke-width:0.11377254"
           d="m 8.1495198,292.67242 q -0.02731,0 -0.02731,-0.0501 0.00457,-0.0546 0.02731,-0.0592 0.1365286,-0.0227 0.1820373,-0.0728 0.059157,-0.0637 0.068269,-0.20023 0.03186,-0.57798 0.03186,-1.27427 0,-0.13198 -0.02731,-0.16383 -0.091017,-0.10929 -0.2912593,-0.12742 -0.03186,0 -0.03186,-0.0546 0,-0.0546 0.03186,-0.0546 0.022748,0.005 0.3322171,0.005 0.314015,-0.005 0.3231167,-0.005 0.018198,0 0.02731,0.009 0.00915,0.009 0.022761,0.0319 0.013649,0.0182 0.022761,0.0273 0.1456303,0.17294 0.5415608,0.66443 0.4004814,0.48695 0.6871906,0.81007 0.0046,0.005 0.01365,0.0228 0.01365,0.0136 0.02276,0.0227 0.0091,0.009 0.0182,0.0136 0.01365,0.005 0.0182,-0.009 0.0091,-0.0136 0.0091,-0.0501 0.01365,-0.40504 -0.01365,-1.21965 0,-0.0409 -0.02731,-0.0728 -0.02731,-0.0365 -0.07282,-0.0592 -0.040959,-0.0227 -0.077369,-0.0363 -0.036409,-0.0137 -0.081918,-0.0273 -0.045509,-0.0136 -0.054608,-0.0182 -0.013649,-0.005 -0.018198,-0.0501 0,-0.0501 0.018198,-0.0501 0.081918,0 0.20024,0.009 0.122878,0.009 0.200242,0.009 0.07282,0 0.191141,-0.009 0.118328,-0.009 0.186588,-0.009 0.01365,0 0.0182,0.0501 0.0046,0.0501 -0.0182,0.0501 -0.08647,0.0136 -0.159283,0.0728 -0.08192,0.0546 -0.08647,0.12289 -0.01365,0.23211 -0.02276,0.45965 -0.0046,0.22299 -0.0046,0.36862 0,0.14109 0,0.41414 0.0046,0.2685 0.0046,0.43689 0,0.0501 -0.03641,0.0864 -0.03186,0.0365 -0.07737,0.0365 -0.118329,0 -0.2275485,-0.12289 -0.5597631,-0.69175 -1.2196477,-1.4381 -0.040959,-0.0455 -0.068269,-0.0546 -0.02731,-0.009 -0.036409,0.005 -0.00457,0.009 -0.00915,0.0364 -0.02731,0.86468 -0.018198,1.1787 0.00915,0.10472 0.050058,0.15017 0.054608,0.0682 0.1592816,0.0864 0.02731,0.005 0.022761,0.0592 0,0.0501 -0.036409,0.0501 -0.081918,0 -0.1820372,-0.009 -0.1001166,-0.009 -0.1638325,-0.009 -0.063707,0 -0.1683846,0.009 -0.1046662,0.009 -0.1729355,0.009 z" />
        <path
           inkscape:connector-curvature="0"
           id="path30401"
           style="font-style:normal;font-variant:normal;font-weight:normal;font-stretch:normal;font-size:3.5810473px;line-height:1.25;font-family:'EB Garamond 12 All SC';-inkscape-font-specification:'EB Garamond 12 All SC, Normal';font-variant-ligatures:normal;font-variant-caps:normal;font-variant-numeric:normal;font-feature-settings:normal;text-align:start;letter-spacing:0px;word-spacing:0px;writing-mode:lr-tb;text-anchor:start;fill:#ceba6d;fill-opacity:1;stroke:none;stroke-width:0.11377254"
           d="m 11.707603,292.79983 q -0.131978,-0.0728 -0.172936,-0.082 -0.222996,-0.0546 -0.496051,-0.35043 -0.268505,-0.29581 -0.268505,-0.65078 0,-0.48241 0.332217,-0.81462 0.33677,-0.33677 0.83282,-0.33677 0.445992,0 0.805514,0.2685 0.364075,0.26851 0.364075,0.67355 0,0.2685 -0.08192,0.48239 -0.08192,0.2139 -0.227545,0.35497 -0.14108,0.13653 -0.245751,0.20935 -0.100117,0.0682 -0.236648,0.13653 -0.06371,0.0365 0.02731,0.091 0.49605,0.31401 1.001204,0.50515 0.505153,0.19114 0.869227,0.19114 0.241199,0 0.359523,-0.009 0.122877,-0.005 0.34132,-0.0409 0.218444,-0.0363 0.405032,-0.13197 0.191139,-0.0956 0.377727,-0.25031 0.03641,-0.0273 0.06372,0 0.03641,0.0455 0.0046,0.0728 -0.191139,0.18203 -0.441441,0.30491 -0.250301,0.12289 -0.486949,0.16384 -0.236647,0.0455 -0.386828,0.0546 -0.145631,0.0136 -0.250302,0.009 -0.992102,-0.0227 -2.489356,-0.85103 z m 0.218444,-2.09797 q -0.345871,0 -0.564315,0.25485 -0.213894,0.25486 -0.209343,0.60528 0,0.43234 0.227546,0.7418 0.232098,0.30491 0.618927,0.30491 0.341319,0 0.532458,-0.28671 0.191139,-0.29125 0.191139,-0.66443 0,-0.39593 -0.209343,-0.67354 -0.209342,-0.28216 -0.587069,-0.28216 z" />
        <path
           inkscape:connector-curvature="0"
           id="path30403"
           style="font-style:normal;font-variant:normal;font-weight:normal;font-stretch:normal;font-size:3.5810473px;line-height:1.25;font-family:'EB Garamond 12 All SC';-inkscape-font-specification:'EB Garamond 12 All SC, Normal';font-variant-ligatures:normal;font-variant-caps:normal;font-variant-numeric:normal;font-feature-settings:normal;text-align:start;letter-spacing:0px;word-spacing:0px;writing-mode:lr-tb;text-anchor:start;fill:#ceba6d;fill-opacity:1;stroke:none;stroke-width:0.11377254"
           d="m 13.550075,291.73037 v -0.76456 q 0,-0.091 -0.02731,-0.14107 -0.02731,-0.0547 -0.05461,-0.0637 -0.02731,-0.0137 -0.09557,-0.0365 -0.0182,-0.005 -0.03186,-0.0319 -0.0091,-0.0273 -0.0046,-0.0546 0.0046,-0.0273 0.02731,-0.0273 0.07282,0 0.19569,0.005 0.122877,0.005 0.200242,0.005 0.05461,0 0.136527,-0.005 0.08192,-0.005 0.177487,-0.005 0.02731,0 0.02731,0.0501 0,0.0501 -0.02731,0.0592 -0.177487,0.0228 -0.182038,0.2776 v 0.81917 q 0,0.30491 0.191139,0.52336 0.19569,0.21844 0.500602,0.21844 0.291259,0 0.427788,-0.18203 0.136527,-0.18204 0.136527,-0.59618 v -0.71449 q 0.0046,-0.19569 -0.04096,-0.2503 -0.04096,-0.0592 -0.163834,-0.091 -0.03186,-0.009 -0.03186,-0.0637 0.0046,-0.0546 0.03641,-0.0546 h 0.327666 q 0.06827,0 0.182038,0 0.113778,-0.005 0.186588,-0.005 0.02731,0 0.02276,0.0501 -0.0046,0.0455 -0.02276,0.0501 -0.254851,0.0501 -0.263954,0.2503 -0.03186,0.35042 -0.03186,0.71904 0,1.04673 -0.823718,1.04673 -0.459643,0 -0.719047,-0.28217 -0.254852,-0.28215 -0.254852,-0.70539 z" />
        <path
           inkscape:connector-curvature="0"
           id="path30405"
           style="font-style:normal;font-variant:normal;font-weight:normal;font-stretch:normal;font-size:3.5810473px;line-height:1.25;font-family:'EB Garamond 12 All SC';-inkscape-font-specification:'EB Garamond 12 All SC, Normal';font-variant-ligatures:normal;font-variant-caps:normal;font-variant-numeric:normal;font-feature-settings:normal;text-align:start;letter-spacing:0px;word-spacing:0px;writing-mode:lr-tb;text-anchor:start;fill:#ceba6d;fill-opacity:1;stroke:none;stroke-width:0.11377254"
           d="m 16.56951,290.94307 v 1.34252 q 0,0.10916 0.06371,0.16839 0.09102,0.082 0.2412,0.10916 0.04096,0.009 0.04096,0.0592 0,0.0501 -0.04096,0.0501 -0.09102,0 -0.232098,-0.0137 -0.141078,-0.009 -0.232097,-0.009 -0.100117,0 -0.254852,0.009 -0.15018,0.0137 -0.232097,0.0137 -0.0182,0 -0.03186,-0.0228 -0.0091,-0.0273 -0.0046,-0.0546 0.0091,-0.0273 0.03641,-0.0319 0.163834,-0.0319 0.245751,-0.10916 0.05916,-0.0546 0.05916,-0.16839 v -1.34252 q 0,-0.0682 -0.07282,-0.12743 -0.05916,-0.0501 -0.200241,-0.10917 -0.01365,-0.005 -0.02275,-0.0319 -0.0046,-0.0273 0,-0.0501 0.0091,-0.0227 0.02275,-0.0227 0.100116,0 0.232098,0.005 0.136527,0.005 0.222995,0.005 0.08192,0 0.209342,-0.005 0.127427,-0.005 0.222997,-0.005 0.02731,0 0.02731,0.0501 0,0.0455 -0.02731,0.0546 -0.154732,0.0637 -0.209344,0.11374 -0.06371,0.0455 -0.06371,0.12289 z" />
        <path
           sodipodi:nodetypes="cccccsssscccccccsscccccccsscccccccccscscsccc"
           inkscape:connector-curvature="0"
           id="path30407"
           style="font-style:normal;font-variant:normal;font-weight:normal;font-stretch:normal;font-size:3.5810473px;line-height:1.25;font-family:'EB Garamond 12 All SC';-inkscape-font-specification:'EB Garamond 12 All SC, Normal';font-variant-ligatures:normal;font-variant-caps:normal;font-variant-numeric:normal;font-feature-settings:normal;text-align:start;letter-spacing:0px;word-spacing:0px;writing-mode:lr-tb;text-anchor:start;fill:#ceba6d;fill-opacity:1;stroke:none;stroke-width:0.11377254"
           d="m 18.204714,290.47255 c -0.02427,0.006 -0.05461,0.0135 -0.09102,0.0227 -0.03641,0.006 -0.06523,0.0114 -0.08647,0.0182 -0.01821,0.006 -0.03945,0.015 -0.06371,0.0273 -0.02124,0.009 -0.03945,0.0212 -0.05461,0.0363 -0.03943,0.0395 -0.05916,0.11984 -0.05916,0.24119 v 1.44896 c 0,0.16384 0.08192,0.24575 0.24575,0.24575 h 0.436889 c 0.01516,0 0.04247,-0.008 0.08192,-0.0227 0.04248,-0.0151 0.07586,-0.0348 0.100117,-0.0591 0.06068,-0.0606 0.122877,-0.15775 0.186587,-0.29126 0.01517,-0.0273 0.05765,-0.0379 0.127427,-0.0319 0.01207,0 0.02275,0.005 0.03186,0.0136 0.0092,0.006 0.0122,0.015 0.0092,0.0273 -0.05461,0.20025 -0.08798,0.35497 -0.100117,0.4642 0,0.0127 -0.0076,0.0243 -0.02275,0.0364 -0.01516,0.0127 -0.03034,0.0182 -0.04551,0.0182 -0.1699,0 -0.391378,-0.003 -0.664434,-0.009 -0.270022,-0.006 -0.45206,-0.009 -0.546112,-0.009 l -0.482398,0.0136 c -0.0061,0 -0.0122,-0.008 -0.0182,-0.0228 -0.0031,-0.0182 -0.0031,-0.0349 0,-0.0501 0.003,-0.0182 0.0091,-0.0273 0.0182,-0.0273 0.103154,-0.0273 0.172934,-0.0591 0.209343,-0.0956 0.06068,-0.0606 0.09102,-0.12442 0.09102,-0.19115 v -1.46261 c 0,-0.12742 -0.01365,-0.2063 -0.04096,-0.23664 -0.0092,-0.009 -0.01669,-0.0167 -0.02276,-0.0228 -0.0061,-0.009 -0.01369,-0.0151 -0.02275,-0.0182 -0.0092,-0.006 -0.01669,-0.0102 -0.02276,-0.0137 -0.003,-0.004 -0.01067,-0.006 -0.02275,-0.009 -0.01207,-0.006 -0.02123,-0.009 -0.02731,-0.009 -0.0061,-0.004 -0.01824,-0.008 -0.03641,-0.0136 -0.01821,-0.006 -0.03337,-0.0102 -0.04551,-0.0136 -0.01516,-0.004 -0.02427,-0.0216 -0.02731,-0.0547 0,-0.0365 0.0091,-0.0546 0.02731,-0.0546 0.04248,0 0.0986,0.001 0.168385,0.005 0.07282,0.004 0.131981,0.005 0.177486,0.005 0.07888,0 0.189624,-10e-4 0.332218,-0.005 0.145629,-0.006 0.232097,-0.009 0.259402,-0.009 0.02124,0 0.03035,0.0182 0.02731,0.0546 -0.003,0.0334 -0.0122,0.0516 -0.02731,0.0547 z" />
      </g>
    </g>
    <text
       xml:space="preserve"
       style="font-style:normal;font-variant:normal;font-weight:normal;font-stretch:normal;font-size:3.60589194px;line-height:1.25;font-family:'League Gothic';-inkscape-font-specification:'League Gothic, Normal';font-variant-ligatures:normal;font-variant-caps:normal;font-variant-numeric:normal;font-feature-settings:normal;text-align:start;letter-spacing:0px;word-spacing:0px;writing-mode:lr-tb;text-anchor:start;fill:#ceba6d;fill-opacity:1;stroke:none;stroke-width:0.0901473"
       x="7.5049005"
       y="312.33978"
       id="text32745"
       transform="scale(1.0548527,0.94799966)"><tspan
         sodipodi:role="line"
         id="tspan32743"
         x="7.5049005"
         y="312.33978"
         style="font-style:normal;font-variant:normal;font-weight:normal;font-stretch:normal;font-size:3.60589194px;font-family:Montserrat;-inkscape-font-specification:'Montserrat, Normal';font-variant-ligatures:normal;font-variant-caps:normal;font-variant-numeric:normal;font-feature-settings:normal;text-align:start;writing-mode:lr-tb;text-anchor:start;fill:#ceba6d;fill-opacity:1;stroke-width:0.0901473">STEEPS</tspan></text>
  </g>
</svg>
