<?xml version="1.0" encoding="UTF-8" standalone="no"?>
<!-- Created with Inkscape (http://www.inkscape.org/) -->

<svg
   xmlns:dc="http://purl.org/dc/elements/1.1/"
   xmlns:cc="http://creativecommons.org/ns#"
   xmlns:rdf="http://www.w3.org/1999/02/22-rdf-syntax-ns#"
   xmlns:svg="http://www.w3.org/2000/svg"
   xmlns="http://www.w3.org/2000/svg"
   xmlns:sodipodi="http://sodipodi.sourceforge.net/DTD/sodipodi-0.dtd"
   xmlns:inkscape="http://www.inkscape.org/namespaces/inkscape"
   width="312"
   height="82"
   viewBox="0 0 82.549986 21.695832"
   version="1.1"
   id="svg12722"
   sodipodi:docname="logo5alt.svg"
   inkscape:version="0.92.2 (5c3e80d, 2017-08-06)">
  <defs
     id="defs12716" />
  <sodipodi:namedview
     id="base"
     pagecolor="#ffffff"
     bordercolor="#666666"
     borderopacity="1.0"
     inkscape:pageopacity="0.0"
     inkscape:pageshadow="2"
     inkscape:zoom="1.4"
     inkscape:cx="212.16115"
     inkscape:cy="98.932852"
     inkscape:document-units="px"
     inkscape:current-layer="layer1"
     showgrid="false"
     units="px"
     inkscape:pagecheckerboard="true"
     inkscape:window-width="1366"
     inkscape:window-height="705"
     inkscape:window-x="-8"
     inkscape:window-y="-8"
     inkscape:window-maximized="1" />
  <metadata
     id="metadata12719">
    <rdf:RDF>
      <cc:Work
         rdf:about="">
        <dc:format>image/svg+xml</dc:format>
        <dc:type
           rdf:resource="http://purl.org/dc/dcmitype/StillImage" />
        <dc:title></dc:title>
      </cc:Work>
    </rdf:RDF>
  </metadata>
  <g
     inkscape:label="Layer 1"
     inkscape:groupmode="layer"
     id="layer1"
     transform="translate(0,-275.30417)">
    <path
       inkscape:connector-curvature="0"
       style="opacity:0.98659997;fill:#81785a;fill-opacity:1;stroke:#635c45;stroke-width:0.10525665;stroke-linecap:butt;stroke-linejoin:miter;stroke-miterlimit:4;stroke-dasharray:none;stroke-opacity:1"
       d="m 44.842521,279.55216 c -1.109172,-0.56937 -2.434238,-1.58284 -3.454375,-2.50835 l -4.283282,2.73638 c 0,0 -1.809822,-1.04995 -2.557141,-1.6083 -2.872008,2.36333 -7.892512,4.78767 -11.504567,5.94025 8.334904,-2.24842 6.586173,-3.00635 11.931392,-3.31717 -0.584369,-0.0971 -2.130085,-0.39549 -2.108987,-0.64313 0,0 1.986443,-1.01706 1.986775,-1.01704 0,0 1.23873,1.13498 6.37157,3.71541 l -3.460075,-2.55792 c 0.286108,-0.49801 2.031636,-0.51136 3.71227,-0.32638 0.169338,-0.25187 -2.26844,-0.78591 -2.26844,-0.78591 0,0 1.896963,-1.3744 2.143924,-1.18194 0.008,-0.0575 0.662365,0.52537 7.867091,4.85907 -0.42067,-0.93335 -3.511972,-2.88954 -3.511972,-2.88954 0.694286,-1.19097 2.985813,-0.71752 3.873465,-0.80668 -1.615647,-0.39732 -2.497905,-0.45722 -2.497905,-0.45722 0.718946,-0.91904 1.527311,-1.57114 1.527311,-1.57114 1.406441,0.97318 10.241479,7.18405 12.387824,6.9158 -0.62353,0.33837 -9.27317,-4.44278 -12.342703,-7.84043 -1.367604,0.90483 -2.557693,2.24006 -3.812175,3.34432 z"
       id="path1461"
       sodipodi:nodetypes="ccccccscccccccccsccccc" />
    <path
       inkscape:connector-curvature="0"
       id="path4874"
       style="font-style:normal;font-variant:normal;font-weight:bold;font-stretch:normal;font-size:4.01516056px;line-height:1.25;font-family:Brixton;-inkscape-font-specification:'Brixton, Bold';font-variant-ligatures:normal;font-variant-caps:normal;font-variant-numeric:normal;font-feature-settings:normal;text-align:start;letter-spacing:0px;word-spacing:0px;writing-mode:lr-tb;text-anchor:start;fill:#7a0000;fill-opacity:1;stroke:none;stroke-width:0.09394473;stroke-opacity:1"
       d="m 4.2078046,287.56996 v 0.71265 H 2.8444843 v 4.70965 H 2.1318425 v -4.70965 H 0.77626855 v -0.71265 z" />
    <path
       inkscape:connector-curvature="0"
       id="path4876"
       style="font-style:normal;font-variant:normal;font-weight:bold;font-stretch:normal;font-size:4.01516056px;line-height:1.25;font-family:Brixton;-inkscape-font-specification:'Brixton, Bold';font-variant-ligatures:normal;font-variant-caps:normal;font-variant-numeric:normal;font-feature-settings:normal;text-align:start;letter-spacing:0px;word-spacing:0px;writing-mode:lr-tb;text-anchor:start;fill:#7a0000;fill-opacity:1;stroke:none;stroke-width:0.09394473;stroke-opacity:1"
       d="m 10.224059,293.0155 q -0.5887057,0 -1.0922048,-0.21689 -0.4957505,-0.22463 -0.8675651,-0.59645 -0.3640684,-0.37181 -0.5732134,-0.86756 -0.2013987,-0.49576 -0.2013987,-1.05348 0,-0.58096 0.2013987,-1.08446 0.2091519,-0.5035 0.5732134,-0.86756 0.3718146,-0.37182 0.8675651,-0.58096 0.5034991,-0.20915 1.0922048,-0.20915 0.557721,0 1.053474,0.20915 0.495753,0.20914 0.867567,0.58096 0.371815,0.36406 0.588706,0.86756 0.224635,0.5035 0.224635,1.08446 0,0.55772 -0.224635,1.05348 -0.216882,0.49575 -0.588706,0.86756 -0.371814,0.37182 -0.867567,0.59645 -0.495753,0.21689 -1.053474,0.21689 z m 0,-4.7174 q -0.4182898,0 -0.7823581,0.15493 -0.3640684,0.14717 -0.6351836,0.41054 -0.263369,0.26337 -0.41829,0.62744 -0.1471725,0.36406 -0.1471725,0.7901 0,0.39505 0.1471725,0.75138 0.1549256,0.35632 0.41829,0.63518 0.2711152,0.27111 0.6351836,0.43378 0.3640683,0.15493 0.7823581,0.15493 0.395054,0 0.751376,-0.15493 0.364068,-0.16268 0.635183,-0.43378 0.271113,-0.27886 0.426037,-0.63518 0.162678,-0.35633 0.162678,-0.75138 0,-0.42604 -0.162678,-0.7901 -0.162679,-0.36407 -0.441529,-0.62744 -0.271116,-0.26337 -0.627438,-0.41054 -0.356322,-0.15493 -0.743629,-0.15493 z" />
    <path
       inkscape:connector-curvature="0"
       id="path4878"
       style="font-style:normal;font-variant:normal;font-weight:bold;font-stretch:normal;font-size:4.01516056px;line-height:1.25;font-family:Brixton;-inkscape-font-specification:'Brixton, Bold';font-variant-ligatures:normal;font-variant-caps:normal;font-variant-numeric:normal;font-feature-settings:normal;text-align:start;letter-spacing:0px;word-spacing:0px;writing-mode:lr-tb;text-anchor:start;fill:#7a0000;fill-opacity:1;stroke:none;stroke-width:0.09394473;stroke-opacity:1"
       d="m 19.183841,292.99226 -1.47951,-2.29286 h -0.759122 v 2.29286 h -0.704897 v -5.4223 h 1.479509 q 0.286608,0 0.56547,0.1162 0.286605,0.10844 0.511243,0.31759 0.224635,0.2014 0.364068,0.49575 0.139419,0.28661 0.139419,0.65067 0,0.44153 -0.216882,0.8056 -0.209151,0.35632 -0.604198,0.55772 l 1.611197,2.47877 z m -1.440781,-3.05198 q 0.185916,0 0.325339,-0.0697 0.147173,-0.0775 0.240131,-0.19364 0.100699,-0.11619 0.154925,-0.25562 0.05423,-0.13945 0.05423,-0.27112 0,-0.22463 -0.08522,-0.37956 -0.08522,-0.15493 -0.209152,-0.25562 -0.116183,-0.1007 -0.255623,-0.13942 -0.131689,-0.0465 -0.224635,-0.0465 h -0.797851 v 1.61119 z" />
    <path
       inkscape:connector-curvature="0"
       id="path4880"
       style="font-style:normal;font-variant:normal;font-weight:bold;font-stretch:normal;font-size:4.01516056px;line-height:1.25;font-family:Brixton;-inkscape-font-specification:'Brixton, Bold';font-variant-ligatures:normal;font-variant-caps:normal;font-variant-numeric:normal;font-feature-settings:normal;text-align:start;letter-spacing:0px;word-spacing:0px;writing-mode:lr-tb;text-anchor:start;fill:#7a0000;fill-opacity:1;stroke:none;stroke-width:0.09394473;stroke-opacity:1"
       d="m 24.131123,288.31359 v 1.57247 h 1.804851 v 0.69715 h -1.804851 v 1.65767 h 2.184412 v 0.75138 h -2.94353 v -5.43004 h 2.94353 v 0.75137 z" />
    <path
       inkscape:connector-curvature="0"
       id="path4882"
       style="font-style:normal;font-variant:normal;font-weight:bold;font-stretch:normal;font-size:4.01516056px;line-height:1.25;font-family:Brixton;-inkscape-font-specification:'Brixton, Bold';font-variant-ligatures:normal;font-variant-caps:normal;font-variant-numeric:normal;font-feature-settings:normal;text-align:start;letter-spacing:0px;word-spacing:0px;writing-mode:lr-tb;text-anchor:start;fill:#7a0000;fill-opacity:1;stroke:none;stroke-width:0.09394473;stroke-opacity:1"
       d="m 29.597403,292.99226 v -5.70116 l 2.347075,2.42454 q 0.371814,-0.37956 0.759122,-0.75912 0.387307,-0.38731 0.759121,-0.78236 0.154926,-0.17816 0.348576,-0.37181 0.193646,-0.19365 0.356322,-0.36407 l 0.147173,-0.17816 v 5.73214 h -0.743634 v -3.84209 l -1.611195,1.64993 -1.611196,-1.66542 v 3.85758 z" />
    <path
       inkscape:connector-curvature="0"
       id="path4884"
       style="font-style:normal;font-variant:normal;font-weight:bold;font-stretch:normal;font-size:4.01516056px;line-height:1.25;font-family:Brixton;-inkscape-font-specification:'Brixton, Bold';font-variant-ligatures:normal;font-variant-caps:normal;font-variant-numeric:normal;font-feature-settings:normal;text-align:start;letter-spacing:0px;word-spacing:0px;writing-mode:lr-tb;text-anchor:start;fill:#7a0000;fill-opacity:1;stroke:none;stroke-width:0.09394473;stroke-opacity:1"
       d="m 45.265801,292.99226 -1.479512,-2.29286 h -0.759122 v 2.29286 H 42.32227 v -5.4223 h 1.479509 q 0.286608,0 0.56547,0.1162 0.286608,0.10844 0.511245,0.31759 0.224635,0.2014 0.364066,0.49575 0.139419,0.28661 0.139419,0.65067 0,0.44153 -0.216882,0.8056 -0.209152,0.35632 -0.604198,0.55772 l 1.611194,2.47877 z m -1.44078,-3.05198 q 0.185892,0 0.325334,-0.0697 0.147173,-0.0775 0.24013,-0.19364 0.1007,-0.11619 0.154926,-0.25562 0.05423,-0.13945 0.05423,-0.27112 0,-0.22463 -0.08522,-0.37956 -0.08522,-0.15493 -0.209152,-0.25562 -0.116205,-0.1007 -0.255622,-0.13945 -0.131689,-0.0465 -0.224636,-0.0465 h -0.797846 v 1.6112 z" />
    <path
       inkscape:connector-curvature="0"
       id="path4886"
       style="font-style:normal;font-variant:normal;font-weight:bold;font-stretch:normal;font-size:4.01516056px;line-height:1.25;font-family:Brixton;-inkscape-font-specification:'Brixton, Bold';font-variant-ligatures:normal;font-variant-caps:normal;font-variant-numeric:normal;font-feature-settings:normal;text-align:start;letter-spacing:0px;word-spacing:0px;writing-mode:lr-tb;text-anchor:start;fill:#7a0000;fill-opacity:1;stroke:none;stroke-width:0.09394473;stroke-opacity:1"
       d="m 50.213083,288.31359 v 1.57247 h 1.804851 v 0.69715 h -1.804851 v 1.65767 h 2.184412 v 0.75138 h -2.943532 v -5.43004 h 2.943532 v 0.75137 z" />
    <path
       inkscape:connector-curvature="0"
       id="path4888"
       style="font-style:normal;font-variant:normal;font-weight:bold;font-stretch:normal;font-size:4.01516056px;line-height:1.25;font-family:Brixton;-inkscape-font-specification:'Brixton, Bold';font-variant-ligatures:normal;font-variant-caps:normal;font-variant-numeric:normal;font-feature-settings:normal;text-align:start;letter-spacing:0px;word-spacing:0px;writing-mode:lr-tb;text-anchor:start;fill:#7a0000;fill-opacity:1;stroke:none;stroke-width:0.09394473;stroke-opacity:1"
       d="m 57.623595,293.03873 q -0.418293,0 -0.782361,-0.1007 -0.356322,-0.10845 -0.588703,-0.21688 -0.13942,-0.0542 -0.278862,-0.13169 -0.139419,-0.0775 -0.224635,-0.13944 h 0.0078 l -0.07746,-0.0465 0.309844,-0.6042 0.348574,0.17816 v -0.008 q 0.247876,0.11618 0.588706,0.23238 0.348578,0.10846 0.7049,0.10846 0.247874,0 0.457021,-0.062 0.216882,-0.0697 0.356322,-0.15493 0.224636,-0.22463 0.224636,-0.57321 0,-0.34083 -0.34083,-0.56547 -0.317565,-0.22463 -0.844301,-0.41054 -0.286608,-0.13168 -0.565469,-0.26336 -0.27886,-0.13942 -0.526736,-0.32534 -0.542231,-0.45702 -0.542231,-1.05347 0,-0.32534 0.13169,-0.55773 0.06973,-0.13168 0.154925,-0.24013 0.09295,-0.11619 0.209152,-0.21689 0.46477,-0.37181 1.192904,-0.37181 0.371815,0 0.681662,0.0775 0.31759,0.0697 0.518989,0.14718 h -0.0078 q 0.09295,0.0232 0.170409,0.0542 0.08522,0.0232 0.170409,0.0542 l -0.356333,0.65073 q -0.224636,-0.0852 -0.542231,-0.16268 -0.309844,-0.0852 -0.635184,-0.0852 -0.108429,0 -0.294351,0.031 -0.185893,0.0232 -0.34083,0.11618 -0.3021,0.16265 -0.3021,0.53448 0,0.12394 0.08522,0.23238 0.09295,0.10846 0.240128,0.20916 0.154925,0.0929 0.348578,0.18591 0.193645,0.093 0.402799,0.18592 l 0.123936,0.0542 q 0.255623,0.11619 0.542231,0.25563 0.286605,0.13941 0.526735,0.33308 0.278862,0.22463 0.441529,0.51899 0.162679,0.29435 0.162679,0.62744 0,0.34857 -0.170409,0.64293 -0.162679,0.2866 -0.441529,0.49575 -0.247879,0.15492 -0.580959,0.25562 -0.32534,0.1007 -0.658423,0.10845 z" />
    <path
       inkscape:connector-curvature="0"
       id="path4890"
       style="font-style:normal;font-variant:normal;font-weight:bold;font-stretch:normal;font-size:4.01516056px;line-height:1.25;font-family:Brixton;-inkscape-font-specification:'Brixton, Bold';font-variant-ligatures:normal;font-variant-caps:normal;font-variant-numeric:normal;font-feature-settings:normal;text-align:start;letter-spacing:0px;word-spacing:0px;writing-mode:lr-tb;text-anchor:start;fill:#7a0000;fill-opacity:1;stroke:none;stroke-width:0.09394473;stroke-opacity:1"
       d="m 65.491204,293.0155 q -0.588706,0 -1.092205,-0.21689 -0.495753,-0.22463 -0.867565,-0.59645 -0.364071,-0.37181 -0.573216,-0.86756 -0.201399,-0.49576 -0.201399,-1.05348 0,-0.58096 0.201399,-1.08446 0.209152,-0.5035 0.573216,-0.86756 0.371812,-0.37182 0.867565,-0.58096 0.503499,-0.20915 1.092205,-0.20915 0.55772,0 1.053473,0.20915 0.495753,0.20914 0.867568,0.58096 0.371814,0.36406 0.588706,0.86756 0.224635,0.5035 0.224635,1.08446 0,0.55772 -0.224635,1.05348 -0.216882,0.49575 -0.588706,0.86756 -0.371815,0.37182 -0.867568,0.59645 -0.495753,0.21689 -1.053473,0.21689 z m 0,-4.7174 q -0.41829,0 -0.782361,0.15493 -0.364068,0.14717 -0.635181,0.41054 -0.263369,0.26337 -0.418293,0.62744 -0.147172,0.36406 -0.147172,0.7901 0,0.39505 0.147172,0.75138 0.154926,0.35632 0.418293,0.63518 0.271113,0.27111 0.635181,0.43378 0.364071,0.15493 0.782361,0.15493 0.395051,0 0.751375,-0.15493 0.364066,-0.16268 0.635181,-0.43378 0.271116,-0.27886 0.426039,-0.63518 0.162679,-0.35633 0.162679,-0.75138 0,-0.42604 -0.162679,-0.7901 -0.162679,-0.36407 -0.441529,-0.62744 -0.271115,-0.26337 -0.627437,-0.41054 -0.356324,-0.15493 -0.743629,-0.15493 z" />
    <path
       inkscape:connector-curvature="0"
       id="path4892"
       style="font-style:normal;font-variant:normal;font-weight:bold;font-stretch:normal;font-size:4.01516056px;line-height:1.25;font-family:Brixton;-inkscape-font-specification:'Brixton, Bold';font-variant-ligatures:normal;font-variant-caps:normal;font-variant-numeric:normal;font-feature-settings:normal;text-align:start;letter-spacing:0px;word-spacing:0px;writing-mode:lr-tb;text-anchor:start;fill:#7a0000;fill-opacity:1;stroke:none;stroke-width:0.09394473;stroke-opacity:1"
       d="m 74.450986,292.99226 -1.47951,-2.29286 h -0.759122 v 2.29286 h -0.704898 v -5.4223 h 1.479512 q 0.286606,0 0.565467,0.1162 0.286608,0.10844 0.511243,0.31759 0.224636,0.2014 0.364071,0.49575 0.139419,0.28661 0.139419,0.65067 0,0.44153 -0.216882,0.8056 -0.209152,0.35632 -0.604196,0.55772 l 1.611194,2.47877 z m -1.440781,-3.05198 q 0.185892,0 0.325339,-0.0697 0.147172,-0.0775 0.24013,-0.19364 0.100699,-0.11619 0.154926,-0.25562 0.05423,-0.13945 0.05423,-0.27112 0,-0.22463 -0.08522,-0.37956 -0.08522,-0.15493 -0.209152,-0.25562 -0.116206,-0.1007 -0.255623,-0.13945 -0.131689,-0.0465 -0.224635,-0.0465 h -0.797846 v 1.6112 z" />
    <path
       inkscape:connector-curvature="0"
       id="path4894"
       style="font-style:normal;font-variant:normal;font-weight:bold;font-stretch:normal;font-size:4.01516056px;line-height:1.25;font-family:Brixton;-inkscape-font-specification:'Brixton, Bold';font-variant-ligatures:normal;font-variant-caps:normal;font-variant-numeric:normal;font-feature-settings:normal;text-align:start;letter-spacing:0px;word-spacing:0px;writing-mode:lr-tb;text-anchor:start;fill:#7a0000;fill-opacity:1;stroke:none;stroke-width:0.09394473;stroke-opacity:1"
       d="m 82.070691,287.56996 v 0.71265 H 80.70737 v 4.70965 h -0.712644 v -4.70965 h -1.355571 v -0.71265 z" />
    <path
       style="fill:#7a0000;fill-opacity:1;fill-rule:evenodd;stroke:none;stroke-width:0.37122887;stroke-opacity:1"
       id="path3671"
       sodipodi:type="arc"
       sodipodi:cx="38.318531"
       sodipodi:cy="290.02148"
       sodipodi:rx="0.72187066"
       sodipodi:ry="0.72187066"
       sodipodi:start="0.035094033"
       sodipodi:end="0"
       sodipodi:open="true"
       d="m 39.039957,290.04681 a 0.72187066,0.72187066 0 0 1 -0.740424,0.6963 0.72187066,0.72187066 0 0 1 -0.702761,-0.73429 0.72187066,0.72187066 0 0 1 0.728092,-0.70918 0.72187066,0.72187066 0 0 1 0.715538,0.72184" />
    <path
       inkscape:connector-curvature="0"
       id="path5191"
       d="m 0.02806268,285.26918 v 0.26327 H 82.818895 v -0.26327 z"
       style="opacity:0.76000007;fill:#635c45;fill-opacity:1;stroke:none;stroke-width:0.19934823;stroke-linecap:square;stroke-linejoin:miter;stroke-miterlimit:4;stroke-dasharray:none;stroke-dashoffset:0;stroke-opacity:1" />
    <g
       id="g16964"
       transform="translate(0.20044003)"
       style="fill:#a89c80;fill-opacity:0.97340423">
      <path
         sodipodi:type="star"
         style="opacity:0.76000007;fill:#a89c80;fill-opacity:0.97340423;stroke:none;stroke-width:0.06402916;stroke-linecap:round;stroke-linejoin:round;stroke-miterlimit:4;stroke-dasharray:none;stroke-dashoffset:2.29999995;stroke-opacity:1"
         id="path16730"
         sodipodi:sides="5"
         sodipodi:cx="40.821423"
         sodipodi:cy="295.01562"
         sodipodi:r1="2.028873"
         sodipodi:r2="0.64923936"
         sodipodi:arg1="0.52359878"
         sodipodi:arg2="1.1519173"
         inkscape:flatsided="false"
         inkscape:rounded="0"
         inkscape:randomized="0"
         d="m 42.578478,296.03006 -1.492986,-0.42133 -0.685896,1.39143 -0.06065,-1.55011 -1.53528,-0.22235 1.455501,-0.53669 -0.262959,-1.52885 0.960201,1.21841 1.372762,-0.72253 -0.862064,1.28972 z"
         inkscape:transform-center-x="-0.0042074839"
         inkscape:transform-center-y="-0.11083901"
         transform="matrix(0.53876889,0.24722313,-0.24722313,0.53876889,102.24964,126.4256)" />
      <path
         transform="matrix(0.53876889,0.24722313,-0.24722313,0.53876889,98.294043,126.4256)"
         inkscape:transform-center-y="-0.11083901"
         inkscape:transform-center-x="-0.0042074839"
         d="m 42.578478,296.03006 -1.492986,-0.42133 -0.685896,1.39143 -0.06065,-1.55011 -1.53528,-0.22235 1.455501,-0.53669 -0.262959,-1.52885 0.960201,1.21841 1.372762,-0.72253 -0.862064,1.28972 z"
         inkscape:randomized="0"
         inkscape:rounded="0"
         inkscape:flatsided="false"
         sodipodi:arg2="1.1519173"
         sodipodi:arg1="0.52359878"
         sodipodi:r2="0.64923936"
         sodipodi:r1="2.028873"
         sodipodi:cy="295.01562"
         sodipodi:cx="40.821423"
         sodipodi:sides="5"
         id="path16732"
         style="opacity:0.76000007;fill:#a89c80;fill-opacity:0.97340423;stroke:none;stroke-width:0.06402916;stroke-linecap:round;stroke-linejoin:round;stroke-miterlimit:4;stroke-dasharray:none;stroke-dashoffset:2.29999995;stroke-opacity:1"
         sodipodi:type="star" />
      <path
         sodipodi:type="star"
         style="opacity:0.76000007;fill:#a89c80;fill-opacity:0.97340423;stroke:none;stroke-width:0.06402916;stroke-linecap:round;stroke-linejoin:round;stroke-miterlimit:4;stroke-dasharray:none;stroke-dashoffset:2.29999995;stroke-opacity:1"
         id="path16734"
         sodipodi:sides="5"
         sodipodi:cx="40.821423"
         sodipodi:cy="295.01562"
         sodipodi:r1="2.028873"
         sodipodi:r2="0.64923936"
         sodipodi:arg1="0.52359878"
         sodipodi:arg2="1.1519173"
         inkscape:flatsided="false"
         inkscape:rounded="0"
         inkscape:randomized="0"
         d="m 42.578478,296.03006 -1.492986,-0.42133 -0.685896,1.39143 -0.06065,-1.55011 -1.53528,-0.22235 1.455501,-0.53669 -0.262959,-1.52885 0.960201,1.21841 1.372762,-0.72253 -0.862064,1.28972 z"
         inkscape:transform-center-x="-0.0042074839"
         inkscape:transform-center-y="-0.11083901"
         transform="matrix(0.53876889,0.24722313,-0.24722313,0.53876889,94.338451,126.4256)" />
      <path
         sodipodi:type="star"
         style="opacity:0.76000007;fill:#a89c80;fill-opacity:0.97340423;stroke:none;stroke-width:0.06402916;stroke-linecap:round;stroke-linejoin:round;stroke-miterlimit:4;stroke-dasharray:none;stroke-dashoffset:2.29999995;stroke-opacity:1"
         id="path16738"
         sodipodi:sides="5"
         sodipodi:cx="40.821423"
         sodipodi:cy="295.01562"
         sodipodi:r1="2.028873"
         sodipodi:r2="0.64923936"
         sodipodi:arg1="0.52359878"
         sodipodi:arg2="1.1519173"
         inkscape:flatsided="false"
         inkscape:rounded="0"
         inkscape:randomized="0"
         d="m 42.578478,296.03006 -1.492986,-0.42133 -0.685896,1.39143 -0.06065,-1.55011 -1.53528,-0.22235 1.455501,-0.53669 -0.262959,-1.52885 0.960201,1.21841 1.372762,-0.72253 -0.862064,1.28972 z"
         inkscape:transform-center-x="-0.0042074839"
         inkscape:transform-center-y="-0.11083901"
         transform="matrix(0.53876889,0.24722313,-0.24722313,0.53876889,90.382859,126.4256)" />
      <path
         transform="matrix(0.53876889,0.24722313,-0.24722313,0.53876889,86.427266,126.4256)"
         inkscape:transform-center-y="-0.11083901"
         inkscape:transform-center-x="-0.0042074839"
         d="m 42.578478,296.03006 -1.492986,-0.42133 -0.685896,1.39143 -0.06065,-1.55011 -1.53528,-0.22235 1.455501,-0.53669 -0.262959,-1.52885 0.960201,1.21841 1.372762,-0.72253 -0.862064,1.28972 z"
         inkscape:randomized="0"
         inkscape:rounded="0"
         inkscape:flatsided="false"
         sodipodi:arg2="1.1519173"
         sodipodi:arg1="0.52359878"
         sodipodi:r2="0.64923936"
         sodipodi:r1="2.028873"
         sodipodi:cy="295.01562"
         sodipodi:cx="40.821423"
         sodipodi:sides="5"
         id="path16740"
         style="opacity:0.76000007;fill:#a89c80;fill-opacity:0.97340423;stroke:none;stroke-width:0.06402916;stroke-linecap:round;stroke-linejoin:round;stroke-miterlimit:4;stroke-dasharray:none;stroke-dashoffset:2.29999995;stroke-opacity:1"
         sodipodi:type="star" />
      <path
         sodipodi:type="star"
         style="opacity:0.76000007;fill:#a89c80;fill-opacity:0.97340423;stroke:none;stroke-width:0.06402916;stroke-linecap:round;stroke-linejoin:round;stroke-miterlimit:4;stroke-dasharray:none;stroke-dashoffset:2.29999995;stroke-opacity:1"
         id="path16742"
         sodipodi:sides="5"
         sodipodi:cx="40.821423"
         sodipodi:cy="295.01562"
         sodipodi:r1="2.028873"
         sodipodi:r2="0.64923936"
         sodipodi:arg1="0.52359878"
         sodipodi:arg2="1.1519173"
         inkscape:flatsided="false"
         inkscape:rounded="0"
         inkscape:randomized="0"
         d="m 42.578478,296.03006 -1.492986,-0.42133 -0.685896,1.39143 -0.06065,-1.55011 -1.53528,-0.22235 1.455501,-0.53669 -0.262959,-1.52885 0.960201,1.21841 1.372762,-0.72253 -0.862064,1.28972 z"
         inkscape:transform-center-x="-0.0042074839"
         inkscape:transform-center-y="-0.11083901"
         transform="matrix(0.53876889,0.24722313,-0.24722313,0.53876889,82.471674,126.4256)" />
    </g>
    <path
       style="opacity:1;fill:#5f5641;fill-opacity:0.76078433;stroke:none;stroke-width:0.10434739;stroke-linecap:square;stroke-linejoin:miter;stroke-miterlimit:4;stroke-dasharray:none;stroke-dashoffset:0;stroke-opacity:1"
       d="m 54.885129,295.17277 v 0.27339 h 21.853387 v -0.27339 z"
       id="path16968"
       inkscape:connector-curvature="0" />
    <path
       inkscape:connector-curvature="0"
       id="path16972"
       d="m 6.5093491,295.17277 v 0.27339 H 28.362736 v -0.27339 z"
       style="opacity:1;fill:#5f5641;fill-opacity:0.76078433;stroke:none;stroke-width:0.10434739;stroke-linecap:square;stroke-linejoin:miter;stroke-miterlimit:4;stroke-dasharray:none;stroke-dashoffset:0;stroke-opacity:1" />
  </g>
</svg>
