<?xml version="1.0" encoding="UTF-8" standalone="no"?>
<!-- Created with Inkscape (http://www.inkscape.org/) -->

<svg
   xmlns:dc="http://purl.org/dc/elements/1.1/"
   xmlns:cc="http://creativecommons.org/ns#"
   xmlns:rdf="http://www.w3.org/1999/02/22-rdf-syntax-ns#"
   xmlns:svg="http://www.w3.org/2000/svg"
   xmlns="http://www.w3.org/2000/svg"
   xmlns:xlink="http://www.w3.org/1999/xlink"
   xmlns:sodipodi="http://sodipodi.sourceforge.net/DTD/sodipodi-0.dtd"
   xmlns:inkscape="http://www.inkscape.org/namespaces/inkscape"
   width="170"
   height="71"
   viewBox="0 0 44.979171 18.78541"
   version="1.1"
   id="svg12722"
   sodipodi:docname="logo5alt.svg"
   inkscape:version="0.92.2 (5c3e80d, 2017-08-06)">
  <defs
     id="defs12716">
    <linearGradient
       inkscape:collect="always"
       xlink:href="#linearGradient1562"
       id="linearGradient20271"
       gradientUnits="userSpaceOnUse"
       x1="17.44602"
       y1="2.1249075"
       x2="23.164778"
       y2="9.0882597"
       gradientTransform="matrix(-1.2999562,0,0,0.89777971,68.303949,286.19)" />
    <linearGradient
       id="linearGradient1562"
       inkscape:collect="always">
      <stop
         id="stop1558"
         offset="0"
         style="stop-color:#806600;stop-opacity:1" />
      <stop
         id="stop1560"
         offset="1"
         style="stop-color:#f9d493;stop-opacity:1" />
    </linearGradient>
    <linearGradient
       inkscape:collect="always"
       xlink:href="#linearGradient1562"
       id="linearGradient20269"
       gradientUnits="userSpaceOnUse"
       x1="14.403028"
       y1="-3.0855463"
       x2="22.029694"
       y2="7.2698464"
       gradientTransform="matrix(-1.2999562,0,0,0.89777971,68.303949,286.19)" />
    <linearGradient
       inkscape:collect="always"
       xlink:href="#linearGradient1562"
       id="linearGradient20195"
       gradientUnits="userSpaceOnUse"
       x1="17.44602"
       y1="2.1249075"
       x2="23.164778"
       y2="9.0882597"
       gradientTransform="matrix(1.5287662,0,0,1.0558011,-24.910696,276.67795)" />
    <linearGradient
       inkscape:collect="always"
       xlink:href="#linearGradient1562"
       id="linearGradient20193"
       gradientUnits="userSpaceOnUse"
       x1="14.403028"
       y1="-3.0855463"
       x2="22.029694"
       y2="7.2698464"
       gradientTransform="matrix(1.5287662,0,0,1.0558011,-24.910696,276.67795)" />
  </defs>
  <sodipodi:namedview
     id="base"
     pagecolor="#ffffff"
     bordercolor="#666666"
     borderopacity="1.0"
     inkscape:pageopacity="0.0"
     inkscape:pageshadow="2"
     inkscape:zoom="1.979899"
     inkscape:cx="80.544251"
     inkscape:cy="36.053648"
     inkscape:document-units="px"
     inkscape:current-layer="layer1"
     showgrid="false"
     units="px"
     inkscape:pagecheckerboard="true"
     inkscape:window-width="1366"
     inkscape:window-height="705"
     inkscape:window-x="-8"
     inkscape:window-y="-8"
     inkscape:window-maximized="1" />
  <metadata
     id="metadata12719">
    <rdf:RDF>
      <cc:Work
         rdf:about="">
        <dc:format>image/svg+xml</dc:format>
        <dc:type
           rdf:resource="http://purl.org/dc/dcmitype/StillImage" />
        <dc:title></dc:title>
      </cc:Work>
    </rdf:RDF>
  </metadata>
  <g
     inkscape:label="Layer 1"
     inkscape:groupmode="layer"
     id="layer1"
     transform="translate(0,-278.21464)">
    <path
       inkscape:connector-curvature="0"
       style="opacity:0.98659997;fill:#81785a;fill-opacity:1;stroke:#635c45;stroke-width:0.10525665;stroke-linecap:butt;stroke-linejoin:miter;stroke-miterlimit:4;stroke-dasharray:none;stroke-opacity:1"
       d="m 44.040713,242.93624 c -1.109172,-0.56937 -2.434238,-1.58284 -3.454375,-2.50835 l -4.283282,2.73638 c 0,0 -1.809822,-1.04995 -2.557141,-1.6083 -2.872008,2.36333 -7.892512,4.78767 -11.504567,5.94025 8.334904,-2.24842 6.586173,-3.00635 11.931392,-3.31717 -0.584369,-0.0971 -2.130085,-0.39549 -2.108987,-0.64313 0,0 1.986443,-1.01706 1.986775,-1.01704 0,0 1.23873,1.13498 6.37157,3.71541 l -3.460075,-2.55792 c 0.286108,-0.49801 2.031636,-0.51136 3.71227,-0.32638 0.169338,-0.25187 -2.26844,-0.78591 -2.26844,-0.78591 0,0 1.896963,-1.3744 2.143924,-1.18194 0.008,-0.0575 0.662365,0.52537 7.867091,4.85907 -0.42067,-0.93335 -3.511972,-2.88954 -3.511972,-2.88954 0.694286,-1.19097 2.985813,-0.71752 3.873465,-0.80668 -1.615647,-0.39732 -2.497905,-0.45722 -2.497905,-0.45722 0.718946,-0.91904 1.527311,-1.57114 1.527311,-1.57114 1.406441,0.97318 10.241479,7.18405 12.387824,6.9158 -0.62353,0.33837 -9.27317,-4.44278 -12.342703,-7.84043 -1.367604,0.90483 -2.557693,2.24006 -3.812175,3.34432 z"
       id="path1461"
       sodipodi:nodetypes="ccccccscccccccccsccccc" />
    <path
       inkscape:connector-curvature="0"
       id="path4874"
       style="font-style:normal;font-variant:normal;font-weight:bold;font-stretch:normal;font-size:4.01516056px;line-height:1.25;font-family:Brixton;-inkscape-font-specification:'Brixton, Bold';font-variant-ligatures:normal;font-variant-caps:normal;font-variant-numeric:normal;font-feature-settings:normal;text-align:start;letter-spacing:0px;word-spacing:0px;writing-mode:lr-tb;text-anchor:start;fill:#7a0000;fill-opacity:1;stroke:none;stroke-width:0.09394473;stroke-opacity:1"
       d="m 3.4059961,250.95404 v 0.71265 H 2.0426758 v 4.70965 H 1.330034 v -4.70965 h -1.35557394 v -0.71265 z" />
    <path
       inkscape:connector-curvature="0"
       id="path4876"
       style="font-style:normal;font-variant:normal;font-weight:bold;font-stretch:normal;font-size:4.01516056px;line-height:1.25;font-family:Brixton;-inkscape-font-specification:'Brixton, Bold';font-variant-ligatures:normal;font-variant-caps:normal;font-variant-numeric:normal;font-feature-settings:normal;text-align:start;letter-spacing:0px;word-spacing:0px;writing-mode:lr-tb;text-anchor:start;fill:#7a0000;fill-opacity:1;stroke:none;stroke-width:0.09394473;stroke-opacity:1"
       d="m 9.4222505,256.39958 q -0.5887057,0 -1.0922048,-0.21689 -0.4957505,-0.22463 -0.8675651,-0.59645 -0.3640684,-0.37181 -0.5732134,-0.86756 -0.2013987,-0.49576 -0.2013987,-1.05348 0,-0.58096 0.2013987,-1.08446 0.2091519,-0.5035 0.5732134,-0.86756 0.3718146,-0.37182 0.8675651,-0.58096 0.5034991,-0.20915 1.0922048,-0.20915 0.557721,0 1.0534745,0.20915 0.495753,0.20914 0.867567,0.58096 0.371815,0.36406 0.588706,0.86756 0.224635,0.5035 0.224635,1.08446 0,0.55772 -0.224635,1.05348 -0.216882,0.49575 -0.588706,0.86756 -0.371814,0.37182 -0.867567,0.59645 -0.4957535,0.21689 -1.0534745,0.21689 z m 0,-4.7174 q -0.4182898,0 -0.7823581,0.15493 -0.3640684,0.14717 -0.6351836,0.41054 -0.263369,0.26337 -0.41829,0.62744 -0.1471725,0.36406 -0.1471725,0.7901 0,0.39505 0.1471725,0.75138 0.1549256,0.35632 0.41829,0.63518 0.2711152,0.27111 0.6351836,0.43378 0.3640683,0.15493 0.7823581,0.15493 0.395054,0 0.7513765,-0.15493 0.364068,-0.16268 0.635183,-0.43378 0.271113,-0.27886 0.426037,-0.63518 0.162678,-0.35633 0.162678,-0.75138 0,-0.42604 -0.162678,-0.7901 -0.162679,-0.36407 -0.441529,-0.62744 -0.271116,-0.26337 -0.627438,-0.41054 -0.3563225,-0.15493 -0.7436295,-0.15493 z" />
    <path
       inkscape:connector-curvature="0"
       id="path4878"
       style="font-style:normal;font-variant:normal;font-weight:bold;font-stretch:normal;font-size:4.01516056px;line-height:1.25;font-family:Brixton;-inkscape-font-specification:'Brixton, Bold';font-variant-ligatures:normal;font-variant-caps:normal;font-variant-numeric:normal;font-feature-settings:normal;text-align:start;letter-spacing:0px;word-spacing:0px;writing-mode:lr-tb;text-anchor:start;fill:#7a0000;fill-opacity:1;stroke:none;stroke-width:0.09394473;stroke-opacity:1"
       d="m 18.382033,256.37634 -1.47951,-2.29286 h -0.759122 v 2.29286 h -0.704897 v -5.4223 h 1.479509 q 0.286608,0 0.56547,0.1162 0.286605,0.10844 0.511243,0.31759 0.224635,0.2014 0.364068,0.49575 0.139419,0.28661 0.139419,0.65067 0,0.44153 -0.216882,0.8056 -0.209151,0.35632 -0.604198,0.55772 l 1.611197,2.47877 z m -1.440781,-3.05198 q 0.185916,0 0.325339,-0.0697 0.147173,-0.0775 0.240131,-0.19364 0.100699,-0.11619 0.154925,-0.25562 0.05423,-0.13945 0.05423,-0.27112 0,-0.22463 -0.08522,-0.37956 -0.08522,-0.15493 -0.209152,-0.25562 -0.116183,-0.1007 -0.255623,-0.13942 -0.131689,-0.0465 -0.224635,-0.0465 h -0.797851 v 1.61119 z" />
    <path
       inkscape:connector-curvature="0"
       id="path4880"
       style="font-style:normal;font-variant:normal;font-weight:bold;font-stretch:normal;font-size:4.01516056px;line-height:1.25;font-family:Brixton;-inkscape-font-specification:'Brixton, Bold';font-variant-ligatures:normal;font-variant-caps:normal;font-variant-numeric:normal;font-feature-settings:normal;text-align:start;letter-spacing:0px;word-spacing:0px;writing-mode:lr-tb;text-anchor:start;fill:#7a0000;fill-opacity:1;stroke:none;stroke-width:0.09394473;stroke-opacity:1"
       d="m 23.329315,251.69767 v 1.57247 h 1.804851 v 0.69715 h -1.804851 v 1.65767 h 2.184412 v 0.75138 h -2.94353 v -5.43004 h 2.94353 v 0.75137 z" />
    <path
       inkscape:connector-curvature="0"
       id="path4882"
       style="font-style:normal;font-variant:normal;font-weight:bold;font-stretch:normal;font-size:4.01516056px;line-height:1.25;font-family:Brixton;-inkscape-font-specification:'Brixton, Bold';font-variant-ligatures:normal;font-variant-caps:normal;font-variant-numeric:normal;font-feature-settings:normal;text-align:start;letter-spacing:0px;word-spacing:0px;writing-mode:lr-tb;text-anchor:start;fill:#7a0000;fill-opacity:1;stroke:none;stroke-width:0.09394473;stroke-opacity:1"
       d="m 28.795595,256.37634 v -5.70116 l 2.347075,2.42454 q 0.371814,-0.37956 0.759122,-0.75912 0.387307,-0.38731 0.759121,-0.78236 0.154926,-0.17816 0.348576,-0.37181 0.193646,-0.19365 0.356322,-0.36407 l 0.147173,-0.17816 v 5.73214 H 32.76935 v -3.84209 l -1.611195,1.64993 -1.611196,-1.66542 v 3.85758 z" />
    <path
       inkscape:connector-curvature="0"
       id="path4884"
       style="font-style:normal;font-variant:normal;font-weight:bold;font-stretch:normal;font-size:4.01516056px;line-height:1.25;font-family:Brixton;-inkscape-font-specification:'Brixton, Bold';font-variant-ligatures:normal;font-variant-caps:normal;font-variant-numeric:normal;font-feature-settings:normal;text-align:start;letter-spacing:0px;word-spacing:0px;writing-mode:lr-tb;text-anchor:start;fill:#7a0000;fill-opacity:1;stroke:none;stroke-width:0.09394473;stroke-opacity:1"
       d="m 44.463993,256.37634 -1.479512,-2.29286 h -0.759122 v 2.29286 h -0.704897 v -5.4223 h 1.479509 q 0.286608,0 0.56547,0.1162 0.286608,0.10844 0.511245,0.31759 0.224635,0.2014 0.364066,0.49575 0.139419,0.28661 0.139419,0.65067 0,0.44153 -0.216882,0.8056 -0.209152,0.35632 -0.604198,0.55772 l 1.611194,2.47877 z m -1.44078,-3.05198 q 0.185892,0 0.325334,-0.0697 0.147173,-0.0775 0.24013,-0.19364 0.1007,-0.11619 0.154926,-0.25562 0.05423,-0.13945 0.05423,-0.27112 0,-0.22463 -0.08522,-0.37956 -0.08522,-0.15493 -0.209152,-0.25562 -0.116205,-0.1007 -0.255622,-0.13945 -0.131689,-0.0465 -0.224636,-0.0465 h -0.797846 v 1.6112 z" />
    <path
       inkscape:connector-curvature="0"
       id="path4886"
       style="font-style:normal;font-variant:normal;font-weight:bold;font-stretch:normal;font-size:4.01516056px;line-height:1.25;font-family:Brixton;-inkscape-font-specification:'Brixton, Bold';font-variant-ligatures:normal;font-variant-caps:normal;font-variant-numeric:normal;font-feature-settings:normal;text-align:start;letter-spacing:0px;word-spacing:0px;writing-mode:lr-tb;text-anchor:start;fill:#7a0000;fill-opacity:1;stroke:none;stroke-width:0.09394473;stroke-opacity:1"
       d="m 49.411275,251.69767 v 1.57247 h 1.804851 v 0.69715 h -1.804851 v 1.65767 h 2.184412 v 0.75138 h -2.943532 v -5.43004 h 2.943532 v 0.75137 z" />
    <path
       inkscape:connector-curvature="0"
       id="path4888"
       style="font-style:normal;font-variant:normal;font-weight:bold;font-stretch:normal;font-size:4.01516056px;line-height:1.25;font-family:Brixton;-inkscape-font-specification:'Brixton, Bold';font-variant-ligatures:normal;font-variant-caps:normal;font-variant-numeric:normal;font-feature-settings:normal;text-align:start;letter-spacing:0px;word-spacing:0px;writing-mode:lr-tb;text-anchor:start;fill:#7a0000;fill-opacity:1;stroke:none;stroke-width:0.09394473;stroke-opacity:1"
       d="m 56.821787,256.42281 q -0.418293,0 -0.782361,-0.1007 -0.356322,-0.10845 -0.588703,-0.21688 -0.13942,-0.0542 -0.278862,-0.13169 -0.139419,-0.0775 -0.224635,-0.13944 h 0.0078 l -0.07746,-0.0465 0.309844,-0.6042 0.348574,0.17816 v -0.008 q 0.247876,0.11618 0.588706,0.23238 0.348578,0.10846 0.7049,0.10846 0.247874,0 0.457021,-0.062 0.216882,-0.0697 0.356322,-0.15493 0.224636,-0.22463 0.224636,-0.57321 0,-0.34083 -0.34083,-0.56547 -0.317565,-0.22463 -0.844301,-0.41054 -0.286608,-0.13168 -0.565469,-0.26336 -0.27886,-0.13942 -0.526736,-0.32534 -0.542231,-0.45702 -0.542231,-1.05347 0,-0.32534 0.13169,-0.55773 0.06973,-0.13168 0.154925,-0.24013 0.09295,-0.11619 0.209152,-0.21689 0.46477,-0.37181 1.192904,-0.37181 0.371815,0 0.681662,0.0775 0.31759,0.0697 0.518989,0.14718 h -0.0078 q 0.09295,0.0232 0.170409,0.0542 0.08522,0.0232 0.170409,0.0542 l -0.356333,0.65073 q -0.224636,-0.0852 -0.542231,-0.16268 -0.309844,-0.0852 -0.635184,-0.0852 -0.108429,0 -0.294351,0.031 -0.185893,0.0232 -0.34083,0.11618 -0.3021,0.16265 -0.3021,0.53448 0,0.12394 0.08522,0.23238 0.09295,0.10846 0.240128,0.20916 0.154925,0.0929 0.348578,0.18591 0.193645,0.093 0.402799,0.18592 l 0.123936,0.0542 q 0.255623,0.11619 0.542231,0.25563 0.286605,0.13941 0.526735,0.33308 0.278862,0.22463 0.441529,0.51899 0.162679,0.29435 0.162679,0.62744 0,0.34857 -0.170409,0.64293 -0.162679,0.2866 -0.441529,0.49575 -0.247879,0.15492 -0.580959,0.25562 -0.32534,0.1007 -0.658423,0.10845 z" />
    <path
       inkscape:connector-curvature="0"
       id="path4890"
       style="font-style:normal;font-variant:normal;font-weight:bold;font-stretch:normal;font-size:4.01516056px;line-height:1.25;font-family:Brixton;-inkscape-font-specification:'Brixton, Bold';font-variant-ligatures:normal;font-variant-caps:normal;font-variant-numeric:normal;font-feature-settings:normal;text-align:start;letter-spacing:0px;word-spacing:0px;writing-mode:lr-tb;text-anchor:start;fill:#7a0000;fill-opacity:1;stroke:none;stroke-width:0.09394473;stroke-opacity:1"
       d="m 64.689396,256.39958 q -0.588706,0 -1.092205,-0.21689 -0.495753,-0.22463 -0.867565,-0.59645 -0.364071,-0.37181 -0.573216,-0.86756 -0.201399,-0.49576 -0.201399,-1.05348 0,-0.58096 0.201399,-1.08446 0.209152,-0.5035 0.573216,-0.86756 0.371812,-0.37182 0.867565,-0.58096 0.503499,-0.20915 1.092205,-0.20915 0.55772,0 1.053473,0.20915 0.495753,0.20914 0.867568,0.58096 0.371814,0.36406 0.588706,0.86756 0.224635,0.5035 0.224635,1.08446 0,0.55772 -0.224635,1.05348 -0.216882,0.49575 -0.588706,0.86756 -0.371815,0.37182 -0.867568,0.59645 -0.495753,0.21689 -1.053473,0.21689 z m 0,-4.7174 q -0.41829,0 -0.782361,0.15493 -0.364068,0.14717 -0.635181,0.41054 -0.263369,0.26337 -0.418293,0.62744 -0.147172,0.36406 -0.147172,0.7901 0,0.39505 0.147172,0.75138 0.154926,0.35632 0.418293,0.63518 0.271113,0.27111 0.635181,0.43378 0.364071,0.15493 0.782361,0.15493 0.395051,0 0.751375,-0.15493 0.364066,-0.16268 0.635181,-0.43378 0.271116,-0.27886 0.426039,-0.63518 0.162679,-0.35633 0.162679,-0.75138 0,-0.42604 -0.162679,-0.7901 -0.162679,-0.36407 -0.441529,-0.62744 -0.271115,-0.26337 -0.627437,-0.41054 -0.356324,-0.15493 -0.743629,-0.15493 z" />
    <path
       inkscape:connector-curvature="0"
       id="path4892"
       style="font-style:normal;font-variant:normal;font-weight:bold;font-stretch:normal;font-size:4.01516056px;line-height:1.25;font-family:Brixton;-inkscape-font-specification:'Brixton, Bold';font-variant-ligatures:normal;font-variant-caps:normal;font-variant-numeric:normal;font-feature-settings:normal;text-align:start;letter-spacing:0px;word-spacing:0px;writing-mode:lr-tb;text-anchor:start;fill:#7a0000;fill-opacity:1;stroke:none;stroke-width:0.09394473;stroke-opacity:1"
       d="m 73.649178,256.37634 -1.47951,-2.29286 h -0.759122 v 2.29286 h -0.704898 v -5.4223 h 1.479512 q 0.286606,0 0.565467,0.1162 0.286608,0.10844 0.511243,0.31759 0.224636,0.2014 0.364071,0.49575 0.139419,0.28661 0.139419,0.65067 0,0.44153 -0.216882,0.8056 -0.209152,0.35632 -0.604196,0.55772 l 1.611194,2.47877 z m -1.440781,-3.05198 q 0.185892,0 0.325339,-0.0697 0.147172,-0.0775 0.24013,-0.19364 0.100699,-0.11619 0.154926,-0.25562 0.05423,-0.13945 0.05423,-0.27112 0,-0.22463 -0.08522,-0.37956 -0.08522,-0.15493 -0.209152,-0.25562 -0.116206,-0.1007 -0.255623,-0.13945 -0.131689,-0.0465 -0.224635,-0.0465 h -0.797846 v 1.6112 z" />
    <path
       inkscape:connector-curvature="0"
       id="path4894"
       style="font-style:normal;font-variant:normal;font-weight:bold;font-stretch:normal;font-size:4.01516056px;line-height:1.25;font-family:Brixton;-inkscape-font-specification:'Brixton, Bold';font-variant-ligatures:normal;font-variant-caps:normal;font-variant-numeric:normal;font-feature-settings:normal;text-align:start;letter-spacing:0px;word-spacing:0px;writing-mode:lr-tb;text-anchor:start;fill:#7a0000;fill-opacity:1;stroke:none;stroke-width:0.09394473;stroke-opacity:1"
       d="m 81.268883,250.95404 v 0.71265 h -1.363321 v 4.70965 h -0.712644 v -4.70965 h -1.355571 v -0.71265 z" />
    <path
       style="fill:#7a0000;fill-opacity:1;fill-rule:evenodd;stroke:none;stroke-width:0.37122887;stroke-opacity:1"
       id="path3671"
       sodipodi:type="arc"
       sodipodi:cx="37.516724"
       sodipodi:cy="253.40556"
       sodipodi:rx="0.72187066"
       sodipodi:ry="0.72187066"
       sodipodi:start="0.035094033"
       sodipodi:end="0"
       sodipodi:open="true"
       d="m 38.23815,253.43089 a 0.72187066,0.72187066 0 0 1 -0.740424,0.69629 0.72187066,0.72187066 0 0 1 -0.702762,-0.73428 0.72187066,0.72187066 0 0 1 0.728093,-0.70918 0.72187066,0.72187066 0 0 1 0.715537,0.72184" />
    <path
       inkscape:connector-curvature="0"
       id="path5191"
       d="m -0.77374581,248.84225 v 0.26327 H 82.017087 v -0.26327 z"
       style="opacity:0.76000007;fill:#635c45;fill-opacity:1;stroke:none;stroke-width:0.19934823;stroke-linecap:square;stroke-linejoin:miter;stroke-miterlimit:4;stroke-dasharray:none;stroke-dashoffset:0;stroke-opacity:1" />
    <g
       id="g16964"
       transform="translate(-0.60136846,-36.615921)"
       style="fill:#a89c80;fill-opacity:0.97340423">
      <path
         sodipodi:type="star"
         style="opacity:0.76000007;fill:#a89c80;fill-opacity:0.97340423;stroke:none;stroke-width:0.06402916;stroke-linecap:round;stroke-linejoin:round;stroke-miterlimit:4;stroke-dasharray:none;stroke-dashoffset:2.29999995;stroke-opacity:1"
         id="path16730"
         sodipodi:sides="5"
         sodipodi:cx="40.821423"
         sodipodi:cy="295.01562"
         sodipodi:r1="2.028873"
         sodipodi:r2="0.64923936"
         sodipodi:arg1="0.52359878"
         sodipodi:arg2="1.1519173"
         inkscape:flatsided="false"
         inkscape:rounded="0"
         inkscape:randomized="0"
         d="m 42.578478,296.03006 -1.492986,-0.42133 -0.685896,1.39143 -0.06065,-1.55011 -1.53528,-0.22235 1.455501,-0.53669 -0.262959,-1.52885 0.960201,1.21841 1.372762,-0.72253 -0.862064,1.28972 z"
         inkscape:transform-center-x="-0.0042074839"
         inkscape:transform-center-y="-0.11083901"
         transform="matrix(0.53876889,0.24722313,-0.24722313,0.53876889,102.24964,126.4256)" />
      <path
         transform="matrix(0.53876889,0.24722313,-0.24722313,0.53876889,98.294043,126.4256)"
         inkscape:transform-center-y="-0.11083901"
         inkscape:transform-center-x="-0.0042074839"
         d="m 42.578478,296.03006 -1.492986,-0.42133 -0.685896,1.39143 -0.06065,-1.55011 -1.53528,-0.22235 1.455501,-0.53669 -0.262959,-1.52885 0.960201,1.21841 1.372762,-0.72253 -0.862064,1.28972 z"
         inkscape:randomized="0"
         inkscape:rounded="0"
         inkscape:flatsided="false"
         sodipodi:arg2="1.1519173"
         sodipodi:arg1="0.52359878"
         sodipodi:r2="0.64923936"
         sodipodi:r1="2.028873"
         sodipodi:cy="295.01562"
         sodipodi:cx="40.821423"
         sodipodi:sides="5"
         id="path16732"
         style="opacity:0.76000007;fill:#a89c80;fill-opacity:0.97340423;stroke:none;stroke-width:0.06402916;stroke-linecap:round;stroke-linejoin:round;stroke-miterlimit:4;stroke-dasharray:none;stroke-dashoffset:2.29999995;stroke-opacity:1"
         sodipodi:type="star" />
      <path
         sodipodi:type="star"
         style="opacity:0.76000007;fill:#a89c80;fill-opacity:0.97340423;stroke:none;stroke-width:0.06402916;stroke-linecap:round;stroke-linejoin:round;stroke-miterlimit:4;stroke-dasharray:none;stroke-dashoffset:2.29999995;stroke-opacity:1"
         id="path16734"
         sodipodi:sides="5"
         sodipodi:cx="40.821423"
         sodipodi:cy="295.01562"
         sodipodi:r1="2.028873"
         sodipodi:r2="0.64923936"
         sodipodi:arg1="0.52359878"
         sodipodi:arg2="1.1519173"
         inkscape:flatsided="false"
         inkscape:rounded="0"
         inkscape:randomized="0"
         d="m 42.578478,296.03006 -1.492986,-0.42133 -0.685896,1.39143 -0.06065,-1.55011 -1.53528,-0.22235 1.455501,-0.53669 -0.262959,-1.52885 0.960201,1.21841 1.372762,-0.72253 -0.862064,1.28972 z"
         inkscape:transform-center-x="-0.0042074839"
         inkscape:transform-center-y="-0.11083901"
         transform="matrix(0.53876889,0.24722313,-0.24722313,0.53876889,94.338451,126.4256)" />
      <path
         sodipodi:type="star"
         style="opacity:0.76000007;fill:#a89c80;fill-opacity:0.97340423;stroke:none;stroke-width:0.06402916;stroke-linecap:round;stroke-linejoin:round;stroke-miterlimit:4;stroke-dasharray:none;stroke-dashoffset:2.29999995;stroke-opacity:1"
         id="path16738"
         sodipodi:sides="5"
         sodipodi:cx="40.821423"
         sodipodi:cy="295.01562"
         sodipodi:r1="2.028873"
         sodipodi:r2="0.64923936"
         sodipodi:arg1="0.52359878"
         sodipodi:arg2="1.1519173"
         inkscape:flatsided="false"
         inkscape:rounded="0"
         inkscape:randomized="0"
         d="m 42.578478,296.03006 -1.492986,-0.42133 -0.685896,1.39143 -0.06065,-1.55011 -1.53528,-0.22235 1.455501,-0.53669 -0.262959,-1.52885 0.960201,1.21841 1.372762,-0.72253 -0.862064,1.28972 z"
         inkscape:transform-center-x="-0.0042074839"
         inkscape:transform-center-y="-0.11083901"
         transform="matrix(0.53876889,0.24722313,-0.24722313,0.53876889,90.382859,126.4256)" />
      <path
         transform="matrix(0.53876889,0.24722313,-0.24722313,0.53876889,86.427266,126.4256)"
         inkscape:transform-center-y="-0.11083901"
         inkscape:transform-center-x="-0.0042074839"
         d="m 42.578478,296.03006 -1.492986,-0.42133 -0.685896,1.39143 -0.06065,-1.55011 -1.53528,-0.22235 1.455501,-0.53669 -0.262959,-1.52885 0.960201,1.21841 1.372762,-0.72253 -0.862064,1.28972 z"
         inkscape:randomized="0"
         inkscape:rounded="0"
         inkscape:flatsided="false"
         sodipodi:arg2="1.1519173"
         sodipodi:arg1="0.52359878"
         sodipodi:r2="0.64923936"
         sodipodi:r1="2.028873"
         sodipodi:cy="295.01562"
         sodipodi:cx="40.821423"
         sodipodi:sides="5"
         id="path16740"
         style="opacity:0.76000007;fill:#a89c80;fill-opacity:0.97340423;stroke:none;stroke-width:0.06402916;stroke-linecap:round;stroke-linejoin:round;stroke-miterlimit:4;stroke-dasharray:none;stroke-dashoffset:2.29999995;stroke-opacity:1"
         sodipodi:type="star" />
      <path
         sodipodi:type="star"
         style="opacity:0.76000007;fill:#a89c80;fill-opacity:0.97340423;stroke:none;stroke-width:0.06402916;stroke-linecap:round;stroke-linejoin:round;stroke-miterlimit:4;stroke-dasharray:none;stroke-dashoffset:2.29999995;stroke-opacity:1"
         id="path16742"
         sodipodi:sides="5"
         sodipodi:cx="40.821423"
         sodipodi:cy="295.01562"
         sodipodi:r1="2.028873"
         sodipodi:r2="0.64923936"
         sodipodi:arg1="0.52359878"
         sodipodi:arg2="1.1519173"
         inkscape:flatsided="false"
         inkscape:rounded="0"
         inkscape:randomized="0"
         d="m 42.578478,296.03006 -1.492986,-0.42133 -0.685896,1.39143 -0.06065,-1.55011 -1.53528,-0.22235 1.455501,-0.53669 -0.262959,-1.52885 0.960201,1.21841 1.372762,-0.72253 -0.862064,1.28972 z"
         inkscape:transform-center-x="-0.0042074839"
         inkscape:transform-center-y="-0.11083901"
         transform="matrix(0.53876889,0.24722313,-0.24722313,0.53876889,82.471674,126.4256)" />
    </g>
    <path
       style="opacity:1;fill:#5f5641;fill-opacity:0.76078431;stroke:none;stroke-width:0.10434739;stroke-linecap:square;stroke-linejoin:miter;stroke-miterlimit:4;stroke-dasharray:none;stroke-dashoffset:0;stroke-opacity:1"
       d="m 54.083321,258.55685 v 0.27339 h 21.853387 v -0.27339 z"
       id="path16968"
       inkscape:connector-curvature="0" />
    <path
       inkscape:connector-curvature="0"
       id="path16972"
       d="m 5.7075406,258.55685 v 0.27339 H 27.560928 v -0.27339 z"
       style="opacity:1;fill:#5f5641;fill-opacity:0.76078431;stroke:none;stroke-width:0.10434739;stroke-linecap:square;stroke-linejoin:miter;stroke-miterlimit:4;stroke-dasharray:none;stroke-dashoffset:0;stroke-opacity:1" />
    <path
       d="m 19.990311,285.62993 q -0.778435,0 -1.385164,-0.34343 -0.595269,-0.3434 -0.927251,-0.97303 -0.32054,-0.62963 -0.32054,-1.45384 0,-0.89292 0.400666,-1.60267 0.412113,-0.72121 1.110419,-1.12186 0.709746,-0.41213 1.579768,-0.41213 0.78989,0 1.396612,0.34342 0.606731,0.34342 0.938712,0.97305 0.331976,0.61818 0.331976,1.4424 0,0.89293 -0.412115,1.61412 -0.400666,0.70975 -1.121863,1.12187 -0.709758,0.4121 -1.591227,0.4121 z m 0.274754,-0.54948 q 0.835678,0 1.350822,-0.59527 0.515144,-0.60674 0.515144,-1.6027 0,-0.75553 -0.25186,-1.32791 -0.240368,-0.57237 -0.698305,-0.88145 -0.446455,-0.30909 -1.041729,-0.30909 -0.812779,0 -1.316482,0.59526 -0.492241,0.59528 -0.492241,1.59122 0,0.75555 0.24037,1.32793 0.240369,0.5724 0.675407,0.89293 0.446453,0.30907 1.018838,0.30907 z"
       style="font-style:normal;font-variant:normal;font-weight:normal;font-stretch:normal;font-size:22.36752319px;line-height:1.25;font-family:'Alegreya SC';-inkscape-font-specification:'Alegreya SC, Normal';font-variant-ligatures:normal;font-variant-caps:normal;font-variant-numeric:normal;font-feature-settings:normal;text-align:start;letter-spacing:0px;word-spacing:0px;writing-mode:lr-tb;text-anchor:start;fill:#af936c;fill-opacity:1;stroke:none;stroke-width:0.27082595;stroke-miterlimit:4;stroke-dasharray:none"
       id="path1212"
       inkscape:connector-curvature="0" />
    <path
       d="m 29.137672,285.62993 q -0.251858,0 -0.515138,-0.21749 -0.263323,-0.22895 -0.480803,-0.61816 l -0.961602,-1.68282 h -0.744088 l -0.02299,1.22491 q 0,0.33196 0.04583,0.4808 0.04583,0.13735 0.171741,0.18317 0.137384,0.0457 0.457902,0.0571 l 0.02298,0.0346 -0.09162,0.43501 q -0.137366,-0.011 -0.503694,-0.0228 -0.354885,0 -0.7212,0 -0.354886,0 -0.618173,0.011 -0.263293,0.011 -0.354886,0.0228 l 0.08013,-0.46934 q 0.423565,-0.0573 0.560938,-0.19464 0.137352,-0.13736 0.137352,-0.51515 l 0.01122,-3.65179 q 0,-0.27473 -0.0687,-0.36632 -0.06869,-0.10303 -0.263293,-0.10303 l -0.320541,0.011 -0.0345,-0.0457 0.06869,-0.435 q 0.114488,0 0.435009,0.011 0.320543,0.011 0.641064,0.011 0.331976,0 0.709749,-0.011 0.377761,-0.0228 0.515143,-0.0228 0.927264,0 1.453859,0.38921 0.526583,0.37779 0.526583,1.05319 0,0.52659 -0.354887,0.97303 -0.354886,0.44646 -0.995943,0.73266 l 0.973056,1.4653 q 0.27473,0.41211 0.526584,0.58383 0.25186,0.17172 0.606724,0.17172 l 0.04583,0.0573 -0.05725,0.35488 z m -1.75149,-3.02215 q 0.217501,-0.0916 0.377761,-0.17174 0.171741,-0.0916 0.377757,-0.36632 0.206067,-0.27475 0.206067,-0.70974 0,-1.11043 -1.637014,-1.11043 -0.09162,0 -0.125955,0.0457 -0.03449,0.0344 -0.03449,0.16027 -0.09162,1.39661 -0.09162,2.06059 z"
       style="font-style:normal;font-variant:normal;font-weight:normal;font-stretch:normal;font-size:22.36752319px;line-height:1.25;font-family:'Alegreya SC';-inkscape-font-specification:'Alegreya SC, Normal';font-variant-ligatures:normal;font-variant-caps:normal;font-variant-numeric:normal;font-feature-settings:normal;text-align:start;letter-spacing:0px;word-spacing:0px;writing-mode:lr-tb;text-anchor:start;fill:#af936c;fill-opacity:1;stroke:none;stroke-width:0.27082595;stroke-miterlimit:4;stroke-dasharray:none"
       id="path1214"
       inkscape:connector-curvature="0" />
    <path
       d="m 31.403527,285.14904 q 0.423559,-0.0457 0.572381,-0.20603 0.148812,-0.1603 0.148812,-0.54949 l 0.01122,-3.6289 q 0,-0.28618 -0.0687,-0.37777 -0.0687,-0.10303 -0.274757,-0.10303 l -0.309068,0.011 -0.02298,-0.0457 0.0687,-0.43501 q 0.137352,0 0.538038,0.011 0.400673,0.011 0.870021,0.011 1.911752,0 2.827564,-0.10303 l 0.03452,0.0573 q -0.02298,0.12599 -0.103052,0.57237 -0.08013,0.44647 -0.114488,0.96159 l -0.549488,0.0457 q 0,-0.0457 0.01122,-0.14887 0.01122,-0.11442 0.01122,-0.22894 0,-0.29765 -0.09161,-0.41211 -0.08013,-0.12599 -0.354886,-0.16028 -0.263294,-0.0457 -0.927257,-0.0457 -0.30907,0 -0.423563,0.0226 -0.114489,0.011 -0.148814,0.0801 -0.03452,0.0573 -0.04583,0.22894 l -0.0687,1.62558 0.938702,0.011 q 0.206067,0 0.606729,-0.0346 0.400663,-0.0457 0.526589,-0.0573 l 0.04583,0.0573 -0.137414,0.59527 q -0.125905,0 -0.503694,-0.011 -0.366322,-0.011 -0.778439,-0.011 -0.320541,0 -0.721198,0.0573 -0.0345,0.87003 -0.0345,1.56832 0,0.2633 0.0345,0.36633 0.04583,0.10303 0.183164,0.13736 0.148813,0.0346 0.480799,0.0346 0.744093,0 1.064629,-0.0687 0.320541,-0.0685 0.446461,-0.27476 0.137351,-0.21751 0.217529,-0.73265 l 0.503694,-0.0457 0.04583,0.0573 q -0.0345,0.12582 -0.125906,0.59526 -0.08013,0.45791 -0.125905,0.96161 l -0.0687,0.0573 q -0.309067,-0.011 -1.28213,-0.0346 -0.973049,-0.0228 -1.579779,-0.0228 -0.469354,0 -0.870013,0.0344 -0.400668,0.0457 -0.515149,0.0572 z"
       style="font-style:normal;font-variant:normal;font-weight:normal;font-stretch:normal;font-size:22.36752319px;line-height:1.25;font-family:'Alegreya SC';-inkscape-font-specification:'Alegreya SC, Normal';font-variant-ligatures:normal;font-variant-caps:normal;font-variant-numeric:normal;font-feature-settings:normal;text-align:start;letter-spacing:0px;word-spacing:0px;writing-mode:lr-tb;text-anchor:start;fill:#af936c;fill-opacity:1;stroke:none;stroke-width:0.27082595;stroke-miterlimit:4;stroke-dasharray:none"
       id="path1216"
       inkscape:connector-curvature="0" />
    <path
       d="m 40.807886,285.62993 q -1.156212,-3.13664 -1.728589,-4.59049 h -0.05725 q -0.04583,0.54949 -0.171743,2.04913 -0.114489,1.49965 -0.114489,1.64846 0,0.14887 0.06869,0.2175 0.06869,0.0573 0.228966,0.0573 h 0.366322 l 0.0227,0.0344 -0.08013,0.45791 q -0.103052,0 -0.400662,-0.023 -0.286192,-0.011 -0.572385,-0.011 -0.228937,0 -0.492251,0.0228 -0.26332,0.0344 -0.343409,0.0457 l 0.04583,-0.46936 q 0.297632,-0.0344 0.423571,-0.17172 0.125904,-0.14887 0.171684,-0.50369 0.09158,-0.77844 0.2404,-2.18649 0.160295,-1.40806 0.160295,-1.57979 0,-0.22893 -0.183165,-0.33198 -0.171686,-0.11442 -0.606718,-0.13735 l -0.03442,-0.0573 0.08013,-0.37779 q 0.125905,0.011 0.446458,0.0344 0.320544,0.011 0.61817,0.011 0.251859,0 0.45791,-0.011 0.217502,-0.011 0.28619,-0.0226 0.343451,1.06463 0.663959,2.00333 0.331977,0.92727 0.538036,1.4882 0.217502,0.54949 0.274728,0.68686 h 0.05727 q 0.125904,-0.32055 0.560939,-1.49966 0.446461,-1.17909 0.961599,-2.65584 0.0687,-0.011 0.17174,0 0.114489,0 0.217501,0 0.12589,0.011 0.366323,0.011 0.183166,0 0.526595,-0.0227 0.354883,-0.0228 0.469349,-0.0344 l 0.02269,0.0344 -0.05725,0.40064 q -0.400663,0.0457 -0.560934,0.1603 -0.160295,0.10303 -0.160295,0.33199 0,0.22892 0.0801,1.45383 0.08013,1.22491 0.160298,2.08348 0.05723,0.51515 0.148844,0.6754 0.09161,0.16031 0.309079,0.16031 l 0.263294,-0.011 0.02269,0.0344 -0.08013,0.45791 q -0.09158,0 -0.354888,-0.011 -0.26329,-0.011 -0.560928,-0.011 -0.297617,0 -0.675413,0.0345 -0.377759,0.0344 -0.400671,0.0344 l 0.04583,-0.46935 q 0.297616,-0.0345 0.423561,-0.13735 0.125954,-0.10303 0.125954,-0.30908 0,-0.20608 -0.125954,-1.63704 -0.114488,-1.43093 -0.160299,-1.94608 h -0.05721 q -0.675382,1.7286 -1.717128,4.52181 z"
       style="font-style:normal;font-variant:normal;font-weight:normal;font-stretch:normal;font-size:22.36752319px;line-height:1.25;font-family:'Alegreya SC';-inkscape-font-specification:'Alegreya SC, Normal';font-variant-ligatures:normal;font-variant-caps:normal;font-variant-numeric:normal;font-feature-settings:normal;text-align:start;letter-spacing:0px;word-spacing:0px;writing-mode:lr-tb;text-anchor:start;fill:#af936c;fill-opacity:1;stroke:none;stroke-width:0.27082595;stroke-miterlimit:4;stroke-dasharray:none"
       id="path1218"
       inkscape:connector-curvature="0" />
    <path
       d="m 7.1699217,294.08111 q -0.2349911,0 -0.4806442,-0.20293 -0.2456569,-0.21362 -0.4485909,-0.57677 L 5.3434828,291.73132 H 4.6492293 l -0.021281,1.14285 q 0,0.30976 0.042759,0.4486 0.04277,0.12812 0.1601835,0.1709 0.1281926,0.0429 0.4272331,0.0534 l 0.021281,0.0321 -0.085491,0.40588 q -0.1281784,-0.01 -0.4699613,-0.0214 -0.3311164,0 -0.6728993,0 -0.3311152,0 -0.5767645,0.01 -0.2456859,0.011 -0.3311187,0.0221 l 0.074785,-0.4378 q 0.3952064,-0.0534 0.5233814,-0.18159 0.1282071,-0.12814 0.1282071,-0.48064 l 0.010758,-3.40721 q 0,-0.25633 -0.064098,-0.34179 -0.0641,-0.0961 -0.2456593,-0.0961 l -0.2990734,0.01 -0.032182,-0.0428 0.064086,-0.40586 q 0.1068274,0 0.4058715,0.01 0.2990749,0.01 0.5981265,0.01 0.3097422,0 0.6622177,-0.01 0.3524911,-0.0213 0.4806424,-0.0213 0.8651555,0 1.3564679,0.36314 0.4913271,0.35248 0.4913271,0.98265 0,0.49131 -0.3311184,0.90786 -0.3311197,0.41656 -0.9292436,0.68357 l 0.90784,1.36717 q 0.2563519,0.3845 0.4913211,0.54471 0.2349898,0.16023 0.5660876,0.16023 l 0.042741,0.0534 -0.053403,0.33111 z m -1.6341786,-2.81973 q 0.2029226,-0.0854 0.3524593,-0.16024 0.1601831,-0.0855 0.352455,-0.34178 0.192256,-0.25633 0.192256,-0.6622 0,-1.03605 -1.5273606,-1.03605 -0.08549,0 -0.1174601,0.0429 -0.032182,0.0319 -0.032182,0.14953 -0.085489,1.30308 -0.085489,1.92257 z"
       style="font-style:normal;font-variant:normal;font-weight:normal;font-stretch:normal;font-size:22.36752319px;line-height:1.25;font-family:'Alegreya SC';-inkscape-font-specification:'Alegreya SC, Normal';font-variant-ligatures:normal;font-variant-caps:normal;font-variant-numeric:normal;font-feature-settings:normal;text-align:start;letter-spacing:0px;word-spacing:0px;writing-mode:lr-tb;text-anchor:start;fill:#af936c;fill-opacity:1;stroke:none;stroke-width:0.25268611;stroke-miterlimit:4;stroke-dasharray:none"
       id="path1220"
       inkscape:connector-curvature="0" />
    <path
       d="m 9.2885823,293.65822 q 0.381567,-0.0414 0.5156311,-0.18561 0.1340673,-0.14445 0.1340673,-0.49501 l 0.010367,-3.26898 q 0,-0.25782 -0.061871,-0.34031 -0.061882,-0.0929 -0.2475062,-0.0929 l -0.2784579,0.01 -0.020542,-0.0412 0.061882,-0.39187 q 0.1236959,0 0.4846922,0.011 0.3609362,0.011 0.7837302,0.011 1.722136,0 2.547119,-0.0929 l 0.03107,0.0517 q -0.02053,0.11356 -0.09282,0.51562 -0.07216,0.40217 -0.103148,0.86623 l -0.494984,0.0413 q 0,-0.0413 0.01037,-0.13405 0.01037,-0.10303 0.01037,-0.20623 0,-0.26815 -0.08254,-0.37125 -0.07215,-0.11332 -0.319687,-0.1443 -0.237205,-0.0414 -0.835294,-0.0414 -0.278429,0 -0.381549,0.0205 -0.103148,0.011 -0.134084,0.0721 -0.03107,0.0517 -0.04129,0.20625 l -0.06189,1.46435 0.845596,0.01 q 0.185603,0 0.546556,-0.0311 0.360921,-0.0413 0.474362,-0.0516 l 0.04127,0.0516 -0.123694,0.53625 q -0.113404,0 -0.453739,-0.01 -0.329989,-0.01 -0.701236,-0.01 -0.288756,0 -0.649669,0.0516 -0.03107,0.78375 -0.03107,1.4128 0,0.23717 0.03107,0.32999 0.04129,0.0929 0.165005,0.12378 0.134067,0.0311 0.433116,0.0311 0.670292,0 0.959031,-0.0619 0.288757,-0.0619 0.402178,-0.24752 0.123696,-0.19593 0.19594,-0.65998 l 0.453739,-0.0412 0.04129,0.0517 q -0.03107,0.11331 -0.11344,0.53624 -0.07216,0.41248 -0.113403,0.86623 l -0.06189,0.0517 q -0.278431,-0.01 -1.154968,-0.0311 -0.876539,-0.0207 -1.42309,-0.0207 -0.422808,0 -0.7837389,0.0311 -0.3609365,0.0414 -0.4640606,0.0517 z"
       style="font-style:normal;font-variant:normal;font-weight:normal;font-stretch:normal;font-size:22.36752319px;line-height:1.25;font-family:'Alegreya SC';-inkscape-font-specification:'Alegreya SC, Normal';font-variant-ligatures:normal;font-variant-caps:normal;font-variant-numeric:normal;font-feature-settings:normal;text-align:start;letter-spacing:0px;word-spacing:0px;writing-mode:lr-tb;text-anchor:start;fill:#af936c;fill-opacity:1;stroke:none;stroke-width:0.24396676;stroke-miterlimit:4;stroke-dasharray:none"
       id="path1222"
       inkscape:connector-curvature="0" />
    <path
       d="m 16.722531,294.09654 q -0.360932,0 -0.670295,-0.0619 -0.299053,-0.0619 -0.484686,-0.12377 -0.175312,-0.0722 -0.216531,-0.0929 l -0.05159,-0.0928 q 0.01037,-0.0517 0.03107,-0.22687 0.03107,-0.1856 0.05155,-0.50531 0.03107,-0.32998 0.03107,-0.65999 l 0.464053,-0.0413 q 0,0.55686 0.08253,0.83529 0.09282,0.26812 0.309348,0.37125 0.216555,0.10303 0.659987,0.10303 0.49499,0 0.794045,-0.21658 0.309356,-0.21656 0.309356,-0.57749 0,-0.23717 -0.17533,-0.41249 -0.165,-0.18563 -0.391857,-0.30936 -0.216567,-0.12378 -0.701234,-0.36092 -0.659981,-0.3197 -1.020913,-0.62907 -0.350615,-0.30934 -0.350615,-0.79404 0,-0.4331 0.257798,-0.78374 0.268102,-0.3506 0.732187,-0.54653 0.464047,-0.19594 1.031228,-0.19594 0.340288,0 0.639352,0.0413 0.299052,0.0412 0.474362,0.0929 0.175313,0.0413 0.216581,0.0619 l 0.04129,0.0722 q -0.02054,0.11331 -0.09282,0.51561 -0.07215,0.39187 -0.103148,0.8456 l -0.402184,0.0413 -0.06182,-0.0413 q 0,-0.031 0.01037,-0.12377 0.01037,-0.10303 0.01037,-0.24751 0,-0.40216 -0.216556,-0.55685 -0.20625,-0.16501 -0.742487,-0.16501 -0.433116,0 -0.721856,0.20624 -0.278456,0.19593 -0.278456,0.50531 0,0.30936 0.278456,0.52593 0.288756,0.21655 0.866235,0.49497 0.505299,0.23722 0.804352,0.41251 0.309353,0.17532 0.525927,0.44342 0.216554,0.26812 0.216554,0.61874 0,0.46407 -0.278457,0.82499 -0.268099,0.35061 -0.763102,0.55686 -0.484676,0.19594 -1.113726,0.19594 z"
       style="font-style:normal;font-variant:normal;font-weight:normal;font-stretch:normal;font-size:22.36752319px;line-height:1.25;font-family:'Alegreya SC';-inkscape-font-specification:'Alegreya SC, Normal';font-variant-ligatures:normal;font-variant-caps:normal;font-variant-numeric:normal;font-feature-settings:normal;text-align:start;letter-spacing:0px;word-spacing:0px;writing-mode:lr-tb;text-anchor:start;fill:#af936c;fill-opacity:1;stroke:none;stroke-width:0.24396676;stroke-miterlimit:4;stroke-dasharray:none"
       id="path1224"
       inkscape:connector-curvature="0" />
    <path
       d="m 22.931548,294.09654 q -0.701233,0 -1.247789,-0.30934 -0.536241,-0.30937 -0.835296,-0.87654 -0.288756,-0.56719 -0.288756,-1.30968 0,-0.80436 0.360928,-1.44371 0.371243,-0.64968 1.000296,-1.01062 0.639362,-0.37123 1.423094,-0.37123 0.711546,0 1.258103,0.30936 0.54656,0.30937 0.845613,0.87654 0.299055,0.55688 0.299055,1.29936 0,0.80436 -0.371236,1.45403 -0.360937,0.63936 -1.010607,1.0106 -0.639359,0.37125 -1.433413,0.37125 z m 0.247505,-0.49498 q 0.752805,0 1.216855,-0.53624 0.464055,-0.54654 0.464055,-1.44371 0,-0.68063 -0.226881,-1.19625 -0.216556,-0.5156 -0.629031,-0.79404 -0.40218,-0.27843 -0.938423,-0.27843 -0.73218,0 -1.18592,0.53623 -0.443421,0.53624 -0.443421,1.43341 0,0.68062 0.216533,1.19622 0.216554,0.51563 0.60843,0.80437 0.402181,0.27842 0.917792,0.27842 z"
       style="font-style:normal;font-variant:normal;font-weight:normal;font-stretch:normal;font-size:22.36752319px;line-height:1.25;font-family:'Alegreya SC';-inkscape-font-specification:'Alegreya SC, Normal';font-variant-ligatures:normal;font-variant-caps:normal;font-variant-numeric:normal;font-feature-settings:normal;text-align:start;letter-spacing:0px;word-spacing:0px;writing-mode:lr-tb;text-anchor:start;fill:#af936c;fill-opacity:1;stroke:none;stroke-width:0.24396676;stroke-miterlimit:4;stroke-dasharray:none"
       id="path1226"
       inkscape:connector-curvature="0" />
    <path
       d="m 30.758202,294.08103 q -0.22688,0 -0.464056,-0.1959 -0.237182,-0.20625 -0.433115,-0.55688 l -0.866235,-1.51591 h -0.670301 l -0.02054,1.10341 q 0,0.29906 0.04126,0.43313 0.04129,0.12379 0.154702,0.165 0.123758,0.0414 0.412487,0.0517 l 0.02054,0.0311 -0.08253,0.39185 q -0.123758,-0.01 -0.45375,-0.0205 -0.319687,0 -0.649666,0 -0.319688,0 -0.556868,0.01 -0.237183,0.01 -0.31969,0.0207 l 0.07221,-0.42279 q 0.381558,-0.0517 0.505301,-0.17534 0.123772,-0.12378 0.123772,-0.46406 l 0.01037,-3.28962 q 0,-0.24749 -0.06189,-0.33 -0.06182,-0.0928 -0.237183,-0.0928 l -0.288752,0.011 -0.03107,-0.0413 0.06182,-0.39185 q 0.103148,0 0.391874,0.011 0.288752,0.011 0.577488,0.011 0.29905,0 0.639369,-0.011 0.340293,-0.0205 0.46405,-0.0205 0.835292,0 1.309664,0.35061 0.474369,0.34031 0.474369,0.94873 0,0.47438 -0.319691,0.87653 -0.319689,0.4022 -0.897163,0.66001 l 0.876536,1.31996 q 0.247509,0.37127 0.474362,0.52593 0.226881,0.15472 0.546559,0.15472 l 0.04129,0.0515 -0.05161,0.31969 z m -1.577786,-2.72241 q 0.195938,-0.0826 0.340291,-0.15473 0.154702,-0.0826 0.340295,-0.32999 0.185605,-0.24749 0.185605,-0.63936 0,-1.00031 -1.474669,-1.00031 -0.08254,0 -0.113428,0.0412 -0.03107,0.031 -0.03107,0.14447 -0.08253,1.25809 -0.08253,1.85621 z"
       style="font-style:normal;font-variant:normal;font-weight:normal;font-stretch:normal;font-size:22.36752319px;line-height:1.25;font-family:'Alegreya SC';-inkscape-font-specification:'Alegreya SC, Normal';font-variant-ligatures:normal;font-variant-caps:normal;font-variant-numeric:normal;font-feature-settings:normal;text-align:start;letter-spacing:0px;word-spacing:0px;writing-mode:lr-tb;text-anchor:start;fill:#af936c;fill-opacity:1;stroke:none;stroke-width:0.24396676;stroke-miterlimit:4;stroke-dasharray:none"
       id="path1228"
       inkscape:connector-curvature="0" />
    <path
       d="m 33.757448,293.63033 q 0.466047,-0.0337 0.643136,-0.10078 0.17708,-0.0757 0.23304,-0.26011 0.05592,-0.19303 0.05592,-0.6713 v -3.65851 q -0.79227,0.0252 -1.081213,0.0839 -0.279614,0.0503 -0.382146,0.24335 -0.102528,0.18461 -0.186423,0.73002 l -0.438077,0.0337 q 0.111818,-0.79713 0.139767,-1.45163 l 0.08386,-0.0671 0.773619,0.0923 h 2.889436 l 0.792263,-0.0923 0.08386,0.0671 q 0.02813,0.68807 0.139846,1.41808 l -0.438085,0.0337 q -0.102453,-0.5538 -0.205022,-0.7468 -0.10256,-0.19297 -0.36351,-0.25172 -0.260964,-0.0587 -1.006646,-0.0924 -0.05592,0.50347 -0.102538,1.77891 -0.04662,1.27546 -0.04662,2.29917 0,0.31047 0.121172,0.44472 0.121174,0.12583 0.410115,0.12583 0.279617,0 0.512639,-0.0252 l 0.0278,0.0337 -0.08389,0.38599 -0.307588,-0.009 -1.062564,-0.0167 q -0.512648,0 -1.276949,0.0337 z"
       style="font-style:normal;font-variant:normal;font-weight:normal;font-stretch:normal;font-size:22.36752319px;line-height:1.25;font-family:'Alegreya SC';-inkscape-font-specification:'Alegreya SC, Normal';font-variant-ligatures:normal;font-variant-caps:normal;font-variant-numeric:normal;font-feature-settings:normal;text-align:start;letter-spacing:0px;word-spacing:0px;writing-mode:lr-tb;text-anchor:start;fill:#af936c;fill-opacity:1;stroke:none;stroke-width:0.22856465;stroke-miterlimit:4;stroke-dasharray:none"
       id="path1230"
       inkscape:connector-curvature="0" />
    <path
       inkscape:connector-curvature="0"
       id="path1621"
       style="font-style:normal;font-variant:normal;font-weight:normal;font-stretch:normal;font-size:22.36752319px;line-height:1.25;font-family:'Alegreya SC';-inkscape-font-specification:'Alegreya SC, Normal';font-variant-ligatures:normal;font-variant-caps:normal;font-variant-numeric:normal;font-feature-settings:normal;text-align:start;letter-spacing:0px;word-spacing:0px;writing-mode:lr-tb;text-anchor:start;fill:#af936c;fill-opacity:1;stroke:none;stroke-width:0.27082595;stroke-miterlimit:4;stroke-dasharray:none"
       d="m 11.764799,285.20247 q 0.552206,-0.0398 0.762044,-0.11929 0.209823,-0.0896 0.276132,-0.30823 0.06627,-0.22869 0.06627,-0.79539 v -4.33495 q -0.938756,0.0299 -1.281125,0.0994 -0.331318,0.0596 -0.452802,0.28832 -0.12149,0.21874 -0.220893,0.865 l -0.519085,0.0397 q 0.132536,-0.94454 0.165656,-1.72005 l 0.09943,-0.0795 0.916655,0.10942 h 3.423684 l 0.938744,-0.10942 0.0994,0.0795 q 0.03295,0.81528 0.165674,1.68027 l -0.519076,0.0398 q -0.121491,-0.65627 -0.242963,-0.88492 -0.12149,-0.22868 -0.430719,-0.29831 -0.309222,-0.0697 -1.192763,-0.10941 -0.06625,0.59656 -0.121491,2.10784 -0.05525,1.51126 -0.05525,2.72427 0,0.36786 0.143572,0.52696 0.143571,0.14919 0.485937,0.14919 0.33132,0 0.607425,-0.0299 l 0.03335,0.0398 -0.09943,0.45736 -0.364461,-0.01 -1.259033,-0.0197 q -0.607431,0 -1.513045,0.0398 z" />
    <path
       sodipodi:nodetypes="cccccc"
       inkscape:connector-curvature="0"
       id="path20179"
       d="m 6.6939712,279.1666 1.1798137,0.89241 1.1798087,-0.89241 v 3.06521 H 6.6939712 Z"
       style="opacity:1;fill:#540000;fill-opacity:1;stroke:none;stroke-width:0.43129548;stroke-linecap:round;stroke-linejoin:round;stroke-miterlimit:4;stroke-dasharray:none;stroke-dashoffset:2.29999995;stroke-opacity:1" />
    <path
       style="opacity:1;fill:url(#linearGradient20193);fill-opacity:1;stroke:none;stroke-width:0.43129548;stroke-linecap:round;stroke-linejoin:round;stroke-miterlimit:4;stroke-dasharray:none;stroke-dashoffset:2.29999995;stroke-opacity:1"
       d="m 3.2617876,279.1666 1.1798133,0.89241 1.1798128,-0.89241 v 3.06521 H 3.2617876 Z"
       id="path20181"
       inkscape:connector-curvature="0"
       sodipodi:nodetypes="cccccc" />
    <path
       style="opacity:1;fill:url(#linearGradient20195);fill-opacity:1;stroke:none;stroke-width:0.43129548;stroke-linecap:round;stroke-linejoin:round;stroke-miterlimit:4;stroke-dasharray:none;stroke-dashoffset:2.29999995;stroke-opacity:1"
       d="m 6.6939712,285.98486 1.1798137,-0.89241 1.1798087,0.89241 v -3.06522 H 6.6939712 Z"
       id="path20183"
       inkscape:connector-curvature="0"
       sodipodi:nodetypes="cccccc" />
    <path
       sodipodi:nodetypes="cccccc"
       inkscape:connector-curvature="0"
       id="path20185"
       d="m 3.2617876,285.98486 1.1798133,-0.89241 1.1798128,0.89241 v -3.06522 H 3.2617876 Z"
       style="opacity:1;fill:#540000;fill-opacity:1;stroke:none;stroke-width:0.43129548;stroke-linecap:round;stroke-linejoin:round;stroke-miterlimit:4;stroke-dasharray:none;stroke-dashoffset:2.29999995;stroke-opacity:1" />
    <g
       id="g20235"
       transform="matrix(0.89214628,0,0,0.89214628,-13.429983,23.616904)"
       style="fill:#af936c;fill-opacity:1">
      <path
         sodipodi:type="star"
         style="opacity:0.76000007;fill:#af936c;fill-opacity:1;stroke:none;stroke-width:0.06402916;stroke-linecap:round;stroke-linejoin:round;stroke-miterlimit:4;stroke-dasharray:none;stroke-dashoffset:2.29999995;stroke-opacity:1"
         id="path20223"
         sodipodi:sides="5"
         sodipodi:cx="40.821423"
         sodipodi:cy="295.01562"
         sodipodi:r1="2.028873"
         sodipodi:r2="0.64923936"
         sodipodi:arg1="0.52359878"
         sodipodi:arg2="1.1519173"
         inkscape:flatsided="false"
         inkscape:rounded="0"
         inkscape:randomized="0"
         d="m 42.578478,296.03006 -1.492986,-0.42133 -0.685896,1.39143 -0.06065,-1.55011 -1.53528,-0.22235 1.455501,-0.53669 -0.262959,-1.52885 0.960201,1.21841 1.372762,-0.72253 -0.862064,1.28972 z"
         inkscape:transform-center-x="-0.0042074839"
         inkscape:transform-center-y="-0.11083901"
         transform="matrix(0.53876889,0.24722313,-0.24722313,0.53876889,102.24964,126.4256)" />
      <path
         transform="matrix(0.53876889,0.24722313,-0.24722313,0.53876889,98.294043,126.4256)"
         inkscape:transform-center-y="-0.11083901"
         inkscape:transform-center-x="-0.0042074839"
         d="m 42.578478,296.03006 -1.492986,-0.42133 -0.685896,1.39143 -0.06065,-1.55011 -1.53528,-0.22235 1.455501,-0.53669 -0.262959,-1.52885 0.960201,1.21841 1.372762,-0.72253 -0.862064,1.28972 z"
         inkscape:randomized="0"
         inkscape:rounded="0"
         inkscape:flatsided="false"
         sodipodi:arg2="1.1519173"
         sodipodi:arg1="0.52359878"
         sodipodi:r2="0.64923936"
         sodipodi:r1="2.028873"
         sodipodi:cy="295.01562"
         sodipodi:cx="40.821423"
         sodipodi:sides="5"
         id="path20225"
         style="opacity:0.76000007;fill:#af936c;fill-opacity:1;stroke:none;stroke-width:0.06402916;stroke-linecap:round;stroke-linejoin:round;stroke-miterlimit:4;stroke-dasharray:none;stroke-dashoffset:2.29999995;stroke-opacity:1"
         sodipodi:type="star" />
      <path
         sodipodi:type="star"
         style="opacity:0.76000007;fill:#af936c;fill-opacity:1;stroke:none;stroke-width:0.06402916;stroke-linecap:round;stroke-linejoin:round;stroke-miterlimit:4;stroke-dasharray:none;stroke-dashoffset:2.29999995;stroke-opacity:1"
         id="path20227"
         sodipodi:sides="5"
         sodipodi:cx="40.821423"
         sodipodi:cy="295.01562"
         sodipodi:r1="2.028873"
         sodipodi:r2="0.64923936"
         sodipodi:arg1="0.52359878"
         sodipodi:arg2="1.1519173"
         inkscape:flatsided="false"
         inkscape:rounded="0"
         inkscape:randomized="0"
         d="m 42.578478,296.03006 -1.492986,-0.42133 -0.685896,1.39143 -0.06065,-1.55011 -1.53528,-0.22235 1.455501,-0.53669 -0.262959,-1.52885 0.960201,1.21841 1.372762,-0.72253 -0.862064,1.28972 z"
         inkscape:transform-center-x="-0.0042074839"
         inkscape:transform-center-y="-0.11083901"
         transform="matrix(0.53876889,0.24722313,-0.24722313,0.53876889,94.338451,126.4256)" />
      <path
         sodipodi:type="star"
         style="opacity:0.76000007;fill:#af936c;fill-opacity:1;stroke:none;stroke-width:0.06402916;stroke-linecap:round;stroke-linejoin:round;stroke-miterlimit:4;stroke-dasharray:none;stroke-dashoffset:2.29999995;stroke-opacity:1"
         id="path20229"
         sodipodi:sides="5"
         sodipodi:cx="40.821423"
         sodipodi:cy="295.01562"
         sodipodi:r1="2.028873"
         sodipodi:r2="0.64923936"
         sodipodi:arg1="0.52359878"
         sodipodi:arg2="1.1519173"
         inkscape:flatsided="false"
         inkscape:rounded="0"
         inkscape:randomized="0"
         d="m 42.578478,296.03006 -1.492986,-0.42133 -0.685896,1.39143 -0.06065,-1.55011 -1.53528,-0.22235 1.455501,-0.53669 -0.262959,-1.52885 0.960201,1.21841 1.372762,-0.72253 -0.862064,1.28972 z"
         inkscape:transform-center-x="-0.0042074839"
         inkscape:transform-center-y="-0.11083901"
         transform="matrix(0.53876889,0.24722313,-0.24722313,0.53876889,90.382859,126.4256)" />
      <path
         transform="matrix(0.53876889,0.24722313,-0.24722313,0.53876889,86.427266,126.4256)"
         inkscape:transform-center-y="-0.11083901"
         inkscape:transform-center-x="-0.0042074839"
         d="m 42.578478,296.03006 -1.492986,-0.42133 -0.685896,1.39143 -0.06065,-1.55011 -1.53528,-0.22235 1.455501,-0.53669 -0.262959,-1.52885 0.960201,1.21841 1.372762,-0.72253 -0.862064,1.28972 z"
         inkscape:randomized="0"
         inkscape:rounded="0"
         inkscape:flatsided="false"
         sodipodi:arg2="1.1519173"
         sodipodi:arg1="0.52359878"
         sodipodi:r2="0.64923936"
         sodipodi:r1="2.028873"
         sodipodi:cy="295.01562"
         sodipodi:cx="40.821423"
         sodipodi:sides="5"
         id="path20231"
         style="opacity:0.76000007;fill:#af936c;fill-opacity:1;stroke:none;stroke-width:0.06402916;stroke-linecap:round;stroke-linejoin:round;stroke-miterlimit:4;stroke-dasharray:none;stroke-dashoffset:2.29999995;stroke-opacity:1"
         sodipodi:type="star" />
      <path
         sodipodi:type="star"
         style="opacity:0.76000007;fill:#af936c;fill-opacity:1;stroke:none;stroke-width:0.06402916;stroke-linecap:round;stroke-linejoin:round;stroke-miterlimit:4;stroke-dasharray:none;stroke-dashoffset:2.29999995;stroke-opacity:1"
         id="path20233"
         sodipodi:sides="5"
         sodipodi:cx="40.821423"
         sodipodi:cy="295.01562"
         sodipodi:r1="2.028873"
         sodipodi:r2="0.64923936"
         sodipodi:arg1="0.52359878"
         sodipodi:arg2="1.1519173"
         inkscape:flatsided="false"
         inkscape:rounded="0"
         inkscape:randomized="0"
         d="m 42.578478,296.03006 -1.492986,-0.42133 -0.685896,1.39143 -0.06065,-1.55011 -1.53528,-0.22235 1.455501,-0.53669 -0.262959,-1.52885 0.960201,1.21841 1.372762,-0.72253 -0.862064,1.28972 z"
         inkscape:transform-center-x="-0.0042074839"
         inkscape:transform-center-y="-0.11083901"
         transform="matrix(0.53876889,0.24722313,-0.24722313,0.53876889,82.471674,126.4256)" />
    </g>
    <path
       style="opacity:1;fill:#af936c;fill-opacity:1;stroke:none;stroke-width:0.05789715;stroke-linecap:square;stroke-linejoin:miter;stroke-miterlimit:4;stroke-dasharray:none;stroke-dashoffset:0;stroke-opacity:1"
       d="m 34.991799,286.87467 v 0.20041 h 9.178605 v -0.20041 z"
       id="path20239"
       inkscape:connector-curvature="0" />
    <path
       style="opacity:1;fill:#540000;fill-opacity:1;stroke:none;stroke-width:0.36674365;stroke-linecap:round;stroke-linejoin:round;stroke-miterlimit:4;stroke-dasharray:none;stroke-dashoffset:2.29999995;stroke-opacity:1"
       d="m 41.429565,288.30618 -1.003229,0.75883 -1.003229,-0.75883 v 2.60644 h 2.006458 z"
       id="path20257"
       inkscape:connector-curvature="0"
       sodipodi:nodetypes="cccccc" />
    <path
       sodipodi:nodetypes="cccccc"
       inkscape:connector-curvature="0"
       id="path20259"
       d="m 44.348049,288.30618 -1.003228,0.75883 -1.003229,-0.75883 v 2.60644 h 2.006457 z"
       style="opacity:1;fill:url(#linearGradient20269);fill-opacity:1;stroke:none;stroke-width:0.36674365;stroke-linecap:round;stroke-linejoin:round;stroke-miterlimit:4;stroke-dasharray:none;stroke-dashoffset:2.29999995;stroke-opacity:1" />
    <path
       sodipodi:nodetypes="cccccc"
       inkscape:connector-curvature="0"
       id="path20261"
       d="m 41.429565,294.10395 -1.003229,-0.75884 -1.003229,0.75884 v -2.60644 h 2.006458 z"
       style="opacity:1;fill:url(#linearGradient20271);fill-opacity:1;stroke:none;stroke-width:0.36674365;stroke-linecap:round;stroke-linejoin:round;stroke-miterlimit:4;stroke-dasharray:none;stroke-dashoffset:2.29999995;stroke-opacity:1" />
    <path
       style="opacity:1;fill:#540000;fill-opacity:1;stroke:none;stroke-width:0.36674365;stroke-linecap:round;stroke-linejoin:round;stroke-miterlimit:4;stroke-dasharray:none;stroke-dashoffset:2.29999995;stroke-opacity:1"
       d="m 44.348049,294.10395 -1.003228,-0.75884 -1.003229,0.75884 v -2.60644 h 2.006457 z"
       id="path20263"
       inkscape:connector-curvature="0"
       sodipodi:nodetypes="cccccc" />
    <path
       inkscape:connector-curvature="0"
       id="path20564"
       d="m 3.1997692,286.87467 v 0.20041 h 9.1786038 v -0.20041 z"
       style="opacity:1;fill:#af936c;fill-opacity:1;stroke:none;stroke-width:0.05789715;stroke-linecap:square;stroke-linejoin:miter;stroke-miterlimit:4;stroke-dasharray:none;stroke-dashoffset:0;stroke-opacity:1" />
  </g>
</svg>
