<?xml version="1.0" encoding="UTF-8" standalone="no"?>
<!-- Created with Inkscape (http://www.inkscape.org/) -->

<svg
   xmlns:dc="http://purl.org/dc/elements/1.1/"
   xmlns:cc="http://creativecommons.org/ns#"
   xmlns:rdf="http://www.w3.org/1999/02/22-rdf-syntax-ns#"
   xmlns:svg="http://www.w3.org/2000/svg"
   xmlns="http://www.w3.org/2000/svg"
   xmlns:sodipodi="http://sodipodi.sourceforge.net/DTD/sodipodi-0.dtd"
   xmlns:inkscape="http://www.inkscape.org/namespaces/inkscape"
   width="225"
   height="74"
   viewBox="0 0 59.531231 19.579158"
   version="1.1"
   id="svg8"
   inkscape:version="0.92.2 (5c3e80d, 2017-08-06)"
   sodipodi:docname="logo9.svg">
  <defs
     id="defs2">
    <filter
       inkscape:collect="always"
       style="color-interpolation-filters:sRGB"
       id="filter1055"
       x="-0.0035696343"
       width="1.0071393"
       y="-0.01879961"
       height="1.0375992">
      <feGaussianBlur
         inkscape:collect="always"
         stdDeviation="0.026793538"
         id="feGaussianBlur1057" />
    </filter>
    <filter
       inkscape:collect="always"
       style="color-interpolation-filters:sRGB"
       id="filter1063"
       x="-0.00084769403"
       width="1.0016954"
       y="-0.002053406"
       height="1.0041068">
      <feGaussianBlur
         inkscape:collect="always"
         stdDeviation="0.0046420338"
         id="feGaussianBlur1065" />
    </filter>
  </defs>
  <sodipodi:namedview
     id="base"
     pagecolor="#ffffff"
     bordercolor="#666666"
     borderopacity="1.0"
     inkscape:pageopacity="0.0"
     inkscape:pageshadow="2"
     inkscape:zoom="179.2"
     inkscape:cx="105.34254"
     inkscape:cy="14.228089"
     inkscape:document-units="px"
     inkscape:current-layer="layer1"
     showgrid="false"
     showguides="false"
     inkscape:window-width="1366"
     inkscape:window-height="705"
     inkscape:window-x="-8"
     inkscape:window-y="-8"
     inkscape:window-maximized="1"
     inkscape:snap-smooth-nodes="true"
     inkscape:object-nodes="false"
     units="px" />
  <metadata
     id="metadata5">
    <rdf:RDF>
      <cc:Work
         rdf:about="">
        <dc:format>image/svg+xml</dc:format>
        <dc:type
           rdf:resource="http://purl.org/dc/dcmitype/StillImage" />
        <dc:title />
      </cc:Work>
    </rdf:RDF>
  </metadata>
  <g
     inkscape:label="Layer 1"
     inkscape:groupmode="layer"
     id="layer1"
     transform="translate(0,-277.42091)">
    <g
       id="g929"
       transform="matrix(0.60425949,0,0,0.56312812,-45.802618,179.5062)"
       style="fill:#1a1a1a;fill-opacity:1">
      <path
         d="m 99.091743,158.28713 v -6.69925 h -2.21192 v -1.15358 h 5.556167 v 1.15358 h -2.19067 v 6.69925 z"
         style="font-style:normal;font-variant:normal;font-weight:normal;font-stretch:normal;font-size:10.58333302px;line-height:1.25;font-family:'Modern Sans';-inkscape-font-specification:'Modern Sans, Normal';font-variant-ligatures:normal;font-variant-caps:normal;font-variant-numeric:normal;font-feature-settings:normal;text-align:start;letter-spacing:0px;word-spacing:0px;writing-mode:lr-tb;text-anchor:start;fill:#1a1a1a;fill-opacity:1;stroke:none;stroke-width:0.26458332"
         id="path869"
         inkscape:connector-curvature="0" />
      <path
         d="m 108.62216,158.28711 -1.21708,-2.667 q -0.10583,0.0106 -0.21167,0.0106 -0.0952,0 -0.17991,0 h -1.21709 v 2.65642 h -1.15358 v -7.85283 h 1.143 1.21708 q 0.21167,0 0.48684,0.0212 0.28575,0.0106 0.5715,0.0847 0.29633,0.0635 0.5715,0.22225 0.28575,0.15875 0.508,0.4445 0.22225,0.28575 0.34925,0.74083 0.13758,0.4445 0.13758,1.09009 0,0.51858 -0.0847,0.91016 -0.0847,0.381 -0.24341,0.65617 -0.14817,0.27517 -0.34925,0.46567 -0.1905,0.17991 -0.41275,0.29633 l 1.35466,2.921 z m -2.06375,-3.81 q 0.3175,0 0.65617,-0.0106 0.34925,-0.0106 0.62442,-0.13759 0.27516,-0.127 0.45508,-0.42333 0.17992,-0.29633 0.17992,-0.86783 0,-0.5715 -0.17992,-0.86784 -0.17992,-0.29633 -0.45508,-0.42333 -0.27517,-0.127 -0.61384,-0.13758 -0.33866,-0.0212 -0.65616,-0.0212 h -0.77259 v 2.88925 z"
         style="font-style:normal;font-variant:normal;font-weight:normal;font-stretch:normal;font-size:10.58333302px;line-height:1.25;font-family:'Modern Sans';-inkscape-font-specification:'Modern Sans, Normal';font-variant-ligatures:normal;font-variant-caps:normal;font-variant-numeric:normal;font-feature-settings:normal;text-align:start;letter-spacing:0px;word-spacing:0px;writing-mode:lr-tb;text-anchor:start;fill:#1a1a1a;fill-opacity:1;stroke:none;stroke-width:0.26458332"
         id="path871"
         inkscape:connector-curvature="0" />
      <path
         d="m 117.15641,158.28713 -0.45509,-1.06892 h -3.65125 l -0.45508,1.06892 h -1.16417 l 3.45017,-7.85283 3.45017,7.85283 z m -3.60892,-2.2225 h 2.65642 l -1.32292,-3.10092 z"
         style="font-style:normal;font-variant:normal;font-weight:normal;font-stretch:normal;font-size:10.58333302px;line-height:1.25;font-family:'Modern Sans';-inkscape-font-specification:'Modern Sans, Normal';font-variant-ligatures:normal;font-variant-caps:normal;font-variant-numeric:normal;font-feature-settings:normal;text-align:start;letter-spacing:0px;word-spacing:0px;writing-mode:lr-tb;text-anchor:start;fill:#1a1a1a;fill-opacity:1;stroke:none;stroke-width:0.26458332"
         id="path873"
         inkscape:connector-curvature="0" />
      <path
         d="m 119.73623,150.4343 4.66725,4.96358 v -4.96358 h 1.15359 v 7.85283 l -4.67784,-4.77308 v 4.77308 h -1.143 z"
         style="font-style:normal;font-variant:normal;font-weight:normal;font-stretch:normal;font-size:10.58333302px;line-height:1.25;font-family:'Modern Sans';-inkscape-font-specification:'Modern Sans, Normal';font-variant-ligatures:normal;font-variant-caps:normal;font-variant-numeric:normal;font-feature-settings:normal;text-align:start;letter-spacing:0px;word-spacing:0px;writing-mode:lr-tb;text-anchor:start;fill:#1a1a1a;fill-opacity:1;stroke:none;stroke-width:0.26458332"
         id="path875"
         inkscape:connector-curvature="0" />
      <path
         d="m 133.47355,158.28713 -0.47625,-0.45508 q -0.84667,0.45508 -1.83092,0.45508 -0.81491,0 -1.53458,-0.30692 -0.70908,-0.30691 -1.24883,-0.83608 -0.52917,-0.53975 -0.84667,-1.24883 -0.30692,-0.71967 -0.30692,-1.53459 0,-0.81491 0.30692,-1.524 0.3175,-0.71966 0.84667,-1.24883 0.53975,-0.53975 1.24883,-0.84667 0.71967,-0.30691 1.53458,-0.30691 0.81492,0 1.524,0.30691 0.71967,0.30692 1.24884,0.84667 0.53975,0.52917 0.84666,1.24883 0.30692,0.70909 0.30692,1.524 0,0.78317 -0.28575,1.47109 -0.28575,0.68791 -0.78317,1.21708 l 1.30175,1.23825 z m -4.953,-3.92642 q 0,0.55034 0.20108,1.03717 0.21167,0.47625 0.5715,0.83608 0.35984,0.34925 0.83609,0.56092 0.48683,0.20108 1.03716,0.20108 0.53975,0 1.016,-0.20108 0.48684,-0.21167 0.84667,-0.56092 0.35983,-0.35983 0.56092,-0.83608 0.21166,-0.48683 0.21166,-1.03717 0,-0.55033 -0.21166,-1.02658 -0.20109,-0.47625 -0.56092,-0.83608 -0.35983,-0.35984 -0.84667,-0.56092 -0.47625,-0.21167 -1.016,-0.21167 -0.55033,0 -1.03716,0.21167 -0.47625,0.20108 -0.83609,0.56092 -0.35983,0.35983 -0.5715,0.83608 -0.20108,0.47625 -0.20108,1.02658 z"
         style="font-style:normal;font-variant:normal;font-weight:normal;font-stretch:normal;font-size:10.58333302px;line-height:1.25;font-family:'Modern Sans';-inkscape-font-specification:'Modern Sans, Normal';font-variant-ligatures:normal;font-variant-caps:normal;font-variant-numeric:normal;font-feature-settings:normal;text-align:start;letter-spacing:0px;word-spacing:0px;writing-mode:lr-tb;text-anchor:start;fill:#1a1a1a;fill-opacity:1;stroke:none;stroke-width:0.26458332"
         id="path877"
         inkscape:connector-curvature="0" />
      <path
         d="m 136.86433,150.4343 h 1.143 v 5.12233 q 0,0.0847 0.0635,0.34925 0.0635,0.254 0.254,0.52917 0.1905,0.27516 0.53975,0.48683 0.34925,0.21167 0.92075,0.21167 0.56092,0 0.89958,-0.21167 0.34925,-0.21167 0.53975,-0.48683 0.1905,-0.27517 0.254,-0.52917 0.0635,-0.254 0.0635,-0.33867 v -5.13291 h 1.16417 v 5.12233 q 0,0.0635 -0.0318,0.28575 -0.0317,0.22225 -0.13758,0.52917 -0.10584,0.29633 -0.29634,0.635 -0.1905,0.33866 -0.51858,0.62441 -0.32808,0.28575 -0.80433,0.47625 -0.46567,0.17992 -1.13242,0.17992 -0.66675,0 -1.143,-0.16933 -0.47625,-0.17992 -0.80433,-0.4445 -0.3175,-0.27517 -0.51859,-0.60325 -0.1905,-0.32809 -0.29633,-0.62442 -0.0952,-0.30692 -0.127,-0.53975 -0.0317,-0.24342 -0.0317,-0.34925 z"
         style="font-style:normal;font-variant:normal;font-weight:normal;font-stretch:normal;font-size:10.58333302px;line-height:1.25;font-family:'Modern Sans';-inkscape-font-specification:'Modern Sans, Normal';font-variant-ligatures:normal;font-variant-caps:normal;font-variant-numeric:normal;font-feature-settings:normal;text-align:start;letter-spacing:0px;word-spacing:0px;writing-mode:lr-tb;text-anchor:start;fill:#1a1a1a;fill-opacity:1;stroke:none;stroke-width:0.26458332"
         id="path879"
         inkscape:connector-curvature="0" />
      <path
         d="m 145.53224,150.4343 v 7.85283 h -1.15358 v -7.85283 z"
         style="font-style:normal;font-variant:normal;font-weight:normal;font-stretch:normal;font-size:10.58333302px;line-height:1.25;font-family:'Modern Sans';-inkscape-font-specification:'Modern Sans, Normal';font-variant-ligatures:normal;font-variant-caps:normal;font-variant-numeric:normal;font-feature-settings:normal;text-align:start;letter-spacing:0px;word-spacing:0px;writing-mode:lr-tb;text-anchor:start;fill:#1a1a1a;fill-opacity:1;stroke:none;stroke-width:0.26458332"
         id="path881"
         inkscape:connector-curvature="0" />
      <path
         d="m 152.40238,158.28713 h -4.52967 v -7.85283 h 1.15358 v 6.69925 h 3.37609 z"
         style="font-style:normal;font-variant:normal;font-weight:normal;font-stretch:normal;font-size:10.58333302px;line-height:1.25;font-family:'Modern Sans';-inkscape-font-specification:'Modern Sans, Normal';font-variant-ligatures:normal;font-variant-caps:normal;font-variant-numeric:normal;font-feature-settings:normal;text-align:start;letter-spacing:0px;word-spacing:0px;writing-mode:lr-tb;text-anchor:start;fill:#1a1a1a;fill-opacity:1;stroke:none;stroke-width:0.26458332"
         id="path883"
         inkscape:connector-curvature="0" />
    </g>
    <g
       id="g919"
       transform="matrix(0.74189169,0,0,0.74189169,-60.945965,187.95774)"
       style="fill:#1a1a1a;fill-opacity:1">
      <path
         d="m 118.69751,164.4978 c 0.81933,0 1.19467,-0.4028 1.19467,-0.87426 0,-1.1672 -1.97281,-0.63624 -1.97281,-1.51508 0,-0.32041 0.26091,-0.58131 0.8468,-0.58131 0.28379,0 0.6042,0.087 0.87884,0.26548 l 0.11443,-0.27006 c -0.25633,-0.17851 -0.63167,-0.28379 -0.99327,-0.28379 -0.81476,0 -1.18094,0.40738 -1.18094,0.87884 0,1.18551 1.97281,0.64539 1.97281,1.52423 0,0.31583 -0.26091,0.56758 -0.86053,0.56758 -0.42111,0 -0.82849,-0.16478 -1.05735,-0.38907 l -0.13274,0.26091 c 0.23802,0.24717 0.70948,0.41653 1.19009,0.41653 z"
         style="font-style:normal;font-variant:normal;font-weight:normal;font-stretch:normal;font-size:4.57727623px;line-height:1.25;font-family:Montserrat;-inkscape-font-specification:'Montserrat, Normal';font-variant-ligatures:normal;font-variant-caps:normal;font-variant-numeric:normal;font-feature-settings:normal;text-align:start;letter-spacing:0px;word-spacing:0px;writing-mode:lr-tb;text-anchor:start;fill:#1a1a1a;fill-opacity:1;stroke:none;stroke-width:0.1144319"
         id="path894"
         inkscape:connector-curvature="0" />
      <path
         d="m 121.87363,164.47034 h 0.33872 v -2.91115 h 1.12601 v -0.29295 h -2.59074 v 0.29295 h 1.12601 z"
         style="font-style:normal;font-variant:normal;font-weight:normal;font-stretch:normal;font-size:4.57727623px;line-height:1.25;font-family:Montserrat;-inkscape-font-specification:'Montserrat, Normal';font-variant-ligatures:normal;font-variant-caps:normal;font-variant-numeric:normal;font-feature-settings:normal;text-align:start;letter-spacing:0px;word-spacing:0px;writing-mode:lr-tb;text-anchor:start;fill:#1a1a1a;fill-opacity:1;stroke:none;stroke-width:0.1144319"
         id="path896"
         inkscape:connector-curvature="0" />
      <path
         d="m 124.53251,164.17739 v -1.19009 h 1.65697 v -0.28837 h -1.65697 v -1.13974 h 1.85837 v -0.29295 h -2.19709 v 3.2041 h 2.26575 v -0.29295 z"
         style="font-style:normal;font-variant:normal;font-weight:normal;font-stretch:normal;font-size:4.57727623px;line-height:1.25;font-family:Montserrat;-inkscape-font-specification:'Montserrat, Normal';font-variant-ligatures:normal;font-variant-caps:normal;font-variant-numeric:normal;font-feature-settings:normal;text-align:start;letter-spacing:0px;word-spacing:0px;writing-mode:lr-tb;text-anchor:start;fill:#1a1a1a;fill-opacity:1;stroke:none;stroke-width:0.1144319"
         id="path898"
         inkscape:connector-curvature="0" />
      <path
         d="m 127.6537,164.17739 v -1.19009 h 1.65697 v -0.28837 h -1.65697 v -1.13974 h 1.85837 v -0.29295 h -2.19709 v 3.2041 h 2.26575 v -0.29295 z"
         style="font-style:normal;font-variant:normal;font-weight:normal;font-stretch:normal;font-size:4.57727623px;line-height:1.25;font-family:Montserrat;-inkscape-font-specification:'Montserrat, Normal';font-variant-ligatures:normal;font-variant-caps:normal;font-variant-numeric:normal;font-feature-settings:normal;text-align:start;letter-spacing:0px;word-spacing:0px;writing-mode:lr-tb;text-anchor:start;fill:#1a1a1a;fill-opacity:1;stroke:none;stroke-width:0.1144319"
         id="path900"
         inkscape:connector-curvature="0" />
      <path
         d="m 131.6354,161.26624 h -1.19924 v 3.2041 h 0.33872 v -1.01158 h 0.86052 c 0.81476,0 1.3091,-0.41196 1.3091,-1.09397 0,-0.68659 -0.49434,-1.09855 -1.3091,-1.09855 z m -0.009,1.895 h -0.85137 v -1.60205 h 0.85137 c 0.64082,0 0.97954,0.29294 0.97954,0.8056 0,0.5035 -0.33872,0.79645 -0.97954,0.79645 z"
         style="font-style:normal;font-variant:normal;font-weight:normal;font-stretch:normal;font-size:4.57727623px;line-height:1.25;font-family:Montserrat;-inkscape-font-specification:'Montserrat, Normal';font-variant-ligatures:normal;font-variant-caps:normal;font-variant-numeric:normal;font-feature-settings:normal;text-align:start;letter-spacing:0px;word-spacing:0px;writing-mode:lr-tb;text-anchor:start;fill:#1a1a1a;fill-opacity:1;stroke:none;stroke-width:0.1144319"
         id="path902"
         inkscape:connector-curvature="0" />
      <path
         d="m 134.99002,164.4978 c 0.81933,0 1.19467,-0.4028 1.19467,-0.87426 0,-1.1672 -1.97281,-0.63624 -1.97281,-1.51508 0,-0.32041 0.26091,-0.58131 0.8468,-0.58131 0.28379,0 0.6042,0.087 0.87883,0.26548 l 0.11444,-0.27006 c -0.25633,-0.17851 -0.63167,-0.28379 -0.99327,-0.28379 -0.81476,0 -1.18094,0.40738 -1.18094,0.87884 0,1.18551 1.97281,0.64539 1.97281,1.52423 0,0.31583 -0.26091,0.56758 -0.86053,0.56758 -0.42111,0 -0.82849,-0.16478 -1.05735,-0.38907 l -0.13274,0.26091 c 0.23801,0.24717 0.70947,0.41653 1.19009,0.41653 z"
         style="font-style:normal;font-variant:normal;font-weight:normal;font-stretch:normal;font-size:4.57727623px;line-height:1.25;font-family:Montserrat;-inkscape-font-specification:'Montserrat, Normal';font-variant-ligatures:normal;font-variant-caps:normal;font-variant-numeric:normal;font-feature-settings:normal;text-align:start;letter-spacing:0px;word-spacing:0px;writing-mode:lr-tb;text-anchor:start;fill:#1a1a1a;fill-opacity:1;stroke:none;stroke-width:0.1144319"
         id="path904"
         inkscape:connector-curvature="0" />
    </g>
    <flowRoot
       xml:space="preserve"
       id="flowRoot861"
       style="font-style:normal;font-variant:normal;font-weight:normal;font-stretch:normal;font-size:40px;line-height:1.25;font-family:'League Gothic';-inkscape-font-specification:'League Gothic, Normal';font-variant-ligatures:normal;font-variant-caps:normal;font-variant-numeric:normal;font-feature-settings:normal;text-align:start;letter-spacing:0px;word-spacing:0px;writing-mode:lr-tb;text-anchor:start;fill:#000000;fill-opacity:1;stroke:none"
       transform="scale(0.26458333)"><flowRegion
         id="flowRegion863"><rect
           id="rect865"
           width="195.96959"
           height="60.609154"
           x="374.7666"
           y="597.24036" /></flowRegion><flowPara
         id="flowPara867" /></flowRoot>    <g
       style="fill:#c49920;fill-opacity:1"
       transform="matrix(0.44707674,0,0,0.44707674,-43.260719,240.55318)"
       id="g959">
      <path
         style="opacity:1;fill:#c49920;fill-opacity:1;stroke:none;stroke-width:0.29688311;stroke-linecap:square;stroke-linejoin:bevel;stroke-miterlimit:4;stroke-dasharray:none;stroke-dashoffset:2.29999995;stroke-opacity:1"
         d="m 129.13725,142.5372 h -1.14311 l 1.1431,1.1429 z m 0,2.75924 -1.14311,1.14309 h 1.14311 z m -2.75944,-2.75924 h -1.14311 l 1e-5,1.1429 z m 0,3.90233 -1.14311,-1.14309 v 1.14309 z"
         id="path953"
         inkscape:connector-curvature="0" />
      <path
         inkscape:connector-curvature="0"
         id="path955"
         d="m 129.72575,141.94873 h -1.48787 l 1.48786,1.48759 z m 0,3.59142 -1.48787,1.48785 h 1.48787 z m -3.59168,-3.59142 h -1.48787 l 1e-5,1.48759 z m 0,5.07927 -1.48787,-1.48785 v 1.48785 z"
         style="opacity:1;fill:#c49920;fill-opacity:1;stroke:none;stroke-width:0.38642272;stroke-linecap:square;stroke-linejoin:bevel;stroke-miterlimit:4;stroke-dasharray:none;stroke-dashoffset:2.29999995;stroke-opacity:1" />
      <path
         style="opacity:1;fill:#c49920;fill-opacity:1;stroke:none;stroke-width:0.47596228;stroke-linecap:square;stroke-linejoin:bevel;stroke-miterlimit:4;stroke-dasharray:none;stroke-dashoffset:2.29999995;stroke-opacity:1"
         d="m 130.31425,141.36027 h -1.83262 l 1.83261,1.83227 z m 0,4.42359 -1.83262,1.8326 h 1.83262 z m -4.42393,-4.42359 h -1.83262 l 1e-5,1.83227 z m 0,6.25619 -1.83262,-1.8326 v 1.8326 z"
         id="path957"
         inkscape:connector-curvature="0" />
    </g>
    <g
       id="g1021"
       transform="matrix(0.86761563,0,0,0.81377839,0.01277621,63.261447)"
       style="fill:#000000">
      <path
         inkscape:connector-curvature="0"
         d="m 11.962893,295.65824 v 0 q -0.01472,-0.1574 -0.124557,-0.24232 -0.108704,-0.0861 -0.293274,-0.0861 -0.190232,0 -0.288745,0.0736 -0.09851,0.0736 -0.09851,0.21514 0,0.0962 0.06567,0.14381 0.06568,0.0476 0.263834,0.094 l 0.289877,0.0691 q 0.233261,0.0555 0.332907,0.16419 0.09965,0.10757 0.09965,0.30459 0,0.22647 -0.172115,0.35895 -0.170982,0.13249 -0.464257,0.13249 -0.326112,0 -0.50955,-0.15287 -0.178909,-0.1506 -0.178909,-0.41217 v -0.0125 0 h 0.207217 v 0 q 0.0057,0.18117 0.131351,0.27968 0.125689,0.0985 0.349891,0.0985 0.207217,0 0.314789,-0.0713 0.107572,-0.0713 0.107572,-0.20948 0,-0.12003 -0.07134,-0.17778 -0.0702,-0.0566 -0.283084,-0.10757 l -0.289877,-0.0691 q -0.219673,-0.0521 -0.313657,-0.14494 -0.09398,-0.0928 -0.09398,-0.25704 0,-0.23892 0.161923,-0.3782 0.163057,-0.14041 0.439346,-0.14041 0.280819,0 0.447272,0.14041 0.166453,0.14041 0.177776,0.38726 v 0 z"
         style="font-style:normal;font-variant:normal;font-weight:normal;font-stretch:normal;font-size:2.31901979px;line-height:1.25;font-family:Helvetica;-inkscape-font-specification:'Helvetica, Normal';font-variant-ligatures:normal;font-variant-caps:normal;font-variant-numeric:normal;font-feature-settings:normal;text-align:start;letter-spacing:0px;word-spacing:0px;writing-mode:lr-tb;text-anchor:start;fill:#000000;fill-opacity:1;stroke:none;stroke-width:0.05797549"
         id="path980" />
      <path
         inkscape:connector-curvature="0"
         d="m 13.086408,296.84039 v -1.46524 0 h -0.56277 v 0 -0.0996 -0.0996 0 h 1.350875 v 0 0.0996 0.0996 0 h -0.56277 v 0 1.46524 0 h -0.112101 z"
         style="font-style:normal;font-variant:normal;font-weight:normal;font-stretch:normal;font-size:2.31901979px;line-height:1.25;font-family:Helvetica;-inkscape-font-specification:'Helvetica, Normal';font-variant-ligatures:normal;font-variant-caps:normal;font-variant-numeric:normal;font-feature-settings:normal;text-align:start;letter-spacing:0px;word-spacing:0px;writing-mode:lr-tb;text-anchor:start;fill:#000000;fill-opacity:1;stroke:none;stroke-width:0.05797549"
         id="path982" />
      <path
         inkscape:connector-curvature="0"
         d="m 14.188406,296.84039 v 0 -1.66453 0 h 1.217259 v 0 0.0996 0.0996 0 H 14.41374 v 0 0.50842 0 h 0.905867 v 0.0996 0.0996 0 H 14.41374 v 0 0.55824 0 h 1.00438 v 0 0.0996 0.0996 0 z"
         style="font-style:normal;font-variant:normal;font-weight:normal;font-stretch:normal;font-size:2.31901979px;line-height:1.25;font-family:Helvetica;-inkscape-font-specification:'Helvetica, Normal';font-variant-ligatures:normal;font-variant-caps:normal;font-variant-numeric:normal;font-feature-settings:normal;text-align:start;letter-spacing:0px;word-spacing:0px;writing-mode:lr-tb;text-anchor:start;fill:#000000;fill-opacity:1;stroke:none;stroke-width:0.05797549"
         id="path984" />
      <path
         inkscape:connector-curvature="0"
         d="m 15.732013,296.84039 v 0 -1.66453 0 h 1.217259 v 0 0.0996 0.0996 0 h -0.991924 v 0 0.50842 0 h 0.905867 v 0.0996 0.0996 0 h -0.905867 v 0 0.55824 0 h 1.00438 v 0 0.0996 0.0996 0 z"
         style="font-style:normal;font-variant:normal;font-weight:normal;font-stretch:normal;font-size:2.31901979px;line-height:1.25;font-family:Helvetica;-inkscape-font-specification:'Helvetica, Normal';font-variant-ligatures:normal;font-variant-caps:normal;font-variant-numeric:normal;font-feature-settings:normal;text-align:start;letter-spacing:0px;word-spacing:0px;writing-mode:lr-tb;text-anchor:start;fill:#000000;fill-opacity:1;stroke:none;stroke-width:0.05797549"
         id="path986" />
      <path
         inkscape:connector-curvature="0"
         d="m 17.27562,296.84039 v -1.66453 0 h 0.112101 v 0 h 0.61599 q 0.242319,0 0.378199,0.12229 0.137013,0.12116 0.137013,0.33631 0,0.23666 -0.137013,0.37027 -0.13588,0.13362 -0.378199,0.13362 -0.318186,-10e-4 -0.502757,0.002 v 0 0.69978 0 H 17.388853 17.27562 Z m 0.225334,-0.89454 v 0 h 0.447272 q 0.175512,0 0.25704,-0.0736 0.08153,-0.0747 0.08153,-0.23326 0,-0.14041 -0.08153,-0.20496 -0.08153,-0.0657 -0.25704,-0.0657 h -0.447272 v 0 z"
         style="font-style:normal;font-variant:normal;font-weight:normal;font-stretch:normal;font-size:2.31901979px;line-height:1.25;font-family:Helvetica;-inkscape-font-specification:'Helvetica, Normal';font-variant-ligatures:normal;font-variant-caps:normal;font-variant-numeric:normal;font-feature-settings:normal;text-align:start;letter-spacing:0px;word-spacing:0px;writing-mode:lr-tb;text-anchor:start;fill:#000000;fill-opacity:1;stroke:none;stroke-width:0.05797549"
         id="path988" />
      <path
         inkscape:connector-curvature="0"
         d="m 19.910795,295.65824 v 0 q -0.01472,-0.1574 -0.124557,-0.24232 -0.108704,-0.0861 -0.293275,-0.0861 -0.190232,0 -0.288745,0.0736 -0.09851,0.0736 -0.09851,0.21514 0,0.0962 0.06568,0.14381 0.06568,0.0476 0.263833,0.094 l 0.289878,0.0691 q 0.233261,0.0555 0.332906,0.16419 0.09964,0.10757 0.09964,0.30459 0,0.22647 -0.172114,0.35895 -0.170983,0.13249 -0.464257,0.13249 -0.326112,0 -0.50955,-0.15287 -0.178909,-0.1506 -0.178909,-0.41217 v -0.0125 0 h 0.207217 v 0 q 0.0057,0.18117 0.131351,0.27968 0.125689,0.0985 0.349891,0.0985 0.207217,0 0.314789,-0.0713 0.107571,-0.0713 0.107571,-0.20948 0,-0.12003 -0.07134,-0.17778 -0.0702,-0.0566 -0.283083,-0.10757 l -0.289878,-0.0691 q -0.219672,-0.0521 -0.313656,-0.14494 -0.09398,-0.0928 -0.09398,-0.25704 0,-0.23892 0.161924,-0.3782 0.163056,-0.14041 0.439345,-0.14041 0.280819,0 0.447272,0.14041 0.166453,0.14041 0.177777,0.38726 v 0 z"
         style="font-style:normal;font-variant:normal;font-weight:normal;font-stretch:normal;font-size:2.31901979px;line-height:1.25;font-family:Helvetica;-inkscape-font-specification:'Helvetica, Normal';font-variant-ligatures:normal;font-variant-caps:normal;font-variant-numeric:normal;font-feature-settings:normal;text-align:start;letter-spacing:0px;word-spacing:0px;writing-mode:lr-tb;text-anchor:start;fill:#000000;fill-opacity:1;stroke:none;stroke-width:0.05797549"
         id="path990" />
    </g>
    <text
       xml:space="preserve"
       style="font-style:normal;font-variant:normal;font-weight:normal;font-stretch:normal;font-size:2.90090251px;line-height:1.25;font-family:'League Gothic';-inkscape-font-specification:'League Gothic, Normal';font-variant-ligatures:normal;font-variant-caps:normal;font-variant-numeric:normal;font-feature-settings:normal;text-align:start;letter-spacing:0px;word-spacing:0px;writing-mode:lr-tb;text-anchor:start;fill:#000000;fill-opacity:1;stroke:none;stroke-width:0.07252257"
       x="7.5363541"
       y="307.61523"
       id="text1037"><tspan
         sodipodi:role="line"
         id="tspan1035"
         x="7.5363541"
         y="307.61523"
         style="font-style:normal;font-variant:normal;font-weight:normal;font-stretch:normal;font-size:2.90090251px;font-family:'Modern Sans';-inkscape-font-specification:'Modern Sans, Normal';font-variant-ligatures:normal;font-variant-caps:normal;font-variant-numeric:normal;font-feature-settings:normal;text-align:start;writing-mode:lr-tb;text-anchor:start;stroke-width:0.07252257">STEEPS</tspan></text>
    <text
       xml:space="preserve"
       style="font-style:normal;font-variant:normal;font-weight:normal;font-stretch:normal;font-size:10.58333302px;line-height:1.25;font-family:'League Gothic';-inkscape-font-specification:'League Gothic, Normal';font-variant-ligatures:normal;font-variant-caps:normal;font-variant-numeric:normal;font-feature-settings:normal;text-align:start;letter-spacing:0px;word-spacing:0px;writing-mode:lr-tb;text-anchor:start;fill:#000000;fill-opacity:1;stroke:none;stroke-width:0.26458332"
       x="22.369577"
       y="311.38022"
       id="text1041"><tspan
         sodipodi:role="line"
         id="tspan1039"
         x="22.369577"
         y="311.38022"
         style="stroke-width:0.26458332">STEEPS</tspan></text>
    <text
       xml:space="preserve"
       style="font-style:normal;font-variant:normal;font-weight:normal;font-stretch:normal;font-size:2.36624694px;line-height:1.25;font-family:'League Gothic';-inkscape-font-specification:'League Gothic, Normal';font-variant-ligatures:normal;font-variant-caps:normal;font-variant-numeric:normal;font-feature-settings:normal;text-align:start;letter-spacing:0px;word-spacing:0px;writing-mode:lr-tb;text-anchor:start;fill:#1a1a1a;fill-opacity:1;stroke:none;stroke-width:0.05915618"
       x="0.35742694"
       y="303.8241"
       id="text24752"><tspan
         sodipodi:role="line"
         id="tspan24750"
         x="0.35742694"
         y="303.8241"
         style="font-style:normal;font-variant:normal;font-weight:bold;font-stretch:normal;font-size:2.36618996px;font-family:'Alegreya SC';-inkscape-font-specification:'Alegreya SC, Bold';font-variant-ligatures:normal;font-variant-caps:normal;font-variant-numeric:normal;font-feature-settings:normal;text-align:start;writing-mode:lr-tb;text-anchor:start;fill:#1a1a1a;stroke-width:0.05915618">STEEPS</tspan></text>
    <g
       id="g24785"
       transform="matrix(1.0533329,0,0,1.0533329,7.7511776,-11.530866)">
      <path
         d="m 8.3820866,296.39259 c 0.3694672,0 0.5381835,-0.18367 0.5381835,-0.3951 0,-0.54246 -0.933279,-0.27763 -0.933279,-0.72612 0,-0.16445 0.1302748,-0.299 0.4207233,-0.299 0.134546,0 0.2861776,0.0406 0.4100452,0.12601 l 0.040575,-0.0876 c -0.1153247,-0.0833 -0.2861773,-0.13455 -0.4506224,-0.13455 -0.367332,0 -0.5296415,0.18581 -0.5296415,0.39723 0,0.551 0.9332795,0.28191 0.9332795,0.73039 0,0.16231 -0.1324104,0.29258 -0.4314016,0.29258 -0.2007511,0 -0.390824,-0.0811 -0.4933353,-0.18793 l -0.04912,0.0811 c 0.1089177,0.11958 0.3224833,0.20289 0.544591,0.20289 z"
         style="font-style:normal;font-variant:normal;font-weight:300;font-stretch:normal;font-size:1.88695073px;line-height:1.25;font-family:Montserrat;-inkscape-font-specification:'Montserrat, Light';font-variant-ligatures:normal;font-variant-caps:normal;font-variant-numeric:normal;font-feature-settings:normal;text-align:start;letter-spacing:0px;word-spacing:0px;writing-mode:lr-tb;text-anchor:start;fill:#333333;fill-opacity:1;stroke:#1a1a1a;stroke-width:0.11318002;stroke-miterlimit:4;stroke-dasharray:none"
         id="path24760"
         inkscape:connector-curvature="0" />
      <path
         d="m 10.070111,296.38191 h 0.108913 v -1.39671 h 0.538184 V 294.887 H 9.5319214 v 0.0982 h 0.5381846 z"
         style="font-style:normal;font-variant:normal;font-weight:300;font-stretch:normal;font-size:1.88695073px;line-height:1.25;font-family:Montserrat;-inkscape-font-specification:'Montserrat, Light';font-variant-ligatures:normal;font-variant-caps:normal;font-variant-numeric:normal;font-feature-settings:normal;text-align:start;letter-spacing:0px;word-spacing:0px;writing-mode:lr-tb;text-anchor:start;fill:#333333;fill-opacity:1;stroke:#1a1a1a;stroke-width:0.11318002;stroke-miterlimit:4;stroke-dasharray:none"
         id="path24762"
         inkscape:connector-curvature="0" />
      <path
         d="m 11.437779,296.28367 v -0.61293 h 0.796597 v -0.0961 h -0.796597 v -0.58943 h 0.890566 v -0.0982 H 11.32886 v 1.49495 h 1.031519 v -0.0982 z"
         style="font-style:normal;font-variant:normal;font-weight:300;font-stretch:normal;font-size:1.88695073px;line-height:1.25;font-family:Montserrat;-inkscape-font-specification:'Montserrat, Light';font-variant-ligatures:normal;font-variant-caps:normal;font-variant-numeric:normal;font-feature-settings:normal;text-align:start;letter-spacing:0px;word-spacing:0px;writing-mode:lr-tb;text-anchor:start;fill:#333333;fill-opacity:1;stroke:#1a1a1a;stroke-width:0.11318002;stroke-miterlimit:4;stroke-dasharray:none"
         id="path24764"
         inkscape:connector-curvature="0" />
      <path
         d="m 13.080948,296.28367 v -0.61293 h 0.796598 v -0.0961 h -0.796598 v -0.58943 h 0.890567 v -0.0982 H 12.97203 v 1.49495 h 1.031519 v -0.0982 z"
         style="font-style:normal;font-variant:normal;font-weight:300;font-stretch:normal;font-size:1.88695073px;line-height:1.25;font-family:Montserrat;-inkscape-font-specification:'Montserrat, Light';font-variant-ligatures:normal;font-variant-caps:normal;font-variant-numeric:normal;font-feature-settings:normal;text-align:start;letter-spacing:0px;word-spacing:0px;writing-mode:lr-tb;text-anchor:start;fill:#333333;fill-opacity:1;stroke:#1a1a1a;stroke-width:0.11318002;stroke-miterlimit:4;stroke-dasharray:none"
         id="path24766"
         inkscape:connector-curvature="0" />
      <path
         d="m 15.231461,294.88696 h -0.536048 v 1.49495 h 0.108913 v -0.48906 h 0.42713 c 0.375876,0 0.602254,-0.18794 0.602254,-0.50188 0,-0.31608 -0.226378,-0.50401 -0.602254,-0.50401 z m 0,0.90764 h -0.42713 v -0.8094 h 0.42713 c 0.320348,0 0.4912,0.14735 0.4912,0.40577 0,0.25627 -0.170852,0.40363 -0.4912,0.40363 z"
         style="font-style:normal;font-variant:normal;font-weight:300;font-stretch:normal;font-size:1.88695073px;line-height:1.25;font-family:Montserrat;-inkscape-font-specification:'Montserrat, Light';font-variant-ligatures:normal;font-variant-caps:normal;font-variant-numeric:normal;font-feature-settings:normal;text-align:start;letter-spacing:0px;word-spacing:0px;writing-mode:lr-tb;text-anchor:start;fill:#333333;fill-opacity:1;stroke:#1a1a1a;stroke-width:0.11318002;stroke-miterlimit:4;stroke-dasharray:none"
         id="path24768"
         inkscape:connector-curvature="0" />
      <path
         d="m 16.909741,296.39259 c 0.369468,0 0.538185,-0.18367 0.538185,-0.3951 0,-0.54246 -0.93328,-0.27763 -0.93328,-0.72612 0,-0.16445 0.130274,-0.299 0.420724,-0.299 0.134545,0 0.286177,0.0406 0.410044,0.12601 l 0.04057,-0.0876 c -0.115325,-0.0833 -0.286177,-0.13455 -0.450622,-0.13455 -0.367332,0 -0.529641,0.18581 -0.529641,0.39723 0,0.551 0.933279,0.28191 0.933279,0.73039 0,0.16231 -0.132411,0.29258 -0.431402,0.29258 -0.200751,0 -0.390824,-0.0811 -0.493334,-0.18793 l -0.04912,0.0811 c 0.108914,0.11958 0.322483,0.20289 0.544591,0.20289 z"
         style="font-style:normal;font-variant:normal;font-weight:300;font-stretch:normal;font-size:1.88695073px;line-height:1.25;font-family:Montserrat;-inkscape-font-specification:'Montserrat, Light';font-variant-ligatures:normal;font-variant-caps:normal;font-variant-numeric:normal;font-feature-settings:normal;text-align:start;letter-spacing:0px;word-spacing:0px;writing-mode:lr-tb;text-anchor:start;fill:#333333;fill-opacity:1;stroke:#1a1a1a;stroke-width:0.11318002;stroke-miterlimit:4;stroke-dasharray:none"
         id="path24770"
         inkscape:connector-curvature="0" />
    </g>
    <g
       id="g1033"
       transform="matrix(1.1526943,0,0,1.1526943,15.121795,-49.843124)">
      <path
         inkscape:connector-curvature="0"
         id="rect931"
         d="m 13.568879,287.20748 -0.402395,-10e-6 0.402396,0.40233 z m 10e-7,0.97131 -0.402398,0.40239 h 0.402405 z m -0.971384,-0.97131 H 12.19509 l 10e-6,0.40232 z m -4e-6,1.37371 -0.402402,-0.4024 8e-6,0.40239 z"
         style="opacity:1;fill:#deb647;fill-opacity:1;stroke:none;stroke-width:0.1045095;stroke-linecap:square;stroke-linejoin:bevel;stroke-miterlimit:4;stroke-dasharray:none;stroke-dashoffset:2.29999995;stroke-opacity:1" />
      <path
         style="opacity:1;fill:#deb647;fill-opacity:1;stroke:none;stroke-width:0.16409902;stroke-linecap:square;stroke-linejoin:bevel;stroke-miterlimit:4;stroke-dasharray:none;stroke-dashoffset:2.29999995;stroke-opacity:1"
         d="m 14.407237,287.89438 -0.44678,-0.44678 9e-5,0.89346 z m -1.07843,1.07843 -0.893552,-10e-6 0.446779,0.44678 z m -8.4e-5,-2.15695 -0.44678,-0.44678 -0.446685,0.44669 z m -1.525203,1.52521 -6e-6,-0.89356 -0.446773,0.44678 z"
         id="path936"
         inkscape:connector-curvature="0" />
      <path
         inkscape:connector-curvature="0"
         id="path970"
         d="m 14.446589,289.45904 7e-6,-0.91665 -0.916463,0.91663 z"
         style="opacity:1;fill:#deb647;fill-opacity:1;stroke:none;stroke-width:0.23806575;stroke-linecap:square;stroke-linejoin:bevel;stroke-miterlimit:4;stroke-dasharray:none;stroke-dashoffset:2.29999995;stroke-opacity:1" />
      <path
         inkscape:connector-curvature="0"
         id="path968"
         d="m 12.234011,289.45904 -0.916635,-0.91664 1.3e-5,0.91661 z"
         style="opacity:1;fill:#deb647;fill-opacity:1;stroke:none;stroke-width:0.23806575;stroke-linecap:square;stroke-linejoin:bevel;stroke-miterlimit:4;stroke-dasharray:none;stroke-dashoffset:2.29999995;stroke-opacity:1" />
      <path
         inkscape:connector-curvature="0"
         id="path966"
         d="m 14.446602,287.24627 -6e-6,-0.91664 h -0.916451 z"
         style="opacity:1;fill:#deb647;fill-opacity:1;stroke:none;stroke-width:0.23806575;stroke-linecap:square;stroke-linejoin:bevel;stroke-miterlimit:4;stroke-dasharray:none;stroke-dashoffset:2.29999995;stroke-opacity:1" />
      <path
         inkscape:connector-curvature="0"
         id="path942"
         d="m 11.317382,287.24628 0.916636,-0.91665 h -0.916629 z"
         style="opacity:1;fill:#deb647;fill-opacity:1;stroke:none;stroke-width:0.23806575;stroke-linecap:square;stroke-linejoin:bevel;stroke-miterlimit:4;stroke-dasharray:none;stroke-dashoffset:2.29999995;stroke-opacity:1" />
    </g>
    <path
       style="opacity:1;fill:#deb647;fill-opacity:1;stroke:none;stroke-width:0.13958651;stroke-linecap:square;stroke-linejoin:bevel;stroke-miterlimit:4;stroke-dasharray:none;stroke-dashoffset:2.29999995;stroke-opacity:1"
       d="m 27.842909,279.19896 c -0.413366,0 -0.74586,0.33247 -0.74586,0.74584 v 0.92044 l 1.66628,-1.66628 z m 3.277015,0 1.666281,1.66628 v -0.92044 c 0,-0.41337 -0.332494,-0.74584 -0.745858,-0.74584 z m -4.022875,4.02286 v 0.92044 c 0,0.41337 0.332494,0.74584 0.74586,0.74584 h 0.92042 z m 5.689156,0 -1.666281,1.66628 h 0.920423 c 0.413364,0 0.745858,-0.33247 0.745858,-0.74584 z"
       id="rect29680"
       inkscape:connector-curvature="0" />
    <g
       id="g30452"
       transform="matrix(2.1402381,0,0,2.1402381,8.6283542,-335.26747)"
       style="fill:#090909;fill-opacity:1;filter:url(#filter1055)">
      <path
         d="m 2.6925394,290.57723 c -0.2245124,0 -0.3731761,0.003 -0.4459909,0.009 -0.033374,0.004 -0.05006,0.0489 -0.05006,0.13652 v 1.56729 c 0,0.0698 0.019721,0.12289 0.059163,0.15927 0.060679,0.0546 0.1395618,0.091 0.2366482,0.10917 0.01517,0.004 0.025788,0.0155 0.031856,0.0365 0.00606,0.0182 0.00606,0.0365 0,0.0546 -0.00606,0.0151 -0.016685,0.0227 -0.031856,0.0227 -0.057645,0 -0.1365279,-0.005 -0.2366482,-0.0137 -0.097087,-0.0127 -0.1774862,-0.0182 -0.2411992,-0.0182 -0.060679,0 -0.1380448,0.006 -0.2320973,0.0182 -0.094052,0.009 -0.1683843,0.0137 -0.2229954,0.0137 -0.012136,0 -0.021237,-0.008 -0.027305,-0.0227 -0.00606,-0.0182 -0.00759,-0.0365 -0.00455,-0.0546 0.00606,-0.0212 0.016685,-0.0334 0.031856,-0.0365 0.097087,-0.0182 0.1759692,-0.0546 0.2366483,-0.10917 0.039442,-0.0365 0.059163,-0.0895 0.059163,-0.15927 v -1.56729 c 0,-0.0849 -0.018203,-0.13046 -0.054612,-0.13652 -0.036408,-0.006 -0.148664,-0.009 -0.3367687,-0.009 -0.1031538,0 -0.1790031,0.0425 -0.2275464,0.12743 -0.012136,0.0212 -0.034891,0.0485 -0.068264,0.082 -0.030339,0.0304 -0.056128,0.0455 -0.077366,0.0455 -0.042475,0 -0.045509,-0.0394 -0.0091,-0.11831 0.018204,-0.0365 0.031856,-0.0759 0.040958,-0.11832 0.0091,-0.0424 0.016686,-0.0986 0.022754,-0.16838 0.00606,-0.0698 0.010611,-0.11235 0.013653,-0.12743 0.00606,-0.0455 0.025787,-0.0683 0.059163,-0.0683 0.021237,0 0.05006,0.0319 0.086468,0.0956 0.021237,0.0424 0.087984,0.0637 0.2002408,0.0637 h 1.2333016 c 0.1213586,0 0.1987237,-0.0197 0.2320973,-0.0591 0.036408,-0.0365 0.072815,-0.0546 0.109222,-0.0546 0.0091,0 0.018203,0.006 0.027305,0.0182 0.0091,0.0127 0.010624,0.0243 0.00455,0.0365 -0.027305,0.0546 -0.053094,0.19724 -0.077366,0.42779 -0.00304,0.0151 -0.00606,0.0288 -0.0091,0.0409 -0.00304,0.0127 -0.0091,0.0227 -0.018203,0.0319 -0.00606,0.009 -0.015168,0.0136 -0.027305,0.0136 -0.027305,-0.004 -0.051577,-0.0383 -0.072815,-0.10471 0,-0.004 -0.00151,-0.0127 -0.00455,-0.0273 -0.00304,-0.0151 -0.00606,-0.0258 -0.0091,-0.0319 0,-0.006 -0.00304,-0.015 -0.0091,-0.0273 -0.00606,-0.0127 -0.012136,-0.0197 -0.018203,-0.0227 -0.00304,-0.006 -0.010611,-0.0135 -0.022754,-0.0227 -0.0091,-0.009 -0.021237,-0.0151 -0.036407,-0.0182 -0.012136,-0.004 -0.028823,-0.006 -0.050061,-0.009 -0.018203,-0.004 -0.039442,-0.005 -0.063713,-0.005 z"
         style="font-style:normal;font-variant:normal;font-weight:normal;font-stretch:normal;font-size:3.5810473px;line-height:1.25;font-family:'EB Garamond 12 All SC';-inkscape-font-specification:'EB Garamond 12 All SC, Normal';font-variant-ligatures:normal;font-variant-caps:normal;font-variant-numeric:normal;font-feature-settings:normal;text-align:start;letter-spacing:0px;word-spacing:0px;writing-mode:lr-tb;text-anchor:start;fill:#090909;fill-opacity:1;stroke:none;stroke-width:0.11377254"
         id="path30393"
         inkscape:connector-curvature="0"
         sodipodi:nodetypes="ccssccccscscsccccsscsccscsccscsscssccscccccccccccc" />
      <path
         d="m 3.9802854,291.79863 q 0.00455,0.10472 0.0091,0.27307 0.00455,0.16382 0.00455,0.21844 0.00455,0.18203 0.2958103,0.25485 0.022754,0.009 0.022754,0.0728 0,0.0592 -0.022754,0.0592 -0.018203,0 -0.1774863,-0.0137 -0.1592823,-0.0136 -0.2594028,-0.0136 -0.113773,0 -0.3003612,0.0136 -0.1820371,0.0137 -0.2093427,0.0137 -0.022754,0 -0.022754,-0.0546 0,-0.0546 0.022754,-0.0592 0.1319769,-0.0319 0.2047918,-0.10472 0.091019,-0.082 0.091019,-0.1866 v -1.2151 q 0,-0.18203 -0.040958,-0.22754 -0.04551,-0.0501 -0.077366,-0.0637 -0.027305,-0.0182 -0.1183238,-0.0409 -0.013653,-0.005 -0.022754,-0.0319 -0.0091,-0.0273 -0.0091,-0.0546 0.00455,-0.0273 0.027305,-0.0273 0.063713,0 0.1956898,0.009 0.131977,0.005 0.2184446,0.005 0.050061,0 0.1638334,-0.0136 0.1183238,-0.0136 0.2184445,-0.0136 0.3549724,0 0.5734168,0.14562 0.2184445,0.14108 0.2184445,0.39138 0,0.0956 -0.059163,0.21845 -0.054612,0.12289 -0.1001204,0.16383 -0.091019,0.091 -0.1820371,0.13198 -0.018203,0.005 0,0.0273 0.05461,0.0818 0.1547316,0.25941 0.1046712,0.17293 0.1911389,0.2958 0.091019,0.11831 0.2184445,0.2412 0.045509,0.0455 0.086468,0.0682 0.04551,0.0182 0.068264,0.0227 0.027305,0.005 0.091019,0.005 0.063713,-0.005 0.095569,-0.005 0.013653,0 0.018204,0.0182 0.00455,0.0182 -0.00455,0.0409 -0.0091,0.0227 -0.022754,0.0319 -0.1001203,0.0682 -0.2229954,0.0682 -0.3595233,0 -0.505153,-0.17294 -0.054612,-0.0682 -0.1001204,-0.13197 -0.04551,-0.0637 -0.072815,-0.1093 -0.027305,-0.0501 -0.1001204,-0.16838 -0.068264,-0.11832 -0.1274259,-0.2139 -0.054612,-0.082 -0.1365279,-0.12289 -0.113773,-0.0592 -0.250301,-0.0682 -0.022754,-0.005 -0.036407,0.0136 -0.0091,0.0182 -0.0091,0.0501 z m 0,-0.31401 q 0,0.0592 0.022754,0.0864 0.022754,0.0227 0.040958,0.0273 0.022754,0 0.086468,0 0.1956899,0 0.3322177,-0.091 0.1410787,-0.0864 0.1410787,-0.36863 0,-0.40958 -0.4095834,-0.40958 -0.1183238,0 -0.1592825,0.0455 -0.036407,0.0409 -0.040958,0.12743 -0.018204,0.41868 -0.013653,0.58251 z"
         style="font-style:normal;font-variant:normal;font-weight:normal;font-stretch:normal;font-size:3.5810473px;line-height:1.25;font-family:'EB Garamond 12 All SC';-inkscape-font-specification:'EB Garamond 12 All SC, Normal';font-variant-ligatures:normal;font-variant-caps:normal;font-variant-numeric:normal;font-feature-settings:normal;text-align:start;letter-spacing:0px;word-spacing:0px;writing-mode:lr-tb;text-anchor:start;fill:#090909;fill-opacity:1;stroke:none;stroke-width:0.11377254"
         id="path30395"
         inkscape:connector-curvature="0" />
      <path
         d="m 5.5888754,292.67242 q -0.027305,0 -0.027305,-0.0501 0.00455,-0.0501 0.027305,-0.0592 0.1683844,-0.0546 0.2594029,-0.13198 0.077366,-0.0637 0.1410788,-0.19113 0.2002408,-0.41869 0.5279076,-1.21965 0.022754,-0.0637 0.031856,-0.11831 0.00455,-0.0228 0.0091,-0.0592 0.00455,-0.0363 0.0091,-0.0591 l 0.00455,-0.0273 q 0.027305,-0.005 0.1046713,-0.0591 0.077366,-0.0546 0.1001203,-0.082 0.05461,-0.0637 0.063713,-0.0637 0.018204,0 0.031856,0.0409 0.091019,0.24574 0.2685046,0.75545 0.1820371,0.5097 0.3003613,0.82371 0.050061,0.14563 0.1592824,0.25941 0.1001204,0.10916 0.2047917,0.13197 0.027305,0.009 0.031856,0.0592 0.00455,0.0501 -0.031856,0.0501 -0.081917,0 -0.2184444,-0.0137 -0.131977,-0.009 -0.2184446,-0.009 -0.1001203,0 -0.250301,0.009 -0.1501806,0.0137 -0.2229954,0.0137 -0.018203,0 -0.022754,-0.0273 -0.00455,-0.0273 0.00455,-0.0546 0.0091,-0.0273 0.022754,-0.0273 0.1183238,-0.0227 0.1820371,-0.12289 0.036407,-0.0637 0.0091,-0.18658 -0.0091,-0.0501 -0.063713,-0.1957 -0.0091,-0.0319 -0.086468,-0.0319 h -0.64622 q -0.031856,0 -0.05461,0.0546 -0.072815,0.18204 -0.072815,0.19568 -0.018204,0.11374 0.00455,0.15019 0.068264,0.10917 0.191139,0.13653 0.031856,0.005 0.031856,0.0592 0,0.0501 -0.031856,0.0501 -0.091019,0 -0.2275465,-0.0137 -0.1365278,-0.009 -0.2229954,-0.009 -0.063713,0 -0.1638334,0.009 -0.1001203,0.0137 -0.1592815,0.0137 z m 1.0603661,-1.54732 q -0.095569,0.23664 -0.3231158,0.7327 -0.013653,0.0273 0,0.0364 0.013653,0.009 0.059163,0.009 h 0.5324584 q 0.036407,0 0.040958,-0.005 0.00455,-0.005 -0.00455,-0.0409 -0.027305,-0.10014 -0.250301,-0.7327 -0.013653,-0.0365 -0.022754,-0.0455 -0.00455,-0.009 -0.013653,0 -0.00455,0.009 -0.018203,0.0455 z"
         style="font-style:normal;font-variant:normal;font-weight:normal;font-stretch:normal;font-size:3.5810473px;line-height:1.25;font-family:'EB Garamond 12 All SC';-inkscape-font-specification:'EB Garamond 12 All SC, Normal';font-variant-ligatures:normal;font-variant-caps:normal;font-variant-numeric:normal;font-feature-settings:normal;text-align:start;letter-spacing:0px;word-spacing:0px;writing-mode:lr-tb;text-anchor:start;fill:#090909;fill-opacity:1;stroke:none;stroke-width:0.11377254"
         id="path30397"
         inkscape:connector-curvature="0" />
      <path
         d="m 8.1495198,292.67242 q -0.02731,0 -0.02731,-0.0501 0.00457,-0.0546 0.02731,-0.0592 0.1365286,-0.0227 0.1820373,-0.0728 0.059157,-0.0637 0.068269,-0.20023 0.03186,-0.57798 0.03186,-1.27427 0,-0.13198 -0.02731,-0.16383 -0.091017,-0.10929 -0.2912593,-0.12742 -0.03186,0 -0.03186,-0.0546 0,-0.0546 0.03186,-0.0546 0.022748,0.005 0.3322171,0.005 0.314015,-0.005 0.3231167,-0.005 0.018198,0 0.02731,0.009 0.00915,0.009 0.022761,0.0319 0.013649,0.0182 0.022761,0.0273 0.1456303,0.17294 0.5415608,0.66443 0.4004814,0.48695 0.6871906,0.81007 0.0046,0.005 0.01365,0.0228 0.01365,0.0136 0.02276,0.0227 0.0091,0.009 0.0182,0.0136 0.01365,0.005 0.0182,-0.009 0.0091,-0.0136 0.0091,-0.0501 0.01365,-0.40504 -0.01365,-1.21965 0,-0.0409 -0.02731,-0.0728 -0.02731,-0.0365 -0.07282,-0.0592 -0.040959,-0.0227 -0.077369,-0.0363 -0.036409,-0.0137 -0.081918,-0.0273 -0.045509,-0.0136 -0.054608,-0.0182 -0.013649,-0.005 -0.018198,-0.0501 0,-0.0501 0.018198,-0.0501 0.081918,0 0.20024,0.009 0.122878,0.009 0.200242,0.009 0.07282,0 0.191141,-0.009 0.118328,-0.009 0.186588,-0.009 0.01365,0 0.0182,0.0501 0.0046,0.0501 -0.0182,0.0501 -0.08647,0.0136 -0.159283,0.0728 -0.08192,0.0546 -0.08647,0.12289 -0.01365,0.23211 -0.02276,0.45965 -0.0046,0.22299 -0.0046,0.36862 0,0.14109 0,0.41414 0.0046,0.2685 0.0046,0.43689 0,0.0501 -0.03641,0.0864 -0.03186,0.0365 -0.07737,0.0365 -0.118329,0 -0.2275485,-0.12289 -0.5597631,-0.69175 -1.2196477,-1.4381 -0.040959,-0.0455 -0.068269,-0.0546 -0.02731,-0.009 -0.036409,0.005 -0.00457,0.009 -0.00915,0.0364 -0.02731,0.86468 -0.018198,1.1787 0.00915,0.10472 0.050058,0.15017 0.054608,0.0682 0.1592816,0.0864 0.02731,0.005 0.022761,0.0592 0,0.0501 -0.036409,0.0501 -0.081918,0 -0.1820372,-0.009 -0.1001166,-0.009 -0.1638325,-0.009 -0.063707,0 -0.1683846,0.009 -0.1046662,0.009 -0.1729355,0.009 z"
         style="font-style:normal;font-variant:normal;font-weight:normal;font-stretch:normal;font-size:3.5810473px;line-height:1.25;font-family:'EB Garamond 12 All SC';-inkscape-font-specification:'EB Garamond 12 All SC, Normal';font-variant-ligatures:normal;font-variant-caps:normal;font-variant-numeric:normal;font-feature-settings:normal;text-align:start;letter-spacing:0px;word-spacing:0px;writing-mode:lr-tb;text-anchor:start;fill:#090909;fill-opacity:1;stroke:none;stroke-width:0.11377254"
         id="path30399"
         inkscape:connector-curvature="0" />
      <path
         d="m 11.707603,292.79983 q -0.131978,-0.0728 -0.172936,-0.082 -0.222996,-0.0546 -0.496051,-0.35043 -0.268505,-0.29581 -0.268505,-0.65078 0,-0.48241 0.332217,-0.81462 0.33677,-0.33677 0.83282,-0.33677 0.445992,0 0.805514,0.2685 0.364075,0.26851 0.364075,0.67355 0,0.2685 -0.08192,0.48239 -0.08192,0.2139 -0.227545,0.35497 -0.14108,0.13653 -0.245751,0.20935 -0.100117,0.0682 -0.236648,0.13653 -0.06371,0.0365 0.02731,0.091 0.49605,0.31401 1.001204,0.50515 0.505153,0.19114 0.869227,0.19114 0.241199,0 0.359523,-0.009 0.122877,-0.005 0.34132,-0.0409 0.218444,-0.0363 0.405032,-0.13197 0.191139,-0.0956 0.377727,-0.25031 0.03641,-0.0273 0.06372,0 0.03641,0.0455 0.0046,0.0728 -0.191139,0.18203 -0.441441,0.30491 -0.250301,0.12289 -0.486949,0.16384 -0.236647,0.0455 -0.386828,0.0546 -0.145631,0.0136 -0.250302,0.009 -0.992102,-0.0227 -2.489356,-0.85103 z m 0.218444,-2.09797 q -0.345871,0 -0.564315,0.25485 -0.213894,0.25486 -0.209343,0.60528 0,0.43234 0.227546,0.7418 0.232098,0.30491 0.618927,0.30491 0.341319,0 0.532458,-0.28671 0.191139,-0.29125 0.191139,-0.66443 0,-0.39593 -0.209343,-0.67354 -0.209342,-0.28216 -0.587069,-0.28216 z"
         style="font-style:normal;font-variant:normal;font-weight:normal;font-stretch:normal;font-size:3.5810473px;line-height:1.25;font-family:'EB Garamond 12 All SC';-inkscape-font-specification:'EB Garamond 12 All SC, Normal';font-variant-ligatures:normal;font-variant-caps:normal;font-variant-numeric:normal;font-feature-settings:normal;text-align:start;letter-spacing:0px;word-spacing:0px;writing-mode:lr-tb;text-anchor:start;fill:#090909;fill-opacity:1;stroke:none;stroke-width:0.11377254"
         id="path30401"
         inkscape:connector-curvature="0" />
      <path
         d="m 13.550075,291.73037 v -0.76456 q 0,-0.091 -0.02731,-0.14107 -0.02731,-0.0547 -0.05461,-0.0637 -0.02731,-0.0137 -0.09557,-0.0365 -0.0182,-0.005 -0.03186,-0.0319 -0.0091,-0.0273 -0.0046,-0.0546 0.0046,-0.0273 0.02731,-0.0273 0.07282,0 0.19569,0.005 0.122877,0.005 0.200242,0.005 0.05461,0 0.136527,-0.005 0.08192,-0.005 0.177487,-0.005 0.02731,0 0.02731,0.0501 0,0.0501 -0.02731,0.0592 -0.177487,0.0228 -0.182038,0.2776 v 0.81917 q 0,0.30491 0.191139,0.52336 0.19569,0.21844 0.500602,0.21844 0.291259,0 0.427788,-0.18203 0.136527,-0.18204 0.136527,-0.59618 v -0.71449 q 0.0046,-0.19569 -0.04096,-0.2503 -0.04096,-0.0592 -0.163834,-0.091 -0.03186,-0.009 -0.03186,-0.0637 0.0046,-0.0546 0.03641,-0.0546 h 0.327666 q 0.06827,0 0.182038,0 0.113778,-0.005 0.186588,-0.005 0.02731,0 0.02276,0.0501 -0.0046,0.0455 -0.02276,0.0501 -0.254851,0.0501 -0.263954,0.2503 -0.03186,0.35042 -0.03186,0.71904 0,1.04673 -0.823718,1.04673 -0.459643,0 -0.719047,-0.28217 -0.254852,-0.28215 -0.254852,-0.70539 z"
         style="font-style:normal;font-variant:normal;font-weight:normal;font-stretch:normal;font-size:3.5810473px;line-height:1.25;font-family:'EB Garamond 12 All SC';-inkscape-font-specification:'EB Garamond 12 All SC, Normal';font-variant-ligatures:normal;font-variant-caps:normal;font-variant-numeric:normal;font-feature-settings:normal;text-align:start;letter-spacing:0px;word-spacing:0px;writing-mode:lr-tb;text-anchor:start;fill:#090909;fill-opacity:1;stroke:none;stroke-width:0.11377254"
         id="path30403"
         inkscape:connector-curvature="0" />
      <path
         d="m 16.56951,290.94307 v 1.34252 q 0,0.10916 0.06371,0.16839 0.09102,0.082 0.2412,0.10916 0.04096,0.009 0.04096,0.0592 0,0.0501 -0.04096,0.0501 -0.09102,0 -0.232098,-0.0137 -0.141078,-0.009 -0.232097,-0.009 -0.100117,0 -0.254852,0.009 -0.15018,0.0137 -0.232097,0.0137 -0.0182,0 -0.03186,-0.0228 -0.0091,-0.0273 -0.0046,-0.0546 0.0091,-0.0273 0.03641,-0.0319 0.163834,-0.0319 0.245751,-0.10916 0.05916,-0.0546 0.05916,-0.16839 v -1.34252 q 0,-0.0682 -0.07282,-0.12743 -0.05916,-0.0501 -0.200241,-0.10917 -0.01365,-0.005 -0.02275,-0.0319 -0.0046,-0.0273 0,-0.0501 0.0091,-0.0227 0.02275,-0.0227 0.100116,0 0.232098,0.005 0.136527,0.005 0.222995,0.005 0.08192,0 0.209342,-0.005 0.127427,-0.005 0.222997,-0.005 0.02731,0 0.02731,0.0501 0,0.0455 -0.02731,0.0546 -0.154732,0.0637 -0.209344,0.11374 -0.06371,0.0455 -0.06371,0.12289 z"
         style="font-style:normal;font-variant:normal;font-weight:normal;font-stretch:normal;font-size:3.5810473px;line-height:1.25;font-family:'EB Garamond 12 All SC';-inkscape-font-specification:'EB Garamond 12 All SC, Normal';font-variant-ligatures:normal;font-variant-caps:normal;font-variant-numeric:normal;font-feature-settings:normal;text-align:start;letter-spacing:0px;word-spacing:0px;writing-mode:lr-tb;text-anchor:start;fill:#090909;fill-opacity:1;stroke:none;stroke-width:0.11377254"
         id="path30405"
         inkscape:connector-curvature="0" />
      <path
         d="m 18.204714,290.47255 c -0.02427,0.006 -0.05461,0.0135 -0.09102,0.0227 -0.03641,0.006 -0.06523,0.0114 -0.08647,0.0182 -0.01821,0.006 -0.03945,0.015 -0.06371,0.0273 -0.02124,0.009 -0.03945,0.0212 -0.05461,0.0363 -0.03943,0.0395 -0.05916,0.11984 -0.05916,0.24119 v 1.44896 c 0,0.16384 0.08192,0.24575 0.24575,0.24575 h 0.436889 c 0.01516,0 0.04247,-0.008 0.08192,-0.0227 0.04248,-0.0151 0.07586,-0.0348 0.100117,-0.0591 0.06068,-0.0606 0.122877,-0.15775 0.186587,-0.29126 0.01517,-0.0273 0.05765,-0.0379 0.127427,-0.0319 0.01207,0 0.02275,0.005 0.03186,0.0136 0.0092,0.006 0.0122,0.015 0.0092,0.0273 -0.05461,0.20025 -0.08798,0.35497 -0.100117,0.4642 0,0.0127 -0.0076,0.0243 -0.02275,0.0364 -0.01516,0.0127 -0.03034,0.0182 -0.04551,0.0182 -0.1699,0 -0.391378,-0.003 -0.664434,-0.009 -0.270022,-0.006 -0.45206,-0.009 -0.546112,-0.009 l -0.482398,0.0136 c -0.0061,0 -0.0122,-0.008 -0.0182,-0.0228 -0.0031,-0.0182 -0.0031,-0.0349 0,-0.0501 0.003,-0.0182 0.0091,-0.0273 0.0182,-0.0273 0.103154,-0.0273 0.172934,-0.0591 0.209343,-0.0956 0.06068,-0.0606 0.09102,-0.12442 0.09102,-0.19115 v -1.46261 c 0,-0.12742 -0.01365,-0.2063 -0.04096,-0.23664 -0.0092,-0.009 -0.01669,-0.0167 -0.02276,-0.0228 -0.0061,-0.009 -0.01369,-0.0151 -0.02275,-0.0182 -0.0092,-0.006 -0.01669,-0.0102 -0.02276,-0.0137 -0.003,-0.004 -0.01067,-0.006 -0.02275,-0.009 -0.01207,-0.006 -0.02123,-0.009 -0.02731,-0.009 -0.0061,-0.004 -0.01824,-0.008 -0.03641,-0.0136 -0.01821,-0.006 -0.03337,-0.0102 -0.04551,-0.0136 -0.01516,-0.004 -0.02427,-0.0216 -0.02731,-0.0547 0,-0.0365 0.0091,-0.0546 0.02731,-0.0546 0.04248,0 0.0986,0.001 0.168385,0.005 0.07282,0.004 0.131981,0.005 0.177486,0.005 0.07888,0 0.189624,-10e-4 0.332218,-0.005 0.145629,-0.006 0.232097,-0.009 0.259402,-0.009 0.02124,0 0.03035,0.0182 0.02731,0.0546 -0.003,0.0334 -0.0122,0.0516 -0.02731,0.0547 z"
         style="font-style:normal;font-variant:normal;font-weight:normal;font-stretch:normal;font-size:3.5810473px;line-height:1.25;font-family:'EB Garamond 12 All SC';-inkscape-font-specification:'EB Garamond 12 All SC, Normal';font-variant-ligatures:normal;font-variant-caps:normal;font-variant-numeric:normal;font-feature-settings:normal;text-align:start;letter-spacing:0px;word-spacing:0px;writing-mode:lr-tb;text-anchor:start;fill:#090909;fill-opacity:1;stroke:none;stroke-width:0.11377254"
         id="path30407"
         inkscape:connector-curvature="0"
         sodipodi:nodetypes="cccccsssscccccccsscccccccsscccccccccscscsccc" />
    </g>
    <text
       xml:space="preserve"
       style="font-style:normal;font-variant:normal;font-weight:normal;font-stretch:normal;font-size:2.8028791px;line-height:1.25;font-family:'League Gothic';-inkscape-font-specification:'League Gothic, Normal';font-variant-ligatures:normal;font-variant-caps:normal;font-variant-numeric:normal;font-feature-settings:normal;text-align:start;letter-spacing:0px;word-spacing:0px;writing-mode:lr-tb;text-anchor:start;fill:#000000;fill-opacity:1;stroke:#000000;stroke-width:0.07007198"
       x="21.018375"
       y="308.46246"
       id="text980"><tspan
         sodipodi:role="line"
         id="tspan978"
         x="21.018375"
         y="308.46246"
         style="font-style:normal;font-variant:normal;font-weight:normal;font-stretch:normal;font-size:2.80286264px;font-family:'Petit Formal Script';-inkscape-font-specification:'Petit Formal Script, Normal';font-variant-ligatures:normal;font-variant-caps:normal;font-variant-numeric:normal;font-feature-settings:normal;text-align:start;writing-mode:lr-tb;text-anchor:start;stroke:#000000;stroke-width:0.07007198">Steeps</tspan></text>
    <g
       aria-label="Steeps"
       style="font-style:normal;font-variant:normal;font-weight:normal;font-stretch:normal;font-size:5.04611731px;line-height:1.25;font-family:'League Gothic';-inkscape-font-specification:'League Gothic, Normal';font-variant-ligatures:normal;font-variant-caps:normal;font-variant-numeric:normal;font-feature-settings:normal;text-align:start;letter-spacing:0px;word-spacing:0px;writing-mode:lr-tb;text-anchor:start;fill:#1a1a1a;fill-opacity:1;stroke:none;stroke-width:0.02599999;stroke-miterlimit:4;stroke-dasharray:none;stroke-opacity:1;filter:url(#filter1063)"
       id="text953">
      <path
         d="m 25.970354,294.51245 c 0.1002,-0.11006 0.187259,-0.20533 0.261176,-0.28582 0.07556,-0.0805 0.139623,-0.14948 0.192186,-0.20697 0.05257,-0.0591 0.09528,-0.10759 0.128125,-0.14537 0.03449,-0.0378 0.06242,-0.0682 0.08377,-0.0912 0.14455,-0.15933 0.285815,-0.29896 0.423795,-0.41887 0.13798,-0.11991 0.273496,-0.22011 0.406548,-0.3006 0.134694,-0.0821 0.268567,-0.14373 0.401619,-0.18479 0.133052,-0.0411 0.267747,-0.0616 0.404084,-0.0616 0.03285,0 0.06735,0.002 0.103485,0.005 0.03778,0.003 0.07228,0.0115 0.103485,0.0246 0.03121,0.0131 0.05667,0.0328 0.07638,0.0591 0.02135,0.0263 0.03203,0.0624 0.03203,0.10841 0,0.1232 -0.03532,0.24475 -0.105949,0.36466 -0.06899,0.11991 -0.160154,0.23408 -0.273495,0.34249 -0.113341,0.10841 -0.242286,0.21108 -0.386836,0.30799 -0.144551,0.0953 -0.290744,0.17987 -0.438579,0.25378 -0.146193,0.0739 -0.288279,0.13634 -0.426259,0.18726 -0.137979,0.0509 -0.25789,0.0862 -0.359733,0.10595 -0.08706,0.0197 -0.183973,0.0345 -0.290743,0.0444 -0.0772,0.0871 -0.15687,0.17823 -0.239001,0.2735 -0.08213,0.0936 -0.165083,0.18725 -0.248856,0.28088 -0.08377,0.0936 -0.166725,0.1848 -0.248856,0.2735 -0.08049,0.0887 -0.15687,0.17083 -0.229145,0.24639 -0.114983,0.11991 -0.23243,0.22997 -0.352341,0.33017 -0.119911,0.1002 -0.24475,0.18726 -0.374517,0.26117 -0.129767,0.0723 -0.264461,0.12895 -0.404084,0.17001 -0.139622,0.0411 -0.286636,0.0616 -0.441042,0.0616 -0.179045,0 -0.317846,-0.0345 -0.416403,-0.10348 -0.09691,-0.069 -0.145372,-0.15934 -0.145372,-0.27103 0,-0.0411 0.0066,-0.0829 0.01971,-0.12566 0.01314,-0.0443 0.03285,-0.0838 0.05913,-0.11827 0.02793,-0.0361 0.0616,-0.0649 0.101021,-0.0862 0.04107,-0.023 0.08788,-0.0345 0.140443,-0.0345 0.05913,0 0.105127,0.0156 0.13798,0.0468 0.03285,0.0312 0.04928,0.0764 0.04928,0.13552 0,0.0542 -0.01314,0.0985 -0.03942,0.13305 -0.02464,0.0329 -0.05174,0.0608 -0.08131,0.0838 -0.02957,0.023 -0.05749,0.0444 -0.08377,0.0641 -0.02464,0.0181 -0.03696,0.0394 -0.03696,0.0641 0,0.0345 0.01971,0.0608 0.05913,0.0788 0.03942,0.0164 0.09363,0.0246 0.162619,0.0246 0.131409,0 0.253784,-0.0197 0.367125,-0.0591 0.113341,-0.0394 0.221753,-0.0944 0.325238,-0.16509 0.103485,-0.0706 0.204506,-0.15523 0.303063,-0.25378 0.100199,-0.0986 0.202041,-0.20697 0.305526,-0.32524 0.128124,-0.14619 0.266104,-0.30142 0.41394,-0.46568 0.149478,-0.16426 0.302241,-0.33427 0.45829,-0.51003 -0.07885,-0.007 -0.167547,-0.019 -0.266104,-0.037 -0.09692,-0.0181 -0.18808,-0.0443 -0.273496,-0.0788 -0.08542,-0.0345 -0.157691,-0.0772 -0.216825,-0.12812 -0.05749,-0.0526 -0.08624,-0.11748 -0.08624,-0.19465 0,-0.0624 0.01643,-0.11743 0.04928,-0.16509 0.03449,-0.0493 0.07884,-0.092 0.133052,-0.12812 0.05421,-0.0361 0.115805,-0.0665 0.184794,-0.0912 0.06899,-0.0263 0.138801,-0.0476 0.209434,-0.0641 0.07063,-0.0164 0.1388,-0.0287 0.204505,-0.037 0.06735,-0.01 0.12566,-0.0173 0.174939,-0.0222 l 0.01478,0.0296 c -0.05257,0.003 -0.116629,0.0173 -0.192186,0.0419 -0.07556,0.0247 -0.149479,0.0583 -0.221754,0.10102 -0.07063,0.0411 -0.131409,0.0904 -0.18233,0.14784 -0.04928,0.0559 -0.07392,0.11664 -0.07392,0.18233 0,0.0624 0.02135,0.11414 0.06406,0.15523 0.04271,0.0394 0.09609,0.0714 0.160155,0.0961 0.06406,0.0247 0.133871,0.0427 0.209434,0.0542 0.07556,0.01 0.146192,0.0164 0.211897,0.0197 z m 1.355159,-1.02499 c -0.159334,0.15933 -0.312919,0.32277 -0.460754,0.49032 -0.146193,0.1659 -0.29139,0.33591 -0.44251,0.51003 0.04271,-0.005 0.0736,-0.0112 0.116312,-0.0197 0.04435,-0.01 0.0887,-0.0214 0.133052,-0.0345 0.05913,-0.0148 0.128944,-0.0378 0.209433,-0.069 0.08049,-0.0329 0.165905,-0.0715 0.256248,-0.1158 0.09199,-0.0443 0.185616,-0.0936 0.280888,-0.14784 0.09691,-0.0559 0.190543,-0.115 0.280887,-0.1774 0.09199,-0.0624 0.178224,-0.12728 0.258712,-0.19465 0.08213,-0.0674 0.153585,-0.13552 0.214362,-0.20451 0.06242,-0.0706 0.110877,-0.14044 0.145371,-0.20943 0.03614,-0.0706 0.03894,-0.14257 0.03894,-0.20992 0,-0.0213 -0.01548,-0.0356 -0.02703,-0.0487 -0.0115,-0.0131 -0.0091,-0.0156 -0.02718,-0.0222 -0.01807,-0.008 -0.04516,-0.02 -0.06651,-0.0217 -0.02135,-10e-4 -0.05518,-5.2e-4 -0.07489,-5.2e-4 -0.07392,0 -0.111744,0.0112 -0.187305,0.0375 -0.07392,0.0247 -0.147836,0.0592 -0.221753,0.10348 -0.07392,0.0443 -0.147014,0.0953 -0.219289,0.15276 -0.07063,0.0575 -0.139623,0.11825 -0.20697,0.18234 z"
         style="font-style:normal;font-variant:normal;font-weight:normal;font-stretch:normal;font-size:5.04611731px;font-family:'Meie Script';-inkscape-font-specification:'Meie Script, Normal';font-variant-ligatures:normal;font-variant-caps:normal;font-variant-numeric:normal;font-feature-settings:normal;text-align:start;writing-mode:lr-tb;text-anchor:start;fill:#1a1a1a;fill-opacity:1;stroke:none;stroke-width:0.02599999;stroke-miterlimit:4;stroke-dasharray:none;stroke-opacity:1"
         id="path1067"
         inkscape:connector-curvature="0"
         sodipodi:nodetypes="cccccsccscccscsccccccccccccscscccssscscscssccccccscsccccccccccscccccccccccccccccssccsccccc" />
      <path
         d="m 28.380073,294.39418 q 0.07145,-0.0862 0.142907,-0.17248 0.07392,-0.0862 0.147836,-0.17247 0.04681,-0.0542 0.108413,-0.12812 0.0616,-0.0739 0.130587,-0.15277 0.07145,-0.0813 0.142908,-0.15769 0.07392,-0.0764 0.13798,-0.13798 0.06653,-0.0616 0.118268,-0.0986 0.05174,-0.0394 0.08131,-0.0394 0.01971,0 0.05421,0.007 0.03449,0.007 0.06653,0.0222 0.03449,0.0123 0.05667,0.0345 0.02464,0.0197 0.02464,0.0444 0,0.0271 -0.03696,0.069 -0.03449,0.0419 -0.08624,0.0986 l -0.409011,0.46322 q -0.01725,0.0172 -0.04928,0.0542 -0.03203,0.0345 -0.07392,0.0838 -0.03942,0.0468 -0.08624,0.10102 -0.04681,0.0517 -0.09117,0.10102 l 0.576558,0.0345 -0.108412,0.16261 h -0.640621 q -0.128124,0.14538 -0.258712,0.29568 -0.128124,0.14783 -0.248856,0.28827 -0.120732,0.14045 -0.229145,0.26611 -0.108413,0.12566 -0.19465,0.22668 -0.08377,0.10102 -0.145372,0.17247 -0.05913,0.069 -0.08131,0.0961 -0.0887,0.10348 -0.145372,0.19465 -0.05667,0.0887 -0.05667,0.14044 0,0.0641 0.03942,0.0813 0.04189,0.0172 0.11334,0.0172 0.06653,0 0.162619,-0.01 0.09856,-0.0123 0.226681,-0.0468 0.130588,-0.0345 0.293207,-0.0961 0.165083,-0.0641 0.367125,-0.16755 l 0.02464,0.0591 q -0.189722,0.11334 -0.37698,0.18972 -0.184794,0.0764 -0.357269,0.1232 -0.170011,0.0468 -0.32031,0.0665 -0.1503,0.0197 -0.266104,0.0197 -0.133052,0 -0.19465,-0.0641 -0.0616,-0.0665 -0.0616,-0.17741 0,-0.0715 0.05667,-0.17001 0.05913,-0.0986 0.189722,-0.25871 0.01478,-0.0172 0.06406,-0.0764 0.05174,-0.0616 0.130588,-0.15276 0.07885,-0.0912 0.179867,-0.20944 0.101021,-0.11827 0.214361,-0.24885 0.115805,-0.13306 0.239001,-0.2735 0.123196,-0.14291 0.246392,-0.28582 h -0.473073 l 0.18233,-0.24639 z"
         style="font-style:normal;font-variant:normal;font-weight:normal;font-stretch:normal;font-size:5.04611731px;font-family:'Meie Script';-inkscape-font-specification:'Meie Script, Normal';font-variant-ligatures:normal;font-variant-caps:normal;font-variant-numeric:normal;font-feature-settings:normal;text-align:start;writing-mode:lr-tb;text-anchor:start;fill:#1a1a1a;fill-opacity:1;stroke:none;stroke-width:0.02599999;stroke-miterlimit:4;stroke-dasharray:none;stroke-opacity:1"
         id="path1069" />
      <path
         d="m 30.129459,296.12878 q -0.315382,0.14537 -0.52728,0.22668 -0.211897,0.0813 -0.362197,0.1232 -0.147835,0.0394 -0.256248,0.0493 -0.108412,0.01 -0.219289,0.01 -0.08624,0 -0.165083,-0.0222 -0.07638,-0.0222 -0.135516,-0.069 -0.05913,-0.0468 -0.09363,-0.12073 -0.03449,-0.0739 -0.03449,-0.17741 0,-0.11826 0.04928,-0.24392 0.05174,-0.12813 0.140443,-0.24886 0.0887,-0.1232 0.20697,-0.23161 0.120732,-0.10841 0.261176,-0.18972 0.140444,-0.0838 0.293207,-0.13059 0.155227,-0.0493 0.310454,-0.0493 0.05421,0 0.128125,0.01 0.07392,0.01 0.140443,0.0394 0.06653,0.0271 0.113341,0.0764 0.04681,0.0493 0.04681,0.12566 0,0.069 -0.06406,0.14291 -0.06406,0.0739 -0.172474,0.1503 -0.105949,0.0739 -0.246393,0.14783 -0.140444,0.0739 -0.290743,0.14291 -0.147835,0.0665 -0.298135,0.12566 -0.150299,0.0591 -0.278423,0.10349 -0.0049,0.0197 -0.0049,0.0394 0,0.0197 0,0.0394 0,0.0936 0.0616,0.15523 0.0616,0.0616 0.170011,0.0616 0.09609,0 0.189722,-0.007 0.09363,-0.007 0.224217,-0.0394 0.130588,-0.0345 0.317846,-0.10348 0.187259,-0.0715 0.47061,-0.19465 z m -0.566702,-0.92151 q -0.06406,0 -0.142908,0.037 -0.07885,0.0345 -0.165083,0.0961 -0.08624,0.0591 -0.172475,0.14044 -0.08377,0.0813 -0.160155,0.17494 -0.07392,0.0912 -0.133052,0.18972 -0.05913,0.0961 -0.0887,0.18972 0.108413,-0.0394 0.224217,-0.0862 0.118268,-0.0468 0.229145,-0.0986 0.113341,-0.0517 0.214361,-0.10841 0.101021,-0.0591 0.177403,-0.1232 0.07638,-0.0641 0.120732,-0.13059 0.04435,-0.069 0.04435,-0.14291 0,-0.0591 -0.03203,-0.0986 -0.02957,-0.0394 -0.115804,-0.0394 z"
         style="font-style:normal;font-variant:normal;font-weight:normal;font-stretch:normal;font-size:5.04611731px;font-family:'Meie Script';-inkscape-font-specification:'Meie Script, Normal';font-variant-ligatures:normal;font-variant-caps:normal;font-variant-numeric:normal;font-feature-settings:normal;text-align:start;writing-mode:lr-tb;text-anchor:start;fill:#1a1a1a;fill-opacity:1;stroke:none;stroke-width:0.02599999;stroke-miterlimit:4;stroke-dasharray:none;stroke-opacity:1"
         id="path1071" />
      <path
         d="m 31.804928,296.12878 q -0.315382,0.14537 -0.52728,0.22668 -0.211897,0.0813 -0.362197,0.1232 -0.147835,0.0394 -0.256248,0.0493 -0.108413,0.01 -0.219289,0.01 -0.08624,0 -0.165083,-0.0222 -0.07638,-0.0222 -0.135516,-0.069 -0.05913,-0.0468 -0.09363,-0.12073 -0.03449,-0.0739 -0.03449,-0.17741 0,-0.11826 0.04928,-0.24392 0.05174,-0.12813 0.140443,-0.24886 0.0887,-0.1232 0.20697,-0.23161 0.120732,-0.10841 0.261176,-0.18972 0.140444,-0.0838 0.293207,-0.13059 0.155227,-0.0493 0.310454,-0.0493 0.05421,0 0.128124,0.01 0.07392,0.01 0.140444,0.0394 0.06653,0.0271 0.113341,0.0764 0.04681,0.0493 0.04681,0.12566 0,0.069 -0.06406,0.14291 -0.06406,0.0739 -0.172475,0.1503 -0.105948,0.0739 -0.246392,0.14783 -0.140444,0.0739 -0.290743,0.14291 -0.147836,0.0665 -0.298135,0.12566 -0.150299,0.0591 -0.278423,0.10349 -0.0049,0.0197 -0.0049,0.0394 0,0.0197 0,0.0394 0,0.0936 0.0616,0.15523 0.0616,0.0616 0.170011,0.0616 0.09609,0 0.189722,-0.007 0.09363,-0.007 0.224217,-0.0394 0.130588,-0.0345 0.317846,-0.10348 0.187258,-0.0715 0.47061,-0.19465 z m -0.566703,-0.92151 q -0.06406,0 -0.142907,0.037 -0.07885,0.0345 -0.165083,0.0961 -0.08624,0.0591 -0.172475,0.14044 -0.08377,0.0813 -0.160155,0.17494 -0.07392,0.0912 -0.133052,0.18972 -0.05913,0.0961 -0.0887,0.18972 0.108413,-0.0394 0.224217,-0.0862 0.118268,-0.0468 0.229145,-0.0986 0.11334,-0.0517 0.214361,-0.10841 0.101021,-0.0591 0.177403,-0.1232 0.07638,-0.0641 0.120732,-0.13059 0.04435,-0.069 0.04435,-0.14291 0,-0.0591 -0.03203,-0.0986 -0.02957,-0.0394 -0.115805,-0.0394 z"
         style="font-style:normal;font-variant:normal;font-weight:normal;font-stretch:normal;font-size:5.04611731px;font-family:'Meie Script';-inkscape-font-specification:'Meie Script, Normal';font-variant-ligatures:normal;font-variant-caps:normal;font-variant-numeric:normal;font-feature-settings:normal;text-align:start;writing-mode:lr-tb;text-anchor:start;fill:#1a1a1a;fill-opacity:1;stroke:none;stroke-width:0.02599999;stroke-miterlimit:4;stroke-dasharray:none;stroke-opacity:1"
         id="path1073" />
      <path
         d="m 32.997467,295.43888 q -0.197114,0.14045 -0.374516,0.29814 -0.174939,0.15769 -0.34495,0.3277 -0.02218,0.0246 -0.110876,0.12566 -0.0887,0.0986 -0.221753,0.24639 -0.130588,0.14784 -0.290744,0.33017 -0.162619,0.18233 -0.330165,0.36959 -0.170011,0.18726 -0.330166,0.36712 -0.162619,0.18233 -0.293207,0.32524 -0.130588,0.14537 -0.216826,0.239 -0.0887,0.0936 -0.108412,0.11088 -0.02957,0.0296 -0.05421,0.0468 -0.02464,0.0173 -0.05913,0.0173 -0.01232,0 -0.02464,-0.002 -0.01478,0 -0.03449,-0.007 -0.04435,-0.0148 -0.07638,-0.0419 -0.03203,-0.0246 -0.03203,-0.0616 0,-0.0271 0.01478,-0.0493 0.01232,-0.0222 0.04928,-0.0641 l 2.449141,-2.77931 q 0.01971,-0.0197 0.03696,-0.0394 0.01725,-0.0222 0.03696,-0.0444 0.06899,-0.0813 0.142908,-0.16016 0.07392,-0.0813 0.140443,-0.14537 0.06653,-0.0641 0.120733,-0.10348 0.05421,-0.0394 0.08377,-0.0394 0.01971,0 0.05421,0.007 0.03449,0.007 0.06653,0.0222 0.03449,0.0123 0.05667,0.0345 0.02464,0.0197 0.02464,0.0443 0,0.0271 -0.03696,0.069 -0.03449,0.0419 -0.08624,0.0985 l -0.271032,0.30553 q 0.160155,-0.1158 0.344949,-0.17494 0.184795,-0.0616 0.374517,-0.0616 0.157691,0 0.214361,0.0468 0.05667,0.0444 0.05667,0.12566 0,0.0936 -0.05421,0.19465 -0.05421,0.0986 -0.135516,0.19711 -0.07885,0.0986 -0.172474,0.19465 -0.09117,0.0936 -0.172475,0.17987 -0.07885,0.0862 -0.133052,0.16262 -0.05174,0.0739 -0.05174,0.13059 0,0.0345 0.01232,0.0567 0.01232,0.0197 0.02957,0.032 0.01971,0.01 0.04189,0.0123 0.02464,0.002 0.04928,0.002 0.140443,0 0.278423,-0.0271 0.13798,-0.0271 0.271032,-0.0715 0.135516,-0.0444 0.266104,-0.10102 0.130588,-0.0591 0.253784,-0.12073 l 0.02464,0.0591 q -0.08131,0.0542 -0.224217,0.1232 -0.142908,0.069 -0.32031,0.13059 -0.177403,0.0616 -0.379445,0.10348 -0.199578,0.0419 -0.396692,0.0419 -0.115804,0 -0.187258,-0.0567 -0.06899,-0.0567 -0.06899,-0.17987 0,-0.0591 0.03942,-0.13798 0.03942,-0.0788 0.101021,-0.16262 0.06406,-0.0862 0.140444,-0.17493 0.07885,-0.0887 0.152763,-0.17001 0.07638,-0.0813 0.142908,-0.1503 0.06653,-0.0715 0.108412,-0.12074 0.01478,-0.0222 0.04189,-0.0567 0.0271,-0.037 0.0271,-0.0665 0,-0.0197 -0.01725,-0.032 -0.01478,-0.0123 -0.05174,-0.0123 -0.07638,0 -0.147835,0.0172 -0.06899,0.0148 -0.140444,0.0444 -0.06899,0.0296 -0.142907,0.0739 -0.07392,0.0444 -0.155228,0.10102 z"
         style="font-style:normal;font-variant:normal;font-weight:normal;font-stretch:normal;font-size:5.04611731px;font-family:'Meie Script';-inkscape-font-specification:'Meie Script, Normal';font-variant-ligatures:normal;font-variant-caps:normal;font-variant-numeric:normal;font-feature-settings:normal;text-align:start;writing-mode:lr-tb;text-anchor:start;fill:#1a1a1a;fill-opacity:1;stroke:none;stroke-width:0.02599999;stroke-miterlimit:4;stroke-dasharray:none;stroke-opacity:1"
         id="path1075" />
      <path
         d="m 34.820771,295.77398 q 0.03696,0 0.06899,0.01 0.03203,0.01 0.05421,0.0246 0.103484,-0.0715 0.231609,-0.16015 0.128124,-0.0912 0.263639,-0.1848 0.135516,-0.0961 0.268568,-0.18972 0.133052,-0.0961 0.248857,-0.1774 0.115804,-0.0838 0.206969,-0.14784 0.09117,-0.0665 0.140444,-0.10102 l 0.04435,0.0739 q -0.05667,0.0567 -0.09609,0.11088 -0.03696,0.0517 -0.05913,0.10348 -0.02217,0.0493 -0.03203,0.0986 -0.0099,0.0493 -0.0099,0.10102 0,0.23654 -0.05421,0.41887 -0.05174,0.17986 -0.142907,0.31291 -0.0887,0.13059 -0.20697,0.21929 -0.118268,0.0862 -0.25132,0.14045 -0.130588,0.0517 -0.268568,0.0739 -0.13798,0.0222 -0.26364,0.0222 -0.08131,0 -0.179866,-0.0197 -0.09609,-0.0222 -0.179867,-0.0641 -0.08377,-0.0444 -0.140444,-0.11088 -0.05667,-0.0665 -0.05667,-0.16015 0,-0.0764 0.03449,-0.14538 0.03449,-0.0715 0.09116,-0.12566 0.05913,-0.0567 0.133052,-0.0887 0.07638,-0.0345 0.155227,-0.0345 z m 1.000354,-0.46815 q -0.105949,0.0715 -0.199578,0.13305 -0.09116,0.0616 -0.187258,0.12813 -0.09609,0.0665 -0.202042,0.14044 -0.105949,0.0739 -0.234073,0.16508 0.01478,0.0222 0.01478,0.0444 0,0.0518 -0.02464,0.0912 -0.02217,0.037 -0.05913,0.0641 -0.03449,0.0246 -0.07638,0.0444 -0.04189,0.0197 -0.07884,0.037 -0.03449,0.0172 -0.05913,0.037 -0.02218,0.0172 -0.02218,0.0419 0,0.032 0.01725,0.0567 0.01725,0.0222 0.04435,0.037 0.0271,0.0148 0.05914,0.0222 0.03203,0.007 0.0616,0.007 0.05913,0 0.120732,-0.0148 0.06406,-0.0148 0.120732,-0.0345 0.128124,-0.0394 0.246393,-0.11826 0.120732,-0.0813 0.216825,-0.20451 0.09609,-0.1232 0.160155,-0.29074 0.06406,-0.16755 0.08131,-0.38684 z"
         style="font-style:normal;font-variant:normal;font-weight:normal;font-stretch:normal;font-size:5.04611731px;font-family:'Meie Script';-inkscape-font-specification:'Meie Script, Normal';font-variant-ligatures:normal;font-variant-caps:normal;font-variant-numeric:normal;font-feature-settings:normal;text-align:start;writing-mode:lr-tb;text-anchor:start;fill:#1a1a1a;fill-opacity:1;stroke:none;stroke-width:0.02599999;stroke-miterlimit:4;stroke-dasharray:none;stroke-opacity:1"
         id="path1077" />
    </g>
  </g>
</svg>
