<?xml version="1.0" encoding="UTF-8" standalone="no"?>
<!-- Created with Inkscape (http://www.inkscape.org/) -->

<svg
   xmlns:dc="http://purl.org/dc/elements/1.1/"
   xmlns:cc="http://creativecommons.org/ns#"
   xmlns:rdf="http://www.w3.org/1999/02/22-rdf-syntax-ns#"
   xmlns:svg="http://www.w3.org/2000/svg"
   xmlns="http://www.w3.org/2000/svg"
   xmlns:sodipodi="http://sodipodi.sourceforge.net/DTD/sodipodi-0.dtd"
   xmlns:inkscape="http://www.inkscape.org/namespaces/inkscape"
   width="3.5in"
   height="2in"
   viewBox="0 0 88.900004 50.8"
   version="1.1"
   id="svg8"
   inkscape:version="0.92.2 (5c3e80d, 2017-08-06)"
   sodipodi:docname="roundaglet.svg">
  <defs
     id="defs2" />
  <sodipodi:namedview
     id="base"
     pagecolor="#ffffff"
     bordercolor="#666666"
     borderopacity="1.0"
     inkscape:pageopacity="0.0"
     inkscape:pageshadow="2"
     inkscape:zoom="0.0875"
     inkscape:cx="60.479947"
     inkscape:cy="2676.585"
     inkscape:document-units="in"
     inkscape:current-layer="layer1"
     showgrid="false"
     inkscape:object-nodes="false"
     inkscape:window-width="1366"
     inkscape:window-height="705"
     inkscape:window-x="-8"
     inkscape:window-y="-8"
     inkscape:window-maximized="1"
     units="in" />
  <metadata
     id="metadata5">
    <rdf:RDF>
      <cc:Work
         rdf:about="">
        <dc:format>image/svg+xml</dc:format>
        <dc:type
           rdf:resource="http://purl.org/dc/dcmitype/StillImage" />
        <dc:title></dc:title>
      </cc:Work>
    </rdf:RDF>
  </metadata>
  <g
     inkscape:label="Layer 1"
     inkscape:groupmode="layer"
     id="layer1"
     transform="translate(0,-246.2)">
    <path
       style="color:#000000;font-style:normal;font-variant:normal;font-weight:normal;font-stretch:normal;font-size:medium;line-height:normal;font-family:sans-serif;font-variant-ligatures:normal;font-variant-position:normal;font-variant-caps:normal;font-variant-numeric:normal;font-variant-alternates:normal;font-feature-settings:normal;text-indent:0;text-align:start;text-decoration:none;text-decoration-line:none;text-decoration-style:solid;text-decoration-color:#000000;letter-spacing:normal;word-spacing:normal;text-transform:none;writing-mode:lr-tb;direction:ltr;text-orientation:mixed;dominant-baseline:auto;baseline-shift:baseline;text-anchor:start;white-space:normal;shape-padding:0;clip-rule:nonzero;display:inline;overflow:visible;visibility:visible;opacity:1;isolation:auto;mix-blend-mode:normal;color-interpolation:sRGB;color-interpolation-filters:linearRGB;solid-color:#000000;solid-opacity:1;vector-effect:none;fill:#d4aa00;fill-opacity:1;fill-rule:evenodd;stroke:none;stroke-width:5.18894148;stroke-linecap:square;stroke-linejoin:miter;stroke-miterlimit:4;stroke-dasharray:none;stroke-dashoffset:0;stroke-opacity:1;color-rendering:auto;image-rendering:auto;shape-rendering:auto;text-rendering:auto;enable-background:accumulate"
       d="m -330.35056,225.17854 c -0.58324,-5.13256 -3.42525,-9.85838 -7.91226,-12.74998 -5.98268,-3.85546 -13.72588,-3.69987 -19.54927,0.3922 -5.82337,4.09209 -8.59371,11.32442 -6.99379,18.25965 1.91676,2.36071 6.06994,0.25195 5.05598,-1.16635 -1.12867,-4.89246 0.81329,-9.96104 4.9214,-12.84778 4.10812,-2.88677 9.53442,-2.99513 13.7549,-0.27531 4.22049,2.71985 6.3635,7.70649 5.43178,12.64023 l -0.4813,2.54932 c 2.34112,-0.32073 3.61884,0.42195 5.0986,0.9626 l 0.4813,-2.5493 c 0.33018,-1.74844 0.38706,-3.50443 0.19264,-5.21528 z"
       id="path817"
       inkscape:connector-curvature="0"
       sodipodi:nodetypes="sssccssccccs" />
    <path
       style="color:#000000;font-style:normal;font-variant:normal;font-weight:normal;font-stretch:normal;font-size:medium;line-height:normal;font-family:sans-serif;font-variant-ligatures:normal;font-variant-position:normal;font-variant-caps:normal;font-variant-numeric:normal;font-variant-alternates:normal;font-feature-settings:normal;text-indent:0;text-align:start;text-decoration:none;text-decoration-line:none;text-decoration-style:solid;text-decoration-color:#000000;letter-spacing:normal;word-spacing:normal;text-transform:none;writing-mode:lr-tb;direction:ltr;text-orientation:mixed;dominant-baseline:auto;baseline-shift:baseline;text-anchor:start;white-space:normal;shape-padding:0;clip-rule:nonzero;display:inline;overflow:visible;visibility:visible;opacity:0.77999998;isolation:auto;mix-blend-mode:normal;color-interpolation:sRGB;color-interpolation-filters:linearRGB;solid-color:#000000;solid-opacity:1;vector-effect:none;fill:#d4aa00;fill-opacity:1;fill-rule:nonzero;stroke:none;stroke-width:2.57048345;stroke-linecap:square;stroke-linejoin:miter;stroke-miterlimit:4;stroke-dasharray:none;stroke-dashoffset:2.29999995;stroke-opacity:1;color-rendering:auto;image-rendering:auto;shape-rendering:auto;text-rendering:auto;enable-background:accumulate"
       d="m -347.36342,224.37874 -1.12021,2.28769 -17.82445,36.38544 h 39.02602 z m 0.067,5.70659 15.78299,30.39523 h -30.67225 z"
       id="rect820"
       inkscape:connector-curvature="0" />
    <path
       style="color:#000000;font-style:normal;font-variant:normal;font-weight:normal;font-stretch:normal;font-size:medium;line-height:normal;font-family:sans-serif;font-variant-ligatures:normal;font-variant-position:normal;font-variant-caps:normal;font-variant-numeric:normal;font-variant-alternates:normal;font-feature-settings:normal;text-indent:0;text-align:start;text-decoration:none;text-decoration-line:none;text-decoration-style:solid;text-decoration-color:#000000;letter-spacing:normal;word-spacing:normal;text-transform:none;writing-mode:lr-tb;direction:ltr;text-orientation:mixed;dominant-baseline:auto;baseline-shift:baseline;text-anchor:start;white-space:normal;shape-padding:0;clip-rule:nonzero;display:inline;overflow:visible;visibility:visible;opacity:0.77999998;isolation:auto;mix-blend-mode:normal;color-interpolation:sRGB;color-interpolation-filters:linearRGB;solid-color:#000000;solid-opacity:1;vector-effect:none;fill:#d4aa00;fill-opacity:1;fill-rule:nonzero;stroke:none;stroke-width:2.57048345;stroke-linecap:square;stroke-linejoin:miter;stroke-miterlimit:4;stroke-dasharray:none;stroke-dashoffset:2.29999995;stroke-opacity:1;color-rendering:auto;image-rendering:auto;shape-rendering:auto;text-rendering:auto;enable-background:accumulate"
       d="m -322.09104,225.09991 -1.12021,2.28879 -9.26182,18.90508 h 21.38736 z m 0.067,5.70659 6.70698,12.91705 h -13.0347 z"
       id="path835"
       inkscape:connector-curvature="0" />
    <path
       style="color:#000000;font-style:normal;font-variant:normal;font-weight:normal;font-stretch:normal;font-size:medium;line-height:normal;font-family:sans-serif;font-variant-ligatures:normal;font-variant-position:normal;font-variant-caps:normal;font-variant-numeric:normal;font-variant-alternates:normal;font-feature-settings:normal;text-indent:0;text-align:start;text-decoration:none;text-decoration-line:none;text-decoration-style:solid;text-decoration-color:#000000;letter-spacing:normal;word-spacing:normal;text-transform:none;writing-mode:lr-tb;direction:ltr;text-orientation:mixed;dominant-baseline:auto;baseline-shift:baseline;text-anchor:start;white-space:normal;shape-padding:0;clip-rule:nonzero;display:inline;overflow:visible;visibility:visible;opacity:0.77999998;isolation:auto;mix-blend-mode:normal;color-interpolation:sRGB;color-interpolation-filters:linearRGB;solid-color:#000000;solid-opacity:1;vector-effect:none;fill:#d4aa00;fill-opacity:1;fill-rule:nonzero;stroke:none;stroke-width:2.57048345;stroke-linecap:square;stroke-linejoin:miter;stroke-miterlimit:4;stroke-dasharray:none;stroke-dashoffset:2.29999995;stroke-opacity:1;color-rendering:auto;image-rendering:auto;shape-rendering:auto;text-rendering:auto;enable-background:accumulate"
       d="m -370.62183,233.1008 -1.12131,2.28767 -7.39295,15.09264 h 17.53862 z m 0.066,5.70657 4.72708,9.10241 h -9.18594 z"
       id="path837"
       inkscape:connector-curvature="0" />
    <path
       transform="rotate(80.259732)"
       style="fill:none;fill-rule:evenodd;stroke:#000000;stroke-width:7.78483629;stroke-linecap:square;stroke-linejoin:miter;stroke-miterlimit:4;stroke-dasharray:none"
       id="path839"
       sodipodi:type="arc"
       sodipodi:cx="44.921658"
       sodipodi:cy="234.42557"
       sodipodi:rx="19.78533"
       sodipodi:ry="19.78533"
       sodipodi:start="1.5140681"
       sodipodi:end="5.0690359"
       sodipodi:open="true"
       d="m 46.043442,254.17907 a 19.78533,19.78533 0 0 1 -19.001171,-11.28079 19.78533,19.78533 0 0 1 3.301325,-21.84954 19.78533,19.78533 0 0 1 21.485795,-5.16347" />
    <path
       sodipodi:nodetypes="cccc"
       inkscape:connector-curvature="0"
       id="path841"
       d="m -222.89354,84.049442 -22.44461,45.817798 h 46.2355 z"
       style="opacity:0.77999998;fill:none;fill-opacity:1;stroke:#000000;stroke-width:3.41030979;stroke-linecap:square;stroke-linejoin:miter;stroke-miterlimit:4;stroke-dasharray:none;stroke-dashoffset:2.29999995;stroke-opacity:1" />
    <path
       style="opacity:0.77999998;fill:none;fill-opacity:1;stroke:#000000;stroke-width:3.41031003;stroke-linecap:square;stroke-linejoin:miter;stroke-miterlimit:4;stroke-dasharray:none;stroke-dashoffset:2.29999995;stroke-opacity:1"
       d="m -189.36453,85.007462 -11.08431,22.627208 h 22.83349 z"
       id="path843"
       inkscape:connector-curvature="0"
       sodipodi:nodetypes="cccc" />
    <path
       sodipodi:nodetypes="cccc"
       inkscape:connector-curvature="0"
       id="path845"
       d="m -253.75208,95.621662 -8.60571,17.567448 h 17.7276 z"
       style="opacity:0.77999998;fill:none;fill-opacity:1;stroke:#000000;stroke-width:3.41031003;stroke-linecap:square;stroke-linejoin:miter;stroke-miterlimit:4;stroke-dasharray:none;stroke-dashoffset:2.29999995;stroke-opacity:1" />
    <path
       d="m 162.48699,272.94633 a 19.78533,19.78533 0 0 1 -19.00117,-11.2808 19.78533,19.78533 0 0 1 3.30132,-21.84953 19.78533,19.78533 0 0 1 21.4858,-5.16347"
       sodipodi:open="true"
       sodipodi:end="5.0690359"
       sodipodi:start="1.5140681"
       sodipodi:ry="19.78533"
       sodipodi:rx="19.78533"
       sodipodi:cy="253.19283"
       sodipodi:cx="161.3652"
       sodipodi:type="arc"
       id="path892"
       style="fill:none;fill-rule:evenodd;stroke:#000000;stroke-width:4.97056532;stroke-linecap:square;stroke-linejoin:miter;stroke-miterlimit:4;stroke-dasharray:none"
       transform="rotate(80.259732)" />
    <rect
       style="opacity:0.77999998;fill:#000000;fill-opacity:1;stroke:none;stroke-width:4.97056484;stroke-linecap:square;stroke-linejoin:miter;stroke-miterlimit:4;stroke-dasharray:none;stroke-dashoffset:2.29999995;stroke-opacity:1"
       id="rect896"
       width="60.173508"
       height="60.173508"
       x="-232.82826"
       y="-23.708035"
       ry="10.530363" />
    <rect
       ry="9.0008154"
       y="-19.337851"
       x="-228.45811"
       height="51.433231"
       width="51.433231"
       id="rect898"
       style="opacity:0.77999998;fill:#000000;fill-opacity:1;stroke:none;stroke-width:4.24858379;stroke-linecap:square;stroke-linejoin:miter;stroke-miterlimit:4;stroke-dasharray:none;stroke-dashoffset:2.29999995;stroke-opacity:1" />
    <path
       style="opacity:1;fill:#000000;fill-opacity:1;stroke:#000000;stroke-width:0.04813456;stroke-linecap:square;stroke-linejoin:miter;stroke-miterlimit:4;stroke-dasharray:none;stroke-dashoffset:2.29999995;stroke-opacity:1"
       d="m 145.56395,33.062071 c -4.00113,0 -7.22208,3.221158 -7.22208,7.22229 V 67.11003 c 0,0.860026 0.14974,1.683608 0.4231,2.447314 l 2.65839,-3.37695 c -0.0546,-0.331356 -0.0844,-0.671291 -0.0844,-1.018592 V 42.232569 c 0,-3.419971 2.75321,-6.173185 6.17318,-6.173185 h 22.7229 c 3.41997,0 6.17318,2.753214 6.17318,6.173185 v 22.929233 c 0,0.203791 -0.0101,0.405053 -0.0295,0.603664 l 2.74158,3.361005 c 0.18455,-0.639784 0.28526,-1.315749 0.28526,-2.016441 V 40.284361 c 0,-4.001132 -3.22116,-7.22229 -7.22229,-7.22229 z"
       id="rect900"
       inkscape:connector-curvature="0"
       sodipodi:nodetypes="sssccssssssccssss" />
    <path
       inkscape:connector-curvature="0"
       id="path909"
       d="m -347.36342,224.37874 -1.12021,2.28769 -17.82445,36.38544 h 39.02602 z m 0.067,5.70659 15.78299,30.39523 h -30.67225 z"
       style="color:#000000;font-style:normal;font-variant:normal;font-weight:normal;font-stretch:normal;font-size:medium;line-height:normal;font-family:sans-serif;font-variant-ligatures:normal;font-variant-position:normal;font-variant-caps:normal;font-variant-numeric:normal;font-variant-alternates:normal;font-feature-settings:normal;text-indent:0;text-align:start;text-decoration:none;text-decoration-line:none;text-decoration-style:solid;text-decoration-color:#000000;letter-spacing:normal;word-spacing:normal;text-transform:none;writing-mode:lr-tb;direction:ltr;text-orientation:mixed;dominant-baseline:auto;baseline-shift:baseline;text-anchor:start;white-space:normal;shape-padding:0;clip-rule:nonzero;display:inline;overflow:visible;visibility:visible;opacity:0.77999998;isolation:auto;mix-blend-mode:normal;color-interpolation:sRGB;color-interpolation-filters:linearRGB;solid-color:#000000;solid-opacity:1;vector-effect:none;fill:#d4aa00;fill-opacity:1;fill-rule:nonzero;stroke:none;stroke-width:2.57048345;stroke-linecap:square;stroke-linejoin:miter;stroke-miterlimit:4;stroke-dasharray:none;stroke-dashoffset:2.29999995;stroke-opacity:1;color-rendering:auto;image-rendering:auto;shape-rendering:auto;text-rendering:auto;enable-background:accumulate" />
    <path
       style="fill:none;stroke:#000000;stroke-width:3.07935238;stroke-linecap:butt;stroke-linejoin:miter;stroke-miterlimit:4;stroke-dasharray:none;stroke-opacity:1"
       d="m 158.68698,51.906174 -36.47377,46.331548 74.49662,0.28165 z"
       id="path911"
       inkscape:connector-curvature="0"
       sodipodi:nodetypes="cccc" />
    <path
       inkscape:connector-curvature="0"
       id="path924"
       style="font-style:normal;font-variant:normal;font-weight:normal;font-stretch:normal;font-size:117.94898224px;line-height:1.25;font-family:Cinzel;-inkscape-font-specification:'Cinzel, Normal';font-variant-ligatures:normal;font-variant-caps:normal;font-variant-numeric:normal;font-feature-settings:normal;text-align:start;letter-spacing:0px;word-spacing:0px;writing-mode:lr-tb;text-anchor:start;fill:#000000;fill-opacity:1;stroke:none;stroke-width:1.659706"
       d="m -47.356663,112.25806 h -4.248834 v 39.5673 q 0,1.72609 1.194983,2.98746 1.261376,1.19499 3.053851,1.19499 h 0.796649 l 0.06637,0.66388 h -14.53898 v -0.66388 h 0.863041 q 1.726083,0 2.921087,-1.19499 1.261356,-1.19498 1.327748,-2.92108 v -36.84538 q -0.06637,-1.7261 -1.327748,-2.92108 -1.195004,-1.26136 -2.921087,-1.26136 h -0.863041 v -0.66388 h 17.924773 q 6.04133,0 9.493496,3.38579 3.452186,3.3194 3.452186,8.69683 0,5.31105 -3.319401,9.22794 -3.253029,3.85052 -7.96657,3.85052 0.995826,0.46471 2.323574,1.85885 1.394161,1.32777 2.45636,2.7883 5.709368,8.16575 7.435471,10.09099 1.726083,1.85887 2.456359,2.58914 0.730277,0.66389 1.593319,1.32775 0.863041,0.66389 1.726082,1.06222 1.925261,0.92944 4.11607,0.92944 v 0.66388 h -3.651363 q -2.854674,0 -5.311033,-0.99583 -2.45636,-1.06222 -3.717736,-2.12441 -1.194983,-1.12859 -2.124417,-2.12442 -0.863042,-1.0622 -4.912719,-6.90435 -4.049678,-5.84216 -4.713562,-6.63882 -0.663864,-0.86305 -1.394141,-1.6597 -2.124417,-2.2572 -4.248835,-2.2572 v -0.66388 q 0.5311,0.0664 1.394141,0.0664 0.863041,0 2.124417,-0.0664 8.232141,-0.19912 10.356538,-6.90435 0.398334,-1.32777 0.398334,-2.45636 0,-1.19499 0,-1.52693 -0.132744,-4.44801 -2.323574,-7.16992 -2.19081,-2.72191 -5.908546,-2.92107 -1.593318,-0.0664 -3.983285,-0.0664 z" />
    <path
       inkscape:connector-curvature="0"
       id="path926"
       style="font-style:normal;font-variant:normal;font-weight:normal;font-stretch:normal;font-size:117.94898224px;line-height:1.25;font-family:Cinzel;-inkscape-font-specification:'Cinzel, Normal';font-variant-ligatures:normal;font-variant-caps:normal;font-variant-numeric:normal;font-feature-settings:normal;text-align:start;letter-spacing:0px;word-spacing:0px;writing-mode:lr-tb;text-anchor:start;fill:#000000;fill-opacity:1;stroke:none;stroke-width:1.659706"
       d="m -2.6806606,118.56492 q 5.1118762,-2.65552 11.219599,-2.65552 6.1740746,0 11.2859716,2.65552 5.111876,2.58915 8.099334,7.36908 3.053852,4.77995 3.053852,10.82126 0,6.04131 -3.053852,10.82127 -2.987458,4.77993 -8.099334,7.43545 -5.111897,2.58914 -10.4893226,2.58914 -5.3774461,0 -9.49349602,-1.52692 -4.11607018,-1.52693 -7.16992118,-4.24884 -2.9874592,-2.72191 -4.7799342,-6.63882 -1.726083,-3.91689 -1.726083,-9.16155 0,-5.31104 2.987459,-10.09099 3.0538512,-4.77993 8.1657274,-7.36908 z m -1.261376,31.79991 q 5.045504,5.24464 12.480975,5.24464 7.4354506,0 12.4809546,-5.24464 5.045484,-5.31105 5.045484,-13.60957 0,-8.29851 -5.045484,-13.54317 -5.045504,-5.31105 -12.4809546,-5.31105 -7.435471,0 -12.480975,5.31105 -4.9790912,5.24466 -4.9790912,13.54317 0,8.29852 4.9790912,13.60957 z" />
    <path
       inkscape:connector-curvature="0"
       id="path928"
       style="font-style:normal;font-variant:normal;font-weight:normal;font-stretch:normal;font-size:117.94898224px;line-height:1.25;font-family:Cinzel;-inkscape-font-specification:'Cinzel, Normal';font-variant-ligatures:normal;font-variant-caps:normal;font-variant-numeric:normal;font-feature-settings:normal;text-align:start;letter-spacing:0px;word-spacing:0px;writing-mode:lr-tb;text-anchor:start;fill:#000000;fill-opacity:1;stroke:none;stroke-width:1.659706"
       d="m 77.977672,117.50272 h -0.995826 q -1.792476,0 -2.72191,1.39414 -0.398334,0.5975 -0.464727,1.39416 v 22.37277 q 0,6.90437 -4.447992,10.95405 -4.38162,3.98328 -12.08264,3.98328 -7.701001,0 -12.149013,-3.98328 -4.447992,-3.98329 -4.447992,-10.88766 v -22.37276 q 0,-1.19501 -0.929434,-1.99166 -0.929434,-0.86304 -2.257202,-0.86304 h -0.995827 v -0.66388 h 12.61374 v 0.66388 h -0.995826 q -1.327748,0 -2.257182,0.86304 -0.929434,0.79665 -0.929434,1.99166 v 21.57611 q 0,6.43965 3.253008,10.15738 3.319401,3.71774 9.294339,3.71774 6.04131,0 9.626261,-3.51858 3.651343,-3.51856 3.651343,-9.62628 v -22.30637 q -0.06637,-1.26138 -0.995806,-2.05805 -0.863062,-0.79665 -2.19081,-0.79665 h -0.995826 v -0.66388 h 11.418756 z" />
    <path
       inkscape:connector-curvature="0"
       id="path930"
       style="font-style:normal;font-variant:normal;font-weight:normal;font-stretch:normal;font-size:117.94898224px;line-height:1.25;font-family:Cinzel;-inkscape-font-specification:'Cinzel, Normal';font-variant-ligatures:normal;font-variant-caps:normal;font-variant-numeric:normal;font-feature-settings:normal;text-align:start;letter-spacing:0px;word-spacing:0px;writing-mode:lr-tb;text-anchor:start;fill:#000000;fill-opacity:1;stroke:none;stroke-width:1.659706"
       d="m 129.42524,117.50272 q -1.46053,0 -2.52273,0.99583 -1.06222,0.92943 -1.12861,2.32357 v 28.28133 q 0,3.8505 0.46472,7.30269 l 0.13275,1.19498 h -0.59749 L 91.252099,124.8718 v 27.68382 q 0,1.46053 1.062198,2.45636 1.062199,0.99583 2.589145,0.99583 h 1.128591 v 0.66388 H 83.484685 v -0.66388 h 1.128592 q 1.526925,0 2.589144,-0.99583 1.062199,-0.99583 1.062199,-2.45636 v -28.4141 q 0,-4.04967 -0.464707,-7.23629 l -0.132745,-1.06222 0.730277,0.0664 34.455405,32.46378 v -27.55106 q -0.13274,-1.39414 -1.19498,-2.32357 -1.06222,-0.99583 -2.52275,-0.99583 h -1.12859 v -0.66388 h 12.54734 v 0.66388 z" />
    <path
       inkscape:connector-curvature="0"
       id="path932"
       style="font-style:normal;font-variant:normal;font-weight:normal;font-stretch:normal;font-size:117.94898224px;line-height:1.25;font-family:Cinzel;-inkscape-font-specification:'Cinzel, Normal';font-variant-ligatures:normal;font-variant-caps:normal;font-variant-numeric:normal;font-feature-settings:normal;text-align:start;letter-spacing:0px;word-spacing:0px;writing-mode:lr-tb;text-anchor:start;fill:#000000;fill-opacity:1;stroke:none;stroke-width:1.659706"
       d="m 179.54506,136.75526 q 0,9.22795 -5.77576,14.60538 -5.70937,5.31105 -15.53481,5.31105 h -22.17362 v -0.66388 h 0.86306 q 1.5933,0 2.65551,-1.0622 1.0622,-1.06222 1.1286,-2.52275 v -31.33519 q -0.0664,-1.59331 -1.19499,-2.58912 -1.0622,-0.99583 -2.65551,-0.99583 h -0.79667 v -0.66388 h 22.17362 q 6.50604,0 11.28598,2.38997 4.84632,2.38998 7.43547,6.90437 2.58912,4.51438 2.58912,10.62208 z m -34.5218,-17.92477 v 35.84955 h 13.21123 q 7.63463,0 12.08262,-4.77994 4.44802,-4.84632 4.44802,-13.14484 0,-8.29851 -4.44802,-13.07844 -4.44799,-4.84633 -12.08262,-4.84633 z" />
    <path
       inkscape:connector-curvature="0"
       id="path934"
       style="font-style:normal;font-variant:normal;font-weight:normal;font-stretch:normal;font-size:117.94898224px;line-height:1.25;font-family:Cinzel;-inkscape-font-specification:'Cinzel, Normal';font-variant-ligatures:normal;font-variant-caps:normal;font-variant-numeric:normal;font-feature-settings:normal;text-align:start;letter-spacing:0px;word-spacing:0px;writing-mode:lr-tb;text-anchor:start;fill:#000000;fill-opacity:1;stroke:none;stroke-width:1.659706"
       d="m 233.18345,156.00781 h 0.5311 v 0.66388 h -14.93731 v -0.66388 h 0.59749 q 1.39414,0 2.05802,-0.86305 0.73028,-0.92943 0.73028,-1.7261 0,-0.79665 -0.26555,-1.5933 l -4.24883,-11.28597 h -17.92479 l -4.44801,11.35235 q -0.26555,0.79666 -0.26555,1.59331 0,0.73028 0.66388,1.65971 0.73028,0.86305 2.12442,0.86305 h 0.59749 v 0.66388 h -13.344 v -0.66388 h 0.5975 q 1.65971,0 3.253,-1.0622 1.59332,-1.06222 2.58915,-3.12025 l 15.0037,-35.7168 q 2.45636,-5.37742 2.45636,-6.83796 h 0.59749 l 17.79201,42.55476 q 0.92943,2.05803 2.52275,3.12025 1.5933,1.0622 3.3194,1.0622 z m -32.66294,-17.46007 h 16.33147 l -7.96657,-21.31057 z" />
    <path
       inkscape:connector-curvature="0"
       id="path936"
       style="font-style:normal;font-variant:normal;font-weight:normal;font-stretch:normal;font-size:117.94898224px;line-height:1.25;font-family:Cinzel;-inkscape-font-specification:'Cinzel, Normal';font-variant-ligatures:normal;font-variant-caps:normal;font-variant-numeric:normal;font-feature-settings:normal;text-align:start;letter-spacing:0px;word-spacing:0px;writing-mode:lr-tb;text-anchor:start;fill:#000000;fill-opacity:1;stroke:none;stroke-width:1.659706"
       d="m 260.99688,157.60112 q -9.89183,-0.0664 -15.86675,-5.64299 -5.90854,-5.64298 -5.90854,-15.20287 0,-9.62628 5.90854,-15.20286 5.97492,-5.643 15.33565,-5.643 9.4271,0 15.99951,3.98329 l 1.46054,9.4271 h -0.59749 q -1.39415,-5.84215 -5.44382,-8.63045 -3.98329,-2.7883 -11.35237,-2.7883 -7.30268,0 -11.94985,5.11189 -4.58078,5.04549 -4.58078,13.74233 0,8.69683 4.64717,13.80873 4.64717,5.04548 12.8129,5.04548 8.23212,0 14.14066,-5.77576 l 0.0664,-8.82961 q 0.0664,-1.19498 -0.79666,-1.85887 -0.79665,-0.73026 -2.25719,-0.73026 h -0.92943 v -0.66388 h 12.14901 v 0.66388 h -0.92943 q -2.98746,0 -2.98746,2.65552 v 7.96657 q -2.7883,3.45217 -7.70102,6.04131 -4.84633,2.52275 -11.21958,2.52275 z" />
    <path
       inkscape:connector-curvature="0"
       id="path938"
       style="font-style:normal;font-variant:normal;font-weight:normal;font-stretch:normal;font-size:117.94898224px;line-height:1.25;font-family:Cinzel;-inkscape-font-specification:'Cinzel, Normal';font-variant-ligatures:normal;font-variant-caps:normal;font-variant-numeric:normal;font-feature-settings:normal;text-align:start;letter-spacing:0px;word-spacing:0px;writing-mode:lr-tb;text-anchor:start;fill:#000000;fill-opacity:1;stroke:none;stroke-width:1.659706"
       d="m 290.27084,156.00781 q 1.5933,0 2.65552,-0.99583 1.12859,-1.0622 1.19498,-2.52275 v -31.40156 q -0.0664,-1.46053 -1.26138,-2.52275 -1.12859,-1.0622 -2.7219,-1.0622 h -0.79665 v -0.66388 h 13.74233 v 0.66388 h -0.79667 q -1.5933,0 -2.78828,1.0622 -1.12861,1.06222 -1.12861,2.52275 v 33.52597 h 10.35655 q 3.05383,0 5.17827,-1.06219 2.1244,-1.06222 3.18662,-2.52276 1.12859,-1.46053 2.19081,-3.8505 h 0.66388 l -3.65134,9.4935 h -26.95356 v -0.66388 z" />
    <path
       inkscape:connector-curvature="0"
       id="path940"
       style="font-style:normal;font-variant:normal;font-weight:normal;font-stretch:normal;font-size:117.94898224px;line-height:1.25;font-family:Cinzel;-inkscape-font-specification:'Cinzel, Normal';font-variant-ligatures:normal;font-variant-caps:normal;font-variant-numeric:normal;font-feature-settings:normal;text-align:start;letter-spacing:0px;word-spacing:0px;writing-mode:lr-tb;text-anchor:start;fill:#000000;fill-opacity:1;stroke:none;stroke-width:1.659706"
       d="m 326.38278,156.00781 q 1.59332,0 2.65552,-0.99583 1.12861,-1.0622 1.19498,-2.52275 v -31.53432 q 0,-1.46055 -1.12859,-2.45636 -1.12859,-0.99583 -2.72191,-0.99583 h -0.92943 v -0.66388 h 19.3853 q 2.72193,0 4.77996,-0.39834 2.05804,-0.39831 2.65553,-0.66386 v 7.56824 l -0.73027,-0.0664 v -0.99582 q 0,-1.39414 -0.92944,-2.38997 -0.92943,-0.99583 -2.38998,-0.99583 h -13.80873 v 16.86258 h 11.35237 q 1.32776,0 1.99165,-0.79665 0.73028,-0.79667 0.73028,-1.99165 v -0.86304 h 0.73025 v 9.29433 h -0.73025 v -0.86304 q 0,-1.85887 -1.39417,-2.52275 -0.5311,-0.19912 -1.12859,-0.26555 h -11.55154 v 16.86256 h 10.42293 q 3.05387,0 5.1119,-1.0622 2.12442,-1.06222 3.18663,-2.52276 1.1286,-1.46053 2.25719,-3.8505 h 0.66388 l -3.65134,9.4935 h -26.95356 v -0.66388 z" />
    <path
       inkscape:connector-curvature="0"
       id="path942"
       style="font-style:normal;font-variant:normal;font-weight:normal;font-stretch:normal;font-size:117.94898224px;line-height:1.25;font-family:Cinzel;-inkscape-font-specification:'Cinzel, Normal';font-variant-ligatures:normal;font-variant-caps:normal;font-variant-numeric:normal;font-feature-settings:normal;text-align:start;letter-spacing:0px;word-spacing:0px;writing-mode:lr-tb;text-anchor:start;fill:#000000;fill-opacity:1;stroke:none;stroke-width:1.659706"
       d="m 381.94644,118.7641 v 33.72513 q 0.0664,2.05804 1.99165,3.05387 0.86304,0.46471 1.92524,0.46471 h 0.73028 v 0.66388 h -13.67594 v -0.66388 h 0.79665 q 1.59332,0 2.72191,-1.0622 1.12859,-1.06222 1.19498,-2.52275 V 118.7641 h -12.01625 q -1.52692,0 -2.45634,0.99582 -0.86306,0.99581 -0.86306,2.38997 v 1.0622 h -0.73025 v -7.50184 q 1.32774,0.5311 3.71771,0.79665 2.45636,0.26555 3.65136,0.26555 h 21.64251 q 4.77994,0 7.43545,-1.0622 v 7.50184 h -0.73025 v -1.0622 q 0,-1.39416 -0.92944,-2.38997 -0.92943,-0.99582 -2.38996,-0.99582 z" />
    <rect
       style="opacity:1;fill:#000000;fill-opacity:1;stroke:#000000;stroke-width:0.06236786;stroke-linecap:square;stroke-linejoin:miter;stroke-miterlimit:4;stroke-dasharray:none;stroke-dashoffset:2.29999995;stroke-opacity:1"
       id="rect955"
       width="442.50452"
       height="1.6958814"
       x="-51.184929"
       y="164.72417"
       ry="0.84794068" />
  </g>
</svg>
