<?xml version="1.0" encoding="UTF-8" standalone="no"?>
<!-- Generator: Adobe Illustrator 16.0.0, SVG Export Plug-In . SVG Version: 6.00 Build 0)  -->

<svg
   xmlns:dc="http://purl.org/dc/elements/1.1/"
   xmlns:cc="http://creativecommons.org/ns#"
   xmlns:rdf="http://www.w3.org/1999/02/22-rdf-syntax-ns#"
   xmlns:svg="http://www.w3.org/2000/svg"
   xmlns="http://www.w3.org/2000/svg"
   xmlns:sodipodi="http://sodipodi.sourceforge.net/DTD/sodipodi-0.dtd"
   xmlns:inkscape="http://www.inkscape.org/namespaces/inkscape"
   version="1.1"
   id="Layer_1"
   x="0px"
   y="0px"
   width="40"
   height="40"
   viewBox="0 0 40 40"
   enable-background="new 0 0 512 512"
   xml:space="preserve"
   sodipodi:docname="twitter.svg"
   inkscape:version="0.92.2 (5c3e80d, 2017-08-06)"><metadata
     id="metadata15265"><rdf:RDF><cc:Work
         rdf:about=""><dc:format>image/svg+xml</dc:format><dc:type
           rdf:resource="http://purl.org/dc/dcmitype/StillImage" /><dc:title></dc:title></cc:Work></rdf:RDF></metadata><defs
     id="defs15263" /><sodipodi:namedview
     pagecolor="#ffffff"
     bordercolor="#666666"
     borderopacity="1"
     objecttolerance="10"
     gridtolerance="10"
     guidetolerance="10"
     inkscape:pageopacity="0"
     inkscape:pageshadow="2"
     inkscape:window-width="1366"
     inkscape:window-height="705"
     id="namedview15261"
     showgrid="false"
     inkscape:zoom="5.2149125"
     inkscape:cx="59.323462"
     inkscape:cy="25.645706"
     inkscape:window-x="-8"
     inkscape:window-y="-8"
     inkscape:window-maximized="1"
     inkscape:current-layer="Layer_1" /><path
     d="m 29.42909,13.750292 c 0,-1.662589 -1.324923,-2.987601 -2.987608,-2.987601 H 13.6471 c -1.662595,0 -3.033277,1.325012 -3.033277,2.987601 v 12.794347 c 0,1.662683 1.370682,3.03327 3.033277,3.03327 h 12.794382 c 1.662685,0 2.987608,-1.370587 2.987608,-3.03327 z m -3.922845,6.562537 c -0.254829,1.042373 -0.861575,1.977426 -1.648574,2.698067 -1.531481,1.386525 -3.652583,2.051132 -5.702076,1.919197 -1.970261,-0.120377 -3.909147,-1.091419 -5.072952,-2.702723 0.101792,0.05936 0.187147,0.14153 0.284328,0.207469 0.901078,0.651912 2.100736,0.859153 3.172063,0.568109 0.650087,-0.167783 1.240439,-0.531393 1.711916,-1.006339 -0.301684,0.02037 -0.636523,-0.0333 -0.855137,-0.260536 -0.136323,-0.129919 -0.192581,-0.343468 -0.110607,-0.517419 0.09924,-0.219616 0.319724,-0.344518 0.528062,-0.442843 -0.683699,0.09778 -1.428775,-0.22085 -1.743931,-0.852939 0.230991,-0.275607 0.600126,-0.363792 0.943048,-0.390828 -0.399095,-0.116315 -0.808921,-0.258709 -1.111472,-0.556554 -0.240535,-0.225466 -0.396855,-0.5382 -0.44371,-0.86395 0.282503,-0.05256 0.566102,-0.116872 0.855681,-0.104724 -0.656478,-0.341732 -1.256603,-0.992366 -1.204265,-1.779089 1.245049,0.454215 2.469959,0.972089 3.639658,1.597557 0.409185,0.224688 0.749504,0.550117 1.083932,0.870934 0.324107,-0.841567 0.671915,-1.68638 1.199109,-2.424649 0.282592,-0.388361 0.615878,-0.749777 1.025247,-1.005657 -0.01596,0.127231 -0.08119,0.238297 -0.141668,0.34863 0.305702,-0.230669 0.659811,-0.409185 1.044201,-0.454213 -0.05329,0.229755 -0.271176,0.350045 -0.461249,0.454488 0.286843,-0.08481 0.566468,-0.209936 0.868927,-0.230579 0.08052,-0.003 0.19569,5.42e-4 0.224324,0.09435 0.04338,0.116871 -0.07495,0.207516 -0.164592,0.256199 -0.329816,0.170248 -0.711281,0.195232 -1.046804,0.35251 0.689634,-0.06476 1.37808,0.202584 1.901027,0.643829 0.624145,0.51381 1.036666,1.257651 1.187143,2.04862 0.551807,0.14828 1.148234,0.04097 1.665973,-0.179156 -0.260355,0.589621 -0.92332,0.858834 -1.528923,0.911353 0.503262,0.189977 1.057034,0.22231 1.588976,0.16591 -0.421653,0.467412 -1.074159,0.64926 -1.687666,0.634965 z"
     id="path15258"
     inkscape:connector-curvature="0"
     style="fill:#635c45;fill-opacity:1;stroke-width:0.04566807" /><path
     style="fill:#635c45;fill-opacity:1;fill-rule:evenodd;stroke-width:1.2000066"
     d="M 20.192498,0.64544356 A 19.525529,19.525529 0 0 0 0.49921577,19.826309 19.525529,19.525529 0 0 0 19.506709,39.689111 19.525529,19.525529 0 0 0 39.535179,20.856918 l 0.01155,-0.687715 A 19.525529,19.525529 0 0 0 20.192498,0.64544356 Z M 20.169378,3.3192454 A 16.850709,16.850709 0 0 1 36.872935,20.169203 L 36.861385,20.7606 A 16.850709,16.850709 0 0 1 19.577985,37.015309 16.850709,16.850709 0 0 1 3.1730177,19.874469 16.850709,16.850709 0 0 1 20.16938,3.3192454 Z"
     id="path14118"
     inkscape:connector-curvature="0" /></svg>